<svg xmlns="http://www.w3.org/2000/svg" xmlns:xlink="http://www.w3.org/1999/xlink" viewBox="0 0 545 715.05"><defs><style>.cls-1{fill:#73210d;}.cls-2{fill:url(#Безымянный_градиент_9);}.cls-3{fill:#b31410;}.cls-4{fill:url(#Безымянный_градиент_7);}.cls-5{fill:#a97645;}.cls-6{fill:#845c21;}.cls-7{fill:#855627;}.cls-8{fill:url(#Безымянный_градиент_33);}.cls-9{fill:url(#Безымянный_градиент_33-2);}.cls-10{fill:url(#Безымянный_градиент_39);}.cls-11{fill:url(#Безымянный_градиент_42);}.cls-12{fill:url(#Безымянный_градиент_42-2);}.cls-13{fill:url(#Безымянный_градиент_46);}.cls-14{fill:url(#Безымянный_градиент_42-3);}.cls-15{fill:url(#Безымянный_градиент_42-4);}.cls-16{fill:url(#Безымянный_градиент_51);}.cls-17{fill:url(#Безымянный_градиент_59);}.cls-18{fill:url(#Безымянный_градиент_42-5);}.cls-19{fill:url(#Безымянный_градиент_68);}.cls-20{fill:url(#Безымянный_градиент_51-2);}.cls-21{fill:url(#Безымянный_градиент_51-3);}.cls-22{fill:url(#Безымянный_градиент_51-4);}.cls-23{fill:url(#Безымянный_градиент_68-2);}.cls-24{fill:url(#Безымянный_градиент_68-3);}.cls-25{fill:url(#Безымянный_градиент_51-5);}.cls-26{fill:url(#Безымянный_градиент_51-6);}.cls-27{fill:url(#Безымянный_градиент_68-4);}.cls-28{fill:url(#Безымянный_градиент_59-2);}.cls-29{fill:url(#Безымянный_градиент_39-2);}.cls-30{fill:url(#Безымянный_градиент_51-7);}.cls-31{fill:url(#Безымянный_градиент_42-6);}.cls-32{fill:url(#Безымянный_градиент_42-7);}.cls-33{fill:url(#Безымянный_градиент_51-8);}.cls-34{fill:url(#Безымянный_градиент_9-2);}.cls-35{fill:url(#Безымянный_градиент_9-3);}.cls-36{fill:url(#Безымянный_градиент_9-4);}.cls-37{fill:url(#Безымянный_градиент_9-5);}.cls-38{fill:url(#Безымянный_градиент_9-6);}.cls-39{fill:url(#Безымянный_градиент_9-7);}</style><linearGradient id="Безымянный_градиент_9" x1="203.95" y1="7.12" x2="203.95" y2="442.37" gradientUnits="userSpaceOnUse"><stop offset="0" stop-color="#e3070a"/><stop offset="1" stop-color="#69240d"/></linearGradient><linearGradient id="Безымянный_градиент_7" x1="422.79" y1="37.99" x2="422.79" y2="203.16" gradientUnits="userSpaceOnUse"><stop offset="0" stop-color="#e3070a"/><stop offset="1" stop-color="#692208"/></linearGradient><linearGradient id="Безымянный_градиент_33" x1="384.38" y1="232.43" x2="341.37" y2="232.43" gradientUnits="userSpaceOnUse"><stop offset="0" stop-color="#fabd76"/><stop offset="1" stop-color="#ab8248"/></linearGradient><linearGradient id="Безымянный_градиент_33-2" x1="351.88" y1="258.06" x2="325.62" y2="258.06" xlink:href="#Безымянный_градиент_33"/><linearGradient id="Безымянный_градиент_39" x1="120.5" y1="247.25" x2="341.67" y2="247.25" gradientUnits="userSpaceOnUse"><stop offset="0" stop-color="#ab8248"/><stop offset="0.51" stop-color="#eda543"/><stop offset="1" stop-color="#ab8248"/></linearGradient><linearGradient id="Безымянный_градиент_42" x1="155.33" y1="239.76" x2="324.83" y2="239.76" gradientUnits="userSpaceOnUse"><stop offset="0" stop-color="#ab8248"/><stop offset="0.51" stop-color="#ffb746"/><stop offset="1" stop-color="#ab8248"/></linearGradient><linearGradient id="Безымянный_градиент_42-2" x1="166.5" y1="288.4" x2="362.19" y2="288.4" xlink:href="#Безымянный_градиент_42"/><linearGradient id="Безымянный_градиент_46" x1="373.61" y1="316.01" x2="358.41" y2="324.79" gradientUnits="userSpaceOnUse"><stop offset="0" stop-color="#a97e3d"/><stop offset="1" stop-color="#995d31"/></linearGradient><linearGradient id="Безымянный_градиент_42-3" x1="374.49" y1="336.99" x2="365.33" y2="342.28" xlink:href="#Безымянный_градиент_42"/><linearGradient id="Безымянный_градиент_42-4" x1="247.9" y1="334.35" x2="346.08" y2="334.35" xlink:href="#Безымянный_градиент_42"/><linearGradient id="Безымянный_градиент_51" x1="194.88" y1="291.05" x2="324.92" y2="291.05" gradientUnits="userSpaceOnUse"><stop offset="0" stop-color="#966a36"/><stop offset="0.51" stop-color="#b7854e"/><stop offset="1" stop-color="#966a36"/></linearGradient><radialGradient id="Безымянный_градиент_59" cx="230.65" cy="299.27" r="70.74" gradientUnits="userSpaceOnUse"><stop offset="0.35" stop-color="#ffb746"/><stop offset="1" stop-color="#ab8248"/></radialGradient><linearGradient id="Безымянный_градиент_42-5" x1="251.38" y1="348.2" x2="353.5" y2="348.2" xlink:href="#Безымянный_градиент_42"/><radialGradient id="Безымянный_градиент_68" cx="367.75" cy="351.37" r="18.12" gradientUnits="userSpaceOnUse"><stop offset="0" stop-color="#ffb746"/><stop offset="0.2" stop-color="#fab446"/><stop offset="0.43" stop-color="#ecab46"/><stop offset="0.68" stop-color="#d59d47"/><stop offset="0.93" stop-color="#b58948"/><stop offset="1" stop-color="#ab8248"/></radialGradient><linearGradient id="Безымянный_градиент_51-2" x1="136.7" y1="326.6" x2="390.75" y2="326.6" xlink:href="#Безымянный_градиент_51"/><linearGradient id="Безымянный_градиент_51-3" x1="229.38" y1="381.62" x2="350.75" y2="381.62" xlink:href="#Безымянный_градиент_51"/><linearGradient id="Безымянный_градиент_51-4" x1="353.5" y1="377.99" x2="393.5" y2="377.99" xlink:href="#Безымянный_градиент_51"/><radialGradient id="Безымянный_градиент_68-2" cx="333.88" cy="426.66" r="19.91" xlink:href="#Безымянный_градиент_68"/><radialGradient id="Безымянный_градиент_68-3" cx="370.03" cy="396.44" r="12.01" xlink:href="#Безымянный_градиент_68"/><linearGradient id="Безымянный_градиент_51-5" x1="308.92" y1="426.41" x2="319.3" y2="426.41" xlink:href="#Безымянный_градиент_51"/><linearGradient id="Безымянный_градиент_51-6" x1="314.11" y1="429.7" x2="355.75" y2="429.7" xlink:href="#Безымянный_градиент_51"/><radialGradient id="Безымянный_градиент_68-4" cx="268.46" cy="401.48" r="21.45" xlink:href="#Безымянный_градиент_68"/><radialGradient id="Безымянный_градиент_59-2" cx="180.55" cy="326.6" r="44.3" xlink:href="#Безымянный_градиент_59"/><linearGradient id="Безымянный_градиент_39-2" x1="123.07" y1="413.62" x2="291.42" y2="413.62" xlink:href="#Безымянный_градиент_39"/><linearGradient id="Безымянный_градиент_51-7" x1="113.09" y1="452.15" x2="311.15" y2="452.15" xlink:href="#Безымянный_градиент_51"/><linearGradient id="Безымянный_градиент_42-6" x1="348.75" y1="479.03" x2="362.5" y2="479.03" xlink:href="#Безымянный_градиент_42"/><linearGradient id="Безымянный_градиент_42-7" x1="366.83" y1="441.74" x2="379.75" y2="441.74" xlink:href="#Безымянный_градиент_42"/><linearGradient id="Безымянный_градиент_51-8" x1="356.67" y1="460.12" x2="384.84" y2="460.12" xlink:href="#Безымянный_градиент_51"/><linearGradient id="Безымянный_градиент_9-2" x1="38.63" y1="616.49" x2="38.63" y2="713.62" xlink:href="#Безымянный_градиент_9"/><linearGradient id="Безымянный_градиент_9-3" x1="119.31" y1="616.49" x2="119.31" y2="713.62" xlink:href="#Безымянный_градиент_9"/><linearGradient id="Безымянный_градиент_9-4" x1="214.83" y1="615.09" x2="214.83" y2="714.7" xlink:href="#Безымянный_градиент_9"/><linearGradient id="Безымянный_градиент_9-5" x1="292.38" y1="615.87" x2="292.38" y2="713.74" xlink:href="#Безымянный_градиент_9"/><linearGradient id="Безымянный_градиент_9-6" x1="373" y1="615.09" x2="373" y2="715.05" xlink:href="#Безымянный_градиент_9"/><linearGradient id="Безымянный_градиент_9-7" x1="488.04" y1="616.24" x2="488.04" y2="714.66" xlink:href="#Безымянный_градиент_9"/></defs><title>lrgion</title><g id="Слой_2" data-name="Слой 2"><g id="Слой_1-2" data-name="Слой 1"><path d="M315,556.27s-4.8-24.86-8.08-49.91-5.68-54.44-5.68-54.44h2.84v3.64l8.26,6.84L341,469.07l10.83-5.51s-1.78,32.32-3.29,52.3-2.22,34.37-2.22,34.37l7.55,2.22s3.46-4.88,5-7.55,3.11-9.32,3.11-9.32,3.2-21,4.53-34.54,2.84-25.58,4.44-34.19,4-23.09,4-23.09,4-13.23,6.22-21.13,1.78-13.76,2.66-17.49a138.73,138.73,0,0,0,3.11-15.45,102.9,102.9,0,0,0,1.33-13.85l8.44-6.93-2-12.88L392,352.29l-8.08-3.55a160.6,160.6,0,0,0-2.84-15.81c-2-8.88-11.1-29.57-16-39.78s-14.39-26.37-14.39-26.37l5.06-19.09,26.46.62a35.06,35.06,0,0,1-.71-8.88c.27-4.71,5.77-18.83,5.77-18.83s4.35.09,6.48,0a8.19,8.19,0,0,0,3.29-.71l3.11-8.17-7.1-12.08s22.47-41.83,23.53-44.22,19.38-28.65,26.55-38.1C460,95.21,474.47,82,488.38,73.54a103.92,103.92,0,0,1,15.25-7.81V63.51s-7.08-7.9-25.46-18.56S372.58-5.49,276.14.64c-75.5,4.8-146.35,42.18-180.8,92.44C51.42,157.15,44,212.74,41.37,276,37.68,366,67.46,453.8,67.46,453.8a57.74,57.74,0,0,0,11.9-.36c5-.89,11.19-4.8,11.19-4.8a131.94,131.94,0,0,1,3.55-40,161.85,161.85,0,0,1,16-39.07s-.89,12.79,12.43,19,27.53-7.1,39.07-5.33,7.3,27,7.1,39.43c-.27,17.9-5.2,34.23,23.09,58.25,29.48,25,55.41,41,82.41,56.12S315,556.27,315,556.27Z"/><path class="cls-1" d="M70.6,451.72a168.5,168.5,0,0,1,.59-22.85c1.18-12.67,1.54-18.35,5.92-24.51s11.25-12.55,14.21-15.16a24.13,24.13,0,0,1,7.34-4s-3.79,6.75-8.53,28.65S88,447.58,88,447.58a13.54,13.54,0,0,1-2.37,1.3,12.67,12.67,0,0,1-2.49.59s-.65-8.35-.47-15.57,1.07-16.81,1.07-16.81a25.68,25.68,0,0,0-3.26,9c-1,5.62-2.37,24.75-2.37,24.75Z"/><path class="cls-2" d="M67.4,442.37s2.84-27.35,4-34.46,2-9.35,6.75-20.37,14-31.38,21.08-44.28a114.34,114.34,0,0,1,14.21-20.6,6.58,6.58,0,0,1-4.14-1.18c-2-1.42-2.84-4.85-2.6-9.95s3.08-22.26,5.92-35.88,9.83-32.8,16.58-46.41,17.29-26.4,24.15-33.27,10.42-8.29,10.42-8.29-1.89-5.8-9.83-16.1-20.6-22.73-20.6-22.73,9.12,4.74,21,18.35,13.85,17.52,13.85,17.52,10.3-7.58,30.67-12.55,32.8-3.79,32.8-3.79a139.09,139.09,0,0,0-2.6-34.22c-3.79-19.06-11.13-34.69-13.85-38.84s-7.1-10.66-7.1-10.66,8.41,7.1,14.21,20.72,8.41,19.77,10.54,34.57a201.78,201.78,0,0,1,1.89,28.54s7.81-2.49,37.65,2.13,44.41,13,44.41,13a262.2,262.2,0,0,0,5.09-41.8c.83-22.5-.71-32.21-1.54-38.13s-1.18-9.12-1.18-9.12,4.85,11,6.16,31.38a199.74,199.74,0,0,1-2,45.23c-1.54,9.47-2.37,15-2.37,15s4.85,2.25,10.42,5.45,12.08,7.93,12.08,7.93a379.08,379.08,0,0,0,14.45-58.37c5.33-32.56,7.46-63,4.5-84.3s-4.74-20-10.66-23.33-4.38-1.78-4.38-1.78a231.06,231.06,0,0,1,1.78,24.75,221.26,221.26,0,0,1-1.54,27.59,340,340,0,0,0-5-33.74c-3.32-15.63-6-22.38-7.46-24.15S317.94,18.61,300.18,14s-38.72-8.53-55.06-6.16-14,3.32-14,3.32a134,134,0,0,1,15,21.19C253.29,44.77,258,64.66,258,64.66s-4.74-10.89-8.53-17.41-13-18.23-17.17-22.61S222,14,220.85,13.75s-17.41,4.38-36.11,12.08S124.23,57.8,97,96.28s-36.7,75.78-36.7,75.78,6.51,4.5,10.66,8.05S82.2,193.37,82.2,193.37A165.2,165.2,0,0,0,68,183.66a53.91,53.91,0,0,0-10.06-4.74S46.68,224.39,45,256.71s-.59,67.84,1.78,86.2,3.08,22.5,3.08,22.5,6.39-11.25,13.5-21.9a84.23,84.23,0,0,1,15.16-17.17s-14,23.56-18.35,33.86-6.94,18.91-6.51,26.29,3.2,20.25,6.51,32.44S67.4,442.37,67.4,442.37Z"/><path class="cls-3" d="M393.25,36.37s-8.5-.25-18.12-.62-15.12.13-17.25-1.25-9.25-5.62-9.25-5.62,2.38-1.12,4-2,3.75-2.37,3.75-2.37-7.37-.75-11.5-1-9.12-.25-12.87-1.87A197.34,197.34,0,0,0,300.25,11,367.54,367.54,0,0,0,263.5,4.12S290.38,2.49,310,2.87s61,6.44,98.25,16.72,55.88,19.65,68.63,26.78,18.75,13.13,18.75,13.13A84.51,84.51,0,0,1,481,52.62c-7.25-4.37-12.87-8.12-12.87-8.12s2.38,2.38,3.38,3.63l1,1.25s-14.87-3.62-20.25-5.25-9.12-3.62-12.25-4.75a56.29,56.29,0,0,0-5.87-1.75L437.75,41l-18.37-2.5c-11-1.5-14.87-1.62-17.75-2.5s-5.12-3-7.87-4a9.81,9.81,0,0,0-4-.84,15.32,15.32,0,0,1,2.75,3.22A11.38,11.38,0,0,1,393.25,36.37Z"/><path class="cls-4" d="M346.83,200.83l31.83,2.33s6.83-14.17,15-28.5S407.42,152,407.42,152s-12.5,24.75-17.5,34.75-6,16.42-6,16.42h4.17s3.58-7.08,7.08-13.92,12.58-24.75,20.67-37.67,22.42-34.5,40.58-53.92S490.67,69,493.58,67.41s5.17-2.67,5.17-2.67-3.42-1.75-7.08-3.58-5.92-2.67-7.42-2.67-6.67,2-14.17,8.17a91,91,0,0,0-19,22.08c-5.17,8.25-10.42,17.67-10.42,17.67s1.58-10.58,11-24.75a107.58,107.58,0,0,1,20.5-23.17c2.67-2.5,4.33-4.17,4.33-4.17a100.34,100.34,0,0,0-12.92-4.83,56.65,56.65,0,0,0-11.5-2.33s-3.5,7.33-6.83,14.17-6.42,13.33-6.42,13.33,2.67-11.25,4.75-17.92a104.58,104.58,0,0,0,2.92-11.25h-2.25a26.59,26.59,0,0,0-2.08,5.83,22.64,22.64,0,0,1-1.92,5.42l-.17-12.5a135.85,135.85,0,0,0-16.58-3.08A108.22,108.22,0,0,0,406.67,40s-2.25,10.08-5.83,24.25-8.42,29.33-8.42,29.33,1.83-14.83,2.08-30.42a236.1,236.1,0,0,0-.58-24.08L361.42,38s4,11.33,5,33.5-2.83,54.67-5.58,69-7.25,34.75-10,45.17S346.83,200.83,346.83,200.83Z"/><path class="cls-5" d="M109,314.08s2.5-36,15-66.67,26.33-50.83,57.5-66.33,77.67-8,102.17-2.17,39.17,16.67,45.83,20.83a117.23,117.23,0,0,1,12.17,8.83l-1.83,4.5a176.79,176.79,0,0,0-46.17-24.67c-27-9.5-54-15.67-91.17-9.5s-64.33,42-74.67,64.83-16.33,55.17-17.17,62.67-.5,9.17-.5,9.17Z"/><path class="cls-6" d="M285.13,176.62a176.51,176.51,0,0,1,32.5,12.75,173.8,173.8,0,0,1,26.75,17.75s17.25.38,31,1S396,209,396,209a17.12,17.12,0,0,0-1.87-3c-1.25-1.62-2.25-2.83-2.25-2.83l-2.12,3.46s-19.87-1.37-29.75-2.25-13.87-.29-16.25-1.21-11.37-8.42-24.25-14.67a180.9,180.9,0,0,0-26-10.37A30.1,30.1,0,0,0,285.13,176.62Z"/><path class="cls-7" d="M342.5,214.37l1.63-4.37s15.5.38,29.75,1,23,1.19,23,1.19l-1.75,5.06s-13.37-.87-26.37-1.37S342.5,214.37,342.5,214.37Z"/><path class="cls-8" d="M345,220.12s-2.67,2.5-3.33,9a86.28,86.28,0,0,0,0,14l36.83,1.63a40.73,40.73,0,0,1,.88-10.62c1.25-5.62,5-12.87,5-12.87Z"/><path class="cls-9" d="M325.63,245.74l26.25,3s-2.62,7.63-4.12,12.88a21.84,21.84,0,0,0-.92,8.75,91.13,91.13,0,0,0-10-.62,34.39,34.39,0,0,0-7.5.63,36,36,0,0,1-2.75-10.62A115.52,115.52,0,0,1,325.63,245.74Z"/><path class="cls-10" d="M338.75,241.37s-1.25-10.62,0-14.37,2.92-8.12,2.92-8.12-9.27-6.78-36-20.62c-25.37-13.12-74.54-27.37-110.25-13.87-41.51,15.69-62.75,62.13-68.62,84s-6.25,46.5-6.25,46.5h2.88a16,16,0,0,1,3.75.71s.75-22.83,6.5-39.08,15.75-36.5,38.5-51.75,53.38-24,88.63-17.75S338.75,241.37,338.75,241.37Z"/><path class="cls-11" d="M324.83,268.08s-1.17-5.33-2-12a41.61,41.61,0,0,1,0-11.33s-26-28.69-74.17-32.83c-62-5.33-93.33,36.17-93.33,36.17v7.67s29.36-27.46,86.33-20C283.67,241.24,324.83,268.08,324.83,268.08Z"/><path class="cls-12" d="M349.5,271.24s5.6,6.19,9.38,19.88c4,14.5,3.38,33.88,3.13,37.25a30.42,30.42,0,0,1-1.5,6.88,46.16,46.16,0,0,1-4.61-8.75c-1.39-4-2.18-10.11-7.64-13.75a8,8,0,0,0-5.37-1.25s-2.12,12.25-5.25,18.75a20.17,20.17,0,0,1-9.75,9.13s0-16.5-3-30-11.21-33.5-47.71-53.25c-43.95-23.78-85-11.63-92.5-9.88s-18.12,6.25-18.12,6.25,5.88-6.1,33.38-12.74,62.88,2.11,85.38,11.11,40.63,21.88,43.13,22.5,8.83-.25,13.29,0a28.48,28.48,0,0,1,6.71,1Z"/><path class="cls-13" d="M363.13,297.87a188.69,188.69,0,0,1,1.63,19.88,95.79,95.79,0,0,1-.81,16.63,14.58,14.58,0,0,1,7.06,0,26.75,26.75,0,0,1,6.88,3.38,90.61,90.61,0,0,0-5-19.37A131.36,131.36,0,0,0,363.13,297.87Z"/><path class="cls-14" d="M377.08,341.49a13,13,0,0,0-9.17-5.17c-6.25-.67-4.75,4.33-2.5,4.33s4.58-1,7.08-.83A10,10,0,0,1,377.08,341.49Z"/><path class="cls-15" d="M248.17,349.91c.94-2.91,7.67-15.92,20.58-20.67s27-3.08,36.42-.83,11.25,5.12,15.25,9.64,9.17,5.36,12.5,2.86,6.42-7.33,8.75-13.75,2.67-10.67,3.33-11.58,1.08-.25,1.08,2.42a40.4,40.4,0,0,1-5.58,17.5c-4,6.25-9.92,8.17-15.42,7.08s-12.33-8.17-26.08-11.25-27.42,1.25-37.67,9.58-9.95,10.74-12.58,12.5C247.75,354.08,247.74,351.22,248.17,349.91Z"/><path class="cls-16" d="M324.83,337.74a6.41,6.41,0,0,1-4.46-4.12c-1.25-3.5,2-10.29-5.62-27.12-8.62-19.12-26.64-34-51.25-45.62-22.5-10.63-33-13.21-52-14.13a111.78,111.78,0,0,0-16.62.5s8.74-4.69,37.25-2.13c29.63,2.66,52.38,17.67,69,31.25,16.38,13.38,21.13,29.63,22.63,41.44C325.39,330.71,324.83,337.74,324.83,337.74Z"/><path class="cls-17" d="M245.33,349.08a39.94,39.94,0,0,1,21.17-22c16.33-7.17,36.17-2.33,40.83-1a47.6,47.6,0,0,1,10,4.67s1.5-11.17-9-30.33-44.2-40.84-79.67-48.5a107.11,107.11,0,0,0-72.17,9.67c-9.5,5-13.33,7-12.5,17.5s10.83,25.83,32.5,40,43,24,54.15,27S245.33,349.08,245.33,349.08Z"/><path class="cls-18" d="M353,374.87s-28.77-1.87-51.62-6.18c-33.71-6.36-50-12.57-50-12.57s5.66-11.52,21-18.87c12-5.78,23.47-6.36,38,1.64,17,9.36,24.25,9.11,30,1.24s7.25-16.12,7.88-17.75,1.62-1.32,2.86,4.93c1.89,9.52,2.39,26.19,2.39,32.69S353,374.87,353,374.87Z"/><path class="cls-19" d="M354.42,329.49a38,38,0,0,0,.42,6.77,124.67,124.67,0,0,1,1.5,19.39c-.08,8.83,0,17.58,0,17.58s6.41-3.75,13.5-8.75,10.5-7.5,11.08-8.33-.08-6.75-3.83-10.67-6.27-3.44-9.33-2.69c-4,1-6.44-.62-8.44-3.44A49.53,49.53,0,0,1,354.42,329.49Z"/><path class="cls-20" d="M142.5,268.08s-3.12,10.29.63,19.17c3,7.14,8.46,17.42,26.63,30.58,5.44,3.94,22.5,16.52,45.17,25.83,19.55,8,30.08,8.21,30.08,8.21s.63,4.13,1.88,6,6.5,2.5,35.25,9.38,49.77,9.14,62.25,10,13.39-1.12,15.64-2.74,23.86-16.63,23.86-16.63v-5l3.38,1.25a35.64,35.64,0,0,1,3.5,1.88s-11.62,8.25-18.75,14.13-19.37,15-19.37,15-9-1-23.75-4.12-39.75-7.74-61.87-12.31-36.35-7.32-36.35-7.32-.52-5.37-1.77-7.25-14.75-7.37-25.62-12.12-37.5-19.25-51-34.25-16.62-27.19-15.25-34C137.76,270,142.5,268.08,142.5,268.08Z"/><path class="cls-21" d="M229.38,364.12v9.13s36.88,7.75,60,12.75,61.38,13.13,61.38,13.13V388.24s-33.5-5.87-64.12-12.5S229.38,364.12,229.38,364.12Z"/><path class="cls-22" d="M353.5,397.49l.89-9.87s26.11-20.12,30.61-23.5,7.88-5.62,7.88-5.62l.63,8.13s-10.25,8.13-19,15S353.5,397.49,353.5,397.49Z"/><path class="cls-23" d="M326.17,399.91l16.21,4.58s.79,7.25-.21,21.75-2.75,27.17-2.75,27.17l-14.33-3.83a146.24,146.24,0,0,0,3.33-24.92A114.82,114.82,0,0,0,326.17,399.91Z"/><path class="cls-24" d="M380.75,383.33a23.3,23.3,0,0,1-4.67,15.42c-5.67,7.83-10.58,11.33-13.08,10.75a6.54,6.54,0,0,1-3.75-2.5,19.62,19.62,0,0,1,4.43-5.17c2.82-2.25,5.57-4.58,7.4-7.92a34.14,34.14,0,0,0,2.79-7.25,33.45,33.45,0,0,1,.13,3.5,30.86,30.86,0,0,1-1,6,36,36,0,0,0,4.27-5.1A41.89,41.89,0,0,0,380.75,383.33Z"/><path class="cls-25" d="M312,398.58l2.67-1.08s5.17,6.83,4.58,26.83-7.67,31-7.67,31l-2.67-2.42a89.48,89.48,0,0,0,6.25-28.83C316,408.58,312,398.58,312,398.58Z"/><path class="cls-26" d="M317.42,395.66s4.29,9.41,4.42,25.25a89.81,89.81,0,0,1-7.73,36.5s23.48,5.5,25.81,6.08,4.83.83,6.67-1.25,5.83-4.58,7.08-6.25,1-2.75.58-6.92-1.75-16.75-.33-28.67,1.83-20,1.83-20-1.42,1.33-2.67,12-1.58,24.33-.92,32.08.83,9.58.83,9.58a57.59,57.59,0,0,1-4.5,3.75c-2.75,2.08-3.9,3.83-5.83,3.42s-6.34-2-11.51-3.42S321,455,321,455a244.64,244.64,0,0,0,4.75-31.42c.83-9.83-1.92-23-3.58-26.08C320.66,394.7,317.42,395.66,317.42,395.66Z"/><path class="cls-27" d="M250,385.91s6.21,14.88,16.75,20.92c13.06,7.48,18.31,6.48,21,7.25a18.21,18.21,0,0,1,6.25,3.33s-7,1.77-20.42-1.92c-12.76-3.51-22-13.17-26-19a30.36,30.36,0,0,1-4.71-11.37,56,56,0,0,0,3.33,4.79,17.93,17.93,0,0,0,3.33,3.08,26.25,26.25,0,0,1-.22-3.81A15.17,15.17,0,0,1,250,385.91Z"/><path class="cls-28" d="M226.33,367.91s-27-10.08-45.08-21.33-36.5-26.83-44.17-44.33c-6-13.65-2.92-17.33-2.33-16.92s5.33,14.58,18.08,26.67,25.28,20.2,38.58,27.38c14.75,8,32,12.78,34.92,16.38,2.33,2.92,1,3.33.33,6.42A19.09,19.09,0,0,0,226.33,367.91Z"/><path class="cls-29" d="M133.45,304.08s1.55,8.58,12.63,21.75,33.08,27.67,48.79,36,23.21,10.33,26.54,11.17,4.17,1.08,4.17,1.08.83.92,1.67,1.67a8.44,8.44,0,0,0,1.67,1.17s2.38,28.53,16.92,39.83C263.73,430.66,285,430,285,430s1.92,27.08,3.17,47.25,3.25,45.92,3.25,45.92S270.42,511.74,255,502s-45.75-30.33-53.83-38.25S188.33,447.66,188.08,430s1.92-41.75-4.33-53.5-21.33-13.67-30.08-11-11.58,10.25-17.67,8.75-14.25-15.17-12.75-22.5,8.33-14.08,9.58-21.33,0-19.33,0-21.83A17,17,0,0,1,133.45,304.08Z"/><path class="cls-30" d="M234.5,379.41s1.33,22.92,16.88,35.83,37,11.17,37,11.17,2.67,38.58,3.33,51.5,6.83,56.17,6.83,56.17a171.14,171.14,0,0,1-18.92-8.75c-10.42-5.58-40.42-24.08-50.42-30.75s-33.83-22.25-41.5-32.83-8.58-16.67-9.17-25.58,1.83-37.92.42-47.5-8.53-21.43-19.25-21.25-11.68,6.75-23,11.08-18-8.52-19-11.83c-1.92-6-2.08-14.17-2.08-14.17a33.07,33.07,0,0,0-1.5,20.75c5,19.85,24.19,15,29.81,11.88s18.36-7.62,22.61-3.29,6.75,12.5,5.75,31.79-1.75,36.88,4.33,46.88,21.86,24.65,55.33,47.33,79.24,44,79.24,44-4.9-22-7.57-43.48-5.42-45.25-6-67.67c-.48-18.35-1.08-19.67-1.08-19.67s-14.58.67-26.25-3.83-19.39-9.33-25.23-19.67-5.77-15.17-7-16.58A5.48,5.48,0,0,0,234.5,379.41Z"/><path class="cls-7" d="M127.92,333.41c-.8.28-8.08,7.75-9.17,16.67s1.5,18.75,5.83,22.5,8.25,3.75,8.25,3.75-5.83-5.25-8.5-9.58-6.42-13.42-1.67-21.92S129.58,332.83,127.92,333.41Z"/><path class="cls-7" d="M173.08,370.24s6.08,4.75,7.92,14.5.58,39.42.58,47.58.75,20.58,9.25,28.83,30.5,25.42,52,38.58,35.17,21.58,41.5,24.75,8.58,4,8.58,4L270,514c-7.92-5-30.75-17.67-44.75-27.92s-30.42-22-35.25-32.25-4.67-20.5-4.67-30.08-.26-32.06-2.25-40.83C180.55,371.74,173.08,370.24,173.08,370.24Z"/><path class="cls-31" d="M348.75,546.83l4.42,1.17s1.5-23.75,2.5-36.25,3.17-47.58,3.75-54.67,3.08-44.5,3.08-44.5l-4.5-2.5s-1.5,17.75-1.5,26.5.83,19.83.83,19.83a6.14,6.14,0,0,0-2.25,2.08c-.67,1.25-1.17,10.08-1.67,16.17s-2,36.92-2.92,47.58S348.75,546.83,348.75,546.83Z"/><path class="cls-32" d="M366.83,475.08a71.15,71.15,0,0,0,1.75-8.58c.42-3.67.83-7,1-7.83s.58-2.08.58-2.08a49.91,49.91,0,0,1,.42-9c.67-3.92,5.08-18.33,6.92-25.42a82.46,82.46,0,0,0,2.25-13.75,36.44,36.44,0,0,1-4.33,4.83c-2.25,2-4.25,2.25-4.75,7.25s-1.48,17.31-1.92,27.17a225.13,225.13,0,0,1-1.92,22.83Z"/><path class="cls-33" d="M356.67,541.58s.33-12.75,1.83-33.25,4.42-60,4.83-66l2.08-29.79s7.33-5.33,10.83-9.67,7.42-10.08,7.67-15.92a67.15,67.15,0,0,0,0-8.33s1.5,1.92.67,8.33a43.54,43.54,0,0,1-7.25,20c-3.83,5.67-7.92,6.08-8.75,9.33-1.56,6.07-2.08,20.08-2.75,30.92S365,468,365,468s-1.22.83-1.32,5-.35,11.42-1.18,20.33-2,30.67-3.08,37.33A58.56,58.56,0,0,1,356.67,541.58Z"/><path class="cls-34" d="M0,616.49H45.88V618s-5.25-.62-8.37,1.88-3.75,7.13-3.75,13.38v62.88c0,6.5,1.75,12.5,12.13,12.5s18.38.25,24.38-8.75S76,688.62,76,688.62h1.25l-2.87,25H0v-1.87s7.25.38,9.38-2.5,2.75-7.12,2.75-12.75V629.62c0-4.37-1.75-9.12-4.25-10.37S0,618,0,618Z"/><path class="cls-35" d="M82.63,616.49h70l.88,20.75H152s-1.37-4.37-2.75-7.5S144.63,621,134.88,621H115.75v41.25h17.5c5.88,0,10-1.87,11.25-5.62a32,32,0,0,0,1.5-6.25h1.25v28.13H146s-.87-7-5.25-9.12-6.37-1.5-11.5-1.5h-13.5v29a11.55,11.55,0,0,0,11.63,11.5c7.38,0,12.63.5,16.88-1.5s7.88-5.5,9.25-9.5a31.93,31.93,0,0,0,1.63-6.75h1.5l-.87,23H82v-1.5s6.75-.37,8.38-1.62,4.13-4,4.13-10.87V629.24c0-5.5-2.62-10-6.5-10.87s-5.37-.62-5.37-.62Z"/><path class="cls-36" d="M224.38,672.49v-1.25h40.38v1.25a16.81,16.81,0,0,0-6.62,4c-2.5,2.75-2.25,7.88-2.25,13.75v17.5s-10.62,4.44-19.37,5.88-30.12,2.5-43-4-30-19.87-28.5-47.75,22.88-46.77,52.5-46.77c14.11,0,24.91,5.65,29.38,5.65,4.63,0,6.25-5.65,6.25-5.65h1.5v27.77h-1.75s-5.12-12.62-14.75-18-26-7.37-35.87-.12c-9.16,6.72-15,20.56-15,40.16,0,21.47,7.12,44.59,30.87,44.59,17.88,0,16.5-6.62,16.5-12.87v-11c0-2.75.13-6.25-2.75-9.62A11.19,11.19,0,0,0,224.38,672.49Z"/><path class="cls-37" d="M269.75,615.87H315v1.88s-5.9.14-7.87,1.25c-3.12,1.75-4.25,7.13-4.25,12.13v67.13c0,5.5.88,10.88,5.25,12.75s6.88,1.25,6.88,1.25v1.5H269.75v-1.5s5.38,0,8-1.87,3.75-6.12,3.75-12.25v-67.5c0-5.87-1.53-9.33-4-11.12-2.75-2-7.75-1.87-7.75-1.87Z"/><path class="cls-38" d="M372.38,615.09c-35.87,0-50.25,28.77-50.25,50s15.88,50,50.25,50,51.5-25.06,51.5-50.25S407,615.09,372.38,615.09Zm.63,94.65c-23.37,0-27.87-25-27.87-44.67s4.13-45,27.25-45c22.5,0,28.75,20.91,28.75,45S396.38,709.74,373,709.74Z"/><path class="cls-39" d="M472.17,713.58v-1.25s-7.25-.75-10.42-5.17-3.17-7.58-3.17-14.58V639.83l71.67,74.83,1.92-.83v-79.5c0-8.5,3.25-12.75,6.83-15s6-1.83,6-1.83v-1.25H511.75v1.25s8.33,1.08,11.25,4.58,3.17,7.58,3.17,12.83v44.75l-59.75-63.42H431.08v1.83a11,11,0,0,1,6.58,1.83c2.75,2.08,14.42,12.75,14.42,12.75V699c0,3.58-1.83,8.42-5.58,10.67a19.7,19.7,0,0,1-8.58,2.33v1.42Z"/></g></g></svg>