<?xml version="1.0" encoding="UTF-8"?>
<!DOCTYPE svg PUBLIC "-//W3C//DTD SVG 1.1//EN" "http://www.w3.org/Graphics/SVG/1.1/DTD/svg11.dtd">
<!-- Creator: CorelDRAW -->
<svg xmlns="http://www.w3.org/2000/svg" xml:space="preserve" width="3500px" height="3562px" style="shape-rendering:geometricPrecision; text-rendering:geometricPrecision; image-rendering:optimizeQuality; fill-rule:evenodd; clip-rule:evenodd"
viewBox="0 0 877.581 893.193"
 xmlns:xlink="http://www.w3.org/1999/xlink">
 <defs>
  <style type="text/css">
   <![CDATA[
    .fil0 {fill:white}
   ]]>
  </style>
 </defs>
 <g id="Слой_x0020_1">
  <metadata id="CorelCorpID_0Corel-Layer"/>
  <path class="fil0" d="M588.14 635.437c26.156,10.2397 47.7978,22.9405 64.5698,40.2851 -44.1908,0 -116.582,0 -179.368,0l-251.116 0 -5.51803 0 -4.20527 0 -2.82703 0 -7.03237 0 -133.767 0c-34.7359,-21.8474 -44.5285,-58.5364 -59.4607,-93.0242 13.8892,5.08141 35.6855,2.68144 43.5444,-12.0444 -25.2652,-23.101 -42.866,-17.8688 -52.9585,-49.4558 16.962,5.13228 37.0846,2.23866 41.4414,-14.1744 -27.2758,-8.58951 -29.292,-29.5833 -31.8119,-48.8115 11.1338,7.04238 71.1708,26.4694 60.8007,2.20773 -10.5622,-24.7113 -6.61822,-49.0424 -8.83849,-58.2165 33.3703,16.8681 65.5415,25.2517 96.376,22.5371 -12.1315,-12.1834 -22.0539,-25.1748 -16.5117,-43.8243 42.1933,21.7798 67.5387,2.2414 106.427,-21.1269l-16.3029 200.739c-0.349623,46.4875 153.119,31.7466 235.979,43.3872 48.1552,7.56808 88.3457,18.0763 120.58,31.522zm-510.984 238.792l0 -59.9646 -17.6968 -16.4444 74.8945 0 -23.9972 16.4444 0 61.5781 33.394 0 25.7605 -22.9204 0 37.7514 -110.052 0 17.6968 -16.4445zm115.729 0l0 -59.9646 -17.6968 -16.4444 114.46 0 -1.24712 32.1152 -25.1369 -17.2843 -37.1786 0 0 21.4175 37.9312 0 0 14.2562 -37.9312 0 0 27.5178 37.1786 0 25.7604 -15.8034 0 30.6343 -113.836 0 17.6968 -16.4445zm119.384 0.19899l29.6526 -60.7383 -13.5253 -15.8697 73.8194 0 -11.3964 16.4444 26.5775 60.031 16.5788 16.3781 -66.1429 0 13.7188 -16.2455 -2.70932 -6.80764 -41.5651 0 -2.96742 6.80764 18.0839 16.2455 -58.6599 0 18.5355 -16.2455zm61.2833 -20.3345l-14.4284 -36.5358 -15.9338 36.5358 30.3621 0zm63.5841 -8.04549c0,-5.59197 0.774081,-10.7639 2.32232,-15.4718 1.54816,-4.70783 3.72,-8.92941 6.49384,-12.6869 2.77385,-3.75745 6.08541,-7.02859 9.91287,-9.83574 3.84905,-2.807 8.06359,-5.17196 12.6652,-7.07287 4.60155,-1.90075 9.48278,-3.31534 14.6434,-4.24369 5.18235,-0.928349 10.4935,-1.39249 15.9338,-1.39249 3.2899,0 6.57995,0.221092 9.86985,0.663053 3.2899,0.420008 6.49392,1.03886 9.61183,1.81249 3.09633,0.773562 6.06375,1.70184 8.9022,2.7849 2.83837,1.08306 5.46173,2.25446 7.84858,3.55853l4.79505 -6.34343 14.106 0 0 31.6069 -15.9982 0c-1.76325,-3.24911 -3.89206,-6.12249 -6.40788,-8.62014 -2.49431,-2.4975 -5.24665,-4.61942 -8.23566,-6.34343 -3.01029,-1.72401 -6.1928,-3.02809 -9.59024,-3.91216 -3.37594,-0.906247 -6.8379,-1.34828 -10.4073,-1.34828 -3.91357,0 -7.63357,0.707331 -11.1601,2.07772 -3.52649,1.39241 -6.62282,3.49216 -9.26784,6.34343 -2.6448,2.85128 -4.7306,6.47604 -6.30027,10.8524 -1.54824,4.37637 -2.32232,9.57044 -2.32232,15.5824 0,5.72458 0.838607,10.7861 2.55884,15.1845 1.6988,4.37637 3.97802,8.04534 6.81647,11.0071 2.85981,2.93968 6.19273,5.19414 9.99883,6.69714 3.80603,1.503 7.80556,2.25446 11.9986,2.25446 3.69849,0 6.881,-0.265221 9.56881,-0.795664 2.68789,-0.552619 5.11767,-1.503 7.31102,-2.89548l0 -16.1792 -18.3205 -18.1242 50.5749 0 0 49.4659 -14.9231 0 -3.46189 -6.47612c-2.49446,1.63561 -5.13926,3.02809 -7.95612,4.17746 -2.79536,1.14929 -5.74127,2.07757 -8.81624,2.7849 -3.05338,0.707257 -6.21423,1.23777 -9.43968,1.54712 -3.24703,0.331601 -6.51543,0.486313 -9.82684,0.486313 -5.67682,0 -11.1816,-0.331527 -16.5358,-1.03886 -5.35419,-0.685155 -10.3859,-1.79032 -15.0951,-3.31534 -4.70909,-1.5472 -9.00966,-3.53651 -12.9018,-5.96778 -3.91342,-2.43127 -7.26792,-5.39306 -10.0849,-8.86318 -2.81679,-3.49216 -5.01013,-7.537 -6.55829,-12.1565 -1.54824,-4.61942 -2.32232,-9.87987 -2.32232,-15.8034zm148.37 -31.8499l-17.7184 -16.3781 66.272 0 -15.9981 16.3781 0 29.3966c0,6.21082 0.451529,11.4713 1.35466,15.7592 0.903206,4.31 2.25779,7.80215 4.06406,10.4987 1.80626,2.69649 4.08564,4.6416 6.81647,5.83509 2.73083,1.17147 5.91326,1.76829 9.56873,1.76829 2.21485,0 4.30058,-0.176888 6.23589,-0.552619 1.93524,-0.353628 3.69849,-1.01676 5.31118,-1.96713 1.63427,-0.950376 3.05346,-2.23235 4.30058,-3.89006 1.22568,-1.63561 2.2793,-3.71332 3.13942,-6.21082 0.860189,-2.49765 1.52673,-5.50364 1.97833,-8.99587 0.472963,-3.49223 0.70963,-7.58121 0.70963,-12.2448l0 -29.3303 -13.7404 -16.4444 47.6933 0 -16.127 16.4444 0 33.2204c0,6.07821 -0.494546,11.4491 -1.46228,16.0908 -0.967583,4.6416 -2.34383,8.66427 -4.15002,12.046 -1.80626,3.38172 -3.99953,6.21082 -6.62289,8.44318 -2.60185,2.25453 -5.52626,4.04477 -8.81624,5.41516 -3.26839,1.34821 -6.83798,2.32084 -10.7085,2.87338 -3.84897,0.574646 -7.97748,0.839868 -12.3426,0.839868 -9.1603,0 -16.9013,-0.950451 -23.2447,-2.8512 -6.34336,-1.9009 -11.4825,-4.7521 -15.396,-8.57586 -3.93515,-3.82383 -6.77353,-8.59796 -8.51527,-14.3004 -1.74166,-5.72458 -2.60178,-12.3776 -2.60178,-19.9808l0 -33.2867zm128.931 60.0309l0 -59.9646 -17.6968 -16.4444 114.46 0 -1.24719 32.1152 -25.1368 -17.2843 -37.1786 0 0 21.4175 37.9312 0 0 14.2562 -37.9312 0 0 27.5178 37.1786 0 25.7605 -15.8034 0 30.6343 -113.836 0 17.6968 -16.4445zm-276.47 -117.949l0 -44.4909 -13.1157 -12.1384 37.2594 0 0 26.2916 25.6739 0 0 -26.2916 36.3671 0 -12.2233 12.1875 0 44.4418 13.1158 12.1875 -37.2595 0 0 -32.4836 -25.6739 0 0 32.4836 -37.2594 0 13.1157 -12.1875zm92.6868 -22.229c0,-4.40649 0.62152,-8.37071 1.88051,-11.8926 1.25899,-3.52197 2.96416,-6.618 5.1156,-9.32087 2.15136,-2.68648 4.66941,-4.97987 7.56986,-6.88003 2.8845,-1.90023 5.96029,-3.45641 9.21132,-4.6522 3.25104,-1.1958 6.61362,-2.08039 10.0719,-2.63738 3.44224,-0.55692 6.82085,-0.851808 10.1196,-0.851808 3.61765,0 7.21927,0.294888 10.821,0.851808 3.58568,0.556994 7.01205,1.44158 10.263,2.63738 3.25111,1.1958 6.27906,2.75197 9.0839,4.6522 2.80477,1.90016 5.24309,4.19355 7.3148,6.88003 2.05584,2.70287 3.68136,5.7989 4.84474,9.32087 1.16338,3.5219 1.75301,7.48612 1.75301,11.8926 0,4.35731 -0.605574,8.27244 -1.81672,11.7616 -1.21122,3.48919 -2.88458,6.58522 -5.00412,9.2717 -2.1036,2.68648 -4.58968,4.97987 -7.44237,6.89642 -2.85261,1.93302 -5.8965,3.50551 -9.14754,4.76686 -3.25104,1.24497 -6.64552,2.14595 -10.1835,2.73565 -3.53784,0.573311 -7.02792,0.851808 -10.4862,0.851808 -3.44224,0 -6.93232,-0.262106 -10.4544,-0.819027 -3.52197,-0.540604 -6.9005,-1.39241 -10.1515,-2.58821 -3.25111,-1.1794 -6.31087,-2.71926 -9.14761,-4.6031 -2.85254,-1.88384 -5.32275,-4.17716 -7.42635,-6.86364 -2.10367,-2.68648 -3.76101,-5.7989 -4.97223,-9.33719 -1.21115,-3.53829 -1.81672,-7.55169 -1.81672,-12.0728zm27.4427 0c0,3.78408 0.414297,7.27319 1.22709,10.5003 0.796851,3.21069 1.94421,5.99544 3.39448,8.37071 1.46613,2.35888 3.21922,4.22626 5.22714,5.5695 2.02394,1.34324 4.25511,2.0149 6.67741,2.0149 2.43832,0 4.65346,-0.687973 6.67741,-2.06399 2.02394,-1.37602 3.77696,-3.25986 5.25904,-5.61875 1.48208,-2.3752 2.62959,-5.16002 3.45826,-8.37071 0.828668,-3.22701 1.22717,-6.68341 1.22717,-10.4019 0,-3.73483 -0.382554,-7.24041 -1.16346,-10.533 -0.780831,-3.27625 -1.88051,-6.12657 -3.33077,-8.53455 -1.45011,-2.42445 -3.20313,-4.32461 -5.25896,-5.71702 -2.05584,-1.39234 -4.33477,-2.08031 -6.86868,-2.08031 -2.4223,0 -4.65346,0.687973 -6.67741,2.08031 -2.00792,1.39241 -3.76101,3.29257 -5.22714,5.71702 -1.45026,2.40798 -2.59763,5.25829 -3.39448,8.53455 -0.812797,3.29257 -1.22709,6.79815 -1.22709,10.533zm80.7344 22.229l0 -44.4418 -14.4704 -12.1875c2.91647,-0.0327077 5.96029,-0.0654895 9.09978,-0.0982713 3.13949,-0.0327818 6.27906,-0.0490986 9.38658,-0.0654895 3.1076,-0.0163909 6.15156,-0.0491727 9.09978,-0.0818804 2.96416,-0.0327818 5.73719,-0.0491727 8.33482,-0.0655637 2.59763,-0.0163909 4.95629,-0.0327818 7.07583,-0.0327818 2.11955,0 3.87256,0 5.27498,0 2.96416,0 6.05589,0.0655637 9.29098,0.196617 3.23509,0.131053 6.42242,0.409476 9.54597,0.835418 3.13949,0.442332 6.10372,1.08113 8.92445,1.91655 2.8208,0.851808 5.29093,1.99851 7.42642,3.40731 2.11955,1.42512 3.82472,3.1943 5.08378,5.29108 1.25899,2.09678 1.89645,4.60303 1.89645,7.55161 0,2.24422 -0.398425,4.25912 -1.17933,6.04461 -0.764959,1.80196 -1.88051,3.39084 -3.33069,4.79965 -1.45026,1.4088 -3.20327,2.63738 -5.25911,3.70212 -2.05576,1.04835 -4.33469,1.96572 -6.85266,2.73565 1.96016,0.278423 3.79283,0.966471 5.52997,2.03121 1.72112,1.08121 3.21922,2.42445 4.51002,4.0625 1.27493,1.63813 2.27893,3.52197 3.012,5.66785 0.717195,2.14595 1.08365,4.43927 1.08365,6.91281l0 2.76836 13.1317 11.2374 -45.945 0 7.09178 -10.2218 0 -5.89717c0,-1.67084 -0.239115,-3.1943 -0.701249,-4.58664 -0.462135,-1.39241 -1.0996,-2.58828 -1.9124,-3.60385 -0.812648,-0.999253 -1.75301,-1.7855 -2.82065,-2.34249 -1.08373,-0.573385 -2.19935,-0.851808 -3.39455,-0.851808l-14.3269 0 0 15.3162 8.44629 12.1875 -47.5704 0 14.5181 -12.1875zm31.4269 -24.719c3.26691,0 6.1196,-0.147444 8.54189,-0.425867 2.42244,-0.294888 4.44639,-0.835492 6.04002,-1.63813 1.60957,-0.802636 2.80485,-1.90023 3.56981,-3.30896 0.780905,-1.4088 1.17926,-3.21069 1.17926,-5.42213 0,-1.70362 -0.286878,-3.16159 -0.844614,-4.37378 -0.55781,-1.21211 -1.32277,-2.22776 -2.29488,-3.04686 -0.956236,-0.819027 -2.08773,-1.47429 -3.37853,-1.96572 -1.29088,-0.491431 -2.66141,-0.868199 -4.07978,-1.09752 -1.43424,-0.245715 -2.90038,-0.40955 -4.3984,-0.491431 -1.4981,-0.0654895 -2.93234,-0.114662 -4.33477,-0.114662l-6.82085 0 0 21.8851 6.82085 0zm69.3239 24.719l0 -43.0985 -14.3748 -13.5308 35.666 0 37.6261 34.5477 0 -22.3602 -13.0679 -12.1875 37.4828 0 -11.7133 12.1875 0 56.6293 -12.7015 0 -46.2159 -43.377 0 31.1895 14.0561 12.1875 -39.4111 0 12.6536 -12.1875zm-667.007 0l0 -44.4418 -13.1158 -12.1875 86.6947 0 -0.924344 23.8017 -18.6298 -12.81 -29.4188 0 0 20.6729 29.9765 0 0 10.5658 -29.9765 0 0 14.3989 19.1875 12.1875 -56.9093 0 13.1158 -12.1875zm90.1051 -44.4418l-10.8209 -12.1875 34.9646 0 0 56.6293 10.8368 12.1875 -34.9806 0 0 -56.6293zm53.7061 44.4418l0 -44.4418 -14.4704 -12.1875c2.9164,-0.0327077 5.96021,-0.0654895 9.09978,-0.0982713 3.13942,-0.0327818 6.27898,-0.0490986 9.38658,-0.0654895 3.1076,-0.0163909 6.15149,-0.0491727 9.0997,-0.0818804 2.96416,-0.0327818 5.73719,-0.0491727 8.33482,-0.0655637 2.5977,-0.0163909 4.95629,-0.0327818 7.07583,-0.0327818 2.11955,0 3.87256,0 5.27498,0 2.96423,0 6.05589,0.0655637 9.29098,0.196617 3.23509,0.131053 6.42242,0.409476 9.54604,0.835418 3.13942,0.442332 6.10365,1.08113 8.92445,1.91655 2.82072,0.851808 5.29093,1.99851 7.42642,3.40731 2.11955,1.42512 3.82472,3.1943 5.08371,5.29108 1.25899,2.09678 1.89653,4.60303 1.89653,7.55161 0,2.24422 -0.3985,4.25912 -1.17933,6.04461 -0.765033,1.80196 -1.88051,3.39084 -3.33077,4.79965 -1.45026,1.4088 -3.20327,2.63738 -5.25911,3.70212 -2.05576,1.04835 -4.33462,1.96572 -6.85266,2.73565 1.96016,0.278423 3.79283,0.966471 5.52997,2.03121 1.72112,1.08121 3.21922,2.42445 4.51002,4.0625 1.27501,1.63813 2.27893,3.52197 3.012,5.66785 0.717195,2.14595 1.08365,4.43927 1.08365,6.91281l0 2.76836 13.1317 11.2374 -45.945 0 7.09178 -10.2218 0 -5.89717c0,-1.67084 -0.23904,-3.1943 -0.701175,-4.58664 -0.462209,-1.39241 -1.09967,-2.58828 -1.9124,-3.60385 -0.812722,-0.999253 -1.75301,-1.7855 -2.82072,-2.34249 -1.08373,-0.573385 -2.19928,-0.851808 -3.39455,-0.851808l-14.3269 0 0 15.3162 8.44636 12.1875 -47.5704 0 14.5181 -12.1875zm31.4268 -24.719c3.26698,0 6.1196,-0.147444 8.54197,-0.425867 2.42237,-0.294888 4.44631,-0.835492 6.03994,-1.63813 1.60957,-0.802636 2.80485,-1.90023 3.56981,-3.30896 0.780905,-1.4088 1.17933,-3.21069 1.17933,-5.42213 0,-1.70362 -0.286952,-3.16159 -0.844688,-4.37378 -0.557736,-1.21211 -1.32277,-2.22776 -2.29488,-3.04686 -0.956236,-0.819027 -2.08765,-1.47429 -3.37853,-1.96572 -1.29088,-0.491431 -2.66134,-0.868199 -4.07971,-1.09752 -1.43432,-0.245715 -2.90045,-0.40955 -4.39848,-0.491431 -1.49803,-0.0654895 -2.93234,-0.114662 -4.33477,-0.114662l-6.82085 0 0 21.8851 6.82085 0zm69.2283 24.719l0 -44.4418 -13.1158 -12.1875 84.8301 0 -0.924344 23.8017 -18.6298 -12.81 -27.5542 0 0 15.8732 28.1121 0 0 10.5658 -28.1121 0 0 20.3944 27.5542 0 19.092 -11.7124 0 22.7041 -84.368 0 13.1158 -12.1875zm-58.6224 -413.638l9.18247 -114.046 -21.1577 -34.0853 17.2036 -6.20014 -0.331527 -33.9448 -9.10512 -7.7001c9.42975,-14.0813 37.7906,-24.8023 49.887,-37.0105 3.37067,-3.40249 15.5456,-14.6515 17.1706,-17.4026 7.22001,-12.2215 0.44567,-12.572 14.4802,-20.9288l9.89603 -70.9345 2.13875 -0.390267 2.13868 0.390267 9.89603 70.9345c14.0346,8.35685 7.26021,8.70728 14.4802,20.9288 1.62507,2.75108 13.8,14.0001 17.1706,17.4026 12.0966,12.2082 40.4573,22.9292 49.887,37.0105l-9.10504 7.7001 -0.331601 33.9448 17.2036 6.20014 -21.1577 34.0853 29.365 364.713c-10.8892,-1.17837 -21.8583,-1.9259 -32.7585,-2.52895 -16.2975,-0.901649 -32.6184,-1.4378 -48.93,-2.01423 -16.1735,-0.571457 -32.36,-1.15634 -48.5125,-2.17324 -3.96171,-0.249424 -7.93639,-0.521913 -11.9135,-0.83386l0 -355.998 -22.3179 2.02877 -25.6995 346.944c-11.0633,-2.88873 -22.9101,-7.50022 -25.696,-14.4871 -0.431801,-1.08306 -0.629307,-2.20128 -0.649777,-3.35821l17.7329 -218.347 -0.166653 0.100126zm107.011 -37.2977c7.34135,0.462357 14.3587,1.20699 20.9322,2.19668l0 -31.0119c0,-6.34996 -4.70968,-12.4248 -10.4661,-13.4995l0 0c-5.7564,-1.07483 -10.4661,3.24117 -10.4661,9.59121l0 32.7235zm-85.1721 -158.513c8.72234,-3.17161 18.7088,-5.74513 29.5985,-7.56838l0.165392 41.808c-10.7166,0.837123 -20.7354,2.0215 -29.803,3.49431l0.039086 -37.7339zm43.5076 -9.43071c7.88663,-0.803303 16.1232,-1.22999 24.5967,-1.22999 7.26296,0 14.3515,0.313652 21.1952,0.908843l0 43.0333c-7.07554,-0.306903 -14.3758,-0.467623 -21.8393,-0.467623 -8.20896,0 -16.2203,0.194763 -23.9526,0.564263l0 -42.8088zm59.1852 1.24497c11.9447,1.76836 22.8925,4.42666 32.3948,7.78487l-0.0289993 38.1331 -0.348066 -0.0382702c-9.61294,-1.55291 -20.2878,-2.7823 -31.7253,-3.61846l-0.292366 -42.2612zm59.6579 155.379c16.0241,-2.81545 32.5668,-5.25696 49.5374,-7.39794 8.61621,-24.5112 -10.2345,-36.3988 -35.7516,-45.2237 54.8419,-6.52358 96.3456,14.9028 134.613,43.112 -1.48275,-42.731 -23.749,-75.0662 -71.5127,-94.6483 46.2902,-16.9632 102.565,25.871 169.319,131.462 0.937397,-19.2841 4.93129,-35.6137 12.6158,-48.3778 11.8342,50.826 24.5988,100.22 66.2559,105.166 12.1483,16.988 17.4012,50.4981 52.5848,77.8178 9.74325,9.23817 25.1078,13.1255 43.9417,14.0288 4.45625,1.63546 8.9125,3.2704 13.3688,4.90526 -0.525251,11.2192 -0.717789,15.3398 -1.24297,26.5589 -6.54836,13.8507 -13.4097,27.5613 -34.7097,34.6976 0.99725,-5.77116 1.66253,-11.3753 1.14314,-16.3878 -10.4079,9.00759 -22.4467,15.1218 -38.9994,13.2333 7.19754,-5.19525 14.1908,-10.4252 14.8797,-16.7717 -13.3421,9.5829 -27.0724,18.0302 -45.3742,13.0949 6.48962,-5.08348 11.1948,-10.4027 11.7073,-16.2817 -40.2337,-0.896457 -72.0962,-56.7904 -116.102,-64.591 -14.8377,67.1961 89.08,41.7107 101.009,106.163 -14.1765,-8.58966 -45.8262,-24.5054 -56.8908,-25.0271 20.0883,11.3931 24.1081,28.2191 36.8024,32.2078 12.2953,3.08068 88.3214,15.7157 99.48,6.64633 8.25983,16.8312 -30.3688,38.2333 -26.3692,62.1644 -14.7868,6.71375 -57.1789,-13.9106 -99.2684,-23.5876 -39.5373,-9.08999 -79.0111,-6.65212 -89.0443,-19.1751 -11.1417,-13.9077 -3.54088,-40.8879 -24.6599,-62.3292 -28.5892,-29.025 -58.4449,-35.4466 -58.3724,-60.6052 18.0614,4.75604 30.8555,0.373579 38.3826,-13.1491 -11.7713,-8.05417 -33.9211,-0.404062 -50.0415,-2.93197 -52.1479,62.7715 83.9355,75.1948 70.8654,129.111 -40.9676,-47.468 -118.83,-52.6149 -139.755,-84.9092 -8.25583,-12.7426 -6.25725,-11.8468 -6.96221,-33.8547 -2.74922,0.483124 -5.42747,0.977596 -8.03615,1.48341l-13.4141 -166.602zm311.084 149.463c-9.7744,3.11487 -15.1173,5.04944 -25.4958,5.12902 -16.1791,0.121708 -25.8848,-22.0085 -28.9944,-35.1191 -0.790991,-3.3344 -1.36059,-6.73333 -1.658,-10.1485l-1.39167 -15.9664 14.1084 7.60383c2.76777,1.49142 5.58908,2.86225 8.39029,4.28619 15.0844,7.6685 26.3996,18.017 38.4569,29.7883l10.3001 10.0563 -13.7158 4.37029z"/>
 </g>
</svg>
