<?xml version="1.0" encoding="UTF-8"?>
<!DOCTYPE svg PUBLIC "-//W3C//DTD SVG 1.1//EN" "http://www.w3.org/Graphics/SVG/1.1/DTD/svg11.dtd">
<!-- Creator: CorelDRAW -->
<svg xmlns="http://www.w3.org/2000/svg" xml:space="preserve" width="3500px" height="1052px" style="shape-rendering:geometricPrecision; text-rendering:geometricPrecision; image-rendering:optimizeQuality; fill-rule:evenodd; clip-rule:evenodd"
viewBox="0 0 7718.53 2320.12"
 xmlns:xlink="http://www.w3.org/1999/xlink">
 <defs>
  <style type="text/css">
   <![CDATA[
    .fil0 {fill:white}
   ]]>
  </style>
 </defs>
 <g id="Слой_x0020_1">
  <metadata id="CorelCorpID_0Corel-Layer"/>
  <path class="fil0" d="M2005.9 2167.22c89.2075,34.9235 163.019,78.2405 220.221,137.396 -150.717,0 -397.615,0 -611.751,0l-856.455 0 -18.8197 0 -14.3425 0 -9.64182 0 -23.9845 0 -456.226 0c-118.47,-74.5125 -151.868,-199.644 -202.796,-317.267 47.3703,17.3306 121.709,9.14528 148.512,-41.0786 -86.1691,-78.7879 -146.198,-60.943 -180.62,-168.674 57.8504,17.5041 126.48,7.63514 141.339,-48.3432 -93.0266,-29.2953 -99.9029,-100.897 -108.498,-166.476 37.9728,24.0187 242.734,90.2763 207.366,7.52966 -36.0233,-84.28 -22.572,-167.264 -30.1444,-198.552 113.812,57.5302 223.535,86.1233 328.699,76.8649 -41.3756,-41.5526 -75.2169,-85.861 -56.3147,-149.467 143.904,74.282 230.347,7.6445 362.98,-72.0553l-55.6024 684.638c-1.19242,158.55 522.227,108.275 804.829,147.976 164.238,25.8116 301.311,61.6508 411.248,107.508zm1196.3 -671.179l0 -267.497 -78.9445 -73.3575 521.82 0 -5.56371 143.264 -112.134 -77.1042 -177.073 0 0 124.431 180.43 0 0 63.596 -180.43 0 0 86.6679 115.491 73.3575 -342.54 0 78.9445 -73.3575zm27.5737 709.939l0 -360.93 -106.518 -98.9799 450.794 0 -144.441 98.9799 0 370.642 201.001 0 155.053 -137.959 0 227.227 -662.408 0 106.518 -98.9799zm696.577 0l0 -360.93 -106.518 -98.9799 688.941 0 -7.50639 193.303 -151.3 -104.036 -223.78 0 0 128.913 228.31 0 0 85.8094 -228.31 0 0 165.632 223.78 0 155.053 -95.1213 0 184.389 -685.188 0 106.518 -98.9799zm718.58 1.19799l178.48 -365.587 -81.4097 -95.5205 444.323 0 -68.5959 98.9799 159.972 361.329 99.7881 98.5802 -398.118 0 82.5748 -97.7819 -16.3076 -40.9754 -250.183 0 -17.8613 40.9754 108.848 97.7819 -353.077 0 111.566 -97.7819zm368.868 -122.394l-86.8455 -219.911 -95.9062 219.911 182.752 0zm382.717 -48.4264c0,-33.6582 4.65864,-64.7887 13.9779,-93.1258 9.31804,-28.3366 22.3907,-53.7465 39.0863,-76.3633 16.6959,-22.6163 36.6287,-42.3057 59.6659,-59.2017 23.168,-16.8958 48.5364,-31.1305 76.2325,-42.5726 27.6974,-11.4401 57.0774,-19.955 88.1398,-25.5422 31.1927,-5.58799 63.1609,-8.38211 95.9062,-8.38211 19.8022,0 39.6047,1.33079 59.4066,3.99135 19.8025,2.52802 39.0876,6.25301 57.8547,10.9094 18.6368,4.65611 36.4976,10.2436 53.5823,16.7622 17.0842,6.51937 32.8746,13.5699 47.2413,21.4193l28.8617 -38.1815 84.9043 0 0 190.244 -96.294 0c-10.6129,-19.5563 -23.4263,-36.8515 -38.5691,-51.8853 -15.0135,-15.0323 -31.58,-27.8049 -49.5713,-38.1815 -18.1188,-10.3767 -37.2747,-18.226 -57.7242,-23.5474 -20.3197,-5.45469 -41.157,-8.1155 -62.6421,-8.1155 -23.556,0 -45.947,4.25771 -67.1733,12.5058 -21.2258,8.3811 -39.8627,21.0199 -55.7833,38.1818 -15.9194,17.1621 -28.4737,38.9796 -37.9223,65.3209 -9.31779,26.3421 -13.9774,57.6056 -13.9774,93.7918 0,34.4563 5.04743,64.922 15.4016,91.3963 10.2251,26.3418 23.9441,48.4251 41.0285,66.2528 17.2135,17.6938 37.2744,31.2638 60.1837,40.3099 22.9087,9.04688 46.9818,13.5702 72.2199,13.5702 22.2619,0 41.4176,-1.59664 57.5949,-4.78942 16.1789,-3.32608 30.8042,-9.04662 44.006,-17.4275l0 -97.3837 -110.272 -109.091 304.413 0 0 297.737 -89.8225 0 -20.8375 -38.9796c-15.0143,9.84469 -30.9337,18.226 -47.8884,25.1438 -16.8254,6.91777 -34.5567,12.5053 -53.0651,16.7627 -18.3786,4.25695 -37.4042,7.45049 -56.8184,9.31222 -19.5439,1.99605 -39.2166,2.92718 -59.1483,2.92718 -34.1692,0 -67.3023,-1.99555 -99.5298,-6.25301 -32.2268,-4.1239 -62.5131,-10.7758 -90.8578,-19.9552 -28.3444,-9.31222 -54.2291,-21.2863 -77.6567,-35.9201 -23.5553,-14.6341 -43.746,-32.461 -60.7012,-53.3481 -16.9547,-21.0194 -30.1563,-45.3654 -39.4744,-73.1705 -9.31931,-27.8046 -13.9779,-59.4673 -13.9779,-95.1218zm893.047 -191.706l-106.648 -98.5807 398.894 0 -96.2935 98.5807 0 176.94c0,37.3832 2.71773,69.0461 8.15344,94.8557 5.43673,25.9419 13.5894,46.9621 24.4621,63.1923 10.8719,16.2305 24.5921,27.9379 41.0285,35.1216 16.4374,7.05133 35.5926,10.6433 57.5949,10.6433 13.3314,0 25.8855,-1.06443 37.5335,-3.32608 11.649,-2.1286 22.2619,-6.11995 31.969,-11.8402 9.83685,-5.72029 18.3788,-13.4366 25.8855,-23.4141 7.37738,-9.84545 13.7189,-22.3507 18.8966,-37.3837 5.1772,-15.0333 9.18878,-33.1265 11.9073,-54.1464 2.84674,-21.0202 4.27112,-45.6315 4.27112,-73.7023l0 -176.541 -82.7044 -98.9799 287.069 0 -97.0693 98.9799 0 199.955c0,36.5851 -2.97675,68.9123 -8.80126,96.851 -5.824,27.9382 -14.1085,52.1506 -24.9796,72.5055 -10.8719,20.3544 -24.0733,37.383 -39.8632,50.8196 -15.6608,13.5702 -33.2634,24.346 -53.0661,32.5943 -19.6719,8.115 -41.1573,13.9693 -64.4545,17.2952 -23.1667,3.45838 -48.0166,5.05502 -74.2906,5.05502 -55.1357,0 -101.73,-5.72079 -139.911,-17.1614 -38.181,-11.4418 -69.1139,-28.6035 -92.6697,-51.6187 -23.686,-23.0157 -40.7698,-51.7515 -51.2539,-86.0752 -10.4829,-34.4563 -15.6601,-74.5013 -15.6601,-120.265l0 -200.354zm776.045 361.329l0 -360.93 -106.518 -98.9799 688.94 0 -7.5069 193.303 -151.3 -104.036 -223.78 0 0 128.913 228.309 0 0 85.8094 -228.309 0 0 165.632 223.78 0 155.054 -95.1213 0 184.389 -685.187 0 106.518 -98.9799zm-1664.09 -709.939l0 -267.793 -78.9445 -73.062 224.267 0 0 158.251 154.532 0 0 -158.251 218.895 0 -73.5727 73.3575 0 267.497 78.9447 73.3575 -224.267 0 0 -195.521 -154.532 0 0 195.521 -224.267 0 78.9445 -73.3575zm557.887 -133.798c0,-26.5229 3.74143,-50.3835 11.3184,-71.5823 7.57848,-21.1988 17.8418,-39.8341 30.791,-56.1028 12.9499,-16.1703 28.1059,-29.974 45.564,-41.4107 17.3625,-11.438 35.8754,-20.8049 55.4436,-28.0024 19.568,-7.19753 39.8073,-12.5217 60.6231,-15.8743 20.7189,-3.35214 41.0548,-5.12711 60.9107,-5.12711 21.775,0 43.4538,1.77497 65.1322,5.12711 21.5827,3.35264 42.206,8.67681 61.7735,15.8743 19.5687,7.19753 37.794,16.5644 54.6766,28.0024 16.8821,11.4368 31.5585,25.2404 44.0283,41.4107 12.3737,16.2687 22.1582,34.904 29.1607,56.1028 7.00225,21.1988 10.5512,45.0593 10.5512,71.5823 0,26.227 -3.64455,49.7923 -10.9347,70.7938 -7.29037,21.0015 -17.363,39.6365 -30.1204,55.8066 -12.6618,16.1698 -27.6253,29.974 -44.7955,41.5099 -17.1702,11.6346 -35.4916,21.0998 -55.0598,28.6922 -19.568,7.49324 -39.9998,12.9166 -61.2951,16.466 -21.2941,3.45079 -42.3014,5.12686 -63.1169,5.12686 -20.7189,0 -41.7262,-1.57767 -62.9254,-4.92955 -21.199,-3.25374 -41.5344,-8.3811 -61.1026,-15.5781 -19.5682,-7.09964 -37.9855,-16.3679 -55.0596,-27.7067 -17.17,-11.3391 -32.0383,-25.1426 -44.6999,-41.3126 -12.6623,-16.17 -22.6373,-34.904 -29.9274,-56.2012 -7.29087,-21.2974 -10.9357,-45.4537 -10.9357,-72.6672zm165.179 0c0,22.7767 2.49437,43.7779 7.38598,63.2014 4.79726,19.3259 11.7024,36.0873 20.4323,50.3843 8.82428,14.198 19.3762,25.4377 31.4618,33.5229 12.1822,8.08515 25.6123,12.1284 40.1918,12.1284 14.6761,0 28.0095,-4.14135 40.1918,-12.4241 12.182,-8.2822 22.7334,-19.6211 31.6546,-33.8194 8.9204,-14.2964 15.828,-31.0584 20.8158,-50.3838 4.98723,-19.4233 7.38624,-40.2277 7.38624,-62.6097 0,-22.48 -2.30289,-43.5801 -7.00327,-63.3985 -4.69987,-19.7197 -11.3187,-36.876 -20.0478,-51.37 -8.72815,-14.5926 -19.2801,-26.0299 -31.6541,-34.411 -12.3745,-8.38034 -26.0911,-12.5212 -41.3432,-12.5212 -14.5795,0 -28.0095,4.14085 -40.1918,12.5212 -12.0856,8.3811 -22.6376,19.8184 -31.4618,34.411 -8.72993,14.494 -15.635,31.6503 -20.4323,51.37 -4.89161,19.8184 -7.38598,40.9185 -7.38598,63.3985zm485.945 133.798l0 -267.497 -87.0979 -73.3575c17.5545,-0.196292 35.8751,-0.393848 54.7725,-0.591658 18.8969,-0.196798 37.7935,-0.295197 56.4979,-0.393848 18.7049,-0.0983988 37.0266,-0.295955 54.772,-0.493006 17.8416,-0.197304 34.5324,-0.295197 50.168,-0.394354 15.6353,-0.0989048 29.8321,-0.19781 42.5898,-0.19781 12.7577,0 23.3094,0 31.7505,0 17.8413,0 36.4508,0.39486 55.9229,1.18382 19.4721,0.788709 38.6566,2.46503 57.4578,5.02897 18.8964,2.66158 36.7382,6.50697 53.7169,11.5354 16.9782,5.12686 31.8458,12.0289 44.6996,20.5087 12.7577,8.57765 23.0213,19.2267 30.5995,31.8473 7.57798,12.6203 11.4148,27.706 11.4148,45.4537 0,13.5077 -2.39825,25.6356 -7.09812,36.3823 -4.60476,10.8466 -11.3194,20.4103 -20.0476,28.8893 -8.72942,8.48001 -19.2811,15.8748 -31.6551,22.2839 -12.3737,6.30967 -26.0906,11.8316 -41.2466,16.4657 11.7982,1.67582 22.8293,5.81742 33.2856,12.2262 10.3592,6.50798 19.3762,14.5924 27.1454,24.4522 7.67385,9.85987 13.7169,21.1993 18.1299,34.1148 4.31665,12.9168 6.5224,26.7205 6.5224,41.6088l0 16.6628 79.0406 67.639 -276.546 0 42.6859 -61.5258 0 -35.4954c0,-10.0569 -1.43905,-19.2265 -4.22027,-27.6068 -2.78198,-8.38136 -6.61903,-15.5791 -11.5111,-21.692 -4.89136,-6.01447 -10.5512,-10.7465 -16.9777,-14.0996 -6.52291,-3.45104 -13.2381,-5.12736 -20.4318,-5.12736l-86.2348 0 0 92.1896 50.8388 73.3575 -286.328 0 87.3842 -73.3575zm189.16 -148.785c19.6633,0 36.8343,-0.887613 51.4143,-2.56343 14.5807,-1.77472 26.7625,-5.02897 36.3552,-9.85987 9.68786,-4.8304 16.8821,-11.4375 21.4869,-19.917 4.69987,-8.4795 7.09762,-19.3246 7.09762,-32.6358 0,-10.2542 -1.72691,-19.0297 -5.08411,-26.3259 -3.35694,-7.29644 -7.96171,-13.4091 -13.8125,-18.3394 -5.7557,-4.92955 -12.5662,-8.87386 -20.3357,-11.8316 -7.76997,-2.95804 -16.019,-5.22602 -24.5562,-6.60664 -8.63304,-1.47902 -17.4578,-2.46452 -26.4749,-2.95753 -9.01652,-0.394354 -17.6493,-0.69031 -26.0906,-0.69031l-41.0553 0 0 131.727 41.0553 0zm417.264 148.785l0 -259.412 -86.5222 -81.4426 214.676 0 226.473 207.945 0 -134.587 -78.6566 -73.3575 225.611 0 -70.5034 73.3575 0 340.855 -76.4506 0 -278.175 -261.088 0 187.731 84.6038 73.3575 -237.218 0 76.1622 -73.3575zm-3472.4 -267.497l-65.1317 -73.3575 210.454 0 0 340.855 65.2273 73.3575 -210.55 0 0 -340.855zm323.26 267.497l0 -267.497 -87.0979 -73.3575c17.5534,-0.196292 35.8743,-0.393848 54.7717,-0.591658 18.8961,-0.196798 37.7933,-0.295197 56.4981,-0.393848 18.7049,-0.0983988 37.0266,-0.295955 54.7717,-0.493006 17.8418,-0.197304 34.5324,-0.295197 50.1675,-0.394354 15.6358,-0.0989048 29.8323,-0.19781 42.5903,-0.19781 12.7574,0 23.3089,0 31.7505,0 17.8418,0 36.4503,0.39486 55.9227,1.18382 19.4721,0.788709 38.6568,2.46503 57.4578,5.02897 18.8964,2.66158 36.7384,6.50697 53.7169,11.5354 16.9782,5.12686 31.8463,12.0289 44.6999,20.5087 12.7574,8.57765 23.0215,19.2267 30.5993,31.8473 7.57798,12.6203 11.415,27.706 11.415,45.4537 0,13.5077 -2.39825,25.6356 -7.09812,36.3823 -4.60502,10.8466 -11.3189,20.4103 -20.0481,28.8893 -8.72866,8.48001 -19.2809,15.8748 -31.6551,22.2839 -12.3735,6.30967 -26.0901,11.8316 -41.2468,16.4657 11.799,1.67582 22.8298,5.81742 33.2859,12.2262 10.3595,6.50798 19.3765,14.5924 27.1459,24.4522 7.67435,9.85987 13.7169,21.1993 18.1292,34.1148 4.3169,12.9168 6.52291,26.7205 6.52291,41.6088l0 16.6628 79.0406 67.639 -276.546 0 42.6864 -61.5258 0 -35.4954c0,-10.0569 -1.4393,-19.2265 -4.22129,-27.6068 -2.78147,-8.38136 -6.61878,-15.5791 -11.5104,-21.692 -4.89186,-6.01447 -10.5512,-10.7465 -16.9782,-14.0996 -6.52265,-3.45104 -13.2376,-5.12736 -20.4318,-5.12736l-86.2351 0 0 92.1896 50.8396 73.3575 -286.329 0 87.386 -73.3575zm189.159 -148.785c19.6641,0 36.8343,-0.887613 51.4145,-2.56343 14.5802,-1.77472 26.7627,-5.02897 36.3547,-9.85987 9.68786,-4.8304 16.8826,-11.4375 21.4869,-19.917 4.70013,-8.4795 7.09838,-19.3246 7.09838,-32.6358 0,-10.2542 -1.72717,-19.0297 -5.08411,-26.3259 -3.35694,-7.29644 -7.96196,-13.4091 -13.8133,-18.3394 -5.7557,-4.92955 -12.5655,-8.87386 -20.3354,-11.8316 -7.76971,-2.95804 -16.0188,-5.22602 -24.556,-6.60664 -8.6333,-1.47902 -17.4583,-2.46452 -26.4746,-2.95753 -9.01677,-0.394354 -17.6498,-0.69031 -26.0911,-0.69031l-41.0556 0 0 131.727 41.0556 0zm416.688 148.785l0 -267.497 -78.9445 -73.3575 510.597 0 -5.56371 143.264 -112.134 -77.1042 -165.85 0 0 95.542 169.208 0 0 63.5958 -169.208 0 0 122.755 165.85 0 114.916 -70.4978 0 136.657 -507.816 0 78.9445 -73.3575zm-3792.29 -327.424l31.3176 -388.963 -72.1603 -116.251 58.6746 -21.1461 -1.1307 -115.772 -31.0538 -26.2619c32.161,-48.0255 128.888,-84.5904 170.144,-126.228 11.496,-11.6045 53.0198,-49.9702 58.562,-59.353 24.6245,-41.6827 1.52,-42.8779 49.3861,-71.3796l33.7513 -241.929 7.29442 -1.33104 7.29416 1.33104 33.7513 241.929c47.8661,28.5018 24.7616,29.697 49.3861,71.3796 5.54246,9.3828 47.066,47.7485 58.562,59.353 41.2564,41.6371 137.983,78.202 170.144,126.228l-31.0536 26.2619 -1.13095 115.772 58.6746 21.1461 -72.1603 116.251 100.152 1243.89c-37.1386,-4.01892 -74.5496,-6.56844 -111.726,-8.6252 -55.584,-3.07515 -111.248,-4.90375 -166.88,-6.86971 -55.1613,-1.94901 -110.367,-3.9438 -165.456,-7.41204 -13.5118,-0.850682 -27.0678,-1.78003 -40.6319,-2.84395l0 -1214.16 -76.1172 6.91929 -87.6506 1183.28c-37.7323,-9.85228 -78.137,-25.5802 -87.6385,-49.4096 -1.47269,-3.69388 -2.14631,-7.50766 -2.21612,-11.4535l60.4796 -744.692 -0.568386 0.341487zm364.972 -127.207c25.0383,1.57691 48.9718,4.11656 71.391,7.49197l0 -105.769c0,-21.6571 -16.0628,-42.3758 -35.6955,-46.0413l0 0c-19.6327,-3.6658 -35.6955,11.0543 -35.6955,32.7117l0 111.607zm-290.487 -540.624c29.7483,-10.817 63.808,-19.5943 100.948,-25.8126l0.564086 142.59c-36.55,2.85508 -70.7199,6.8945 -101.646,11.9176l0.133306 -128.695zm148.387 -32.1643c26.898,-2.73974 54.9895,-4.19498 83.8892,-4.19498 24.771,0 48.947,1.06974 72.2882,3.09969l0 146.769c-24.1317,-1.04672 -49.0299,-1.59487 -74.4849,-1.59487 -27.9974,0 -55.3206,0.664255 -81.6925,1.92447l0 -146.003zm201.857 4.24607c40.7384,6.03117 78.0771,15.0975 110.485,26.551l-0.0989048 130.056 -1.18711 -0.130524c-32.7858,-5.29634 -69.1934,-9.48929 -108.202,-12.3411l-0.997142 -144.136zm203.469 529.935c54.6516,-9.60236 111.072,-17.9293 168.952,-25.2313 29.3863,-83.5975 -34.9055,-124.141 -121.934,-154.24 187.043,-22.2493 328.595,50.8272 459.111,147.037 -5.05704,-145.738 -80.9982,-256.02 -243.901,-322.806 157.877,-57.8545 349.808,88.2354 577.478,448.362 3.19708,-65.7701 16.8186,-121.464 43.0274,-164.997 40.3615,173.347 83.8963,341.81 225.972,358.677 41.4327,57.939 59.3484,172.228 179.345,265.405 33.2302,31.5076 85.6325,44.7657 149.867,47.8466 15.1984,5.57787 30.3969,11.154 45.5956,16.7298 -1.79142,38.264 -2.44808,52.3178 -4.23925,90.5816 -22.3338,47.239 -45.735,94.0002 -118.381,118.339 3.40121,-19.6831 5.6702,-38.7965 3.89877,-55.8921 -35.4972,30.7212 -76.5566,51.5744 -133.011,45.1332 24.5479,-17.7189 48.3991,-35.5561 50.7485,-57.2014 -45.5045,32.6833 -92.3328,61.4935 -154.753,44.6612 22.1334,-17.3377 38.181,-35.4792 39.9289,-55.5301 -137.221,-3.05745 -245.891,-193.689 -395.977,-220.293 -50.6053,229.178 303.815,142.258 344.5,362.077 -48.3503,-29.2958 -156.294,-83.5778 -194.031,-85.3571 68.5129,38.8572 82.223,96.2439 125.518,109.848 41.9341,10.5069 301.228,53.5998 339.285,22.6679 28.1709,57.4042 -103.576,130.398 -89.9345,212.017 -50.4318,22.8978 -195.014,-47.4434 -338.564,-80.4478 -134.845,-31.0022 -269.474,-22.6876 -303.694,-65.3986 -37.9999,-47.4333 -12.0765,-139.452 -84.1047,-212.579 -97.5059,-98.9925 -199.332,-120.894 -199.084,-206.699 61.6,16.2209 105.235,1.27413 130.907,-44.8461 -40.147,-27.4695 -115.691,-1.37809 -170.671,-9.99975 -177.855,214.088 286.27,256.459 241.693,440.344 -139.724,-161.894 -405.28,-179.448 -476.646,-289.591 -28.1572,-43.4599 -21.3409,-40.4045 -23.7452,-115.465 -9.37647,1.64774 -18.5109,3.33418 -27.408,5.05932l-45.7502 -568.213zm1060.98 509.758c-33.3365,10.6235 -51.559,17.2216 -86.9557,17.493 -55.1803,0.415096 -88.2825,-75.0621 -98.8881,-119.777 -2.69775,-11.3723 -4.64043,-22.9646 -5.65477,-34.6124l-4.74642 -54.4548 48.1178 25.9335c9.43971,5.08664 19.0621,9.76198 28.6159,14.6184 51.4467,26.1541 90.0382,61.4484 131.161,101.596l35.1294 34.2979 -46.7789 14.9053z"/>
 </g>
</svg>
