<svg xmlns="http://www.w3.org/2000/svg" xmlns:xlink="http://www.w3.org/1999/xlink" width="933.718" height="132.312" viewBox="0 0 933.718 132.312">
  <defs>
    <clipPath id="clip-path">
      <rect width="933.718" height="132.311" fill="none"/>
    </clipPath>
  </defs>
  <g id="Symbol_4_1" data-name="Symbol 4 – 1" transform="translate(0 0)" clip-path="url(#clip-path)">
    <g id="Logo_Colored" data-name="Logo Colored" transform="translate(-416.609 185.949) rotate(-90)">
      <g id="Group_27" data-name="Group 27" transform="translate(185.949 416.609) rotate(90)">
        <g id="Group_25" data-name="Group 25" transform="translate(167.001 17.512)">
          <path id="Path_91" data-name="Path 91" d="M25.445,95.616A239.408,239.408,0,0,1,0,94.075V1.542A192.633,192.633,0,0,1,24.546,0C59.888,0,78.4,22.747,78.4,46.908,78.4,72.227,60.789,95.616,25.445,95.616Zm0-86.878A95.542,95.542,0,0,0,10.28,9.767V85.721c3.986.771,9,1.028,16.451,1.028,27.759,0,40.483-17.478,40.483-39.841C67.213,25.061,52.821,8.739,25.445,8.739Z" transform="translate(0 0.836)" fill="#ddd"/>
          <path id="Path_92" data-name="Path 92" d="M0,94.2V0H10.28V94.2Z" transform="translate(108.853 1.543)" fill="#ddd"/>
          <path id="Path_93" data-name="Path 93" d="M27.244,97.288C16.578,97.288,8.225,93.946,0,88.549l5.012-9c7.2,5.141,15.422,8.354,22.748,8.354,12.081,0,17.734-7.968,17.734-16.45,0-8.225-3.212-13.11-18.635-19.92C10.538,44.339,4.5,37.013,4.5,25.7,4.5,12.081,16.064,0,33.285,0A37.8,37.8,0,0,1,54.233,6.427l-4.625,8.739A29.945,29.945,0,0,0,32.641,9.382c-11.822,0-17.862,7.2-17.862,15.807,0,6.555,4.5,11.824,16.064,17.093C50.507,51.151,56.032,57.7,56.032,70.3,56.032,85.593,43.567,97.288,27.244,97.288Z" transform="translate(145.736)" fill="#ddd"/>
          <path id="Path_94" data-name="Path 94" d="M41.767,9.253V94.2H31.485V9.253H0V0H73.124V9.253Z" transform="translate(222.716 1.543)" fill="#ddd"/>
          <path id="Path_95" data-name="Path 95" d="M0,94.2V0H10.28V94.2Z" transform="translate(322.442 1.543)" fill="#ddd"/>
          <path id="Path_96" data-name="Path 96" d="M0,94.2V0H10.279V84.949H55.132V94.2Z" transform="translate(366.396 1.543)" fill="#ddd"/>
          <path id="Path_97" data-name="Path 97" d="M0,94.2V0H10.282V84.949H55.135V94.2Z" transform="translate(446.587 1.543)" fill="#ddd"/>
          <path id="Path_98" data-name="Path 98" d="M0,94.2V0H55.135V9.253H10.283V41.768H50.636v9.252H10.283V84.949H55.135V94.2Z" transform="translate(526.779 1.543)" fill="#ddd"/>
          <path id="Path_99" data-name="Path 99" d="M52.306,94.846,27.243,57.7c-2.052.128-4.111.257-6.295.257-3.084,0-7.583-.129-10.668-.257V94.846H0V1.542A164.474,164.474,0,0,1,21.72,0C46.008,0,57.961,12.08,57.961,28.274c0,13.109-7.326,23-20.564,27.246L64.773,94.846ZM23.261,9.253A66.472,66.472,0,0,0,10.28,10.282v38.3a105.582,105.582,0,0,0,11.44.643c17.6,0,25.187-8.1,25.187-20.3C46.907,17.864,38.683,9.253,23.261,9.253Z" transform="translate(613.142 1.221)" fill="#ddd"/>
          <path id="Path_100" data-name="Path 100" d="M43.309,52.434V94.2H33.028v-41.9L0,0H11.564L38.555,43.7,65.156,0h11.31Z" transform="translate(690.251 1.543)" fill="#ddd"/>
        </g>
        <g id="Group_26" data-name="Group 26">
          <path id="Path_101" data-name="Path 101" d="M35.024,132.311H22.376v-7.783H35.024a58.373,58.373,0,0,0,0-116.745H0V0H35.024a66.156,66.156,0,1,1,0,132.311Z" fill="#ddd"/>
          <path id="Path_102" data-name="Path 102" d="M11.686,83.987,9.561,76.5a35.161,35.161,0,0,0,25.46-33.692A35.063,35.063,0,0,0,0,7.783V0A42.855,42.855,0,0,1,42.8,42.807,42.975,42.975,0,0,1,11.686,83.987Z" transform="translate(35.025 23.349)" fill="#ddd"/>
          <path id="Path_103" data-name="Path 103" d="M29.034,28.314,22.1,24.771A11.675,11.675,0,0,0,4.684,10.133L0,3.917a19.457,19.457,0,0,1,31.166,15.54A19.549,19.549,0,0,1,29.034,28.314Z" transform="translate(23.315 46.698)" fill="#ddd"/>
        </g>
      </g>
    </g>
  </g>
</svg>
