<svg xmlns="http://www.w3.org/2000/svg" viewBox="0 0 313.33 135.24">
    <defs>
        <style>
            .cls-2{fill:#be3e28;}
            .cls-1{fill:#007bff;}
        </style>
    </defs>
    <title>logo_iktib</title>
    <g id="Слой_2" data-name="Слой 2">
    <g id="Слой_1-2" data-name="Слой 1">
        <path class="cls-2" d="M28.76,65.85c-2.07-1.63-4-3.21-6-4.69a11.72,11.72,0,0,1-5-10.11c.06-10.77-.07-21.55.06-32.32.06-5.21-2.76-7.52-7.4-8.07A59.16,59.16,0,0,0,4,10.55H0c0-2.91,0-5.76,0-8.6,0-.28.67-.77,1-.78,4-.06,8.1-.41,12.07.06,6,.71,11.15,3.3,13.51,9.37a18.32,18.32,0,0,1,1.17,6.34c.11,11.65.07,23.3,0,35A3.11,3.11,0,0,0,29,54.48c3.56,3.16,7.07,6.38,10.6,9.58a2.23,2.23,0,0,1,0,3.55c-3.61,3.32-7.2,6.65-10.84,9.93a2.6,2.6,0,0,0-.92,2.16q0,20.18,0,40.37c0,6.53-3.58,11.94-9.48,14.14a16,16,0,0,1-5,1c-4.12.14-8.24.06-12.36,0a6.75,6.75,0,0,1-1-.15v-8.8c.61,0,1.23-.09,1.85-.09,2.82,0,5.64.06,8.45,0a10.26,10.26,0,0,0,3.09-.75c2.86-1.05,4.31-3.28,4.32-6.58,0-7.72,0-15.44,0-23.16,0-5.13,0-10.27,0-15.4A11.22,11.22,0,0,1,22.28,71l6.48-5.15"/>
        <path class="cls-2" d="M61.61,135.05H56.2v-1.64q0-49.93,0-99.85a3.11,3.11,0,0,0-1.28-2.82c-1.58-1.19-3-2.57-4.58-3.82a1.31,1.31,0,0,1-.46-1.84c3.2-7.56,6.33-15.15,9.46-22.75.3-.72.57-1.56,1.48-1.13a2.1,2.1,0,0,1,.7,1.63q.06,24.27,0,48.54,0,40.91,0,81.82c0,.59,0,1.18,0,1.86"/>
        <path class="cls-1" d="M96,0a.74.74,0,0,1,.84.84.84.84,0,1,1-1.68,0A.74.74,0,0,1,96,0m0,2.24a.74.74,0,0,1,.84.84.84.84,0,0,1-1.68,0A.74.74,0,0,1,96,2.24Zm0,2.23a.74.74,0,0,1,.84.84.84.84,0,0,1-1.68,0A.74.74,0,0,1,96,4.47ZM96,6.7a.74.74,0,0,1,.84.84.84.84,0,1,1-1.68,0A.74.74,0,0,1,96,6.7Zm0,2.23a.74.74,0,0,1,.84.84.84.84,0,0,1-1.68,0A.74.74,0,0,1,96,8.94Zm0,2.23a.74.74,0,0,1,.84.84.84.84,0,1,1-1.68,0A.74.74,0,0,1,96,11.17Zm0,2.23a.74.74,0,0,1,.84.84.84.84,0,0,1-1.68,0A.74.74,0,0,1,96,13.4Zm2.24-2.23a.74.74,0,0,1,.83.84.83.83,0,1,1-1.67,0A.74.74,0,0,1,98.25,11.17Zm1.11-2.23a.74.74,0,0,1,.83.84.83.83,0,1,1-1.67,0A.74.74,0,0,1,99.36,8.94Zm1.12-2.23a.74.74,0,0,1,.84.84.84.84,0,1,1-1.68,0A.74.74,0,0,1,100.48,6.7Zm1.12-2.23a.74.74,0,0,1,.84.84.84.84,0,0,1-1.68,0A.74.74,0,0,1,101.59,4.47Zm1.12-2.23a.74.74,0,0,1,.84.84.84.84,0,0,1-1.68,0A.74.74,0,0,1,102.71,2.24ZM104.94,0a.74.74,0,0,1,.84.84.84.84,0,1,1-1.68,0A.74.74,0,0,1,104.94,0Zm0,2.24a.74.74,0,0,1,.84.84.84.84,0,0,1-1.68,0A.74.74,0,0,1,104.94,2.24Zm0,2.23a.74.74,0,0,1,.84.84.84.84,0,0,1-1.68,0A.74.74,0,0,1,104.94,4.47Zm0,2.23a.74.74,0,0,1,.84.84.84.84,0,0,1-1.68,0A.74.74,0,0,1,104.94,6.7Zm0,2.23a.74.74,0,0,1,.84.84.84.84,0,0,1-1.68,0A.74.74,0,0,1,104.94,8.94Zm0,2.23a.74.74,0,0,1,.84.84.84.84,0,0,1-1.68,0A.74.74,0,0,1,104.94,11.17Zm0,2.23a.74.74,0,0,1,.84.84.84.84,0,0,1-1.68,0A.74.74,0,0,1,104.94,13.4Z"/>
        <path class="cls-1" d="M112,4.47a.74.74,0,0,1,.84.84.84.84,0,0,1-1.68,0,.74.74,0,0,1,.84-.84m0,8.92a.74.74,0,0,1,.84.84.84.84,0,0,1-1.68,0A.74.74,0,0,1,112,13.4Zm0-6.69a.74.74,0,0,1,.84.84.83.83,0,1,1-1.67,0A.74.74,0,0,1,112,6.7Zm0,2.23a.74.74,0,0,1,.84.84.83.83,0,1,1-1.67,0A.74.74,0,0,1,112,8.94Zm0,2.23a.74.74,0,0,1,.84.84.83.83,0,1,1-1.67,0A.74.74,0,0,1,112,11.17Zm2.24-2.23a.74.74,0,0,1,.83.84.83.83,0,1,1-1.67,0A.74.74,0,0,1,114.21,8.94Zm2.23,0a.74.74,0,0,1,.83.84.83.83,0,1,1-1.67,0A.74.74,0,0,1,116.44,8.94Zm2.23,0a.74.74,0,0,1,.83.84.83.83,0,1,1-1.67,0A.74.74,0,0,1,118.67,8.94Zm2.23-4.46a.74.74,0,0,1,.84.84.84.84,0,0,1-1.68,0A.74.74,0,0,1,120.91,4.47Zm0,2.23a.74.74,0,0,1,.84.84.84.84,0,0,1-1.68,0A.74.74,0,0,1,120.91,6.7Zm0,2.23a.74.74,0,0,1,.84.84.84.84,0,0,1-1.68,0A.74.74,0,0,1,120.91,8.94Zm0,2.23a.74.74,0,0,1,.84.84.84.84,0,0,1-1.68,0A.74.74,0,0,1,120.91,11.17Zm0,2.23a.74.74,0,0,1,.84.84.84.84,0,0,1-1.68,0A.74.74,0,0,1,120.91,13.4Z"/>
        <path class="cls-1" d="M127.93,6.7a.74.74,0,0,1,.84.84.84.84,0,1,1-1.68,0,.74.74,0,0,1,.84-.84m0,2.23a.74.74,0,0,1,.84.84.84.84,0,1,1-1.68,0A.74.74,0,0,1,127.93,8.94Zm0,2.23a.74.74,0,0,1,.84.84.84.84,0,1,1-1.68,0A.74.74,0,0,1,127.93,11.17Zm1.13-6.69a.74.74,0,0,1,.83.84.83.83,0,1,1-1.67,0A.74.74,0,0,1,129.06,4.47Zm0,8.92a.74.74,0,0,1,.83.84.83.83,0,1,1-1.67,0A.74.74,0,0,1,129.06,13.4Zm2.23-8.92a.74.74,0,0,1,.83.84.83.83,0,1,1-1.67,0A.74.74,0,0,1,131.29,4.47Zm0,8.92a.74.74,0,0,1,.83.84.83.83,0,1,1-1.67,0A.74.74,0,0,1,131.29,13.4Zm2.23-8.92a.74.74,0,0,1,.84.84.84.84,0,0,1-1.68,0A.74.74,0,0,1,133.52,4.47Zm0,8.92a.74.74,0,0,1,.84.84.84.84,0,0,1-1.68,0A.74.74,0,0,1,133.52,13.4Zm2.23-8.92a.74.74,0,0,1,.84.84.84.84,0,0,1-1.68,0A.74.74,0,0,1,135.76,4.47Zm0,8.92a.74.74,0,0,1,.84.84.84.84,0,0,1-1.68,0A.74.74,0,0,1,135.76,13.4Z"/>
        <path class="cls-1" d="M143.9,4.47a.74.74,0,0,1,.84.84.84.84,0,0,1-1.68,0,.74.74,0,0,1,.84-.84m2.24,0a.74.74,0,0,1,.83.84.83.83,0,1,1-1.67,0A.74.74,0,0,1,146.14,4.47Zm2.23,0a.74.74,0,0,1,.84.84.84.84,0,0,1-1.68,0A.74.74,0,0,1,148.37,4.47Zm0,2.23a.74.74,0,0,1,.84.84.84.84,0,1,1-1.68,0A.74.74,0,0,1,148.37,6.7Zm0,2.23a.74.74,0,0,1,.84.84.84.84,0,1,1-1.68,0A.74.74,0,0,1,148.37,8.94Zm0,2.23a.74.74,0,0,1,.84.84.84.84,0,1,1-1.68,0A.74.74,0,0,1,148.37,11.17Zm0,2.23a.74.74,0,0,1,.84.84.84.84,0,0,1-1.68,0A.74.74,0,0,1,148.37,13.4Zm2.23-8.92a.74.74,0,0,1,.84.84.84.84,0,0,1-1.68,0A.74.74,0,0,1,150.6,4.47Zm2.23,0a.74.74,0,0,1,.84.84.84.84,0,0,1-1.68,0A.74.74,0,0,1,152.84,4.47Z"/>
        <path class="cls-1" d="M159.87,4.47a.74.74,0,0,1,.84.84.84.84,0,0,1-1.68,0,.74.74,0,0,1,.84-.84m0,2.23a.74.74,0,0,1,.84.84.84.84,0,0,1-1.68,0A.74.74,0,0,1,159.87,6.7Zm0,2.23a.74.74,0,0,1,.84.84.84.84,0,0,1-1.68,0A.74.74,0,0,1,159.87,8.94Zm0,2.23a.74.74,0,0,1,.84.84A.84.84,0,0,1,159,12,.74.74,0,0,1,159.87,11.17Zm0,2.23a.74.74,0,0,1,.84.84.84.84,0,0,1-1.68,0A.74.74,0,0,1,159.87,13.4Zm2.24-2.23a.74.74,0,0,1,.83.84.83.83,0,1,1-1.67,0A.74.74,0,0,1,162.11,11.17Zm2.23-2.23a.74.74,0,0,1,.84.84.84.84,0,1,1-1.68,0A.74.74,0,0,1,164.34,8.94Zm2.23-2.23a.74.74,0,0,1,.84.84.84.84,0,0,1-1.68,0A.74.74,0,0,1,166.57,6.7Zm2.23-2.23a.74.74,0,0,1,.84.84.84.84,0,0,1-1.68,0A.74.74,0,0,1,168.8,4.47Zm0,2.23a.74.74,0,0,1,.84.84.84.84,0,1,1-1.68,0A.74.74,0,0,1,168.8,6.7Zm0,2.23a.74.74,0,0,1,.84.84.84.84,0,1,1-1.68,0A.74.74,0,0,1,168.8,8.94Zm0,2.23a.74.74,0,0,1,.84.84A.84.84,0,1,1,168,12,.74.74,0,0,1,168.8,11.17Zm0,2.23a.74.74,0,0,1,.84.84.84.84,0,0,1-1.68,0A.74.74,0,0,1,168.8,13.4Z"/>
        <path class="cls-1" d="M175.83,4.47a.74.74,0,0,1,.84.84.84.84,0,0,1-1.68,0,.74.74,0,0,1,.84-.84m2.24,0a.74.74,0,0,1,.83.84.83.83,0,1,1-1.67,0A.74.74,0,0,1,178.07,4.47Zm2.23,0a.74.74,0,0,1,.84.84.84.84,0,1,1-1.68,0A.74.74,0,0,1,180.31,4.47Zm0,2.23a.74.74,0,0,1,.84.84.84.84,0,1,1-1.68,0A.74.74,0,0,1,180.31,6.7Zm0,2.23a.74.74,0,0,1,.84.84.84.84,0,1,1-1.68,0A.74.74,0,0,1,180.31,8.94Zm0,2.23a.74.74,0,0,1,.84.84.84.84,0,1,1-1.68,0A.74.74,0,0,1,180.31,11.17Zm0,2.23a.74.74,0,0,1,.84.84.84.84,0,1,1-1.68,0A.74.74,0,0,1,180.31,13.4Zm2.23-8.92a.74.74,0,0,1,.84.84.84.84,0,0,1-1.68,0A.74.74,0,0,1,182.54,4.47Zm2.23,0a.74.74,0,0,1,.84.84.84.84,0,0,1-1.68,0A.74.74,0,0,1,184.77,4.47Z"/>
        <path class="cls-1" d="M191.8,4.47a.74.74,0,0,1,.84.84.84.84,0,0,1-1.68,0,.74.74,0,0,1,.84-.84m0,2.23a.74.74,0,0,1,.84.84.84.84,0,0,1-1.68,0A.74.74,0,0,1,191.8,6.7Zm0,2.23a.74.74,0,0,1,.84.84.84.84,0,0,1-1.68,0A.74.74,0,0,1,191.8,8.94Zm1.13,6.7a.73.73,0,0,1,.83.83.83.83,0,1,1-1.67,0A.74.74,0,0,1,192.93,15.64ZM194,11.17a.74.74,0,0,1,.83.84.83.83,0,1,1-1.67,0A.74.74,0,0,1,194,11.17Zm1.11,4.47a.73.73,0,0,1,.83.83.83.83,0,1,1-1.67,0A.74.74,0,0,1,195.16,15.64Zm1.12-4.47a.74.74,0,0,1,.84.84.84.84,0,1,1-1.68,0A.74.74,0,0,1,196.27,11.17Zm1.12,4.47a.74.74,0,0,1,.84.83.84.84,0,1,1-1.68,0A.74.74,0,0,1,197.39,15.64Zm1.12-4.47a.74.74,0,0,1,.84.84.84.84,0,0,1-1.68,0A.74.74,0,0,1,198.5,11.17Zm1.12,4.47a.74.74,0,0,1,.84.83.84.84,0,1,1-1.68,0A.74.74,0,0,1,199.62,15.64Zm1.11-11.17a.74.74,0,0,1,.84.84.84.84,0,0,1-1.68,0A.74.74,0,0,1,200.73,4.47Zm0,2.23a.74.74,0,0,1,.84.84.84.84,0,0,1-1.68,0A.74.74,0,0,1,200.73,6.7Zm0,2.23a.74.74,0,0,1,.84.84.84.84,0,0,1-1.68,0A.74.74,0,0,1,200.73,8.94Zm0,2.23a.74.74,0,0,1,.84.84.84.84,0,0,1-1.68,0A.74.74,0,0,1,200.73,11.17Zm0,2.23a.74.74,0,0,1,.84.84.84.84,0,0,1-1.68,0A.74.74,0,0,1,200.73,13.4Z"/>
        <path class="cls-1" d="M207.76,4.47a.74.74,0,0,1,.84.84.84.84,0,0,1-1.68,0,.74.74,0,0,1,.84-.84m2.24,0a.74.74,0,0,1,.83.84.83.83,0,1,1-1.67,0A.74.74,0,0,1,210,4.47Zm2.23,0a.74.74,0,0,1,.84.84.84.84,0,0,1-1.68,0A.74.74,0,0,1,212.24,4.47Zm0,2.23a.74.74,0,0,1,.84.84.84.84,0,1,1-1.68,0A.74.74,0,0,1,212.24,6.7Zm0,2.23a.74.74,0,0,1,.84.84.84.84,0,1,1-1.68,0A.74.74,0,0,1,212.24,8.94Zm0,2.23a.74.74,0,0,1,.84.84.84.84,0,1,1-1.68,0A.74.74,0,0,1,212.24,11.17Zm0,2.23a.74.74,0,0,1,.84.84.84.84,0,0,1-1.68,0A.74.74,0,0,1,212.24,13.4Zm2.23-8.92a.74.74,0,0,1,.84.84.84.84,0,0,1-1.68,0A.74.74,0,0,1,214.47,4.47Zm2.23,0a.74.74,0,0,1,.84.84.84.84,0,0,1-1.68,0A.74.74,0,0,1,216.7,4.47Z"/>
        <path class="cls-1" d="M96,30a.84.84,0,1,1-.84.84A.74.74,0,0,1,96,30m0,2.24a.83.83,0,1,1-.84.84A.74.74,0,0,1,96,32.27Zm0,2.23a.84.84,0,1,1-.84.84A.74.74,0,0,1,96,34.5Zm0,2.23a.84.84,0,1,1-.84.84A.74.74,0,0,1,96,36.73ZM96,39a.84.84,0,1,1-.84.84A.74.74,0,0,1,96,39Zm0,2.23a.84.84,0,1,1-.84.84A.74.74,0,0,1,96,41.19Zm0,2.23a.84.84,0,1,1-.84.84A.74.74,0,0,1,96,43.42Zm2.24-6.69a.84.84,0,1,1-.84.84A.74.74,0,0,1,98.25,36.73Zm2.23-2.23a.84.84,0,1,1-.84.84A.74.74,0,0,1,100.48,34.5Zm0,4.46a.84.84,0,1,1-.84.84A.74.74,0,0,1,100.48,39Zm2.23-6.69a.83.83,0,1,1-.84.84A.74.74,0,0,1,102.71,32.27Zm0,8.92a.84.84,0,1,1-.84.84A.74.74,0,0,1,102.71,41.19ZM104.94,30a.84.84,0,1,1-.84.84A.74.74,0,0,1,104.94,30Zm0,13.4a.84.84,0,1,1-.84.84A.74.74,0,0,1,104.94,43.42Z"/>
        <path class="cls-1" d="M112,36.73a.84.84,0,1,1-.83.84.74.74,0,0,1,.83-.84M112,39a.84.84,0,1,1-.83.84A.74.74,0,0,1,112,39Zm0,2.23a.84.84,0,1,1-.83.84A.74.74,0,0,1,112,41.19Zm1.13-6.69a.84.84,0,1,1-.84.84A.74.74,0,0,1,113.1,34.5Zm0,8.92a.84.84,0,1,1-.84.84A.74.74,0,0,1,113.1,43.42Zm2.23-8.92a.84.84,0,1,1-.84.84A.74.74,0,0,1,115.33,34.5Zm0,8.92a.84.84,0,1,1-.84.84A.74.74,0,0,1,115.33,43.42Zm2.23-8.92a.84.84,0,1,1-.84.84A.74.74,0,0,1,117.56,34.5Zm0,8.92a.84.84,0,1,1-.84.84A.74.74,0,0,1,117.56,43.42Zm2.23-8.92a.84.84,0,1,1-.84.84A.74.74,0,0,1,119.79,34.5Zm0,8.92a.84.84,0,1,1-.84.84A.74.74,0,0,1,119.79,43.42Zm1.12-6.69a.84.84,0,1,1-.84.84A.74.74,0,0,1,120.91,36.73Zm0,2.23a.84.84,0,1,1-.84.84A.74.74,0,0,1,120.91,39Zm0,2.23a.84.84,0,1,1-.84.84A.74.74,0,0,1,120.91,41.19Z"/>
        <path class="cls-1" d="M127.93,34.5a.84.84,0,1,1-.84.84.74.74,0,0,1,.84-.84m0,8.92a.84.84,0,1,1-.84.84A.74.74,0,0,1,127.93,43.42Zm0-6.69a.84.84,0,1,1-.83.84A.74.74,0,0,1,127.93,36.73Zm0,2.23a.84.84,0,1,1-.83.84A.74.74,0,0,1,127.93,39Zm0,2.23a.84.84,0,1,1-.83.84A.74.74,0,0,1,127.93,41.19Zm2.24-4.46a.84.84,0,1,1-.84.84A.74.74,0,0,1,130.18,36.73ZM132.41,39a.84.84,0,1,1-.84.84A.74.74,0,0,1,132.41,39Zm2.23-2.23a.84.84,0,1,1-.84.84A.74.74,0,0,1,134.64,36.73Zm2.23-2.23a.84.84,0,1,1-.84.84A.74.74,0,0,1,136.87,34.5Zm0,2.23a.84.84,0,1,1-.84.84A.74.74,0,0,1,136.87,36.73Zm0,2.23a.84.84,0,1,1-.84.84A.74.74,0,0,1,136.87,39Zm0,2.23A.84.84,0,1,1,136,42,.74.74,0,0,1,136.87,41.19Zm0,2.23a.84.84,0,1,1-.84.84A.74.74,0,0,1,136.87,43.42Z"/>
        <path class="cls-1" d="M143.9,34.5a.84.84,0,1,1-.84.84.74.74,0,0,1,.84-.84m0,8.92a.84.84,0,1,1-.84.84A.74.74,0,0,1,143.9,43.42Zm0-6.69a.84.84,0,1,1-.83.84A.74.74,0,0,1,143.9,36.73Zm0,2.23a.84.84,0,1,1-.83.84A.74.74,0,0,1,143.9,39Zm0,2.23a.84.84,0,1,1-.83.84A.74.74,0,0,1,143.9,41.19Zm2.24-6.69a.84.84,0,1,1-.84.84A.74.74,0,0,1,146.14,34.5Zm2.23,0a.84.84,0,1,1-.84.84A.74.74,0,0,1,148.37,34.5Zm2.23,0a.84.84,0,1,1-.84.84A.74.74,0,0,1,150.6,34.5Zm2.23,0a.84.84,0,1,1-.84.84A.74.74,0,0,1,152.84,34.5Zm0,2.23a.84.84,0,1,1-.84.84A.74.74,0,0,1,152.84,36.73Zm0,2.23a.84.84,0,1,1-.84.84A.74.74,0,0,1,152.84,39Zm0,2.23A.84.84,0,1,1,152,42,.74.74,0,0,1,152.84,41.19Zm0,2.23a.84.84,0,1,1-.84.84A.74.74,0,0,1,152.84,43.42Z"/>
        <path class="cls-1" d="M162.11,34.5a.84.84,0,1,1-.84.84.74.74,0,0,1,.84-.84m0,2.23a.84.84,0,1,1-.84.84A.74.74,0,0,1,162.11,36.73Zm0,2.23a.84.84,0,1,1-.84.84A.74.74,0,0,1,162.11,39Zm0,2.23a.84.84,0,1,1-.84.84A.74.74,0,0,1,162.11,41.19Zm0,2.23a.84.84,0,1,1-.84.84A.74.74,0,0,1,162.11,43.42ZM164.34,39a.84.84,0,1,1-.84.84A.74.74,0,0,1,164.34,39Zm0,4.46a.84.84,0,1,1-.84.84A.74.74,0,0,1,164.34,43.42ZM166.57,39a.84.84,0,1,1-.84.84A.74.74,0,0,1,166.57,39Zm0,4.46a.84.84,0,1,1-.84.84A.74.74,0,0,1,166.57,43.42ZM168.8,39a.84.84,0,1,1-.84.84A.74.74,0,0,1,168.8,39Zm0,4.46a.84.84,0,1,1-.84.84A.74.74,0,0,1,168.8,43.42Zm1.11-2.23a.84.84,0,1,1-.84.84A.74.74,0,0,1,169.92,41.19Z"/>
        <path class="cls-1" d="M175.83,34.5a.84.84,0,1,1-.84.84.74.74,0,0,1,.84-.84m0,2.23a.84.84,0,1,1-.84.84A.74.74,0,0,1,175.83,36.73Zm0,2.23a.84.84,0,1,1-.84.84A.74.74,0,0,1,175.83,39Zm0,2.23A.84.84,0,1,1,175,42,.74.74,0,0,1,175.83,41.19Zm0,2.23a.84.84,0,1,1-.84.84A.74.74,0,0,1,175.83,43.42ZM178.07,39a.84.84,0,1,1-.84.84A.74.74,0,0,1,178.07,39Zm1.12-2.23a.84.84,0,1,1-.84.84A.74.74,0,0,1,179.19,36.73Zm0,4.46a.84.84,0,1,1-.84.84A.74.74,0,0,1,179.19,41.19Zm1.12-6.69a.84.84,0,1,1-.84.84A.74.74,0,0,1,180.31,34.5Zm0,8.92a.84.84,0,1,1-.84.84A.74.74,0,0,1,180.31,43.42Zm2.23-8.92a.84.84,0,1,1-.84.84A.74.74,0,0,1,182.54,34.5Zm0,8.92a.84.84,0,1,1-.84.84A.74.74,0,0,1,182.54,43.42Zm2.23-6.69a.84.84,0,1,1-.84.84A.74.74,0,0,1,184.77,36.73Zm0,2.23a.84.84,0,1,1-.84.84A.74.74,0,0,1,184.77,39Zm0,2.23a.84.84,0,1,1-.84.84A.74.74,0,0,1,184.77,41.19Z"/>
        <path class="cls-1" d="M191.8,34.5a.84.84,0,1,1-.84.84.74.74,0,0,1,.84-.84m2.24,0a.84.84,0,1,1-.84.84A.74.74,0,0,1,194,34.5Zm2.23,0a.84.84,0,1,1-.84.84A.74.74,0,0,1,196.27,34.5Zm0,2.23a.84.84,0,1,1-.84.84A.74.74,0,0,1,196.27,36.73Zm0,2.23a.84.84,0,1,1-.84.84A.74.74,0,0,1,196.27,39Zm0,2.23a.84.84,0,1,1-.84.84A.74.74,0,0,1,196.27,41.19Zm0,2.23a.84.84,0,1,1-.84.84A.74.74,0,0,1,196.27,43.42Zm2.23-8.92a.84.84,0,1,1-.84.84A.74.74,0,0,1,198.5,34.5Zm2.23,0a.84.84,0,1,1-.84.84A.74.74,0,0,1,200.73,34.5Z"/>
        <path class="cls-1" d="M207.76,36.73a.84.84,0,1,1-.84.84.74.74,0,0,1,.84-.84m0,2.23a.84.84,0,1,1-.84.84A.74.74,0,0,1,207.76,39Zm0,2.23a.84.84,0,1,1-.84.84A.74.74,0,0,1,207.76,41.19ZM210,34.5a.84.84,0,1,1-.84.84A.74.74,0,0,1,210,34.5ZM210,39a.84.84,0,1,1-.84.84A.74.74,0,0,1,210,39Zm0,4.46a.84.84,0,1,1-.84.84A.74.74,0,0,1,210,43.42Zm2.23-8.92a.84.84,0,1,1-.84.84A.74.74,0,0,1,212.24,34.5Zm0,4.46a.84.84,0,1,1-.84.84A.74.74,0,0,1,212.24,39Zm0,4.46a.84.84,0,1,1-.84.84A.74.74,0,0,1,212.24,43.42Zm2.23-8.92a.84.84,0,1,1-.84.84A.74.74,0,0,1,214.47,34.5Zm0,4.46a.84.84,0,1,1-.84.84A.74.74,0,0,1,214.47,39Zm0,4.46a.84.84,0,1,1-.84.84A.74.74,0,0,1,214.47,43.42Zm2.23-6.69a.84.84,0,1,1-.84.84A.74.74,0,0,1,216.7,36.73Zm0,6.69a.84.84,0,1,1-.84.84A.74.74,0,0,1,216.7,43.42Z"/>
        <path class="cls-1" d="M224.86,34.5a.84.84,0,1,1-.84.84.74.74,0,0,1,.84-.84m0,2.23a.84.84,0,1,1-.84.84A.74.74,0,0,1,224.86,36.73Zm0,2.23a.84.84,0,1,1-.84.84A.74.74,0,0,1,224.86,39Zm0,2.23A.84.84,0,1,1,224,42,.74.74,0,0,1,224.86,41.19Zm0,2.23a.84.84,0,1,1-.84.84A.74.74,0,0,1,224.86,43.42Zm0,2.24a.83.83,0,0,1,0,1.67.83.83,0,1,1,0-1.67Zm2.23-11.17a.84.84,0,1,1-.84.84A.74.74,0,0,1,227.09,34.5Zm0,6.69a.84.84,0,1,1-.84.84A.74.74,0,0,1,227.09,41.19Zm2.23-6.69a.84.84,0,1,1-.84.84A.74.74,0,0,1,229.32,34.5Zm0,6.69a.84.84,0,1,1-.84.84A.74.74,0,0,1,229.32,41.19Zm2.23-6.69a.84.84,0,1,1-.84.84A.74.74,0,0,1,231.55,34.5Zm0,6.69a.84.84,0,1,1-.84.84A.74.74,0,0,1,231.55,41.19Zm1.11-4.46a.84.84,0,1,1-.84.84A.74.74,0,0,1,232.67,36.73Zm0,2.23a.84.84,0,1,1-.84.84A.74.74,0,0,1,232.67,39Z"/>
        <path class="cls-1" d="M239.69,34.5a.84.84,0,1,1-.84.84.74.74,0,0,1,.84-.84m0,8.92a.84.84,0,1,1-.84.84A.74.74,0,0,1,239.69,43.42Zm0-6.69a.84.84,0,1,1-.83.84A.74.74,0,0,1,239.69,36.73Zm0,2.23a.84.84,0,1,1-.83.84A.74.74,0,0,1,239.69,39Zm0,2.23a.84.84,0,1,1-.83.84A.74.74,0,0,1,239.69,41.19ZM241.94,39a.84.84,0,1,1-.84.84A.74.74,0,0,1,241.94,39Zm2.23,0a.84.84,0,1,1-.84.84A.74.74,0,0,1,244.17,39Zm2.23,0a.84.84,0,1,1-.84.84A.74.74,0,0,1,246.4,39Zm2.23-4.46a.84.84,0,1,1-.84.84A.74.74,0,0,1,248.63,34.5Zm0,2.23a.84.84,0,1,1-.84.84A.74.74,0,0,1,248.63,36.73Zm0,2.23a.84.84,0,1,1-.84.84A.74.74,0,0,1,248.63,39Zm0,2.23a.84.84,0,1,1-.84.84A.74.74,0,0,1,248.63,41.19Zm0,2.23a.84.84,0,1,1-.84.84A.74.74,0,0,1,248.63,43.42Z"/>
        <path class="cls-1" d="M255.66,34.5a.84.84,0,1,1-.84.84.74.74,0,0,1,.84-.84m0,2.23a.84.84,0,1,1-.84.84A.74.74,0,0,1,255.66,36.73Zm0,2.23a.84.84,0,1,1-.84.84A.74.74,0,0,1,255.66,39Zm0,2.23a.84.84,0,1,1-.84.84A.74.74,0,0,1,255.66,41.19Zm0,2.23a.84.84,0,1,1-.84.84A.74.74,0,0,1,255.66,43.42ZM257.9,39a.84.84,0,1,1-.84.84A.74.74,0,0,1,257.9,39Zm0,4.46a.84.84,0,1,1-.84.84A.74.74,0,0,1,257.9,43.42ZM260.13,39a.84.84,0,1,1-.84.84A.74.74,0,0,1,260.13,39Zm0,4.46a.84.84,0,1,1-.84.84A.74.74,0,0,1,260.13,43.42ZM262.36,39a.84.84,0,1,1-.84.84A.74.74,0,0,1,262.36,39Zm0,4.46a.84.84,0,1,1-.84.84A.74.74,0,0,1,262.36,43.42Zm1.12-2.23a.84.84,0,1,1-.84.84A.74.74,0,0,1,263.48,41.19Zm2.23-6.69a.84.84,0,1,1-.84.84A.74.74,0,0,1,265.71,34.5Zm0,2.23a.84.84,0,1,1-.84.84A.74.74,0,0,1,265.71,36.73Zm0,2.23a.84.84,0,1,1-.84.84A.74.74,0,0,1,265.71,39Zm0,2.23a.84.84,0,1,1-.84.84A.74.74,0,0,1,265.71,41.19Zm0,2.23a.84.84,0,1,1-.84.84A.74.74,0,0,1,265.71,43.42Z"/>
        <path class="cls-1" d="M271.63,34.5a.84.84,0,1,1-.84.84.74.74,0,0,1,.84-.84m0,8.92a.84.84,0,1,1-.84.84A.74.74,0,0,1,271.63,43.42Zm2.24-6.69a.84.84,0,1,1-.84.84A.74.74,0,0,1,273.87,36.73Zm0,4.46A.84.84,0,1,1,273,42,.74.74,0,0,1,273.87,41.19ZM276.1,39a.84.84,0,1,1-.84.84A.74.74,0,0,1,276.1,39Zm2.23-2.23a.84.84,0,1,1-.84.84A.74.74,0,0,1,278.33,36.73Zm0,4.46a.84.84,0,1,1-.84.84A.74.74,0,0,1,278.33,41.19Zm2.23-6.69a.84.84,0,1,1-.84.84A.74.74,0,0,1,280.56,34.5Zm0,8.92a.84.84,0,1,1-.84.84A.74.74,0,0,1,280.56,43.42Z"/>
        <path class="cls-1" d="M96,60.06a.84.84,0,1,1-.84.84.74.74,0,0,1,.84-.84m2.23,0a.84.84,0,1,1-.84.84A.74.74,0,0,1,98.23,60.06Zm2.23,0a.84.84,0,1,1-.84.84A.74.74,0,0,1,100.47,60.06Zm0,2.24a.83.83,0,1,1-.84.84A.74.74,0,0,1,100.47,62.3Zm0,2.23a.84.84,0,1,1-.84.84A.74.74,0,0,1,100.47,64.53Zm0,2.23a.84.84,0,1,1-.84.84A.74.74,0,0,1,100.47,66.76Zm0,2.23a.84.84,0,1,1-.84.84A.74.74,0,0,1,100.47,69Zm0,2.23a.84.84,0,1,1-.84.84A.74.74,0,0,1,100.47,71.22Zm0,2.23a.84.84,0,1,1-.84.84A.74.74,0,0,1,100.47,73.45Zm2.23-13.4a.84.84,0,1,1-.84.84A.74.74,0,0,1,102.7,60.06Zm2.23,0a.84.84,0,1,1-.84.84A.74.74,0,0,1,104.93,60.06Z"/>
        <path class="cls-1" d="M109.73,66.76a.84.84,0,1,1-.84.84.74.74,0,0,1,.84-.84m0,2.23a.84.84,0,1,1-.84.84A.74.74,0,0,1,109.73,69Zm0,2.23a.84.84,0,1,1-.84.84A.74.74,0,0,1,109.73,71.22ZM112,64.53a.84.84,0,1,1-.84.84A.74.74,0,0,1,112,64.53ZM112,69a.84.84,0,1,1-.84.84A.74.74,0,0,1,112,69Zm0,4.46a.84.84,0,1,1-.84.84A.74.74,0,0,1,112,73.45Zm2.23-8.92a.84.84,0,1,1-.84.84A.74.74,0,0,1,114.2,64.53Zm0,4.46a.84.84,0,1,1-.84.84A.74.74,0,0,1,114.2,69Zm0,4.46a.84.84,0,1,1-.84.84A.74.74,0,0,1,114.2,73.45Zm2.23-8.92a.84.84,0,1,1-.84.84A.74.74,0,0,1,116.43,64.53Zm0,4.46a.84.84,0,1,1-.84.84A.74.74,0,0,1,116.43,69Zm0,4.46a.84.84,0,1,1-.84.84A.74.74,0,0,1,116.43,73.45Zm2.23-6.69a.84.84,0,1,1-.84.84A.74.74,0,0,1,118.66,66.76Zm0,6.69a.84.84,0,1,1-.84.84A.74.74,0,0,1,118.66,73.45Z"/>
        <path class="cls-1" d="M125.69,64.53a.84.84,0,1,1-.84.84.74.74,0,0,1,.84-.84m0,8.92a.84.84,0,1,1-.84.84A.74.74,0,0,1,125.69,73.45Zm2.24-6.69a.84.84,0,1,1-.84.84A.74.74,0,0,1,127.93,66.76Zm0,4.46a.84.84,0,1,1-.84.84A.74.74,0,0,1,127.93,71.22ZM130.17,69a.84.84,0,1,1-.84.84A.74.74,0,0,1,130.17,69Zm2.23-2.23a.84.84,0,1,1-.84.84A.74.74,0,0,1,132.4,66.76Zm0,4.46a.84.84,0,1,1-.84.84A.74.74,0,0,1,132.4,71.22Zm2.23-6.69a.84.84,0,1,1-.84.84A.74.74,0,0,1,134.63,64.53Zm0,8.92a.84.84,0,1,1-.84.84A.74.74,0,0,1,134.63,73.45Z"/>
        <path class="cls-1" d="M141.66,64.53a.84.84,0,1,1-.84.84.74.74,0,0,1,.84-.84m0,8.92a.84.84,0,1,1-.84.84A.74.74,0,0,1,141.66,73.45Zm0-6.69a.84.84,0,1,1-.83.84A.74.74,0,0,1,141.66,66.76Zm0,2.23a.84.84,0,1,1-.83.84A.74.74,0,0,1,141.66,69Zm0,2.23a.84.84,0,1,1-.83.84A.74.74,0,0,1,141.66,71.22ZM143.9,69a.84.84,0,1,1-.84.84A.74.74,0,0,1,143.9,69Zm2.23,0a.84.84,0,1,1-.84.84A.74.74,0,0,1,146.13,69Zm2.23,0a.84.84,0,1,1-.84.84A.74.74,0,0,1,148.36,69Zm2.23-4.46a.84.84,0,1,1-.84.84A.74.74,0,0,1,150.59,64.53Zm0,2.23a.84.84,0,1,1-.84.84A.74.74,0,0,1,150.59,66.76Zm0,2.23a.84.84,0,1,1-.84.84A.74.74,0,0,1,150.59,69Zm0,2.23a.84.84,0,1,1-.84.84A.74.74,0,0,1,150.59,71.22Zm0,2.23a.84.84,0,1,1-.84.84A.74.74,0,0,1,150.59,73.45Z"/>
        <path class="cls-1" d="M157.62,66.76a.84.84,0,1,1-.83.84.74.74,0,0,1,.83-.84m0,2.23a.84.84,0,1,1-.83.84A.74.74,0,0,1,157.62,69Zm0,2.23a.84.84,0,1,1-.83.84A.74.74,0,0,1,157.62,71.22Zm1.13-6.69a.84.84,0,1,1-.84.84A.74.74,0,0,1,158.75,64.53Zm0,8.92a.84.84,0,1,1-.84.84A.74.74,0,0,1,158.75,73.45ZM161,64.53a.84.84,0,1,1-.84.84A.74.74,0,0,1,161,64.53Zm0,8.92a.84.84,0,1,1-.84.84A.74.74,0,0,1,161,73.45Zm2.23-8.92a.84.84,0,1,1-.84.84A.74.74,0,0,1,163.21,64.53Zm0,8.92a.84.84,0,1,1-.84.84A.74.74,0,0,1,163.21,73.45Zm2.23-8.92a.84.84,0,1,1-.84.84A.74.74,0,0,1,165.44,64.53Zm0,8.92a.84.84,0,1,1-.84.84A.74.74,0,0,1,165.44,73.45Zm1.11-6.69a.84.84,0,1,1-.84.84A.74.74,0,0,1,166.56,66.76Zm0,2.23a.84.84,0,1,1-.84.84A.74.74,0,0,1,166.56,69Zm0,2.23a.84.84,0,1,1-.84.84A.74.74,0,0,1,166.56,71.22Z"/><path class="cls-1" d="M173.59,73.45a.84.84,0,1,1-.84.84.74.74,0,0,1,.84-.84m1.13-2.23a.84.84,0,1,1-.84.84A.74.74,0,0,1,174.72,71.22ZM175.83,69a.84.84,0,1,1-.84.84A.74.74,0,0,1,175.83,69Zm1.12-2.23a.84.84,0,1,1-.84.84A.74.74,0,0,1,176.95,66.76Zm1.12-2.23a.84.84,0,1,1-.84.84A.74.74,0,0,1,178.06,64.53Zm2.23,0a.84.84,0,1,1-.84.84A.74.74,0,0,1,180.29,64.53Zm2.23,0a.84.84,0,1,1-.84.84A.74.74,0,0,1,182.52,64.53Zm0,2.23a.84.84,0,1,1-.84.84A.74.74,0,0,1,182.52,66.76Zm0,2.23a.84.84,0,1,1-.84.84A.74.74,0,0,1,182.52,69Zm0,2.23a.84.84,0,1,1-.84.84A.74.74,0,0,1,182.52,71.22Zm0,2.23a.84.84,0,1,1-.84.84A.74.74,0,0,1,182.52,73.45Z"/><path class="cls-1" d="M189.55,66.76a.84.84,0,1,1-.83.84.74.74,0,0,1,.83-.84m0,2.23a.84.84,0,1,1-.83.84A.74.74,0,0,1,189.55,69Zm0,2.23a.84.84,0,1,1-.83.84A.74.74,0,0,1,189.55,71.22Zm1.13-6.69a.84.84,0,1,1-.84.84A.74.74,0,0,1,190.68,64.53Zm0,8.92a.84.84,0,1,1-.84.84A.74.74,0,0,1,190.68,73.45Zm2.23-8.92a.84.84,0,1,1-.84.84A.74.74,0,0,1,192.91,64.53Zm0,8.92a.84.84,0,1,1-.84.84A.74.74,0,0,1,192.91,73.45Zm2.23-8.92a.84.84,0,1,1-.84.84A.74.74,0,0,1,195.14,64.53Zm0,8.92a.84.84,0,1,1-.84.84A.74.74,0,0,1,195.14,73.45Zm2.23-8.92a.84.84,0,1,1-.84.84A.74.74,0,0,1,197.38,64.53Zm0,8.92a.84.84,0,1,1-.84.84A.74.74,0,0,1,197.38,73.45Zm1.11-6.69a.84.84,0,1,1-.84.84A.74.74,0,0,1,198.49,66.76Zm0,2.23a.84.84,0,1,1-.84.84A.74.74,0,0,1,198.49,69Zm0,2.23a.84.84,0,1,1-.84.84A.74.74,0,0,1,198.49,71.22Z"/><path class="cls-1" d="M205.52,64.53a.84.84,0,1,1-.84.84.74.74,0,0,1,.84-.84m0,2.23a.84.84,0,1,1-.84.84A.74.74,0,0,1,205.52,66.76Zm0,2.23a.84.84,0,1,1-.84.84A.74.74,0,0,1,205.52,69Zm0,2.23a.84.84,0,1,1-.84.84A.74.74,0,0,1,205.52,71.22Zm0,2.23a.84.84,0,1,1-.84.84A.74.74,0,0,1,205.52,73.45Zm2.24-8.92a.84.84,0,1,1-.84.84A.74.74,0,0,1,207.76,64.53Zm2.23,0a.84.84,0,1,1-.84.84A.74.74,0,0,1,210,64.53Zm2.23,0a.84.84,0,1,1-.84.84A.74.74,0,0,1,212.22,64.53Z"/><path class="cls-1" d="M221.49,64.53a.84.84,0,1,1-.84.84.74.74,0,0,1,.84-.84m0,2.23a.84.84,0,1,1-.84.84A.74.74,0,0,1,221.49,66.76Zm0,2.23a.84.84,0,1,1-.84.84A.74.74,0,0,1,221.49,69Zm0,2.23a.84.84,0,1,1-.84.84A.74.74,0,0,1,221.49,71.22Zm0,2.23a.84.84,0,1,1-.84.84A.74.74,0,0,1,221.49,73.45Zm2.24-2.23a.84.84,0,1,1-.84.84A.74.74,0,0,1,223.73,71.22ZM226,69a.84.84,0,1,1-.84.84A.74.74,0,0,1,226,69Zm2.23-2.23a.84.84,0,1,1-.84.84A.74.74,0,0,1,228.19,66.76Zm2.23-2.23a.84.84,0,1,1-.84.84A.74.74,0,0,1,230.42,64.53Zm0,2.23a.84.84,0,1,1-.84.84A.74.74,0,0,1,230.42,66.76Zm0,2.23a.84.84,0,1,1-.84.84A.74.74,0,0,1,230.42,69Zm0,2.23a.84.84,0,1,1-.84.84A.74.74,0,0,1,230.42,71.22Zm0,2.23a.84.84,0,1,1-.84.84A.74.74,0,0,1,230.42,73.45Z"/><path class="cls-1" d="M237.45,64.53a.84.84,0,1,1-.84.84.74.74,0,0,1,.84-.84m0,2.23a.84.84,0,1,1-.84.84A.74.74,0,0,1,237.45,66.76Zm0,2.23a.84.84,0,1,1-.84.84A.74.74,0,0,1,237.45,69Zm0,2.23a.84.84,0,1,1-.84.84A.74.74,0,0,1,237.45,71.22Zm0,2.23a.84.84,0,1,1-.84.84A.74.74,0,0,1,237.45,73.45Zm2.24-2.23a.84.84,0,1,1-.84.84A.74.74,0,0,1,239.69,71.22Zm1.12-11.17a.84.84,0,1,1-.84.84A.74.74,0,0,1,240.81,60.06Zm1.12,2.24a.84.84,0,1,1-.84.84A.74.74,0,0,1,241.93,62.3Zm0,6.69a.84.84,0,1,1-.84.84A.74.74,0,0,1,241.93,69ZM243,60.06a.84.84,0,1,1-.84.84A.74.74,0,0,1,243,60.06Zm1.11,6.7a.84.84,0,1,1-.84.84A.74.74,0,0,1,244.16,66.76Zm2.23-2.23a.84.84,0,1,1-.84.84A.74.74,0,0,1,246.39,64.53Zm0,2.23a.84.84,0,1,1-.84.84A.74.74,0,0,1,246.39,66.76Zm0,2.23a.84.84,0,1,1-.84.84A.74.74,0,0,1,246.39,69Zm0,2.23a.84.84,0,1,1-.84.84A.74.74,0,0,1,246.39,71.22Zm0,2.23a.84.84,0,1,1-.84.84A.74.74,0,0,1,246.39,73.45Z"/>
        <path class="cls-1" d="M269.38,64.53a.84.84,0,1,1-.84.84.74.74,0,0,1,.84-.84m0,2.23a.84.84,0,1,1-.84.84A.74.74,0,0,1,269.38,66.76Zm0,2.23a.84.84,0,1,1-.84.84A.74.74,0,0,1,269.38,69Zm0,2.23a.84.84,0,1,1-.84.84A.74.74,0,0,1,269.38,71.22Zm0,2.23a.84.84,0,1,1-.84.84A.74.74,0,0,1,269.38,73.45Zm2.24-2.23a.84.84,0,1,1-.84.84A.74.74,0,0,1,271.63,71.22ZM273.86,69a.84.84,0,1,1-.84.84A.74.74,0,0,1,273.86,69Zm2.23-2.23a.84.84,0,1,1-.84.84A.74.74,0,0,1,276.09,66.76Zm2.23-2.23a.84.84,0,1,1-.84.84A.74.74,0,0,1,278.32,64.53Zm0,2.23a.84.84,0,1,1-.84.84A.74.74,0,0,1,278.32,66.76Zm0,2.23a.84.84,0,1,1-.84.84A.74.74,0,0,1,278.32,69Zm0,2.23a.84.84,0,1,1-.84.84A.74.74,0,0,1,278.32,71.22Zm0,2.23a.84.84,0,1,1-.84.84A.74.74,0,0,1,278.32,73.45Z"/>
        <path class="cls-1" d="M96,90.07a.84.84,0,1,1-.84.84.74.74,0,0,1,.84-.84m0,2.24a.83.83,0,1,1-.84.84A.74.74,0,0,1,96,92.32Zm0,2.23a.84.84,0,1,1-.84.84A.74.74,0,0,1,96,94.55Zm0,2.23a.84.84,0,1,1-.84.84A.74.74,0,0,1,96,96.78ZM96,99a.84.84,0,1,1-.84.84A.74.74,0,0,1,96,99Zm0,2.23a.84.84,0,1,1-.84.84A.74.74,0,0,1,96,101.24Zm0,2.23a.84.84,0,1,1-.84.84A.74.74,0,0,1,96,103.47Zm2.24-2.23a.84.84,0,1,1-.84.84A.74.74,0,0,1,98.25,101.24ZM99.36,99a.84.84,0,1,1-.84.84A.74.74,0,0,1,99.36,99Zm1.12-2.23a.84.84,0,1,1-.84.84A.74.74,0,0,1,100.48,96.78Zm1.12-2.23a.84.84,0,1,1-.84.84A.74.74,0,0,1,101.59,94.55Zm1.12-2.23a.83.83,0,1,1-.84.84A.74.74,0,0,1,102.71,92.32Zm2.23-2.24a.84.84,0,1,1-.84.84A.74.74,0,0,1,104.94,90.07Zm0,2.24a.83.83,0,1,1-.84.84A.74.74,0,0,1,104.94,92.32Zm0,2.23a.84.84,0,1,1-.84.84A.74.74,0,0,1,104.94,94.55Zm0,2.23a.84.84,0,1,1-.84.84A.74.74,0,0,1,104.94,96.78Zm0,2.23a.84.84,0,1,1-.84.84A.74.74,0,0,1,104.94,99Zm0,2.23a.84.84,0,1,1-.84.84A.74.74,0,0,1,104.94,101.24Zm0,2.23a.84.84,0,1,1-.84.84A.74.74,0,0,1,104.94,103.47Z"/>
        <path class="cls-1" d="M112,94.55a.84.84,0,1,1-.84.84.74.74,0,0,1,.84-.84m0,8.92a.84.84,0,1,1-.84.84A.74.74,0,0,1,112,103.47Zm0-6.69a.84.84,0,1,1-.83.84A.74.74,0,0,1,112,96.78ZM112,99a.84.84,0,1,1-.83.84A.74.74,0,0,1,112,99Zm0,2.23a.84.84,0,1,1-.83.84A.74.74,0,0,1,112,101.24ZM114.21,99a.84.84,0,1,1-.84.84A.74.74,0,0,1,114.21,99Zm2.23,0a.84.84,0,1,1-.84.84A.74.74,0,0,1,116.44,99Zm2.23,0a.84.84,0,1,1-.84.84A.74.74,0,0,1,118.67,99Zm2.23-4.46a.84.84,0,1,1-.84.84A.74.74,0,0,1,120.91,94.55Zm0,2.23a.84.84,0,1,1-.84.84A.74.74,0,0,1,120.91,96.78Zm0,2.23a.84.84,0,1,1-.84.84A.74.74,0,0,1,120.91,99Zm0,2.23a.84.84,0,1,1-.84.84A.74.74,0,0,1,120.91,101.24Zm0,2.23a.84.84,0,1,1-.84.84A.74.74,0,0,1,120.91,103.47Z"/>
        <path class="cls-1" d="M127.93,96.78a.84.84,0,1,1-.84.84.74.74,0,0,1,.84-.84m0,2.23a.84.84,0,1,1-.84.84A.74.74,0,0,1,127.93,99Zm1.13-4.46a.84.84,0,1,1-.84.84A.74.74,0,0,1,129.06,94.55Zm0,6.69a.84.84,0,1,1-.84.84A.74.74,0,0,1,129.06,101.24Zm2.23-6.69a.84.84,0,1,1-.84.84A.74.74,0,0,1,131.29,94.55Zm0,6.69a.84.84,0,1,1-.84.84A.74.74,0,0,1,131.29,101.24Zm1.12-4.46a.84.84,0,1,1-.84.84A.74.74,0,0,1,132.41,96.78Zm0,2.23a.84.84,0,1,1-.84.84A.74.74,0,0,1,132.41,99Zm0,4.47a.83.83,0,1,1-.84.83A.74.74,0,0,1,132.41,103.49Zm0,2.23a.83.83,0,1,1-.84.83A.74.74,0,0,1,132.41,105.72Zm1.12-11.17a.84.84,0,1,1-.84.84A.74.74,0,0,1,133.52,94.55Zm0,6.69a.84.84,0,1,1-.84.84A.74.74,0,0,1,133.52,101.24Zm2.23-6.69a.84.84,0,1,1-.84.84A.74.74,0,0,1,135.76,94.55Zm0,6.69a.84.84,0,1,1-.84.84A.74.74,0,0,1,135.76,101.24Zm1.11-4.46a.84.84,0,1,1-.84.84A.74.74,0,0,1,136.87,96.78Zm0,2.23a.84.84,0,1,1-.84.84A.74.74,0,0,1,136.87,99Z"/>
        <path class="cls-1" d="M143.9,96.78a.84.84,0,1,1-.83.84.74.74,0,0,1,.83-.84m0,2.23a.84.84,0,1,1-.83.84A.74.74,0,0,1,143.9,99Zm0,2.23a.84.84,0,1,1-.83.84A.74.74,0,0,1,143.9,101.24ZM145,94.55a.84.84,0,1,1-.84.84A.74.74,0,0,1,145,94.55Zm0,8.92a.84.84,0,1,1-.84.84A.74.74,0,0,1,145,103.47Zm2.23-8.92a.84.84,0,1,1-.84.84A.74.74,0,0,1,147.26,94.55Zm0,8.92a.84.84,0,1,1-.84.84A.74.74,0,0,1,147.26,103.47Zm2.23-8.92a.84.84,0,1,1-.84.84A.74.74,0,0,1,149.49,94.55Zm0,8.92a.84.84,0,1,1-.84.84A.74.74,0,0,1,149.49,103.47Zm2.23-8.92a.84.84,0,1,1-.84.84A.74.74,0,0,1,151.72,94.55Zm0,8.92a.84.84,0,1,1-.84.84A.74.74,0,0,1,151.72,103.47Zm1.11-6.69a.84.84,0,1,1-.84.84A.74.74,0,0,1,152.84,96.78Zm0,2.23a.84.84,0,1,1-.84.84A.74.74,0,0,1,152.84,99Zm0,2.23a.84.84,0,1,1-.84.84A.74.74,0,0,1,152.84,101.24Z"/>
        <path class="cls-1" d="M161,94.55a.84.84,0,1,1-.84.84.74.74,0,0,1,.84-.84m0,2.23a.84.84,0,1,1-.84.84A.74.74,0,0,1,161,96.78ZM161,99a.84.84,0,1,1-.84.84A.74.74,0,0,1,161,99Zm0,2.23a.84.84,0,1,1-.84.84A.74.74,0,0,1,161,101.24Zm0,2.23a.84.84,0,1,1-.84.84A.74.74,0,0,1,161,103.47Zm0,2.24a.83.83,0,0,1,0,1.67.83.83,0,1,1,0-1.67Zm2.23-11.17a.84.84,0,1,1-.84.84A.74.74,0,0,1,163.22,94.55Zm0,6.69a.84.84,0,1,1-.84.84A.74.74,0,0,1,163.22,101.24Zm2.23-6.69a.84.84,0,1,1-.84.84A.74.74,0,0,1,165.46,94.55Zm0,6.69a.84.84,0,1,1-.84.84A.74.74,0,0,1,165.46,101.24Zm2.23-6.69a.84.84,0,1,1-.84.84A.74.74,0,0,1,167.69,94.55Zm0,6.69a.84.84,0,1,1-.84.84A.74.74,0,0,1,167.69,101.24Zm1.12-4.46a.84.84,0,1,1-.84.84A.74.74,0,0,1,168.8,96.78Zm0,2.23a.84.84,0,1,1-.84.84A.74.74,0,0,1,168.8,99Z"/>
        <path class="cls-1" d="M175.83,94.55a.84.84,0,1,1-.84.84.74.74,0,0,1,.84-.84m0,8.92a.84.84,0,1,1-.84.84A.74.74,0,0,1,175.83,103.47Zm0-6.69a.84.84,0,1,1-.83.84A.74.74,0,0,1,175.83,96.78Zm0,2.23a.84.84,0,1,1-.83.84A.74.74,0,0,1,175.83,99Zm0,2.23a.84.84,0,1,1-.83.84A.74.74,0,0,1,175.83,101.24Zm2.24-4.46a.84.84,0,1,1-.84.84A.74.74,0,0,1,178.07,96.78ZM180.31,99a.84.84,0,1,1-.84.84A.74.74,0,0,1,180.31,99Zm2.23-2.23a.84.84,0,1,1-.84.84A.74.74,0,0,1,182.54,96.78Zm2.23-2.23a.84.84,0,1,1-.84.84A.74.74,0,0,1,184.77,94.55Zm0,2.23a.84.84,0,1,1-.84.84A.74.74,0,0,1,184.77,96.78Zm0,2.23a.84.84,0,1,1-.84.84A.74.74,0,0,1,184.77,99Zm0,2.23a.84.84,0,1,1-.84.84A.74.74,0,0,1,184.77,101.24Zm0,2.23a.84.84,0,1,1-.84.84A.74.74,0,0,1,184.77,103.47Z"/>
        <path class="cls-1" d="M191.8,101.24a.84.84,0,1,1-.84.84.74.74,0,0,1,.84-.84m1.13-6.69a.84.84,0,1,1-.84.84A.74.74,0,0,1,192.93,94.55Zm0,4.46a.84.84,0,1,1-.84.84A.74.74,0,0,1,192.93,99Zm0,4.46a.84.84,0,1,1-.84.84A.74.74,0,0,1,192.93,103.47Zm2.23-8.92a.84.84,0,1,1-.84.84A.74.74,0,0,1,195.16,94.55Zm0,4.46a.84.84,0,1,1-.84.84A.74.74,0,0,1,195.16,99Zm0,4.46a.84.84,0,1,1-.84.84A.74.74,0,0,1,195.16,103.47Zm2.23-8.92a.84.84,0,1,1-.84.84A.74.74,0,0,1,197.39,94.55Zm0,4.46a.84.84,0,1,1-.84.84A.74.74,0,0,1,197.39,99Zm0,4.46a.84.84,0,1,1-.84.84A.74.74,0,0,1,197.39,103.47Zm2.23-8.92a.84.84,0,1,1-.84.84A.74.74,0,0,1,199.62,94.55Zm0,6.69a.84.84,0,1,1-.84.84A.74.74,0,0,1,199.62,101.24Zm1.11-4.46a.84.84,0,1,1-.84.84A.74.74,0,0,1,200.73,96.78Zm0,2.23a.84.84,0,1,1-.84.84A.74.74,0,0,1,200.73,99Zm0,4.46a.84.84,0,1,1-.84.84A.74.74,0,0,1,200.73,103.47Z"/>
        <path class="cls-1" d="M207.76,94.55a.84.84,0,1,1-.84.84.74.74,0,0,1,.84-.84m0,2.23a.84.84,0,1,1-.84.84A.74.74,0,0,1,207.76,96.78Zm0,2.23a.84.84,0,1,1-.84.84A.74.74,0,0,1,207.76,99Zm0,2.23a.84.84,0,1,1-.84.84A.74.74,0,0,1,207.76,101.24Zm0,2.24a.83.83,0,1,1-.84.83A.74.74,0,0,1,207.76,103.49Zm2.24,0a.83.83,0,0,1,0,1.67.83.83,0,1,1,0-1.67Zm2.23,0a.83.83,0,1,1-.84.83A.74.74,0,0,1,212.24,103.49Zm2.23,0a.83.83,0,1,1-.84.83A.74.74,0,0,1,214.47,103.49Zm2.23-8.94a.84.84,0,1,1-.84.84A.74.74,0,0,1,216.7,94.55Zm0,2.23a.84.84,0,1,1-.84.84A.74.74,0,0,1,216.7,96.78Zm0,2.23a.84.84,0,1,1-.84.84A.74.74,0,0,1,216.7,99Zm0,2.23a.84.84,0,1,1-.84.84A.74.74,0,0,1,216.7,101.24Zm0,2.23a.84.84,0,1,1-.84.84A.74.74,0,0,1,216.7,103.47Zm2.23,0a.84.84,0,1,1-.84.84A.74.74,0,0,1,218.93,103.47Zm0,2.24a.83.83,0,1,1-.84.83A.74.74,0,0,1,218.93,105.72Z"/>
        <path class="cls-1" d="M223.73,94.55a.84.84,0,1,1-.84.84.74.74,0,0,1,.84-.84m0,2.23a.84.84,0,1,1-.84.84A.74.74,0,0,1,223.73,96.78Zm0,2.23a.84.84,0,1,1-.84.84A.74.74,0,0,1,223.73,99Zm0,2.23a.84.84,0,1,1-.84.84A.74.74,0,0,1,223.73,101.24Zm0,2.23a.84.84,0,1,1-.84.84A.74.74,0,0,1,223.73,103.47Zm2.24-2.23a.84.84,0,1,1-.84.84A.74.74,0,0,1,226,101.24ZM228.2,99a.84.84,0,1,1-.84.84A.74.74,0,0,1,228.2,99Zm2.23-2.23a.84.84,0,1,1-.84.84A.74.74,0,0,1,230.43,96.78Zm2.23-2.23a.84.84,0,1,1-.84.84A.74.74,0,0,1,232.67,94.55Zm0,2.23a.84.84,0,1,1-.84.84A.74.74,0,0,1,232.67,96.78Zm0,2.23a.84.84,0,1,1-.84.84A.74.74,0,0,1,232.67,99Zm0,2.23a.84.84,0,1,1-.84.84A.74.74,0,0,1,232.67,101.24Zm0,2.23a.84.84,0,1,1-.84.84A.74.74,0,0,1,232.67,103.47Z"/>
        <path class="cls-1" d="M239.69,96.78a.84.84,0,1,1-.83.84.74.74,0,0,1,.83-.84m0,2.23a.84.84,0,1,1-.83.84A.74.74,0,0,1,239.69,99Zm0,2.23a.84.84,0,1,1-.83.84A.74.74,0,0,1,239.69,101.24Zm1.13-6.69a.84.84,0,1,1-.84.84A.74.74,0,0,1,240.82,94.55Zm0,8.92a.84.84,0,1,1-.84.84A.74.74,0,0,1,240.82,103.47Zm2.23-8.92a.84.84,0,1,1-.84.84A.74.74,0,0,1,243.05,94.55Zm0,8.92a.84.84,0,1,1-.84.84A.74.74,0,0,1,243.05,103.47Zm2.23-8.92a.84.84,0,1,1-.84.84A.74.74,0,0,1,245.28,94.55Zm0,8.92a.84.84,0,1,1-.84.84A.74.74,0,0,1,245.28,103.47Zm2.23-8.92a.84.84,0,1,1-.84.84A.74.74,0,0,1,247.52,94.55Zm0,8.92a.84.84,0,1,1-.84.84A.74.74,0,0,1,247.52,103.47Zm1.11-6.69a.84.84,0,1,1-.84.84A.74.74,0,0,1,248.63,96.78Zm0,2.23a.84.84,0,1,1-.84.84A.74.74,0,0,1,248.63,99Zm0,2.23a.84.84,0,1,1-.84.84A.74.74,0,0,1,248.63,101.24Z"/>
        <path class="cls-1" d="M255.66,94.55a.84.84,0,1,1-.84.84.74.74,0,0,1,.84-.84m0,8.92a.84.84,0,1,1-.84.84A.74.74,0,0,1,255.66,103.47Zm0-6.69a.84.84,0,1,1-.83.84A.74.74,0,0,1,255.66,96.78Zm0,2.23a.84.84,0,1,1-.83.84A.74.74,0,0,1,255.66,99Zm0,2.23a.84.84,0,1,1-.83.84A.74.74,0,0,1,255.66,101.24ZM257.9,99a.84.84,0,1,1-.84.84A.74.74,0,0,1,257.9,99Zm2.23,0a.84.84,0,1,1-.84.84A.74.74,0,0,1,260.13,99Zm2.23,0a.84.84,0,1,1-.84.84A.74.74,0,0,1,262.36,99Zm2.23-4.46a.84.84,0,1,1-.84.84A.74.74,0,0,1,264.6,94.55Zm0,2.23a.84.84,0,1,1-.84.84A.74.74,0,0,1,264.6,96.78Zm0,2.23a.84.84,0,1,1-.84.84A.74.74,0,0,1,264.6,99Zm0,2.23a.84.84,0,1,1-.84.84A.74.74,0,0,1,264.6,101.24Zm0,2.23a.84.84,0,1,1-.84.84A.74.74,0,0,1,264.6,103.47Z"/><path class="cls-1" d="M271.63,94.55a.84.84,0,1,1-.84.84.74.74,0,0,1,.84-.84m0,8.92a.84.84,0,1,1-.84.84A.74.74,0,0,1,271.63,103.47Zm0-6.69a.84.84,0,1,1-.83.84A.74.74,0,0,1,271.63,96.78Zm0,2.23a.84.84,0,1,1-.83.84A.74.74,0,0,1,271.63,99Zm0,2.23a.84.84,0,1,1-.83.84A.74.74,0,0,1,271.63,101.24ZM273.87,99a.84.84,0,1,1-.84.84A.74.74,0,0,1,273.87,99Zm2.23,0a.84.84,0,1,1-.84.84A.74.74,0,0,1,276.1,99Zm2.23,0a.84.84,0,1,1-.84.84A.74.74,0,0,1,278.33,99Zm2.23-4.46a.84.84,0,1,1-.84.84A.74.74,0,0,1,280.56,94.55Zm0,2.23a.84.84,0,1,1-.84.84A.74.74,0,0,1,280.56,96.78Zm0,2.23a.84.84,0,1,1-.84.84A.74.74,0,0,1,280.56,99Zm0,2.23a.84.84,0,1,1-.84.84A.74.74,0,0,1,280.56,101.24Zm0,2.23a.84.84,0,1,1-.84.84A.74.74,0,0,1,280.56,103.47Z"/>
        <path class="cls-1" d="M287.59,96.78a.84.84,0,1,1-.83.84.74.74,0,0,1,.83-.84m0,2.23a.84.84,0,1,1-.83.84A.74.74,0,0,1,287.59,99Zm0,2.23a.84.84,0,1,1-.83.84A.74.74,0,0,1,287.59,101.24Zm1.13-6.69a.84.84,0,1,1-.84.84A.74.74,0,0,1,288.72,94.55Zm0,8.92a.84.84,0,1,1-.84.84A.74.74,0,0,1,288.72,103.47Zm2.23-8.92a.84.84,0,1,1-.84.84A.74.74,0,0,1,290.95,94.55Zm0,8.92a.84.84,0,1,1-.84.84A.74.74,0,0,1,290.95,103.47Zm2.23-8.92a.84.84,0,1,1-.84.84A.74.74,0,0,1,293.18,94.55Zm0,8.92a.84.84,0,1,1-.84.84A.74.74,0,0,1,293.18,103.47Zm2.23-8.92a.84.84,0,1,1-.84.84A.74.74,0,0,1,295.41,94.55Zm0,8.92a.84.84,0,1,1-.84.84A.74.74,0,0,1,295.41,103.47Zm1.11-6.69a.84.84,0,1,1-.84.84A.74.74,0,0,1,296.53,96.78Zm0,2.23a.84.84,0,1,1-.84.84A.74.74,0,0,1,296.53,99Zm0,2.23a.84.84,0,1,1-.84.84A.74.74,0,0,1,296.53,101.24Z"/><path class="cls-1" d="M303.56,94.55a.84.84,0,1,1-.84.84.74.74,0,0,1,.84-.84m0,2.23a.84.84,0,1,1-.84.84A.74.74,0,0,1,303.56,96.78Zm0,2.23a.84.84,0,1,1-.84.84A.74.74,0,0,1,303.56,99Zm0,2.23a.84.84,0,1,1-.84.84A.74.74,0,0,1,303.56,101.24Zm0,2.23a.84.84,0,1,1-.84.84A.74.74,0,0,1,303.56,103.47Zm2.24-2.23a.84.84,0,1,1-.84.84A.74.74,0,0,1,305.8,101.24Zm1.12-11.17a.84.84,0,1,1-.84.84A.74.74,0,0,1,306.92,90.07ZM308,92.32a.84.84,0,1,1-.84.84A.74.74,0,0,1,308,92.32ZM308,99a.84.84,0,1,1-.84.84A.74.74,0,0,1,308,99Zm1.11-8.94a.84.84,0,1,1-.84.84A.74.74,0,0,1,309.15,90.07Zm1.12,6.71a.84.84,0,1,1-.84.84A.74.74,0,0,1,310.26,96.78Zm2.23-2.23a.84.84,0,1,1-.84.84A.74.74,0,0,1,312.49,94.55Zm0,2.23a.84.84,0,1,1-.84.84A.74.74,0,0,1,312.49,96.78Zm0,2.23a.84.84,0,1,1-.84.84A.74.74,0,0,1,312.49,99Zm0,2.23a.84.84,0,1,1-.84.84A.74.74,0,0,1,312.49,101.24Zm0,2.23a.84.84,0,1,1-.84.84A.74.74,0,0,1,312.49,103.47Z"/>
        <path class="cls-1" d="M96,120.1a.84.84,0,1,1-.84.84.74.74,0,0,1,.84-.84m0,13.4a.84.84,0,1,1-.84.84A.74.74,0,0,1,96,133.5Zm1.13-11.16a.83.83,0,1,1-.84.84A.74.74,0,0,1,97.13,122.34Zm0,2.23a.84.84,0,1,1-.84.84A.74.74,0,0,1,97.13,124.57Zm0,2.23a.84.84,0,1,1-.84.84A.74.74,0,0,1,97.13,126.81Zm0,2.23a.84.84,0,1,1-.84.84A.74.74,0,0,1,97.13,129Zm0,2.23a.84.84,0,1,1-.84.84A.74.74,0,0,1,97.13,131.27Zm1.12-11.17a.84.84,0,1,1-.84.84A.74.74,0,0,1,98.25,120.1Zm0,13.4a.84.84,0,1,1-.84.84A.74.74,0,0,1,98.25,133.5Zm1.11-6.69a.84.84,0,1,1-.84.84A.74.74,0,0,1,99.36,126.81Zm1.12-6.71a.84.84,0,1,1-.84.84A.74.74,0,0,1,100.48,120.1Zm0,13.4a.84.84,0,1,1-.84.84A.74.74,0,0,1,100.48,133.5Zm1.12-6.69a.84.84,0,1,1-.84.84A.74.74,0,0,1,101.59,126.81Zm1.12-6.71a.84.84,0,1,1-.84.84A.74.74,0,0,1,102.71,120.1Zm0,13.4a.84.84,0,1,1-.84.84A.74.74,0,0,1,102.71,133.5Zm1.12-6.69a.84.84,0,1,1-.84.84A.74.74,0,0,1,103.82,126.81Zm1.11-6.71a.84.84,0,1,1-.84.84A.74.74,0,0,1,104.94,120.1Zm0,8.94a.84.84,0,1,1-.84.84A.74.74,0,0,1,104.94,129Zm0,2.23a.84.84,0,1,1-.84.84A.74.74,0,0,1,104.94,131.27Z"/>
        <path class="cls-1" d="M112,126.81a.84.84,0,1,1-.84.84.74.74,0,0,1,.84-.84m0,2.23a.84.84,0,1,1-.84.84A.74.74,0,0,1,112,129Zm0,2.23a.84.84,0,1,1-.84.84A.74.74,0,0,1,112,131.27Zm2.24-6.69a.84.84,0,1,1-.84.84A.74.74,0,0,1,114.21,124.57Zm0,4.46a.84.84,0,1,1-.84.84A.74.74,0,0,1,114.21,129Zm0,4.46a.84.84,0,1,1-.84.84A.74.74,0,0,1,114.21,133.5Zm2.23-8.92a.84.84,0,1,1-.84.84A.74.74,0,0,1,116.44,124.57Zm0,4.46a.84.84,0,1,1-.84.84A.74.74,0,0,1,116.44,129Zm0,4.46a.84.84,0,1,1-.84.84A.74.74,0,0,1,116.44,133.5Zm2.23-8.92a.84.84,0,1,1-.84.84A.74.74,0,0,1,118.67,124.57Zm0,4.46a.84.84,0,1,1-.84.84A.74.74,0,0,1,118.67,129Zm0,4.46a.84.84,0,1,1-.84.84A.74.74,0,0,1,118.67,133.5Zm2.23-6.69a.84.84,0,1,1-.84.84A.74.74,0,0,1,120.91,126.81Zm0,6.69a.84.84,0,1,1-.84.84A.74.74,0,0,1,120.91,133.5Z"/>
        <path class="cls-1" d="M129.06,124.57a.84.84,0,1,1-.84.84.74.74,0,0,1,.84-.84m0,8.92a.84.84,0,1,1-.84.84A.74.74,0,0,1,129.06,133.5Zm2.23-8.92a.84.84,0,1,1-.84.84A.74.74,0,0,1,131.29,124.57Zm0,4.46a.84.84,0,1,1-.84.84A.74.74,0,0,1,131.29,129Zm0,4.46a.84.84,0,1,1-.84.84A.74.74,0,0,1,131.29,133.5Zm2.23-8.92a.84.84,0,1,1-.84.84A.74.74,0,0,1,133.52,124.57Zm0,4.46a.84.84,0,1,1-.84.84A.74.74,0,0,1,133.52,129Zm0,4.46a.84.84,0,1,1-.84.84A.74.74,0,0,1,133.52,133.5Zm2.23-8.92a.84.84,0,1,1-.84.84A.74.74,0,0,1,135.76,124.57Zm0,4.46a.84.84,0,1,1-.84.84A.74.74,0,0,1,135.76,129Zm0,4.46a.84.84,0,1,1-.84.84A.74.74,0,0,1,135.76,133.5Zm1.11-6.69a.84.84,0,1,1-.84.84A.74.74,0,0,1,136.87,126.81Zm0,4.46a.84.84,0,1,1-.84.84A.74.74,0,0,1,136.87,131.27Z"/>
        <path class="cls-1" d="M143.9,126.81a.84.84,0,1,1-.83.84.74.74,0,0,1,.83-.84m0,2.23a.84.84,0,1,1-.83.84A.74.74,0,0,1,143.9,129Zm0,2.23a.84.84,0,1,1-.83.84A.74.74,0,0,1,143.9,131.27Zm1.13-6.69a.84.84,0,1,1-.84.84A.74.74,0,0,1,145,124.57Zm0,8.92a.84.84,0,1,1-.84.84A.74.74,0,0,1,145,133.5Zm2.23-8.92a.84.84,0,1,1-.84.84A.74.74,0,0,1,147.26,124.57Zm0,8.92a.84.84,0,1,1-.84.84A.74.74,0,0,1,147.26,133.5Zm2.23-8.92a.84.84,0,1,1-.84.84A.74.74,0,0,1,149.49,124.57Zm0,8.92a.84.84,0,1,1-.84.84A.74.74,0,0,1,149.49,133.5Zm2.23-8.92a.84.84,0,1,1-.84.84A.74.74,0,0,1,151.72,124.57Zm0,8.92a.84.84,0,1,1-.84.84A.74.74,0,0,1,151.72,133.5Zm1.11-6.69a.84.84,0,1,1-.84.84A.74.74,0,0,1,152.84,126.81Zm0,2.23a.84.84,0,1,1-.84.84A.74.74,0,0,1,152.84,129Zm0,2.23a.84.84,0,1,1-.84.84A.74.74,0,0,1,152.84,131.27Z"/>
        <path class="cls-1" d="M159.87,124.57a.84.84,0,1,1-.84.84.74.74,0,0,1,.84-.84m0,8.92a.84.84,0,1,1-.84.84A.74.74,0,0,1,159.87,133.5Zm0-6.69a.84.84,0,1,1-.83.84A.74.74,0,0,1,159.87,126.81Zm0,2.23a.84.84,0,1,1-.83.84A.74.74,0,0,1,159.87,129Zm0,2.23a.84.84,0,1,1-.83.84A.74.74,0,0,1,159.87,131.27Zm2.24-6.69a.84.84,0,1,1-.84.84A.74.74,0,0,1,162.11,124.57Zm2.23,0a.84.84,0,1,1-.84.84A.74.74,0,0,1,164.34,124.57Zm2.23,0a.84.84,0,1,1-.84.84A.74.74,0,0,1,166.57,124.57Zm2.23,0a.84.84,0,1,1-.84.84A.74.74,0,0,1,168.8,124.57Zm0,2.23a.84.84,0,1,1-.84.84A.74.74,0,0,1,168.8,126.81Zm0,2.23a.84.84,0,1,1-.84.84A.74.74,0,0,1,168.8,129Zm0,2.23a.84.84,0,1,1-.84.84A.74.74,0,0,1,168.8,131.27Zm0,2.23a.84.84,0,1,1-.84.84A.74.74,0,0,1,168.8,133.5Z"/>
        <path class="cls-1" d="M175.83,131.27a.84.84,0,1,1-.84.84.74.74,0,0,1,.84-.84m1.13-6.69a.84.84,0,1,1-.84.84A.74.74,0,0,1,177,124.57Zm0,4.46a.84.84,0,1,1-.84.84A.74.74,0,0,1,177,129Zm0,4.46a.84.84,0,1,1-.84.84A.74.74,0,0,1,177,133.5Zm2.23-8.92a.84.84,0,1,1-.84.84A.74.74,0,0,1,179.19,124.57Zm0,4.46a.84.84,0,1,1-.84.84A.74.74,0,0,1,179.19,129Zm0,4.46a.84.84,0,1,1-.84.84A.74.74,0,0,1,179.19,133.5Zm2.23-8.92a.84.84,0,1,1-.84.84A.74.74,0,0,1,181.42,124.57Zm0,4.46a.84.84,0,1,1-.84.84A.74.74,0,0,1,181.42,129Zm0,4.46a.84.84,0,1,1-.84.84A.74.74,0,0,1,181.42,133.5Zm2.23-8.92a.84.84,0,1,1-.84.84A.74.74,0,0,1,183.65,124.57Zm0,6.69a.84.84,0,1,1-.84.84A.74.74,0,0,1,183.65,131.27Zm1.12-4.46a.84.84,0,1,1-.84.84A.74.74,0,0,1,184.77,126.81Zm0,2.23a.84.84,0,1,1-.84.84A.74.74,0,0,1,184.77,129Zm0,4.46a.84.84,0,1,1-.84.84A.74.74,0,0,1,184.77,133.5Z"/>
        <path class="cls-1" d="M191.8,126.81a.84.84,0,1,1-.84.84.74.74,0,0,1,.84-.84m0,2.23a.84.84,0,1,1-.84.84A.74.74,0,0,1,191.8,129Zm0,2.23a.84.84,0,1,1-.84.84A.74.74,0,0,1,191.8,131.27Zm1.13-6.69a.84.84,0,1,1-.84.84A.74.74,0,0,1,192.93,124.57Zm0,8.92a.84.84,0,1,1-.84.84A.74.74,0,0,1,192.93,133.5Zm2.23-8.92a.84.84,0,1,1-.84.84A.74.74,0,0,1,195.16,124.57Zm0,8.92a.84.84,0,1,1-.84.84A.74.74,0,0,1,195.16,133.5Zm2.23-8.92a.84.84,0,1,1-.84.84A.74.74,0,0,1,197.39,124.57Zm0,8.92a.84.84,0,1,1-.84.84A.74.74,0,0,1,197.39,133.5Zm2.23-8.92a.84.84,0,1,1-.84.84A.74.74,0,0,1,199.62,124.57Zm0,8.92a.84.84,0,1,1-.84.84A.74.74,0,0,1,199.62,133.5Z"/>
        <path class="cls-1" d="M207.76,124.57a.84.84,0,1,1-.84.84.74.74,0,0,1,.84-.84m0,8.92a.84.84,0,1,1-.84.84A.74.74,0,0,1,207.76,133.5Zm0-6.69a.84.84,0,1,1-.83.84A.74.74,0,0,1,207.76,126.81Zm0,2.23a.84.84,0,1,1-.83.84A.74.74,0,0,1,207.76,129Zm0,2.23a.84.84,0,1,1-.83.84A.74.74,0,0,1,207.76,131.27ZM210,129a.84.84,0,1,1-.84.84A.74.74,0,0,1,210,129Zm2.23,0a.84.84,0,1,1-.84.84A.74.74,0,0,1,212.24,129Zm2.23,0a.84.84,0,1,1-.84.84A.74.74,0,0,1,214.47,129Zm2.23-4.46a.84.84,0,1,1-.84.84A.74.74,0,0,1,216.7,124.57Zm0,2.23a.84.84,0,1,1-.84.84A.74.74,0,0,1,216.7,126.81Zm0,2.23a.84.84,0,1,1-.84.84A.74.74,0,0,1,216.7,129Zm0,2.23a.84.84,0,1,1-.84.84A.74.74,0,0,1,216.7,131.27Zm0,2.23a.84.84,0,1,1-.84.84A.74.74,0,0,1,216.7,133.5Z"/>
        <path class="cls-1" d="M223.73,126.81a.84.84,0,1,1-.83.84.74.74,0,0,1,.83-.84m0,2.23a.84.84,0,1,1-.83.84A.74.74,0,0,1,223.73,129Zm0,2.23a.84.84,0,1,1-.83.84A.74.74,0,0,1,223.73,131.27Zm1.13-6.69a.84.84,0,1,1-.84.84A.74.74,0,0,1,224.86,124.57Zm0,8.92a.84.84,0,1,1-.84.84A.74.74,0,0,1,224.86,133.5Zm2.23-8.92a.84.84,0,1,1-.84.84A.74.74,0,0,1,227.09,124.57Zm0,8.92a.84.84,0,1,1-.84.84A.74.74,0,0,1,227.09,133.5Zm2.23-8.92a.84.84,0,1,1-.84.84A.74.74,0,0,1,229.32,124.57Zm0,8.92a.84.84,0,1,1-.84.84A.74.74,0,0,1,229.32,133.5Zm2.23-8.92a.84.84,0,1,1-.84.84A.74.74,0,0,1,231.55,124.57Zm0,8.92a.84.84,0,1,1-.84.84A.74.74,0,0,1,231.55,133.5Zm1.11-6.69a.84.84,0,1,1-.84.84A.74.74,0,0,1,232.67,126.81Zm0,2.23a.84.84,0,1,1-.84.84A.74.74,0,0,1,232.67,129Zm0,2.23a.84.84,0,1,1-.84.84A.74.74,0,0,1,232.67,131.27Z"/>
        <path class="cls-1" d="M239.69,126.81a.84.84,0,1,1-.84.84.74.74,0,0,1,.84-.84m0,2.23a.84.84,0,1,1-.84.84A.74.74,0,0,1,239.69,129Zm0,2.23a.84.84,0,1,1-.84.84A.74.74,0,0,1,239.69,131.27Zm1.13-6.69a.84.84,0,1,1-.84.84A.74.74,0,0,1,240.82,124.57Zm0,8.92a.84.84,0,1,1-.84.84A.74.74,0,0,1,240.82,133.5Zm2.23-8.92a.84.84,0,1,1-.84.84A.74.74,0,0,1,243.05,124.57Zm0,8.92a.84.84,0,1,1-.84.84A.74.74,0,0,1,243.05,133.5Zm2.23-8.92a.84.84,0,1,1-.84.84A.74.74,0,0,1,245.28,124.57Zm0,8.92a.84.84,0,1,1-.84.84A.74.74,0,0,1,245.28,133.5Zm2.23-8.92a.84.84,0,1,1-.84.84A.74.74,0,0,1,247.52,124.57Zm0,8.92a.84.84,0,1,1-.84.84A.74.74,0,0,1,247.52,133.5Z"/>
        <path class="cls-1" d="M255.66,124.57a.84.84,0,1,1-.84.84.74.74,0,0,1,.84-.84m2.24,0a.84.84,0,1,1-.84.84A.74.74,0,0,1,257.9,124.57Zm2.23,0a.84.84,0,1,1-.84.84A.74.74,0,0,1,260.13,124.57Zm0,2.23a.84.84,0,1,1-.84.84A.74.74,0,0,1,260.13,126.81Zm0,2.23a.84.84,0,1,1-.84.84A.74.74,0,0,1,260.13,129Zm0,2.23a.84.84,0,1,1-.84.84A.74.74,0,0,1,260.13,131.27Zm0,2.23a.84.84,0,1,1-.84.84A.74.74,0,0,1,260.13,133.5Zm2.23-8.92a.84.84,0,1,1-.84.84A.74.74,0,0,1,262.36,124.57Zm2.23,0a.84.84,0,1,1-.84.84A.74.74,0,0,1,264.6,124.57Z"/>
        <path class="cls-1" d="M271.63,124.57a.84.84,0,1,1-.84.84.74.74,0,0,1,.84-.84m0,2.23a.84.84,0,1,1-.84.84A.74.74,0,0,1,271.63,126.81Zm0,2.23a.84.84,0,1,1-.84.84A.74.74,0,0,1,271.63,129Zm0,2.23a.84.84,0,1,1-.84.84A.74.74,0,0,1,271.63,131.27Zm0,2.23a.84.84,0,1,1-.84.84A.74.74,0,0,1,271.63,133.5Zm2.24-2.23a.84.84,0,1,1-.84.84A.74.74,0,0,1,273.87,131.27ZM276.1,129a.84.84,0,1,1-.84.84A.74.74,0,0,1,276.1,129Zm2.23-2.23a.84.84,0,1,1-.84.84A.74.74,0,0,1,278.33,126.81Zm2.23-2.23a.84.84,0,1,1-.84.84A.74.74,0,0,1,280.56,124.57Zm0,2.23a.84.84,0,1,1-.84.84A.74.74,0,0,1,280.56,126.81Zm0,2.23a.84.84,0,1,1-.84.84A.74.74,0,0,1,280.56,129Zm0,2.23a.84.84,0,1,1-.84.84A.74.74,0,0,1,280.56,131.27Zm0,2.23a.84.84,0,1,1-.84.84A.74.74,0,0,1,280.56,133.5Z"/>
    </g></g></svg>