<svg xmlns="http://www.w3.org/2000/svg" width="1025.04" height="313.83" viewBox="0 0 1025.04 313.83">
  <defs>
    <style>
      .cls-1 {
        fill: #ddd;
      }

      .cls-2 {
        fill: #101010;
      }
    </style>
  </defs>
  <title>Identity Inostudio</title>
  <g id="logo">
    <rect class="cls-1" x="1" width="1024" height="314"/>
    <path class="cls-2" d="M125.85,178.76a9.71,9.71,0,1,1,9.71,9.67,9.82,9.82,0,0,1-9.71-9.67m54.74,8.6h18.34V126.88H180.59Zm113.67,0V126.88H275.92v28.66l-21.06-28.66H236v60.48h18.34V156.73l22.33,30.63ZM328,157.17c0,18.59,14.44,31.27,33.14,31.27s33.13-12.68,33.13-31.27-14.43-31.28-33.13-31.28S328,138.57,328,157.17m47.66,0c0,8.44-5.72,15.13-14.52,15.13s-14.54-6.69-14.54-15.13S352.35,142,361.17,142s14.52,6.69,14.52,15.14m47.75,21.67c6.46,5.81,15.26,9.6,28.15,9.6,16.25,0,26.14-7.69,26.14-21,0-22.51-33.68-17.61-33.68-23.32,0-1.54,1-2.72,4.63-2.72a30.64,30.64,0,0,1,17.8,6l9.8-13c-6.89-5.63-15.8-8.45-25.69-8.45-16.61,0-25.15,9.79-25.15,20.05,0,23.84,33.78,17.95,33.78,23.75,0,2.35-3.28,3.28-6.72,3.28a28.3,28.3,0,0,1-19.52-7.8l-9.54,13.59m117,8.52V142.85h16.17v-16H505.88v16h16.25v44.51Zm49.94-24.84c0,15,9.54,25.91,30,25.91s29.88-11,29.88-26V126.88H631.61v35c0,5.78-3.8,10.41-11.26,10.41S609,167.67,609,161.89v-35H590.4v35.64m124,24.84c19,0,33.12-11,33.12-30.29s-14.15-30.19-33.22-30.19H687.27v60.48Zm14.52-30.29c0,7.64-5.45,14.34-14.62,14.34h-8.71V142.85h8.81c9.8,0,14.52,6.06,14.52,14.22m52.38,30.29h18.34V126.88H781.32Zm52.12-30.19c0,18.59,14.42,31.27,33.12,31.27s33.15-12.68,33.15-31.27-14.44-31.28-33.15-31.28-33.12,12.68-33.12,31.28m47.65,0c0,8.44-5.72,15.13-14.53,15.13s-14.51-6.69-14.51-15.13S857.76,142,866.56,142s14.53,6.69,14.53,15.14"/>
  </g>
</svg>
