<svg xmlns="http://www.w3.org/2000/svg" viewBox="0 0 439.7 273.54"><defs><style>.cls-1{fill:#ddd;fill-rule:evenodd;}</style></defs><title>logo_sixty</title><g id="Слой_2" data-name="Слой 2"><g id="Слой_1-2" data-name="Слой 1"><path class="cls-1" d="M264.41,192.68c-5.45,7.63-9.25,20.17-14.78,29.62-6.16,10.52-14.52,16.23-19.91,25.53,27,33.25,161.6,48.27,202.09-47.76C481.66,81.87,282-2.73,199.5,110.29c-26,35.66-4.66,75-45.94,95.32-40.89,20.16-89.89-13.52-77.3-52.25,5.2-16,22.26-28.73,41.45-31.87,34.14-5.58,40,14,56.63,16.38,5.75-7.63,8.61-20.3,14.81-29.66,5.33-8,16.25-18,18.63-25.42C191.15,67.8,173.34,66.24,152,59L194,1,116.25,0C100.87,1.36,87.78,26.43,78.63,36.8,61.89,55.8,24.29,98.25,13,117.63c-41.24,70.86,20.6,155.2,113.86,155.91C192.83,274,249,231.71,256,178.34c2.36-18.07,1.67-39,22.72-49.91,45.29-23.53,94.74,5.44,84.15,46.93-3.89,15.21-21,30.4-38.87,34C286,217,285.22,200.14,264.41,192.68Z"/></g></g></svg>