<svg xmlns="http://www.w3.org/2000/svg" viewBox="0 0 304.86 118.02"><defs><style>.cls-1,.cls-2{fill:#ddd;}.cls-1{fill-rule:evenodd;}</style></defs><title>logo_old_school</title><g id="Слой_2" data-name="Слой 2"><g id="Слой_1-2" data-name="Слой 1"><path class="cls-1" d="M199.08,28.49c.64,1.48,1.5,3.51,1.8,4.41A25.79,25.79,0,0,1,201.62,47c-1.38,6.66-4.32,12.43-4.51,19.43-.16,6,1.81,11.95,4.68,17.4a2,2,0,0,0,2.39.93c9.64-3.18,16.33-15.19,15.49-29.07s-9.44-26.42-19.41-28.65A1,1,0,0,0,199.08,28.49Z"/><path class="cls-1" d="M193.19,55.05c.9-3.05,2-6.11,2.64-9.23a19.93,19.93,0,0,0-.54-11,27,27,0,0,0-1.81-4.07,2,2,0,0,0-2.6-.87C182.11,33.8,176.2,45.22,177,58.31c.71,11.67,6.55,21.38,14.3,25.36a2,2,0,0,0,2.77-2.43A37.75,37.75,0,0,1,191.2,66.3,43.59,43.59,0,0,1,193.19,55.05Z"/><path class="cls-1" d="M249.6,28.49c.63,1.48,1.5,3.51,1.8,4.41A25.83,25.83,0,0,1,252.14,47c-1.38,6.66-4.32,12.43-4.51,19.43-.16,6,1.81,11.95,4.68,17.4a2,2,0,0,0,2.39.93c9.64-3.18,16.33-15.19,15.49-29.07s-9.44-26.42-19.41-28.65A1,1,0,0,0,249.6,28.49Z"/><path class="cls-1" d="M243.7,55.05c.9-3.05,2-6.11,2.64-9.23a19.89,19.89,0,0,0-.54-11A26.17,26.17,0,0,0,244,30.75a2,2,0,0,0-2.6-.87c-8.77,3.92-14.68,15.35-13.88,28.44.71,11.67,6.54,21.38,14.3,25.36a2,2,0,0,0,2.77-2.43,37.65,37.65,0,0,1-2.87-14.94A43.34,43.34,0,0,1,243.7,55.05Z"/><path class="cls-1" d="M62.66,19.29h-5l-1.36-3.59a.51.51,0,0,0-.45-.33l-.53,0c-1.08-.06-10.87-.55-23-.55-7.45,0-14.3.18-20.36.55l-.51,0a.5.5,0,0,0-.44.33L9.64,19.29h-5a.52.52,0,0,0-.52.51v7a.51.51,0,0,0,.52.51h.46L7.46,44.83a.5.5,0,0,0-.06.31l3.95,29.5a.49.49,0,0,0,.2.34l3.55,26.17a.51.51,0,0,0,.43.44l.58.09A156,156,0,0,0,35.93,103a71.93,71.93,0,0,0,15.34-1.39l.53-.12a.51.51,0,0,0,.39-.43L55.73,75a.51.51,0,0,0,.2-.34l3.95-29.5a.51.51,0,0,0-.06-.31L62.2,27.29h.46a.51.51,0,0,0,.51-.51v-7A.51.51,0,0,0,62.66,19.29ZM32.31,17.38c8.46,0,15.92.23,20.45.43a31,31,0,0,1-6.95,1.47H13.87C16.25,18.48,21.45,17.4,32.31,17.38Zm28.26,4.51v1.66H6.71V21.89ZM17.46,99.19,14.11,74.5,10,44.35,7.75,27.66h.07l1.34,0h.73c1.88,0,42.38.88,47.45,1.11a.65.65,0,0,0,0,.09,139.2,139.2,0,0,0-1.74,15.49l-2.8,30.13c-.22,2-.44,3.88-.66,5.73-.49,4.25-.95,8.26-1.29,11.49l-.66,7c-3.36.47-17.39.48-25.08.48-2.48,0-4.44,0-5.31,0C19.68,99.21,18.39,99.21,17.46,99.19Z"/><path class="cls-1" d="M42.08,95.59h-18q-5.44,0-6.25-9.71T23,76.3h20a4.16,4.16,0,0,1,4,2.67,13.9,13.9,0,0,1,.86,7Q47.11,95.59,42.08,95.59Zm.91-11H22.69c-.59,0-.86.46-.81,1.37s.38,1.43,1,1.43h20c.59,0,.91-.48,1-1.43S43.58,84.55,43,84.55Z"/><polygon class="cls-1" points="50.17 55.2 48.87 71.07 16.87 71.07 16.18 62.61 45.27 62.61 45.73 55.2 50.17 55.2"/><path class="cls-1" d="M50.54,50.66H15.19L14.33,40.1A10,10,0,0,1,15.68,34c1.11-1.8,3-2.7,5.53-2.7H44.52a6.24,6.24,0,0,1,5.42,2.52A9.21,9.21,0,0,1,51.41,40ZM44.7,39.78H21c-1.29,0-1.9.8-1.8,2.42h27.3Q46.67,39.78,44.7,39.78Z"/><rect class="cls-2" y="112.33" width="304.86" height="5.68"/><rect class="cls-2" width="304.86" height="5.69"/><path class="cls-1" d="M70.36,62.14H81.68v13q0,1.94,2.35,1.94t2.28-1.94V68.43q0-3.09-4.12-7.25-8-7.72-9.9-10.37A9.66,9.66,0,0,1,70.36,45V38.62q0-11,14.43-11,12.93,0,12.93,10.06v9.82H86.39V37c0-1.13-.63-1.7-1.89-1.7q-2.22,0-2.22,3.29l.24,3.68q0,3.17,4.21,7.37,7.82,7.48,9.94,10.45a11.27,11.27,0,0,1,2.13,6.73v7.25q0,11.33-14.47,11.32-14,0-14-10.29Z"/><path class="cls-1" d="M133.67,47.93H122.34V36.68q0-1.38-1.72-1.38c-1.2,0-1.8.46-1.8,1.38V76.07c0,.93.6,1.39,1.8,1.39s1.72-.46,1.72-1.39v-14h11.32V76.47q0,4-4,6.47a16.75,16.75,0,0,1-8.94,2.43q-14.42,0-14.41-10.21V38.62q0-11,14.41-11,12.9,0,12.91,10.06Z"/><polygon class="cls-1" points="169.57 84.86 157.1 84.86 157.1 57.63 153.62 57.63 153.62 84.86 141.15 84.86 141.15 28.09 153.62 28.09 153.62 50.73 157.1 50.73 157.1 28.09 169.57 28.09 169.57 84.86"/><polygon class="cls-1" points="301.52 84.86 278.13 84.86 278.13 28.09 290.6 28.09 290.6 77.58 301.52 77.58 301.52 84.86"/></g></g></svg>