<svg xmlns="http://www.w3.org/2000/svg" viewBox="0 0 936.17 254.24"><defs><style>.cls-1{fill:#ddd;}</style></defs><title>logo_1698</title><g id="Слой_2" data-name="Слой 2"><g id="Слой_1-2" data-name="Слой 1"><rect class="cls-1" y="1" width="286" height="42"/><rect class="cls-1" y="104" width="286" height="42"/><rect class="cls-1" y="210" width="286" height="42"/><path class="cls-1" d="M434.92,212V1H413.17l-63,67,18,23s11.51-9,19-17.5a91.11,91.11,0,0,0,12-17.5V212H363v35.75H471V212Z"/><path class="cls-1" d="M614.17,114c-19.88-20.07-42.5-20-55.5-13-9.16,4.93-16,15-16,15s3.87-33.5,22.87-54c23.56-25.42,41.63-28,41.63-28l-8.5-33s-36.5,1.5-70.5,50-31.5,134-17.5,167,61,50,94.5,22.5S633.37,133.39,614.17,114Zm-46,102.5c-14.5,0-24.49-11.29-27.5-26s-2.5-36-2.5-36,11-20,28-20,27,13.5,27,38.5C593.17,201.5,582.67,216.5,568.17,216.5Z"/><path class="cls-1" d="M670.75,140.24c19.88,20.07,42.5,20,55.5,13,9.16-4.93,16-15,16-15s-3.87,33.5-22.87,54c-23.56,25.42-41.63,28-41.63,28l8.5,33s36.5-1.5,70.5-50,31.5-134,17.5-167-61-50-94.5-22.5S651.55,120.85,670.75,140.24Zm46-102.5c14.5,0,24.49,11.29,27.5,26s2.5,36,2.5,36-11,20-28,20-27-13.5-27-38.5C691.75,52.74,702.25,37.74,716.75,37.74Z"/><path class="cls-1" d="M903.67,119.5s27-15.5,27-59.81C930.67,18,907.17,0,876.67,0c-26,0-60,16-60,62s27.5,62.38,27.5,62.38-32.5,21.63-32.5,64.13,27.5,65.74,59.5,65.74,65-19.74,65-67.24C936.17,137,903.67,119.5,903.67,119.5Zm-28.5-83c8.5,0,21,9,21,29a62.17,62.17,0,0,1-16,41s-26-10-26-39.5C854.17,44,866.67,36.5,875.17,36.5ZM873.73,218c-10.35,0-25.56-10.16-25.56-32.73,0-28.21,19.48-46.27,19.48-46.27s31.65,11.29,31.65,44.58C899.29,209.54,884.08,218,873.73,218Z"/></g></g></svg>