<svg xmlns="http://www.w3.org/2000/svg" viewBox="0 0 582.51 582.51"><defs><style>.cls-1,.cls-2{fill:#ddd;}.cls-1{fill-rule:evenodd;}</style></defs><title>logo_ny</title><g id="Слой_2" data-name="Слой 2"><g id="Слой_1-2" data-name="Слой 1"><path class="cls-1" d="M291.25,15.86c152.1,0,275.4,123.3,275.4,275.4s-123.3,275.4-275.4,275.4-275.4-123.3-275.4-275.4S139.16,15.86,291.25,15.86Zm0-15.86C452.11,0,582.51,130.4,582.51,291.26S452.11,582.51,291.25,582.51,0,452.11,0,291.26,130.4,0,291.25,0Z"/><path class="cls-1" d="M291.25,113.54A177.71,177.71,0,1,1,113.54,291.26,177.71,177.71,0,0,1,291.25,113.54Zm0-17C398.8,96.52,486,183.71,486,291.26S398.8,486,291.25,486,96.52,398.8,96.52,291.26,183.7,96.52,291.25,96.52Z"/><circle class="cls-2" cx="56.19" cy="311.26" r="15.01"/><circle class="cls-2" cx="526.32" cy="311.26" r="15.01"/><circle class="cls-2" cx="291.25" cy="311.26" r="9.57"/><circle class="cls-2" cx="315.17" cy="311.26" r="4.78"/><circle class="cls-2" cx="267.34" cy="311.26" r="4.78"/><rect class="cls-2" x="155.98" y="310.2" width="111.36" height="2.13"/><circle class="cls-2" cx="155.98" cy="311.26" r="3.19"/><path class="cls-1" d="M153,299.25a11.89,11.89,0,0,1,3,.38,12,12,0,0,0,0,23.26,12,12,0,1,1-3-23.64Z"/><ellipse class="cls-2" cx="137.21" cy="311.26" rx="9.31" ry="3.99"/><rect class="cls-2" x="315.17" y="310.2" width="111.36" height="2.13"/><circle class="cls-2" cx="426.53" cy="311.26" r="3.19"/><path class="cls-1" d="M429.53,299.25a11.87,11.87,0,0,0-3,.38,12,12,0,0,1,0,23.26,12,12,0,1,0,3-23.64Z"/><ellipse class="cls-2" cx="445.3" cy="311.26" rx="9.31" ry="3.99"/><path class="cls-1" d="M521.6,168.23l-6.77,3.42-.23-.45c-.84-1.67-1.61-2.67-2.26-3s-2,0-3.88,1l-11.82,6,21.15,10.22a4.46,4.46,0,0,0,1.46.47,2,2,0,0,0,1.14-.17,1.09,1.09,0,0,0,.56-1.2,7.07,7.07,0,0,0-.85-2.42l-2.19-4.32,6.77-3.42,14.58,28.81-6.77,3.42-1.33-2.63a8.52,8.52,0,0,0-2.54-2.78,25.31,25.31,0,0,0-4.67-2.75l-13.51-6.25-12.24,23.73a9.26,9.26,0,0,0-1.2,3.77,6.77,6.77,0,0,0,.81,3.42l1.59,3.13-6.77,3.42-16.16-32,6.77-3.42,1.24,2.45a10,10,0,0,0,1.71,2.62,1.21,1.21,0,0,0,1.43.32,3.1,3.1,0,0,0,.85-.62,3.37,3.37,0,0,0,.59-.86l6.79-12.91-9.48-5-4,2c-1.84.93-2.85,1.76-3,2.52s.15,2,1,3.73l.85,1.68-6.77,3.42L459.5,164.14l6.77-3.42,1.31,2.59c.91,1.81,1.73,2.86,2.43,3.16s2,0,3.83-1l26.09-13.2c1.85-.94,2.88-1.77,3.05-2.49s-.2-2-1.13-3.83l-1.31-2.59,6.77-3.42Zm-73.19-57.28,3.67,3.51c2.57,2.46,4.75,3.81,6.52,4s3.52-.54,5.22-2.32q2.81-2.94,2.5-5.51c-.21-1.71-1.53-3.73-4-6.05l-4.12-3.95Zm-27,.8,20.21-21.14c1.45-1.51,2.12-2.63,2-3.37s-.86-1.81-2.34-3.23l-2.1-2,5.22-5.46,28.82,27.55q7.64,7.3,9.11,13.29c1,4-.07,7.61-3.17,10.85a10.15,10.15,0,0,1-7.56,3.29,17.52,17.52,0,0,1-9.45-3.2c2.55,3,3.7,5.69,3.48,7.93s-2.55,5.68-6.94,10.28a10.5,10.5,0,0,0-2.38,3.24,1.81,1.81,0,0,0,.5,2,1.87,1.87,0,0,0,2.2.21,11.58,11.58,0,0,0,3.27-2.61c.13-.13.32-.35.59-.68s.46-.55.61-.7l4.24,4.05c-.17.18-.39.43-.71.81s-.54.63-.7.8q-5.17,5.41-9.91,5.54t-10.09-5q-5.69-5.44-6.2-10.12t4.07-9.48l3.1-3.24q3.71-3.88,3.61-6c-.07-1.41-1.27-3.23-3.61-5.47l-3.75-3.59L435.23,125q-2.16,2.26-2.05,3.39c.07.75.84,1.83,2.28,3.21l2.38,2.28-5.24,5.48-25.2-24.09,5.24-5.48,2.1,2c1.46,1.4,2.59,2.13,3.34,2.16S419.94,113.25,421.38,111.75Zm-70.73-49q4.92-12.35,16-16.09t25.74,2.1q14.57,5.8,20.06,16.11T413,87.59q-4.92,12.35-16,16t-25.77-2.15q-14.53-5.78-20-16.1T350.65,62.77Zm38.77-6.4a9.08,9.08,0,0,0-9.7,1.28q-4.25,3.44-8.16,13.27-4,10-3.28,15.45a9,9,0,0,0,6.1,7.58q5.49,2.19,9.71-1.26t8.15-13.29C394.87,72.77,396,67.65,395.5,64A9,9,0,0,0,389.42,56.37Zm-99-14.31A12.5,12.5,0,0,0,287.08,38a7.92,7.92,0,0,0-4.2-1.55l-1.63-.12.57-7.56,33.64,2.56-.57,7.56-2-.15a7,7,0,0,0-3,.24,1.57,1.57,0,0,0-1.06,1.41,2.39,2.39,0,0,0,.12.9,8.75,8.75,0,0,0,.59,1.3l6,10.77,7.62-9.86a5.16,5.16,0,0,0,.7-1.22,4.3,4.3,0,0,0,.33-1.32c0-.43-.26-.78-.87-1.07a7.1,7.1,0,0,0-2.55-.57l-2.15-.16.57-7.56,25.9,2-.58,7.56-1.8-.14a6,6,0,0,0-3.62.82,16.73,16.73,0,0,0-4.08,4L320.69,63.92l-.7,9.25c-.16,2.05,0,3.35.6,3.9s1.85.9,3.9,1.06l3.16.24-.57,7.56L292,83.26l.58-7.56,3.28.25a7.49,7.49,0,0,0,3.84-.35c.65-.39,1.07-1.68,1.23-3.88l.7-9.25Zm-114,13.78,2.76,7.07a6.11,6.11,0,0,0-2.44,1.45,1.66,1.66,0,0,0-.2,1.75,6,6,0,0,0,.47,1,4.83,4.83,0,0,0,.6.83l17.53,22.28-3-26c-1.23-2-2.45-3.19-3.65-3.57s-2.93-.16-5.18.66l-2.76-7.07,26.61-10.39L210,50.89l-1.77.69a8.52,8.52,0,0,0-3,1.67,1.62,1.62,0,0,0-.23,1.78,6.11,6.11,0,0,0,.39.79,8.86,8.86,0,0,0,.68,1L222.54,79.5l-3-28a9.38,9.38,0,0,0-.17-1.1,5.5,5.5,0,0,0-.25-.87,1.62,1.62,0,0,0-1.42-1.16,11.28,11.28,0,0,0-3.79,1l-2.76-7.07,20.58-8,2.76,7.07A6.58,6.58,0,0,0,231,43.9a8.09,8.09,0,0,0-.68,4.61l3.6,42.39-17.12,6.69L203.59,79.37l2.47,22.42-17.29,6.75L163.35,76.21a11.2,11.2,0,0,0-4.41-3.68,6.77,6.77,0,0,0-4.75.14l-2.76-7.07ZM131.1,83.21,144.9,97.64,138.28,104a32.66,32.66,0,0,0-5.55-3.09,10.76,10.76,0,0,0-4.16-.86,9.43,9.43,0,0,0-4.4,1.2,32.43,32.43,0,0,0-6,4.83l-1.25,1.19-5.36,5.13L121.73,123l1.61-1.54q2.84-2.71,2.77-5.08c-.05-1.57-1.1-3.44-3.17-5.6l-.32-.34,5.24-5,16.88,17.66-5.24,5q-4-3.93-6.17-4.16t-5.08,2.53l-1.67,1.6,11.53,12.06,7.41-7.09a34,34,0,0,0,5.47-6.16,6.59,6.59,0,0,0,1-4,15.32,15.32,0,0,0-1.69-4.84,33.49,33.49,0,0,0-4-5.73l6.86-6.56,15.29,16-44.16,42.23L119,158.45l2.1-2a7.56,7.56,0,0,0,2.3-3.07c.15-.72-.47-1.8-1.83-3.22l-.27-.29-20.21-21.13c-1.43-1.5-2.52-2.22-3.26-2.18s-1.85.77-3.32,2.18l-2,2-5.24-5.48ZM56.58,176.74l41.82-2.62L77.06,163.26c-1.92-1-3.22-1.3-3.89-1s-1.44,1.38-2.33,3.12l-1.49,2.92-6.76-3.44,11.54-22.69,6.76,3.44L80,147.49c-.92,1.8-1.29,3.07-1.13,3.8s1.19,1.57,3,2.52l36.92,18.78-9,17.7-44.42,2.66,23.35,11.88c1.85.94,3.13,1.27,3.83,1s1.52-1.34,2.43-3.14l1.16-2.3,6.76,3.44L91.33,226.57l-6.76-3.44,1.29-2.53c.93-1.82,1.3-3.11,1.12-3.87s-1.19-1.61-3-2.54L57.89,200.95q-2.72-1.38-3.78-1c-.71.28-1.54,1.36-2.48,3.21l-1.29,2.53-6.76-3.44Z"/><path class="cls-1" d="M476.32,380l16.77,10.62-5.39,8.5a30.17,30.17,0,0,0-6.21-1.48,10.9,10.9,0,0,0-4.36.38,10.77,10.77,0,0,0-4.18,2.57,39.5,39.5,0,0,0-5,6.76l-1,1.6-4.36,6.89,12.34,7.82,1.31-2.07c1.54-2.42,2.13-4.45,1.77-6s-1.8-3.2-4.31-4.79l-.39-.25,4.27-6.73,20.52,13-4.27,6.73c-3.21-1.88-5.55-2.69-7-2.4s-3,1.66-4.6,4.14l-1.36,2.15,14,8.88,6-9.52a40.7,40.7,0,0,0,4.27-8,7.32,7.32,0,0,0,.15-4.43,14.65,14.65,0,0,0-2.67-4.46,30.71,30.71,0,0,0-5.21-4.65l5.58-8.81,18.57,11.77L485.59,464.9l-6.37-4,1.71-2.7a9.08,9.08,0,0,0,1.7-3.84c0-.78-.83-1.7-2.48-2.75l-.34-.21L455.25,435.8c-1.74-1.1-3-1.52-3.71-1.25s-1.7,1.36-2.91,3.25L447,440.43l-6.37-4Zm-47.26,64.86,10.77,16.67L431.38,467a30.1,30.1,0,0,0-5-3.94,10.08,10.08,0,0,0-9-.9,39.56,39.56,0,0,0-7.41,4l-1.59,1-6.85,4.42,7.93,12.27,2.06-1.33c2.41-1.56,3.8-3.15,4.13-4.75s-.29-3.65-1.91-6.15l-.25-.39,6.69-4.32,13.18,20.4-6.69,4.32c-2.12-3.05-3.91-4.77-5.38-5.12s-3.44.24-5.91,1.84l-2.14,1.38,9,13.94,9.46-6.12a41.28,41.28,0,0,0,7.22-5.45,7.33,7.33,0,0,0,2-4,14.67,14.67,0,0,0-.55-5.17,30.78,30.78,0,0,0-2.79-6.41l8.76-5.66,11.94,18.47-56.38,36.44-4.09-6.34,2.68-1.73a9.11,9.11,0,0,0,3.15-2.78c.34-.71,0-1.9-1.1-3.54l-.21-.33L386.55,486.7c-1.12-1.74-2.07-2.63-2.85-2.7s-2.11.52-4,1.74l-2.61,1.69L373,481.1ZM361.84,486l3.69,21.52-10.19,1.75a32.37,32.37,0,0,0-2.06-6.15,12,12,0,0,0-2.73-3.8,8.7,8.7,0,0,0-4.61-2.09q-2.67-.39-9.81.84l-8.05,1.38,2.47,14.4,2.43-.42c2.82-.48,4.71-1.4,5.66-2.74s1.17-3.47.66-6.41l-.08-.45,7.85-1.35,4.1,23.94-7.85,1.35c-.75-3.65-1.72-5.92-2.93-6.83s-3.26-1.13-6.14-.64l-2.52.43,2,11.83c.38,2.18.92,3.41,1.65,3.72s2.15.29,4.25-.07l3.47-.6,1.27,7.43-37.29,6.4L305.83,542l3.15-.54a9.12,9.12,0,0,0,4-1.32c.58-.52.71-1.76.38-3.69l-.07-.39-4.91-28.65c-.35-2-.87-3.23-1.56-3.6s-2.15-.36-4.36,0l-3.07.52-1.28-7.43Zm-78.93,10.67-3.69,21.52L269,516.42a32.44,32.44,0,0,0,.1-6.48,11.91,11.91,0,0,0-1.31-4.49,8.73,8.73,0,0,0-3.65-3.51q-2.38-1.25-9.53-2.48l-8.05-1.38-2.47,14.39,2.43.42c2.82.48,4.91.25,6.25-.7s2.26-2.89,2.76-5.82l.08-.46,7.85,1.34-4.11,23.95-7.85-1.35c.5-3.68.35-6.16-.49-7.41s-2.7-2.15-5.57-2.65l-2.52-.43-2,11.83c-.37,2.18-.27,3.52.32,4.05s1.93,1,4,1.35l3.47.59-1.27,7.43-37.29-6.39,1.27-7.43,3.15.54a9.06,9.06,0,0,0,4.2.09c.73-.29,1.25-1.42,1.59-3.35l.07-.4L225.36,499c.35-2,.25-3.34-.28-3.91s-1.9-1.05-4.11-1.43l-3.07-.53,1.27-7.43ZM130.7,462.39q7.07-11.16,19.39-12.27T177,458.3q14.55,9.22,18.8,20.81T193,501.88q-7.08,11.16-19.37,12.23t-27-8.22q-14.51-9.2-18.76-20.78T130.7,462.39Zm42,2.76q-5.45-3.45-10.47-1T151.6,475.46q-5.72,9-5.81,14.64t5.31,9q5.48,3.47,10.48,1t10.64-11.33q5.7-9,5.8-14.61T172.73,465.16ZM110,446.39q-9.19,5.49-18.22,2.16T75.12,433.37q-9-13.86-7.63-25.26t12.72-18.78q10.78-7,22.25-3.43t19.82,16.45a48,48,0,0,1,4.45,8.57,37.19,37.19,0,0,1,2.26,8.66l3.34-.24,5.6,8.67-18.41,11.9-6.18-9.56c3.7-3.71,5.89-7.15,6.59-10.32a12.37,12.37,0,0,0-2.09-9.62q-3.64-5.63-9.29-5.62t-14.46,5.72Q85,416.4,82.67,421.63c-1.54,3.5-1,7.21,1.54,11.18a14.74,14.74,0,0,0,9,6.75,15.28,15.28,0,0,0,11.27-1.77Z"/><path class="cls-2" d="M383.81,223.09c-7.64-2.89-20.11-8.73-38-8.72a262.17,262.17,0,0,0-7.46-31.82c-5.16-16.32-11.89-28.78-19.33-28.78s-15.75,5.73-30.12,5.73-21.43-5.73-29.31-5.73-13.17,10.74-18.62,28.5a169.84,169.84,0,0,0-6.18,32.27c-13.47,1.47-18.87,3.6-24.52,5.56-17.45,6.05-23.12,11-24.18,12.26A23.51,23.51,0,0,0,183.4,237s6.95-1.15,28.07,7c16.25,6.28,50.55,25.72,81.27,25.72,32.86,0,75.18-25.87,83.77-30.81s21.91-7.73,21.91-7.73A68.15,68.15,0,0,0,383.81,223.09Zm-92.58-54.43a64.61,64.61,0,0,0,24.06-4.87S305,176.25,291.23,176.25s-25.49-12.46-25.49-12.46A77.62,77.62,0,0,0,291.23,168.66Zm51.84,56.28s-12.32,13-50.84,13C258.08,238,238,224.48,238,224.48a54.29,54.29,0,0,1,.23-8.71c.37-3.84.86-6.87.86-6.87s20.55,13.89,53.27,13.89c34.8,0,49.83-14.75,49.83-14.75s.59,3.72.86,8.59C343.43,223,343.07,226.25,343.07,224.94Z"/><path class="cls-2" d="M272.55,380.59c0-9.22.76-12.89,1.91-15.19-12.48-7.56-36.88-15.1-40.9-16.61-13.25-5-11,58.31,2.22,65.79,11-.11,30-11.6,38.78-17.9C273.43,394.59,272.55,390.51,272.55,380.59Z"/><path class="cls-2" d="M348.95,348.8c-4,1.52-27.88,8.8-41.3,16.85,1.12,2.58,1.71,6.14,1.71,14.94,0,9.43-1,13.44-2,15.62,8.56,7.81,28.3,18.26,39.39,18.38C359.95,407.11,362.19,343.81,348.95,348.8Z"/><path class="cls-2" d="M303.48,369.49c-1.23-.78-7.19-1.78-12.37-1.78l-.15,0-.15,0c-5.19,0-11.15,1-12.37,1.78-1,.64-1.87,4.35-1.87,11.1s.8,11.15,1.88,11.63c1.64.72,8,1.25,12.38,1.25l.15,0,.15,0c4.38,0,10.7-.63,12.38-1.25.94-.35,1.88-4.87,1.88-11.62S304.48,370.13,303.48,369.49Z"/></g></g></svg>