<svg xmlns="http://www.w3.org/2000/svg" viewBox="0 0 2260 934.54"><defs><style>.cls-1{fill:#ddd;}</style></defs><title>logo paintroom</title><g id="Слой_2" data-name="Слой 2"><g id="Слой_1-2" data-name="Слой 1"><path class="cls-1" d="M35,928H0V1.54H110.5c48.34,0,76.76,21,92.08,38.64C220.64,61,231,89.34,231,118c0,27-12.15,54.66-33.33,75.77A117.85,117.85,0,0,1,114,228.54H35Zm0-734.5h79A83.08,83.08,0,0,0,173,169c14.43-14.38,23-33.43,23-51,0-30.27-18-81.5-85.5-81.5H35Z"/><path class="cls-1" d="M482,31.37C461.15,12.7,434,1.54,409.5,1.54c-25.78,0-53.76,9.38-74.83,25.09C314.75,41.49,291,69.23,291,117V928h35V229.54H486V928h35V120C521,85.33,507.16,53.84,482,31.37ZM326,194.54V117c0-26.73,10-47.71,29.58-62.34,18-13.39,39.63-18.16,53.92-18.16,25.84,0,76.5,25.21,76.5,83.5v74.5Z"/><rect class="cls-1" x="581" y="0.04" width="35" height="928"/><polygon class="cls-1" points="910.93 227.82 908 224.32 908 0.04 873 0.04 873 182.43 720.58 0 680 0.04 680 928.04 715 928.04 715 47.91 873 237.01 873 928.04 908 928.04 908 230.27 910.93 227.82"/><path class="cls-1" d="M1150.61,724.1,1132.39,754l-.17-.1c1.34.86,32.78,21.67,32.78,76.16,0,42.43-48.75,69.5-82.3,69.5-32.15,0-76.7-26.58-76.7-76.5,0-45.93,32-68.16,58.9-78.71,36.27-14.25,35.62-38.22,35.2-54.09,0-1.81-.09-3.52-.09-5.2V91.54h44.5c14.25,0,27.37-4.63,36.93-13,7.79-6.85,17.07-19.51,17.07-41V0h-35v37.5c0,4.7,0,19-19,19H1100V0h-35v56.5h-43.5c-15.11,0-20.5-9-20.5-17.5V0H966V39c0,26.09,19.06,52.5,55.5,52.5H1065V685c0,2.15.05,4.18.11,6.14.15,5.39.27,10-.91,12.55s-5.52,5.44-12.09,8C999.8,732.3,971,771.83,971,823a108.67,108.67,0,0,0,36.47,81.76c21,18.9,48.44,29.74,75.23,29.74,26.12,0,54.95-10.36,77.12-27.72C1185.73,886.53,1200,859.26,1200,830,1200,755.08,1152.63,725.33,1150.61,724.1Z"/><path class="cls-1" d="M1428.54,210.94a121.28,121.28,0,0,0,13.93-8.78C1469.25,182.53,1484,153.72,1484,121c0-32.51-11.88-62.89-33.45-85.56C1430,13.91,1402.68,1.54,1375.5,1.54H1254V928h35V227.54h73.5a139.48,139.48,0,0,0,24.2-2.16c16.92,9.2,62.3,38.3,62.3,85.66V928h35V311C1484,263.33,1453.85,230.28,1428.54,210.94ZM1289,192.54v-156h86.5c17.64,0,35.75,8.41,49.7,23.06,15.35,16.13,23.8,38,23.8,61.44,0,52.09-53.06,71.5-86.5,71.5Z"/><path class="cls-1" d="M1927.42,29c-21.61-17-48.79-27.48-70.92-27.48-23.35,0-51.15,9.13-72.54,23.83a107.94,107.94,0,0,0-27.66,27A119.71,119.71,0,0,0,1733.42,29c-21.61-17-48.79-27.48-70.92-27.48-23.35,0-51.15,9.13-72.54,23.83-28.35,19.48-44,47.42-44,78.67V823c0,27.82,13,54.21,36.59,74.32,21.76,18.54,50,29.18,77.41,29.18s55.87-11,77.62-30.11a114.65,114.65,0,0,0,18.92-21.22,112.47,112.47,0,0,0,20.05,22.15c21.76,18.54,50,29.18,77.41,29.18s55.87-11,77.62-30.11C1955.08,875.8,1968,848.67,1968,820V104C1968,76.19,1953.59,49.55,1927.42,29ZM1739,820c0,40.92-41.71,71.5-79,71.5-36.53,0-79-29.92-79-68.5V104c0-48.08,57.52-67.5,81.5-67.5,26.19,0,76.5,28.5,76.5,67.5Zm194,0c0,40.92-41.71,71.5-79,71.5-36.53,0-79-29.92-79-68.5V104c0-48.08,57.52-67.5,81.5-67.5,26.19,0,76.5,28.5,76.5,67.5Z"/><polygon class="cls-1" points="2225 2.04 2225 4.29 2145.56 178.29 2065.05 2.29 2065 2.32 2065 2.04 2030 2.04 2030 928.04 2065 928.04 2065 86.32 2129.66 227.68 2161.5 227.67 2225 88.56 2225 928.04 2260 928.04 2260 2.04 2225 2.04"/></g></g></svg>