<?xml version="1.0" encoding="utf-8"?>
<!-- Generator: Adobe Illustrator 22.0.1, SVG Export Plug-In . SVG Version: 6.00 Build 0)  -->
<svg version="1.1" id="Слой_1" xmlns="http://www.w3.org/2000/svg" xmlns:xlink="http://www.w3.org/1999/xlink" x="0px" y="0px"
	 viewBox="0 0 143.3 65" style="enable-background:new 0 0 143.3 65;" xml:space="preserve">
<style type="text/css">
	.st0{fill-rule:evenodd;clip-rule:evenodd;fill:#C50178;}
	.st1{fill-rule:evenodd;clip-rule:evenodd;fill:#FF8F00;}
	.st2{fill-rule:evenodd;clip-rule:evenodd;fill:#001d8c;}
	.st3{fill-rule:evenodd;clip-rule:evenodd;fill:#6CC100;}
	.st4{fill:#001d8c;}
</style>
<polygon class="st0" points="18.2,48.1 18.2,15.8 28.2,15.8 28.2,48.1 46.5,48.1 46.5,0 0,0 0,48.1 18.2,48.1 "/>
<polygon class="st1" points="48.5,48.1 55.7,32 56.7,32 56.7,48.1 75,48.1 75,32 76,32 83.2,48.1 103.3,48.1 91.1,24.2 103.3,0 
	83.2,0 76.5,16.2 75,16.2 75,0 56.7,0 56.7,16.2 55.2,16.2 48.5,0 28.4,0 40.6,24.2 28.4,48.1 48.5,48.1 "/>
<polygon class="st2" points="95.7,0 83.2,6.1 83.2,21.7 91.2,17.4 91.2,32.9 83.2,32.9 83.2,48.1 116.7,48.1 116.7,36.7 109.4,36.7 
	109.4,0 95.7,0 "/>
<path class="st3" d="M101.3,16.4c0,10,7.3,14.4,15.2,14.4c3.6,0,7.3-1,10.1-2.9c-1.1,5.3-4.7,6.9-10.8,6.9c-3.4,0-7.1-1.1-10.6-2.8
	V45c3.8,2,8.8,3.1,14.6,3.1c12.7,0,24.1-6.9,24.1-24.1C144,9.3,136.9,0,120.8,0C110.6,0,101.3,4.7,101.3,16.4L101.3,16.4z
	 M121.4,12.7c2.6,0,4.5,1.5,5.3,5.3c-1.6,0.9-3.2,1.4-4.8,1.4c-2.4,0-4-1-4-3.5C117.8,14,119.4,12.7,121.4,12.7L121.4,12.7z"/>
<g>
	<path class="st4" d="M0.1,55.4h1.6v4.5l3.8-4.5H7v6.9H5.4v-4.5l-3.8,4.5H0.1V55.4z"/>
	<path class="st4" d="M9.1,55.4h1.6v2.8h3.5v-2.8h1.6v6.9h-1.6v-2.7h-3.5v2.7H9.1V55.4z"/>
	<path class="st4" d="M23.4,56.8H21v5.5h-1.6v-5.5H17v-1.4h6.4V56.8z"/>
	<path class="st4" d="M30.6,59.4h-5.4c0.1,0.5,0.3,0.9,0.7,1.2c0.4,0.3,0.9,0.4,1.5,0.4c0.8,0,1.4-0.2,1.9-0.7l0.9,1
		c-0.3,0.4-0.7,0.6-1.2,0.8c-0.5,0.2-1,0.3-1.6,0.3c-0.8,0-1.4-0.1-2-0.4c-0.6-0.3-1-0.7-1.3-1.3c-0.3-0.5-0.5-1.1-0.5-1.8
		c0-0.7,0.2-1.3,0.5-1.8c0.3-0.5,0.7-1,1.3-1.3c0.5-0.3,1.1-0.4,1.8-0.4c0.7,0,1.3,0.1,1.8,0.4c0.5,0.3,0.9,0.7,1.2,1.2
		c0.3,0.5,0.4,1.2,0.4,1.9C30.7,59,30.7,59.2,30.6,59.4z M25.9,57.1c-0.4,0.3-0.6,0.7-0.6,1.2h3.9c-0.1-0.5-0.3-0.9-0.6-1.2
		c-0.4-0.3-0.8-0.5-1.3-0.5C26.7,56.6,26.3,56.8,25.9,57.1z"/>
	<path class="st4" d="M38,55.8c0.5,0.3,0.9,0.7,1.2,1.2c0.3,0.5,0.4,1.1,0.4,1.8c0,0.7-0.1,1.3-0.4,1.8c-0.3,0.5-0.7,0.9-1.2,1.2
		c-0.5,0.3-1.1,0.4-1.8,0.4c-0.9,0-1.7-0.3-2.2-0.9v3.3h-1.6v-9.3H34v0.9c0.3-0.3,0.6-0.6,1-0.7c0.4-0.2,0.8-0.2,1.3-0.2
		C36.9,55.3,37.5,55.5,38,55.8z M37.5,60.4c0.4-0.4,0.6-0.9,0.6-1.6c0-0.6-0.2-1.2-0.6-1.6c-0.4-0.4-0.9-0.6-1.5-0.6
		c-0.4,0-0.7,0.1-1,0.3c-0.3,0.2-0.6,0.4-0.7,0.8C34.1,58,34,58.4,34,58.8c0,0.4,0.1,0.8,0.3,1.1c0.2,0.3,0.4,0.6,0.7,0.8
		c0.3,0.2,0.7,0.3,1,0.3C36.6,61,37.1,60.8,37.5,60.4z"/>
	<path class="st4" d="M41.3,55.4h1.6v2.8h3.5v-2.8H48v6.9h-1.6v-2.7h-3.5v2.7h-1.6V55.4z"/>
	<path class="st4" d="M56.5,59.4h-5.4c0.1,0.5,0.3,0.9,0.7,1.2c0.4,0.3,0.9,0.4,1.5,0.4c0.8,0,1.4-0.2,1.9-0.7l0.9,1
		c-0.3,0.4-0.7,0.6-1.2,0.8c-0.5,0.2-1,0.3-1.6,0.3c-0.8,0-1.4-0.1-2-0.4c-0.6-0.3-1-0.7-1.3-1.3c-0.3-0.5-0.5-1.1-0.5-1.8
		c0-0.7,0.2-1.3,0.5-1.8c0.3-0.5,0.7-1,1.3-1.3c0.5-0.3,1.1-0.4,1.8-0.4c0.7,0,1.3,0.1,1.8,0.4c0.5,0.3,0.9,0.7,1.2,1.2
		c0.3,0.5,0.4,1.2,0.4,1.9C56.5,59,56.5,59.2,56.5,59.4z M51.8,57.1c-0.4,0.3-0.6,0.7-0.6,1.2H55c-0.1-0.5-0.3-0.9-0.6-1.2
		c-0.4-0.3-0.8-0.5-1.3-0.5C52.6,56.6,52.1,56.8,51.8,57.1z"/>
	<path class="st4" d="M63.5,56.8h-2.4v5.5h-1.6v-5.5H57v-1.4h6.4V56.8z"/>
	<path class="st4" d="M73.6,56.2c0.5,0.3,0.9,0.7,1.2,1.2c0.3,0.5,0.4,1.1,0.4,1.7c0,0.7-0.2,1.2-0.5,1.8c-0.3,0.5-0.7,0.9-1.3,1.2
		c-0.6,0.3-1.2,0.4-1.9,0.4c-1.2,0-2.1-0.4-2.8-1.2c-0.7-0.8-1-1.9-1-3.4c0-1.4,0.3-2.5,0.9-3.3c0.6-0.8,1.5-1.3,2.7-1.6l3.2-0.7
		l0.2,1.4l-2.9,0.6c-0.8,0.2-1.5,0.5-1.9,0.9c-0.4,0.4-0.7,1-0.7,1.7c0.3-0.4,0.7-0.7,1.1-0.9c0.4-0.2,0.9-0.3,1.4-0.3
		C72.5,55.8,73.1,55.9,73.6,56.2z M73,60.5c0.4-0.4,0.5-0.9,0.5-1.5c0-0.6-0.2-1.1-0.5-1.4c-0.4-0.4-0.8-0.5-1.4-0.5
		c-0.6,0-1.1,0.2-1.5,0.5c-0.4,0.4-0.6,0.8-0.6,1.4c0,0.6,0.2,1.1,0.6,1.5c0.4,0.4,0.9,0.6,1.4,0.6S72.6,60.9,73,60.5z"/>
	<path class="st4" d="M83.1,59.4h-5.4c0.1,0.5,0.3,0.9,0.7,1.2c0.4,0.3,0.9,0.4,1.5,0.4c0.8,0,1.4-0.2,1.9-0.7l0.9,1
		c-0.3,0.4-0.7,0.6-1.2,0.8c-0.5,0.2-1,0.3-1.6,0.3c-0.8,0-1.4-0.1-2-0.4c-0.6-0.3-1-0.7-1.3-1.3c-0.3-0.5-0.5-1.1-0.5-1.8
		c0-0.7,0.2-1.3,0.5-1.8c0.3-0.5,0.7-1,1.3-1.3c0.5-0.3,1.1-0.4,1.8-0.4c0.7,0,1.3,0.1,1.8,0.4c0.5,0.3,0.9,0.7,1.2,1.2
		c0.3,0.5,0.4,1.2,0.4,1.9C83.2,59,83.1,59.2,83.1,59.4z M78.4,57.1c-0.4,0.3-0.6,0.7-0.6,1.2h3.9c-0.1-0.5-0.3-0.9-0.6-1.2
		c-0.4-0.3-0.8-0.5-1.3-0.5C79.2,56.6,78.7,56.8,78.4,57.1z"/>
	<path class="st4" d="M89.9,59.3c0.2,0.3,0.4,0.6,0.4,1c0,0.4-0.1,0.8-0.4,1.1c-0.3,0.3-0.7,0.6-1.2,0.8c-0.5,0.2-1.1,0.3-1.7,0.3
		c-0.5,0-1-0.1-1.6-0.2c-0.5-0.1-1-0.3-1.4-0.5l0.5-1.2c0.3,0.2,0.7,0.3,1.1,0.4c0.4,0.1,0.8,0.2,1.3,0.2c0.5,0,1-0.1,1.3-0.3
		c0.3-0.2,0.5-0.4,0.5-0.7c0-0.3-0.1-0.5-0.4-0.6c-0.2-0.1-0.6-0.2-1-0.2h-1.3v-1.1h1.2c0.4,0,0.7-0.1,0.9-0.2
		c0.2-0.1,0.3-0.3,0.3-0.6c0-0.2-0.1-0.4-0.4-0.6c-0.3-0.1-0.7-0.2-1.1-0.2c-0.7,0-1.4,0.2-2.2,0.5l-0.4-1.2
		c0.9-0.4,1.8-0.6,2.7-0.6c0.6,0,1.1,0.1,1.6,0.2c0.5,0.2,0.8,0.4,1.1,0.7c0.3,0.3,0.4,0.6,0.4,1c0,0.3-0.1,0.6-0.3,0.9
		c-0.2,0.3-0.5,0.5-0.8,0.6C89.3,58.8,89.6,59,89.9,59.3z"/>
	<path class="st4" d="M100.7,56.8H97v5.5h-1.6v-6.9h5.3V56.8z"/>
	<path class="st4" d="M107.5,55.8c0.5,0.3,0.9,0.7,1.2,1.2c0.3,0.5,0.4,1.1,0.4,1.8c0,0.7-0.1,1.3-0.4,1.8c-0.3,0.5-0.7,0.9-1.2,1.2
		c-0.5,0.3-1.1,0.4-1.8,0.4c-0.9,0-1.7-0.3-2.2-0.9v3.3h-1.6v-9.3h1.5v0.9c0.3-0.3,0.6-0.6,1-0.7c0.4-0.2,0.8-0.2,1.3-0.2
		C106.3,55.3,106.9,55.5,107.5,55.8z M106.9,60.4c0.4-0.4,0.6-0.9,0.6-1.6c0-0.6-0.2-1.2-0.6-1.6c-0.4-0.4-0.9-0.6-1.5-0.6
		c-0.4,0-0.7,0.1-1,0.3c-0.3,0.2-0.6,0.4-0.7,0.8c-0.2,0.3-0.3,0.7-0.3,1.1c0,0.4,0.1,0.8,0.3,1.1c0.2,0.3,0.4,0.6,0.7,0.8
		c0.3,0.2,0.7,0.3,1,0.3C106.1,61,106.6,60.8,106.9,60.4z"/>
	<path class="st4" d="M115.5,56.1c0.5,0.5,0.8,1.2,0.8,2.2v4h-1.5v-0.8c-0.2,0.3-0.5,0.5-0.8,0.7c-0.4,0.2-0.8,0.2-1.3,0.2
		c-0.5,0-1-0.1-1.3-0.3c-0.4-0.2-0.7-0.4-0.9-0.7c-0.2-0.3-0.3-0.7-0.3-1.1c0-0.6,0.2-1.1,0.7-1.5c0.5-0.4,1.2-0.6,2.2-0.6h1.8v-0.1
		c0-0.5-0.1-0.8-0.4-1.1c-0.3-0.3-0.7-0.4-1.3-0.4c-0.4,0-0.8,0.1-1.1,0.2c-0.4,0.1-0.7,0.3-0.9,0.5l-0.6-1.2
		c0.4-0.3,0.8-0.5,1.3-0.6c0.5-0.1,1-0.2,1.6-0.2C114.2,55.3,115,55.6,115.5,56.1z M114.1,60.9c0.3-0.2,0.5-0.4,0.7-0.8v-0.8h-1.7
		c-0.9,0-1.4,0.3-1.4,0.9c0,0.3,0.1,0.5,0.3,0.7c0.2,0.2,0.6,0.3,1,0.3C113.4,61.2,113.7,61.1,114.1,60.9z"/>
	<path class="st4" d="M118.3,55.4h1.6v2.8h3.5v-2.8h1.6v6.9h-1.6v-2.7h-3.5v2.7h-1.6V55.4z"/>
	<path class="st4" d="M127.1,55.4h1.6v4.5l3.8-4.5h1.5v6.9h-1.6v-4.5l-3.8,4.5h-1.5V55.4z"/>
	<path class="st4" d="M143.7,60.9v2.9h-1.5v-1.6h-6v-6.9h1.6v5.5h3.3v-5.5h1.6v5.5H143.7z"/>
</g>
</svg>
