<svg xmlns="http://www.w3.org/2000/svg" viewBox="0 0 538.75 800.34"><defs><style>.cls-1{fill:#ddd;}</style></defs><title>pir</title><g id="Слой_2" data-name="Слой 2"><g id="Слой_1-2" data-name="Слой 1"><path class="cls-1" d="M271.3,800.34c-24.76,0-50.81-6.15-71.26-20.25-37.6-25.93-58.31-61.89-58.31-101.23,0-7.12-1.3-11.75-3.85-13.75-2.31-1.8-6.51-2.61-13.63-2.61H67.08a1.83,1.83,0,0,1-1.83-1.83V442c0-18.19-5.47-19.63-12.63-19.63-9.87,0-22.57-5-32.36-12.82C11,402.18,0,389,0,368.25,0,330.9,31.18,313.5,52.25,313.5c11.54,0,13-1,13-8.5V76.33a1.83,1.83,0,0,1,1.83-1.83h74.67c1.5,0,9-.48,9-10V1.83A1.83,1.83,0,0,1,152.58,0H386.42a1.83,1.83,0,0,1,1.83,1.83V64c0,5.45,1.57,10.5,13,10.5h71.17a1.83,1.83,0,0,1,1.83,1.83V305c0,.92.29,9,10.22,9,17.71,0,54.28,13.08,54.28,53.5,0,24.13-12.62,37.72-23.2,44.88-12.43,8.4-25.76,10.62-31.08,10.62-10.72,0-10.72,7.27-10.72,10V660.67a1.83,1.83,0,0,1-1.83,1.83H409.25c-5.7,0-12.5,2.17-12.5,12.5,0,32.61-16.44,78.41-62.56,109.16C318.88,794.36,295.72,800.34,271.3,800.34ZM81.25,644.83a1.67,1.67,0,0,0,1.67,1.67h41.33c15.59,0,33.48,3.68,33.48,32.35,0,33.93,18.25,65.2,51.4,88.06,37.18,25.64,92.73,19.57,116.19,3.93,52.76-35.18,55.44-86,55.44-95.84,0-19.69,14.31-28.5,28.5-28.5h46.67a1.83,1.83,0,0,0,1.83-1.83V433c0-15.79,10.49-26,26.72-26,6.3,0,38.28-6.87,38.28-39.5,0-31.14-30.19-37.5-38.28-37.5-17,0-26.22-12.88-26.22-25V92.33a1.83,1.83,0,0,0-1.83-1.83H401.25c-18.16,0-29-9.91-29-26.5V17.83A1.83,1.83,0,0,0,370.42,16H168.58a1.83,1.83,0,0,0-1.83,1.83V64.5c0,17.07-12.58,26-25,26H83.42a2.17,2.17,0,0,0-2.17,2.17V305c0,13.08-6.15,19-11.32,21.57-5.77,2.93-12.38,2.93-17.68,2.93C40.89,329.5,16,339.26,16,368.25c0,26.4,26.54,38.12,36.62,38.12,13.72,0,20.5,6.66,23.78,12.24s4.85,12.94,4.85,23.39Z"/><path class="cls-1" d="M138.56,596.83H126.33a1.75,1.75,0,0,1-1.75-1.75V149.58a2.08,2.08,0,0,1,2.08-2.08h48.25a60.26,60.26,0,0,1,40.52,15.14,53.8,53.8,0,0,1,17.81,40.53c0,32.4-24.73,53.33-63,53.33H142a1.42,1.42,0,0,0-1.42,1.42v336.9A2,2,0,0,1,138.56,596.83Zm2-357.67a1.33,1.33,0,0,0,1.33,1.33h28.33c11,0,47-2.69,47-37.33,0-25.76-21.81-39.67-42.33-39.67H142a1.42,1.42,0,0,0-1.42,1.42Z"/><path class="cls-1" d="M403.72,260.36a44.73,44.73,0,0,0-11.79-10.46.6.6,0,0,1,0-1,48.79,48.79,0,0,0,4.19-2.68c9-6.46,19.78-19.06,19.78-42.34S405,167.25,395.82,160c-9.73-7.65-22.53-12.21-34.24-12.21H309a1,1,0,0,0-1,1V595.15a1.35,1.35,0,0,0,1.35,1.35h13.19A1.46,1.46,0,0,0,324,595V257.66a1.16,1.16,0,0,1,1.16-1.16h27.85c12.45,0,29.16,2.38,38.07,13.73l.22.28c4.21,5.34,8.57,10.85,8.57,38.65V595.4a1.1,1.1,0,0,0,1.1,1.1H414.4a1.52,1.52,0,0,0,1.52-1.52V309.17c0-30.9-5.21-39.95-12.05-48.62ZM324,239.52V165a1.12,1.12,0,0,1,1.12-1.12h36.41c9.94,0,38.33,7.35,38.33,40,0,13.24-4.41,23.1-13.1,29.33-9.25,6.62-20.45,7.34-24.83,7.34H325A1,1,0,0,1,324,239.52Z"/><circle class="cls-1" cx="54.25" cy="368.17" r="13"/><circle class="cls-1" cx="484.47" cy="368.17" r="13"/><path class="cls-1" d="M253.45,635.5c2.79-1.54,5.23-2.71,7.39-3.75,10.56-5.08,16.54-8.82,16.54-26.59V118.56a1.06,1.06,0,0,1,1.06-1.06h18.81c16.78,0,26.8-9.66,26.8-25.83V75.25a1.42,1.42,0,0,0-1.42-1.42h-13.4A1.18,1.18,0,0,0,308,75V91.67c0,6.38-1.72,9.83-10.8,9.83H278.38a1,1,0,0,1-1-1V75.23a1.4,1.4,0,0,0-1.4-1.4H263.15a1.77,1.77,0,0,0-1.77,1.77v24.71a1.19,1.19,0,0,1-1.19,1.19H242.25c-5.15,0-8.79-1-10-2.69-.93-1.33-.93-3.68-.93-5.64v-18A1.38,1.38,0,0,0,230,73.83h-12.9a1.72,1.72,0,0,0-1.72,1.72V93.24c0,3.23,0,9.26,3.8,14.71,4.41,6.33,12.19,9.55,23.11,9.55H260a1.38,1.38,0,0,1,1.38,1.38V605.17c0,5.71-.62,7.77-1.15,8.49-.7,1-3.31,2.22-6.33,3.67-2.23,1.07-5,2.41-8.19,4.16-19.36,10.69-30.47,29.5-30.47,51.6a54.47,54.47,0,0,0,51.24,54.31c29.79,1.71,55.77-21.37,57.47-51.16a54.29,54.29,0,0,0-23.47-48,1.22,1.22,0,0,0-1.71.34l-7.27,11.07a1.56,1.56,0,0,0,.42,2.12c14.2,10.12,20.28,28.84,13.07,46.58a36.89,36.89,0,0,1-23.44,21.29c-26.22,8-50.31-11.55-50.31-36.6C231.25,656.76,239.13,643.41,253.45,635.5Z"/></g></g></svg>
