<svg xmlns="http://www.w3.org/2000/svg" viewBox="0 0 416.46 761.42"><defs><style>.cls-1{fill:#ddd;}.cls-2{fill:#ddd;}</style></defs><title>pit kofe vertical</title><g id="Layer_2" data-name="Layer 2"><g id="Layer_1-2" data-name="Layer 1"><path class="cls-1" d="M0,587.44A6,6,0,0,1,1.84,583a6,6,0,0,1,4.44-1.84A6,6,0,0,1,10.71,583a6,6,0,0,1,1.85,4.44v34.3l46.08-39a6,6,0,0,1,4.16-1.57,6.3,6.3,0,0,1,6.28,6.28,6,6,0,0,1-1.81,4.4l-39,33,39,33.44a6.25,6.25,0,0,1,1.81,4.47,6.29,6.29,0,0,1-10.36,4.79L18.53,633.13l-6,5.1V662.8a6,6,0,0,1-1.85,4.44,6,6,0,0,1-4.43,1.84,6,6,0,0,1-4.44-1.84A6,6,0,0,1,0,662.8Z"/><path class="cls-1" d="M164.22,625.12a44,44,0,0,1-44,44,44,44,0,1,1,0-87.92,44,44,0,0,1,44,44Zm-44-31.4a31.4,31.4,0,1,0,22.22,53.62,31.4,31.4,0,0,0-22.22-53.62Z"/><path class="cls-1" d="M240.5,576.56a6.28,6.28,0,0,1,12.56,0v15.75q10.6-11.15,25.12-11.15,15.62,0,26.65,12.87t11,31.09q0,18.21-11,31.09t-26.65,12.87q-14.52,0-25.12-11.15v42.55a6.28,6.28,0,0,1-12.56,0V657.94q-10.6,11.15-25.12,11.15-15.62,0-26.65-12.87t-11-31.09q0-18.21,11-31.09t26.65-12.87q14.52,0,25.12,11.15Zm-25.12,17.17q-10.44,0-17.78,9.18t-7.34,22.22q0,13,7.34,22.22t17.78,9.18q10.44,0,17.78-9.18t7.34-22.22q0-13-7.34-22.22T215.38,593.72Zm62.8,0q-10.44,0-17.78,9.18t-7.34,22.22q0,13,7.34,22.22t17.78,9.18q10.44,0,17.78-9.18t7.34-22.22q0-13-7.34-22.22T278.18,593.72Z"/><path class="cls-1" d="M396.56,647.73a6.3,6.3,0,0,1,6.28,6.28,6.25,6.25,0,0,1-1.81,4.47,44,44,0,1,1,15.31-33.36,6.3,6.3,0,0,1-6.28,6.28H341.53a31.55,31.55,0,0,0,30.85,25.12,29.64,29.64,0,0,0,20.25-7.46A6.25,6.25,0,0,1,396.56,647.73Zm6.67-28.89a31.51,31.51,0,0,0-61.7,0Z"/><path class="cls-1" d="M203.77,327.85a6,6,0,0,0-10.23,4.23v14.44a6,6,0,0,0,12,0V332.09A5.77,5.77,0,0,0,203.77,327.85Z"/><path class="cls-1" d="M310.32,245.22A6,6,0,0,0,306,235l-14.44.12a6,6,0,0,0,.1,12L306.1,247A5.77,5.77,0,0,0,310.32,245.22Z"/><path class="cls-1" d="M210.7,134.64A6,6,0,0,0,200.15,138L199,152.4a6,6,0,0,0,12,1l1.2-14.39A5.77,5.77,0,0,0,210.7,134.64Z"/><path class="cls-1" d="M111.85,245.49a6,6,0,0,0-3.37-10.55l-14.39-1.2a6,6,0,0,0-1,12l14.39,1.2A5.77,5.77,0,0,0,111.85,245.49Z"/><path class="cls-2" d="M.29,459.34a6.38,6.38,0,0,1,1.95-4.68,6.38,6.38,0,0,1,4.68-1.95,6.38,6.38,0,0,1,4.68,1.95,6.38,6.38,0,0,1,1.95,4.68v5.38a41.36,41.36,0,0,1,29.8-12,41.47,41.47,0,0,1,30.42,12.62,41.47,41.47,0,0,1,12.62,30.42v43a6.62,6.62,0,0,1-13.25,0v-43A28.71,28.71,0,0,0,64.4,474.7,28.71,28.71,0,0,0,43.33,466a28.71,28.71,0,0,0-21.07,8.73,28.71,28.71,0,0,0-8.73,21.07v43a6.38,6.38,0,0,1-1.95,4.68,6.38,6.38,0,0,1-4.68,1.95,6.38,6.38,0,0,1-4.68-1.95,6.38,6.38,0,0,1-1.95-4.68Z"/><path class="cls-2" d="M184.75,538.81a6.62,6.62,0,0,1-13.25,0v-5.38a43,43,0,0,1-60.22-.62,41.46,41.46,0,0,1-12.62-30.42v-43a6.62,6.62,0,0,1,13.25,0v43a29.82,29.82,0,0,0,29.8,29.8,29.82,29.82,0,0,0,29.8-29.8v-43a6.62,6.62,0,0,1,13.25,0Z"/><path class="cls-2" d="M212.86,538.81a6.62,6.62,0,0,1-13.25,0V459.34a6.62,6.62,0,0,1,13.25,0v1.74A34.69,34.69,0,0,1,236,452.72a35.09,35.09,0,0,1,25.75,10.68,40.74,40.74,0,0,1,4.06,4.72,40.74,40.74,0,0,1,4.06-4.72,36.42,36.42,0,0,1,62.17,25.75v49.67a6.62,6.62,0,0,1-13.25,0V489.14a23.18,23.18,0,1,0-46.36,0v49.67a6.62,6.62,0,0,1-13.25,0V489.14a23.18,23.18,0,1,0-46.36,0Z"/><path class="cls-2" d="M360.17,459.34v33.11H390a26.49,26.49,0,1,1,0,53H353.55a6.64,6.64,0,0,1-6.62-6.62V459.18a6.52,6.52,0,0,1,2-4.55,6.31,6.31,0,0,1,4.64-1.9,6.64,6.64,0,0,1,6.62,6.62ZM390,532.19a13.25,13.25,0,0,0,0-26.49h-29.8v26.49Z"/><path class="cls-2" d="M21.36,743.08a1.84,1.84,0,0,1,1.37.58A1.86,1.86,0,0,1,23.3,745a2.06,2.06,0,0,1-.6,1.44,13.1,13.1,0,0,1-8.88,3.28,13.1,13.1,0,0,1-9.62-4,13.61,13.61,0,0,1,0-19.27,13.1,13.1,0,0,1,9.62-4,13.09,13.09,0,0,1,8.88,3.28,1.92,1.92,0,0,1,.67,1.5,1.83,1.83,0,0,1-.56,1.37,2,2,0,0,1-2.61.14,9.35,9.35,0,0,0-6.38-2.41,9.43,9.43,0,0,0-6.88,2.85,9.74,9.74,0,0,0,0,13.77,9.43,9.43,0,0,0,6.88,2.85,9.3,9.3,0,0,0,6.35-2.38A1.92,1.92,0,0,1,21.36,743.08Z"/><path class="cls-2" d="M57.49,743.14a1.91,1.91,0,0,1,1.38.56,1.89,1.89,0,0,1,.57,1.38,1.94,1.94,0,0,1-.56,1.38,13.63,13.63,0,0,1-18.5-.7A13.61,13.61,0,0,1,50,722.52a13.59,13.59,0,0,1,13.61,13.61,2,2,0,0,1-1.94,1.94H40.46A9.76,9.76,0,0,0,50,745.86a9.23,9.23,0,0,0,6.28-2.31A1.91,1.91,0,0,1,57.49,743.14Zm2.07-8.95a9.75,9.75,0,0,0-16.43-4.94,9.37,9.37,0,0,0-2.67,4.94Z"/><path class="cls-2" d="M80.36,747.81a1.94,1.94,0,0,1-1.94,1.94,2,2,0,0,1-1.94-1.94V724.46a2,2,0,0,1,1.94-1.94,1.94,1.94,0,0,1,1.94,1.94V725a10.7,10.7,0,0,1,14.38.68A12.48,12.48,0,0,1,95.93,727a12.48,12.48,0,0,1,1.19-1.38,10.69,10.69,0,0,1,18.25,7.57v14.59a2,2,0,0,1-1.94,1.94,1.84,1.84,0,0,1-1.37-.57,1.86,1.86,0,0,1-.57-1.37V733.22a6.81,6.81,0,1,0-13.61,0v14.59a2,2,0,0,1-1.94,1.94,1.89,1.89,0,0,1-1.38-.57,1.86,1.86,0,0,1-.58-1.37V733.22a6.81,6.81,0,0,0-13.61,0Z"/><path class="cls-2" d="M132.12,724.46v9.73h8.76a7.78,7.78,0,1,1,0,15.56h-10.7a2,2,0,0,1-1.94-1.94V724.42a1.92,1.92,0,0,1,.59-1.34,1.85,1.85,0,0,1,1.35-.56,1.94,1.94,0,0,1,1.94,1.94Zm8.76,21.4a3.75,3.75,0,0,0,2.75-1.15,3.88,3.88,0,0,0,0-5.49,3.75,3.75,0,0,0-2.75-1.15h-8.76v7.79Z"/><path class="cls-2" d="M185,724.46a2,2,0,0,1,1.94-1.94,1.94,1.94,0,0,1,1.94,1.94v10.63L203.21,723a2,2,0,0,1,3.24,1.45,1.9,1.9,0,0,1-.56,1.37l-12.08,10.24,12.08,10.36a1.93,1.93,0,0,1,.56,1.38,2,2,0,0,1-3.22,1.48l-12.45-10.67-1.85,1.59v7.61a1.94,1.94,0,0,1-1.94,1.94,2,2,0,0,1-1.94-1.94Z"/><path class="cls-2" d="M245.39,736.13a13.59,13.59,0,1,1-4-9.63A13.15,13.15,0,0,1,245.39,736.13Zm-13.61-9.73a9.72,9.72,0,1,0,6.88,2.85A9.43,9.43,0,0,0,231.78,726.4Z"/><path class="cls-2" d="M277.7,720.59a1.94,1.94,0,0,1,1.94-1.94,2,2,0,0,1,1.94,1.94V726a10.37,10.37,0,0,1,7.77-3.45,10.53,10.53,0,0,1,8.26,4,15.32,15.32,0,0,1,0,19.27,10.53,10.53,0,0,1-8.26,4,10.37,10.37,0,0,1-7.77-3.45v13.18a2,2,0,0,1-1.94,1.94,1.94,1.94,0,0,1-1.94-1.94V746.3a10.53,10.53,0,0,1-16-.53,15.27,15.27,0,0,1,0-19.27,10.53,10.53,0,0,1,16-.53Zm-7.79,5.82a6.83,6.83,0,0,0-5.5,2.85,11.51,11.51,0,0,0,0,13.77,6.74,6.74,0,0,0,11,0,11.51,11.51,0,0,0,0-13.77A6.83,6.83,0,0,0,269.91,726.4Zm19.44,0a6.86,6.86,0,0,0-5.5,2.85,11.56,11.56,0,0,0,0,13.77,6.75,6.75,0,0,0,11,0,11.56,11.56,0,0,0,0-13.77A6.87,6.87,0,0,0,289.35,726.4Z"/><path class="cls-2" d="M335,743.14a1.91,1.91,0,0,1,1.38.56,1.89,1.89,0,0,1,.57,1.38,1.93,1.93,0,0,1-.56,1.38,13.64,13.64,0,1,1,4.73-10.33,2,2,0,0,1-1.94,1.94H318a9.76,9.76,0,0,0,9.55,7.79,9.23,9.23,0,0,0,6.28-2.31A1.91,1.91,0,0,1,335,743.14Zm2.07-8.95a9.75,9.75,0,0,0-19.1,0Z"/><path class="cls-2" d="M375.06,743.14a1.91,1.91,0,0,1,1.38.56,1.89,1.89,0,0,1,.57,1.38,1.93,1.93,0,0,1-.56,1.38,13.64,13.64,0,1,1,4.73-10.33,2,2,0,0,1-1.94,1.94H358a9.76,9.76,0,0,0,9.55,7.79,9.23,9.23,0,0,0,6.28-2.31A1.91,1.91,0,0,1,375.06,743.14Zm2.07-8.95a9.75,9.75,0,0,0-19.1,0Z"/><path class="cls-2" d="M397.93,738.08v9.73a1.94,1.94,0,0,1-1.94,1.94,2,2,0,0,1-1.94-1.94V724.46a2,2,0,0,1,1.94-1.94,1.94,1.94,0,0,1,1.94,1.94v9.73h14.6v-9.73a1.85,1.85,0,0,1,.56-1.37,1.89,1.89,0,0,1,1.38-.57,2,2,0,0,1,1.94,1.94v23.34a2,2,0,0,1-1.94,1.94,1.89,1.89,0,0,1-1.38-.57,1.85,1.85,0,0,1-.56-1.37v-9.73Z"/><polygon class="cls-2" points="217.38 181.55 217.54 182.18 217.69 182.81 217.89 183.43 218.23 184.07 218.54 184.66 218.84 185.27 219.26 185.84 219.69 186.37 220.15 186.89 220.62 187.4 221.14 187.88 221.71 188.29 222.25 188.72 222.88 189.04 223.44 189.35 224.08 189.61 224.77 189.82 225.38 189.98 226.07 190.08 226.69 190.08 227.37 190.08 228.06 189.93 228.72 189.78 229.35 189.5 230.06 189.2 230.72 188.77 231.93 187.83 232.93 186.89 233.75 185.95 234.38 185.01 234.85 184.07 235.17 183.18 235.28 182.28 235.28 181.4 235.17 180.56 234.91 179.78 234.55 178.99 234.08 178.25 233.5 177.57 232.82 176.95 232.08 176.32 231.31 175.8 230.45 175.33 229.58 174.9 228.64 174.54 227.69 174.27 226.69 174.07 225.75 173.97 224.77 173.92 223.82 173.97 222.88 174.12 221.92 174.33 221.1 174.7 220.31 175.11 219.53 175.69 218.9 176.32 218.27 177.1 217.8 177.98 217.59 178.52 217.44 179.1 217.32 179.72 217.28 180.29 217.32 180.93 217.38 181.55"/><polygon class="cls-2" points="166.56 190.92 167.05 191.81 167.66 192.75 168.5 193.69 169.49 194.64 170.75 195.57 171.37 195.98 172.06 196.36 172.69 196.56 173.36 196.78 174.05 196.89 174.73 196.94 175.41 196.89 176.03 196.78 176.72 196.62 177.35 196.41 177.97 196.2 178.54 195.89 179.17 195.53 179.76 195.1 180.29 194.69 180.81 194.22 181.27 193.75 181.75 193.17 182.16 192.64 182.57 192.06 182.9 191.49 183.2 190.86 183.52 190.24 183.73 189.61 183.89 188.98 184.05 188.35 184.1 187.79 184.15 187.15 184.1 186.53 183.99 185.95 183.84 185.37 183.63 184.8 183.16 183.9 182.57 183.12 181.9 182.5 181.17 181.98 180.32 181.5 179.5 181.19 178.6 180.93 177.66 180.83 176.66 180.78 175.73 180.78 174.73 180.93 173.74 181.14 172.79 181.4 171.85 181.76 170.96 182.13 170.13 182.59 169.35 183.18 168.61 183.75 167.92 184.38 167.41 185.11 166.89 185.84 166.52 186.59 166.26 187.4 166.16 188.24 166.16 189.08 166.31 189.98 166.56 190.92"/><path class="cls-2" d="M335.11,244.45l-.31-4.76-.53-4.76-.68-4.82-.84-4.81-1-4.81-1.15-4.83-1.3-4.8L327.79,206l-1.63-4.81-1.76-4.82-2-4.81-2.1-4.76L318,182l-2.4-4.75L313,172.55l-2.72-4.67-2.93-4.65-3-4.61-2.92-4-3-3.82-3.18-3.66-3.37-3.45-3.44-3.3-3.61-3.09L281,134.45l-3.88-2.71-4-2.52-4.08-2.3-4.25-2.14-4.28-1.94-4.39-1.77-4.51-1.53L247,118.18,242.4,117l-4.77-.94-4.87-.74-4.86-.58-5-.36-5.07-.15-5.08,0-5.19.27-5.18.41-5.23.69-5.28.89-5.34,1-5.33,1.31-5.34,1.52-5.38,1.73L165.06,124l-5.39,2.15-4.77,2.09-4.71,2.2-4.66,2.41-4.64,2.56-4.61,2.67-4.56,2.88-4.44,3-4.39,3.14-4.3,3.3-4.13,3.45-4.08,3.61-3.93,3.72-3.82,3.87L99,169l-3.5,4.08-3.3,4.24-3.12,4.35-2.94,4.44-2.78,4.54-2.52,4.67-2.3,4.76-2,4.88-1.85,5L73.11,215l-1.25,5.14-1,5.23-.75,5.32-.4,5.4-.1,5.5.19,5.54.58,5.61.89,5.66L73,267.05l1.79,8.17,1.92,7.68,2,7.33L81,297.1l2.31,6.49,2.4,6.08,2.58,5.7,2.66,5.29,2.87,5,3,4.66,3.14,4.24,3.29,4,3.46,3.67,3.61,3.34,3.8,3,4,2.83,4.14,2.51,4.35,2.26,4.53,2,4.72,1.77,4.92,1.63,5.11,1.36,5.3,1.15,5.54,1.06,5.76.78,6,.67,6.23.55,6.44.35,6.64.27,6.9.16,7.11.06,5.34-.06,5.2-.22,5.12-.31,5-.41,5-.59,4.86-.74,4.78-.77,4.67-.94,4.59-1.09,4.5-1.16,4.4-1.31,4.31-1.46,4.18-1.53,4.07-1.66,4-1.78,3.93-1.89,3.76-2,3.68-2.14,3.55-2.21,3.46-2.41,3.35-2.45,3.24-2.56,3.15-2.73,3-2.83,2.87-2.92,2.78-3,2.66-3.13,2.52-3.31L316,317l2.26-3.45,2.22-3.56,2-3.68,2-4,1.85-4.08,1.61-4.14,1.51-4.23,1.31-4.29,1.16-4.39,1-4.4.79-4.51.68-4.48.47-4.61.32-4.61.15-4.66v-4.71ZM323.86,253l-.11,4.29-.26,4.23-.42,4.2-.57,4.14-.73,4.13-.89,4-1,4-1.2,3.94-1.34,3.86-1.54,3.83-1.65,3.71-1.8,3.61-1.82,3.35-2,3.18-2,3.14-2.21,3-2.23,2.93-2.42,2.82-2.57,2.72-2.61,2.61-2.72,2.57-2.82,2.39-3,2.37-3,2.19-3.18,2.15-3.25,2-3.34,1.88-3.46,1.83-3.55,1.73-3.67,1.57L258.67,347l-3.87,1.41-3.93,1.24-4,1.21-4.13,1-4.18,1-4.29.9-4.39.73-4.5.63-4.55.48-4.62.42-4.76.3-4.76.17-4.93,0-6.89,0-6.65-.17-6.39-.2-6.12-.37-5.92-.48-5.6-.63-5.38-.78-5.19-.95-4.91-1.1L144,350.52l-4.49-1.47-4.29-1.68-4.1-1.88-3.91-2.1-3.72-2.3-3.51-2.57-3.4-2.82-3.2-3-3-3.34-2.88-3.67-2.73-3.93-2.56-4.19L99.7,313l-2.36-4.86L95.13,303,93,297.4l-2-5.92-1.88-6.22-1.78-6.65-1.72-7L84,264.18l-1.52-7.85-.77-4.86-.49-4.87-.14-4.81.09-4.77.42-4.71.68-4.72L83.2,223l1.16-4.57,1.42-4.5,1.67-4.44,1.85-4.4,2.08-4.29,2.25-4.25,2.52-4.13,2.66-4,2.82-4,3-3.87,3.19-3.78,3.35-3.66,3.45-3.56,3.58-3.46,3.76-3.35,3.82-3.19,3.92-3.09,4.09-2.92,4.13-2.88,4.2-2.67,4.28-2.56,4.35-2.4,4.4-2.26,4.45-2.09,4.48-1.93,3.93-1.57,4.09-1.51,4.08-1.36,4.17-1.26,4.27-1.2,4.27-1,4.36-.89,4.35-.78,4.38-.63,4.46-.47,4.38-.36,4.45-.16h4.47l4.44.21,4.39.31,4.41.53,4.4.74,4.28.94,4.35,1.08,4.25,1.31,4.17,1.58,4.15,1.77,4,2,4,2.19,3.94,2.46,3.8,2.72,3.73,3,3.59,3.19,3.47,3.45,3.39,3.77,3.24,4,3.16,4.29,2.81,4.29,2.72,4.29,2.57,4.35,2.42,4.34,2.25,4.39,2.09,4.4,2,4.44,1.83,4.4,1.68,4.44,1.57,4.45,1.36,4.5,1.25,4.45,1.11,4.45.93,4.45.79,4.39.62,4.44.54,4.4.3,4.36.21,4.33Z"/><path class="cls-2" d="M109.8,104.31l.15.53.15.53.28.46.31.47.37.43.4.36.43.36.48.26.53.21.51.16.52.12.57.05H115l182.85-15.7.46-.06.49-.1.41-.17.47-.21.36-.2.37-.26.38-.31.3-.33.32-.35.24-.38.22-.42.17-.41.15-.47,0-.47.08-.47,0-.48-.12-1.89-.14-1.83L301.89,82l-.22-1.83-.24-1.73-.28-1.78-.31-1.72-.42-1.68-.37-1.67-.48-1.68-.45-1.62-.54-1.62L298,65.07l-.57-1.57L296.82,62l-.68-1.52-.73-1.51-.75-1.46-.78-1.41L293,54.61l-.87-1.36-.9-1.36-.93-1.36-1-1.3-1-1.32-1.05-1.31-1.08-1.21-1.11-1.26-1.21-1.2-1.19-1.15-1.21-1.15-1.32-1.16L278,37.7,275.67,36l-2.3-1.61L271,32.83l-2.41-1.41-2.45-1.31-2.47-1.25-2.45-1.16-2.52-1-2.51-1-2.57-.89L251.13,24l-2.5-.73-2.57-.68L243.54,22,241,21.43l-2.48-.48-2.46-.41-2.46-.37-2.4-.31-2.34-.25-2.31-.21-2.31-.2-2.19-.11L219.89,19l-2.09-.06-2-.05h-2l-3.69.05L207.3,19,205.52,6a6.72,6.72,0,0,0-2.7-4.6,6.95,6.95,0,0,0-9.76,1.34,6.72,6.72,0,0,0-1.36,5.16l1.76,12.83-3.13.61-3.2.63-3.24.67-3.19.74-3.29.79-3.25.83-3.24.89-3.25,1-3.25,1.1-3.23,1.21-3.2,1.3L154.85,32l-3.1,1.57-3.08,1.72-3,1.88-2.92,2-2.87,2.27-2.83,2.4-2.71,2.61-2.64,2.83-2.51,3-2.4,3.3-2.31,3.45-2.19,3.72-2.1,4-1.93,4.23-1.83,4.5-1.62,4.82-1.54,5.08-1.36,5.39-1.14,5.75-1.05,6,0,.58,0,.51ZM121.37,93.9,122.56,89l1.3-4.61,1.47-4.29,1.58-4.09,1.72-3.82,1.83-3.61,1.93-3.35,2-3.14,2.1-2.92,2.25-2.72,2.36-2.56,2.4-2.36L146,49.42l2.57-2,2.65-1.84,2.7-1.73,2.76-1.57,2.78-1.41,2.88-1.3,2.88-1.21,2.93-1.11,2.92-1,3-.89,3-.83,3.05-.78,3-.72,3-.69,6.07-1.21,2.64-.51,3.33-.64.46-.1,1.07-.21.92-.16.27-.06,2.11-.19,2.18-.22,2.21-.16,1.3,0,1,0,2.24-.1h4.71l2.36,0,2.39.11,2.41.16,2.46.22,2.42.25,2.45.32,2.46.36,2.46.37,2.41.47,2.45.52,2.4.57,2.42.63,2.36.73,2.35.74,2.36.83,2.29.88,2.27.94,2.25,1,2.19,1.1,2.15,1.16L266,41.31l2,1.31L270,44l1.87,1.48L273.78,47l1,.88,1,.9.95.89.89.94.9.93.87,1,.84,1,.8,1,.79,1,.72,1.05.74,1.1.73,1,.68,1.11.62,1.09.63,1.14.57,1.17.58,1.15.53,1.19.51,1.21.48,1.21.48,1.25.42,1.26.41,1.29.36,1.27.32,1.31.3,1.36L291.2,77l.28,1.36.2,1.42.21,1.36.21,1.41.08.68L120.52,97.93Z"/><path class="cls-2" d="M281.55,170.69a5.76,5.76,0,0,0-8.08.72l-62.73,74.81-73-31.91v0a5.73,5.73,0,0,0-4.59,10.49h0l.11,0,0,0,76.36,33.72h0a5.73,5.73,0,0,0,6.53-1c.24-.24,66.11-78.84,66.11-78.84a5.76,5.76,0,0,0-.73-8.08Z"/><path class="cls-2" d="M120.67,356a7,7,0,0,0-9.11,3.83l-6.35,15.6a7,7,0,0,0,13,5.28l6.35-15.6a7,7,0,0,0-3.84-9.11Z"/><path class="cls-2" d="M292.11,355.15a7,7,0,0,0-12.47,6.33l7.62,15a7,7,0,0,0,12.47-6.33Z"/><path class="cls-2" d="M256.72,252.56a4.23,4.23,0,0,0-5.07,3.15l-.19.83h0l-.09.42-1.3,5.59-.18.68-.62,2.14-.68,2-.75,2-.78,1.94-.82,1.88-.9,1.83-.94,1.78-1,1.68-1,1.63-1.11,1.62-1.15,1.46L239,284.69l-1.2,1.36-1.25,1.31-1.31,1.25-1.35,1.21-1.42,1.1L231,292l-1.45,1-1.52.88-1.57.85-1.63.73-1.61.72-1.69.59-1.67.58-1.76.47-1.8.37-1.76.31-1.89.26-2.14.14-2.19.06h-2.2l-2.21-.16-2.21-.21-2.13-.36-2.2-.42-2.15-.59-2.14-.62-2.1-.73-2.08-.79-2.09-.94-2-1-2-1.09-2-1.17-1.94-1.25-1.94-1.35L175,286.84l-1.83-1.52-1.83-1.57-1.74-1.63-1.71-1.77-1.63-1.78-1.63-1.9-1.51-1.92-1.52-2-1.43-2.08-1.35-2.15-1.31-2.19-1.26-2.25-.73-1.46-2.23-4.92a4.17,4.17,0,0,0-7.59,3.44l.67,1.47h0l1.21,2.67.17.34,1.14,2.29,1.41,2.56.81,1.36.65,1.1,1.57,2.41,1.63,2.34,1.66,2.24,1.79,2.21,1.83,2.09,1.88,2,1.93,1.93,2,1.88,2.09,1.78,2.1,1.67,2.13,1.62,2.21,1.47,2.25,1.4,2.31,1.37,2.28,1.22,2.36,1.15,2.42,1,2.41.94,2.4.77,2.47.73,2.51.58,2.45.51,2.52.38,2.49.25,2.58.17,2.51,0,2.55-.1,2.52-.21,2.21-.26,2.07-.41,2.17-.43,2-.57,2-.62,2-.74,1.94-.79,1.89-1,1.82-.92,1.84-1.11,1.78-1.1,1.66-1.25,1.68-1.32,1.61-1.35,1.59-1.47,1.51-1.51,1.41-1.62,1.42-1.68,1.37-1.73,1.3-1.83,1.21-1.94,1.2-1.94,1.12-2,1-2.09,1-2.14.94-2.26.89-2.29.41-1.24.37-1.14.74-2.39.68-2.5.38-1.52.17-.57.81-3.47a4.24,4.24,0,0,0-3.15-5.07Z"/></g></g></svg>
