<svg xmlns="http://www.w3.org/2000/svg" viewBox="0 0 482.16 138.2"><defs><style>.cls-1{fill:#ddd;}.cls-2{fill:#ddd;}</style></defs><title>pit kofe horizontal</title><g id="Layer_2" data-name="Layer 2"><g id="Layer_1-2" data-name="Layer 1"><path class="cls-1" d="M48.15,117.68a2.15,2.15,0,0,0-3.67,1.52v5.18a2.15,2.15,0,0,0,4.31,0V119.2A2.07,2.07,0,0,0,48.15,117.68Z"/><path class="cls-1" d="M86.4,88a2.15,2.15,0,0,0-1.55-3.66l-5.18,0a2.15,2.15,0,0,0,0,4.31l5.18,0A2.07,2.07,0,0,0,86.4,88Z"/><path class="cls-1" d="M50.64,48.33a2.15,2.15,0,0,0-3.79,1.21l-.43,5.17a2.15,2.15,0,0,0,4.29.36l.43-5.17A2.07,2.07,0,0,0,50.64,48.33Z"/><path class="cls-1" d="M15.16,88.11A2.15,2.15,0,0,0,14,84.33L8.79,83.9a2.15,2.15,0,0,0-.36,4.29l5.17.43A2.07,2.07,0,0,0,15.16,88.11Z"/><polygon class="cls-2" points="53.04 65.16 53.1 65.39 53.15 65.62 53.22 65.84 53.34 66.07 53.45 66.28 53.56 66.5 53.72 66.71 53.87 66.89 54.03 67.08 54.2 67.27 54.39 67.44 54.59 67.59 54.79 67.74 55.01 67.85 55.21 67.97 55.45 68.06 55.69 68.13 55.91 68.19 56.16 68.23 56.38 68.23 56.63 68.23 56.87 68.17 57.11 68.12 57.34 68.02 57.59 67.91 57.83 67.76 58.26 67.42 58.62 67.08 58.92 66.74 59.14 66.41 59.31 66.07 59.42 65.75 59.47 65.43 59.47 65.11 59.42 64.81 59.33 64.53 59.2 64.24 59.03 63.98 58.83 63.74 58.58 63.51 58.32 63.29 58.04 63.1 57.73 62.93 57.42 62.78 57.08 62.65 56.74 62.55 56.38 62.48 56.04 62.45 55.69 62.42 55.35 62.45 55.01 62.5 54.67 62.57 54.38 62.71 54.09 62.85 53.81 63.06 53.59 63.29 53.36 63.57 53.19 63.88 53.11 64.08 53.06 64.28 53.02 64.51 53 64.71 53.02 64.94 53.04 65.16"/><polygon class="cls-2" points="34.8 68.53 34.97 68.85 35.2 69.19 35.5 69.52 35.85 69.86 36.3 70.2 36.53 70.35 36.77 70.48 37 70.55 37.24 70.63 37.49 70.67 37.73 70.69 37.98 70.67 38.2 70.63 38.44 70.58 38.67 70.5 38.89 70.42 39.1 70.31 39.32 70.18 39.54 70.03 39.73 69.88 39.91 69.71 40.08 69.54 40.25 69.33 40.4 69.14 40.55 68.94 40.66 68.73 40.77 68.51 40.89 68.28 40.96 68.06 41.02 67.83 41.08 67.61 41.09 67.4 41.11 67.17 41.09 66.95 41.05 66.74 41 66.54 40.92 66.33 40.76 66.01 40.55 65.73 40.3 65.51 40.04 65.32 39.74 65.15 39.44 65.03 39.12 64.94 38.78 64.91 38.42 64.89 38.09 64.89 37.73 64.94 37.37 65.02 37.03 65.11 36.7 65.24 36.38 65.38 36.08 65.54 35.8 65.75 35.53 65.95 35.29 66.18 35.1 66.44 34.92 66.71 34.78 66.97 34.69 67.27 34.65 67.57 34.65 67.87 34.71 68.19 34.8 68.53"/><path class="cls-2" d="M95.3,87.74,95.19,86,95,84.32l-.24-1.73-.3-1.73-.36-1.73-.41-1.73-.46-1.72-.55-1.75-.58-1.72-.63-1.73-.72-1.73L90,67l-.83-1.71-.86-1.71-.94-1.69-1-1.67-1.05-1.67-1.09-1.66-1-1.43-1.09-1.37L81,52.82l-1.21-1.24L78.51,50.4l-1.3-1.11-1.33-1-1.39-1-1.43-.91-1.46-.83-1.53-.77-1.54-.7L67,43.45l-1.62-.55-1.65-.49L62,42l-1.71-.34-1.75-.27-1.74-.21L55,41,53.21,41l-1.82,0-1.86.1-1.86.15-1.88.25-1.89.32L42,42.19l-1.91.47-1.92.54-1.93.62-2,.68-1.93.77L30.61,46l-1.69.79-1.67.86-1.66.92-1.66,1-1.64,1-1.59,1.09-1.57,1.13L17.58,54,16.1,55.23l-1.46,1.3-1.41,1.34-1.37,1.39-1.3,1.43L9.29,62.14,8.11,63.66,7,65.22,5.93,66.82l-1,1.63L4,70.12l-.83,1.71-.73,1.75-.66,1.78-.56,1.82L.81,79,.45,80.91.18,82.82,0,84.75l0,2,.07,2,.21,2,.32,2,.62,3.1.64,2.93.69,2.76.73,2.63.79,2.46L4.9,109l.86,2.18.93,2,1,1.9,1,1.78,1.07,1.67,1.13,1.52,1.18,1.43,1.24,1.32,1.3,1.2L16,125.1l1.43,1,1.49.9,1.56.81,1.63.73,1.69.63,1.77.59,1.83.49,1.9.41,2,.38,2.07.28,2.14.24,2.24.2,2.31.12,2.38.1,2.48.06,2.55,0,1.92,0L51.2,132l1.84-.11,1.8-.15,1.78-.21,1.74-.27,1.71-.28,1.68-.34,1.65-.39,1.62-.42,1.58-.47,1.55-.53,1.5-.55,1.46-.6,1.43-.64,1.41-.68,1.35-.73,1.32-.77,1.27-.79,1.24-.87,1.2-.88,1.16-.92,1.13-1,1.07-1,1-1,1-1.07,1-1.12.9-1.19.86-1.2.81-1.24.8-1.28.71-1.32.73-1.44.66-1.47.58-1.48.54-1.52.47-1.54.42-1.58.35-1.58.28-1.62L95,96.1l.17-1.65.12-1.66.05-1.67V89.43Zm-4,3.06,0,1.54-.09,1.52L91,95.37l-.21,1.49-.26,1.48-.32,1.45-.36,1.42-.43,1.41L88.92,104l-.55,1.38-.59,1.33-.65,1.3-.65,1.2-.72,1.14L85,111.48l-.79,1.09-.8,1.05-.87,1-.92,1-.94.94-1,.92-1,.86-1.07.85-1.09.79-1.14.77-1.16.73-1.2.68-1.24.66-1.28.62-1.32.56-1.35.54-1.39.51-1.41.45-1.45.44-1.48.37-1.5.34-1.54.32-1.57.26-1.62.22-1.63.17-1.66.15-1.71.11-1.71.06-1.77,0-2.47,0-2.39-.06-2.29-.07-2.2-.13-2.12-.17-2-.23L32,127l-1.86-.34-1.76-.39-1.69-.45-1.61-.53-1.54-.6L22.06,124l-1.4-.75-1.33-.83-1.26-.92-1.22-1-1.15-1.09-1.09-1.2-1-1.32-1-1.41-.92-1.5-.88-1.63L10,110.6l-.79-1.86-.75-2-.71-2.13L7,102.39,6.38,100l-.62-2.51-.58-2.67L4.63,92l-.28-1.74-.17-1.75,0-1.73,0-1.71.15-1.69.24-1.69L4.88,80l.42-1.64.51-1.61.6-1.59.66-1.58.75-1.54.81-1.53.9-1.48,1-1.45,1-1.42,1.07-1.39,1.14-1.36,1.2-1.31,1.24-1.28,1.28-1.24,1.35-1.2,1.37-1.15,1.41-1.11,1.47-1,1.48-1,1.51-1,1.54-.92,1.56-.86,1.58-.81,1.6-.75,1.61-.69,1.41-.56L36.77,48l1.46-.49,1.5-.45,1.53-.43,1.53-.36,1.57-.32,1.56-.28,1.57-.23,1.6-.17,1.57-.13,1.6-.06h1.6l1.59.08,1.57.11,1.58.19,1.58.27,1.54.34,1.56.39,1.53.47,1.5.57,1.49.64,1.44.71,1.43.79,1.41.88,1.37,1,1.34,1.07,1.29,1.15,1.25,1.24,1.22,1.35,1.16,1.45,1.13,1.54,1,1.54,1,1.54.92,1.56.87,1.56L85.42,67l.75,1.58.71,1.6.66,1.58.6,1.59.56,1.6.49,1.61.45,1.6.4,1.6.33,1.6L90.66,83l.22,1.59.19,1.58.11,1.56.08,1.55Z"/><path class="cls-2" d="M14.42,37.44l.06.19.05.19.1.16.11.17.13.15.15.13.15.13.17.09.19.07.18.06.19,0,.21,0h.19l65.63-5.63.17,0,.17,0,.15-.06.17-.07.13-.07.13-.09.14-.11.11-.12.12-.13.09-.14.08-.15.06-.15.05-.17v-.17l0-.17v-.17l0-.68,0-.66-.08-.64-.08-.66-.09-.62-.1-.64L83,26.89l-.15-.6-.13-.6-.17-.6-.16-.58-.19-.58L82,23.36l-.2-.56-.22-.55-.24-.55L81,21.16l-.27-.53-.28-.51-.31-.53-.31-.49-.32-.49-.33-.49-.36-.47-.36-.47-.38-.47-.39-.43-.4-.45-.43-.43L76.48,15,76,14.58l-.47-.41-.78-.64L74,12.91l-.83-.58-.85-.55-.87-.51-.88-.47-.89-.45-.88-.42-.9-.38L67,9.21l-.92-.32-.9-.28-.9-.26-.92-.24-.91-.22-.89-.19-.89-.17-.88-.15-.88-.13L58,7.13,57.18,7,56.35,7l-.83-.07-.78,0-.79,0-.75,0-.73,0h-.71l-1.32,0-1,0-.64-4.67a2.41,2.41,0,0,0-1-1.65,2.49,2.49,0,0,0-3.5.48,2.41,2.41,0,0,0-.49,1.85l.63,4.61-1.12.22-1.15.23L41,8.14l-1.14.27-1.18.28L37.52,9l-1.16.32-1.17.38L34,10.08l-1.16.43L31.72,11l-1.13.52-1.11.57-1.1.62-1.07.68-1,.73-1,.81-1,.86-1,.94-.95,1-.9,1.07L20.53,20l-.83,1.24-.79,1.33L18.16,24l-.69,1.52-.66,1.62-.58,1.73-.55,1.82-.49,1.93-.41,2.07-.38,2.16,0,.21,0,.18Zm4.15-3.74L19,32l.47-1.65L20,28.77l.57-1.47.62-1.37.66-1.3.69-1.2.73-1.13.75-1,.81-1,.85-.92.86-.85.88-.77.92-.73.95-.66,1-.62,1-.56,1-.51,1-.47,1-.43,1.05-.4,1-.37,1.07-.32,1.07-.3,1.1-.28,1.09-.26,1.07-.25L44,11.15l.95-.18,1.19-.23.17,0,.38-.08.33-.06.1,0,.76-.07.78-.08.79-.06h.82l.8,0h1.69l.85,0,.86,0,.87.06.88.08.87.09.88.12.88.13.88.13.87.17.88.19.86.21.87.23L64,12l.84.27.85.3.82.32.81.34.81.36L69,14l.77.42.75.45.73.47.71.49.67.53.67.54.36.32.36.32.34.32.32.34.32.34.31.36.3.36.29.36.28.35.26.38.26.4.26.37.24.4.22.39.23.41.21.42.21.41.19.43.18.43.17.43.17.45.15.45.15.46.13.45.12.47.11.49.11.46.1.49.07.51.08.49.08.51,0,.25L18.27,35.15Z"/><path class="cls-2" d="M76.07,61.27a2.07,2.07,0,0,0-2.9.26L50.65,88.38,24.45,76.92h0A2.06,2.06,0,0,0,22.8,80.7h0l0,0h0l27.41,12.1h0a2.06,2.06,0,0,0,2.34-.37c.09-.09,23.73-28.3,23.73-28.3a2.07,2.07,0,0,0-.26-2.9Z"/><path class="cls-2" d="M18.33,127.76a2.52,2.52,0,0,0-3.27,1.38l-2.28,5.6a2.51,2.51,0,0,0,3.3,3.26,2.42,2.42,0,0,0,1.35-1.36L19.7,131a2.52,2.52,0,0,0-1.38-3.27Z"/><path class="cls-2" d="M79.86,127.48a2.51,2.51,0,0,0-4.48,2.27l2.74,5.39a2.51,2.51,0,0,0,4.48-2.27Z"/><path class="cls-2" d="M67.16,90.65a1.52,1.52,0,0,0-1.82,1.13l-.07.3h0l0,.15-.47,2-.07.25-.22.77-.25.73L64,96.7l-.28.7-.29.68-.32.66-.34.64-.36.6-.36.58-.4.58-.41.52-.41.53-.43.49-.45.47-.47.45L59,104l-.51.39-.51.38-.52.36-.55.32-.56.3-.58.26-.58.26-.61.21-.6.21-.63.17-.65.13-.63.11-.68.09-.77.05-.79,0H49l-.79-.06-.79-.08-.76-.13-.79-.15-.77-.21-.77-.22-.75-.26-.75-.28-.75-.34-.73-.35-.74-.39-.71-.42-.7-.45-.7-.49-.68-.51-.66-.55-.66-.56-.62-.58-.61-.64-.58-.64-.58-.68-.54-.69L33,97.9l-.51-.75L32,96.38l-.47-.79-.45-.81-.26-.53L30,92.5a1.5,1.5,0,0,0-2.72,1.23l.24.53h0l.43,1,.06.12.41.82.51.92.29.49.23.39.57.87.59.84.6.81.64.79.66.75.68.74.69.69.71.68.75.64.75.6.76.58.79.53.81.5.83.49.82.44.85.41.87.36.86.34.86.28.88.26.9.21.88.18.91.14.9.09.93.06.9,0,.92,0,.9-.08.79-.09.74-.15.78-.15.73-.21.73-.22.71-.26.7-.28.68-.34.65-.33.66-.4.64-.4.6-.45.6-.47.58-.48.57-.53.54-.54.5-.58.51-.6.49-.62.47-.66.43-.7.43-.69.4-.73.37-.75.36-.77.34-.81.32-.82.15-.44.13-.41.27-.86.25-.9.13-.55.06-.2.29-1.25a1.52,1.52,0,0,0-1.13-1.82Z"/><path class="cls-1" d="M305.87,66a2.66,2.66,0,0,1,5.32,0V80.56L330.7,64a2.53,2.53,0,0,1,1.76-.66A2.67,2.67,0,0,1,335.12,66a2.53,2.53,0,0,1-.76,1.86l-16.52,14,16.52,14.16a2.65,2.65,0,0,1,.76,1.89,2.66,2.66,0,0,1-4.39,2l-17-14.59-2.53,2.16v10.4a2.66,2.66,0,0,1-5.32,0Z"/><path class="cls-1" d="M375.41,82a18.61,18.61,0,1,1-31.78-13.16A18.61,18.61,0,0,1,375.41,82ZM356.79,68.7a13.3,13.3,0,0,0-9.41,22.7A13.3,13.3,0,0,0,366.2,72.59,12.81,12.81,0,0,0,356.79,68.7Z"/><path class="cls-1" d="M407.7,61.43a2.66,2.66,0,0,1,5.32,0V68.1a14.19,14.19,0,0,1,10.64-4.72,14.36,14.36,0,0,1,11.28,5.45A19.55,19.55,0,0,1,439.61,82a19.55,19.55,0,0,1-4.67,13.16,14.36,14.36,0,0,1-11.28,5.45A14.19,14.19,0,0,1,413,95.89v18a2.66,2.66,0,0,1-5.32,0v-18a14.19,14.19,0,0,1-10.64,4.72,14.36,14.36,0,0,1-11.28-5.45A19.55,19.55,0,0,1,381.11,82a19.55,19.55,0,0,1,4.67-13.16,14.36,14.36,0,0,1,11.28-5.45A14.19,14.19,0,0,1,407.7,68.1ZM397.07,68.7a9.34,9.34,0,0,0-7.53,3.89,15.79,15.79,0,0,0,0,18.81,9.23,9.23,0,0,0,15.06,0,15.79,15.79,0,0,0,0-18.81A9.34,9.34,0,0,0,397.07,68.7Zm26.59,0a9.34,9.34,0,0,0-7.53,3.89,15.79,15.79,0,0,0,0,18.81,9.23,9.23,0,0,0,15.06,0,15.79,15.79,0,0,0,0-18.81A9.34,9.34,0,0,0,423.66,68.7Z"/><path class="cls-1" d="M473.78,91.57a2.67,2.67,0,0,1,2.66,2.66,2.64,2.64,0,0,1-.76,1.89A18.62,18.62,0,0,1,444.93,82a18.61,18.61,0,1,1,37.23,0,2.67,2.67,0,0,1-2.66,2.66h-29a13.36,13.36,0,0,0,13.06,10.64,12.55,12.55,0,0,0,8.58-3.16A2.65,2.65,0,0,1,473.78,91.57Zm2.83-12.23a13.34,13.34,0,0,0-26.13,0Z"/><path class="cls-2" d="M119.58,64.26a2.8,2.8,0,0,1,5.61,0v2.28A18.23,18.23,0,0,1,156,79.68V97.91a2.8,2.8,0,0,1-5.61,0V79.68a12.62,12.62,0,0,0-25.24,0V97.91a2.8,2.8,0,0,1-5.61,0Z"/><path class="cls-2" d="M197.68,97.91a2.8,2.8,0,0,1-5.61,0V95.63a18.23,18.23,0,0,1-30.85-13.14V64.26a2.8,2.8,0,0,1,5.61,0V82.48a12.62,12.62,0,0,0,25.24,0V64.26a2.8,2.8,0,0,1,5.61,0Z"/><path class="cls-2" d="M209.58,97.91a2.8,2.8,0,0,1-5.61,0V64.26a2.8,2.8,0,0,1,5.61,0V65a14.69,14.69,0,0,1,9.81-3.54A14.86,14.86,0,0,1,230.3,66,17.25,17.25,0,0,1,232,68a17.25,17.25,0,0,1,1.72-2,15.42,15.42,0,0,1,26.32,10.9v21a2.8,2.8,0,0,1-5.61,0v-21a9.81,9.81,0,1,0-19.63,0v21a2.8,2.8,0,0,1-5.61,0v-21a9.81,9.81,0,1,0-19.63,0Z"/><path class="cls-2" d="M272,64.26v14h12.62a11.22,11.22,0,1,1,0,22.43H269.15a2.81,2.81,0,0,1-2.8-2.8V64.19a2.76,2.76,0,0,1,.84-1.93,2.67,2.67,0,0,1,2-.81,2.81,2.81,0,0,1,2.8,2.8ZM284.58,95.1a5.61,5.61,0,0,0,0-11.22H272V95.1Z"/><path class="cls-2" d="M127.71,117.21a.78.78,0,0,1,.58.24.79.79,0,0,1,.24.58.87.87,0,0,1-.25.61,5.76,5.76,0,1,1,0-8.75.81.81,0,0,1,.28.64.77.77,0,0,1-.24.58.8.8,0,0,1-.59.24.81.81,0,0,1-.52-.19,4.12,4.12,0,1,0,0,6.21A.81.81,0,0,1,127.71,117.21Z"/><path class="cls-2" d="M143,117.23a.81.81,0,0,1,.59.24.8.8,0,0,1,.24.59.82.82,0,0,1-.24.59,5.78,5.78,0,1,1,2-4.37.83.83,0,0,1-.82.82h-9a4.13,4.13,0,0,0,4,3.3,3.91,3.91,0,0,0,2.66-1A.81.81,0,0,1,143,117.23Zm.87-3.79a4.13,4.13,0,0,0-8.09,0Z"/><path class="cls-2" d="M152.69,119.21a.82.82,0,0,1-.82.82.83.83,0,0,1-.82-.82v-9.88a.83.83,0,0,1,.82-.82.82.82,0,0,1,.82.82v.21a4.53,4.53,0,0,1,6.09.29,5.28,5.28,0,0,1,.5.59,5.27,5.27,0,0,1,.5-.59,4.53,4.53,0,0,1,7.73,3.2v6.18a.83.83,0,0,1-.82.82.78.78,0,0,1-.58-.24.79.79,0,0,1-.24-.58V113a2.88,2.88,0,1,0-5.76,0v6.18a.83.83,0,0,1-.82.82.8.8,0,0,1-.59-.24.79.79,0,0,1-.24-.58V113a2.88,2.88,0,0,0-5.76,0Z"/><path class="cls-2" d="M174.61,109.32v4.12h3.71a3.29,3.29,0,1,1,0,6.59h-4.53a.83.83,0,0,1-.82-.82v-9.9a.81.81,0,0,1,.25-.57.78.78,0,0,1,.57-.24.82.82,0,0,1,.82.82Zm3.71,9.06a1.59,1.59,0,0,0,1.16-.49,1.64,1.64,0,0,0,0-2.32,1.59,1.59,0,0,0-1.16-.49h-3.71v3.3Z"/><path class="cls-2" d="M197,109.32a.83.83,0,0,1,.82-.82.82.82,0,0,1,.82.82v4.5l6-5.12a.83.83,0,0,1,1.37.61.81.81,0,0,1-.24.58l-5.12,4.33,5.12,4.39a.82.82,0,0,1,.24.59.83.83,0,0,1-1.36.63l-5.27-4.52-.78.67v3.22a.82.82,0,0,1-.82.82.83.83,0,0,1-.82-.82Z"/><path class="cls-2" d="M222.57,114.26a5.76,5.76,0,1,1-1.69-4.08A5.57,5.57,0,0,1,222.57,114.26Zm-5.76-4.12a4.11,4.11,0,1,0,2.91,1.21A4,4,0,0,0,216.81,110.15Z"/><path class="cls-2" d="M236.25,107.68a.82.82,0,0,1,.82-.82.83.83,0,0,1,.82.82V110a4.39,4.39,0,0,1,3.29-1.46,4.46,4.46,0,0,1,3.5,1.69,6.49,6.49,0,0,1,0,8.16,4.46,4.46,0,0,1-3.5,1.69,4.39,4.39,0,0,1-3.29-1.46v5.58a.83.83,0,0,1-.82.82.82.82,0,0,1-.82-.82v-5.58a4.46,4.46,0,0,1-6.79-.23,6.47,6.47,0,0,1,0-8.16,4.46,4.46,0,0,1,6.79-.23Zm-3.3,2.46a2.89,2.89,0,0,0-2.33,1.21,4.87,4.87,0,0,0,0,5.83,2.85,2.85,0,0,0,4.66,0,4.87,4.87,0,0,0,0-5.83A2.89,2.89,0,0,0,233,110.15Zm8.23,0a2.91,2.91,0,0,0-2.33,1.21,4.9,4.9,0,0,0,0,5.83,2.86,2.86,0,0,0,4.66,0,4.9,4.9,0,0,0,0-5.83A2.91,2.91,0,0,0,241.19,110.15Z"/><path class="cls-2" d="M260.51,117.23a.81.81,0,0,1,.59.24.8.8,0,0,1,.24.59.82.82,0,0,1-.24.59,5.78,5.78,0,1,1,2-4.37.83.83,0,0,1-.82.82h-9a4.13,4.13,0,0,0,4,3.3,3.91,3.91,0,0,0,2.66-1A.81.81,0,0,1,260.51,117.23Zm.87-3.79a4.13,4.13,0,0,0-8.09,0Z"/><path class="cls-2" d="M277.48,117.23a.81.81,0,0,1,.59.24.8.8,0,0,1,.24.59.82.82,0,0,1-.24.59,5.78,5.78,0,1,1,2-4.37.83.83,0,0,1-.82.82h-9a4.13,4.13,0,0,0,4,3.3,3.91,3.91,0,0,0,2.66-1A.81.81,0,0,1,277.48,117.23Zm.87-3.79a4.13,4.13,0,0,0-8.09,0Z"/><path class="cls-2" d="M287.16,115.09v4.12a.82.82,0,0,1-.82.82.83.83,0,0,1-.82-.82v-9.88a.83.83,0,0,1,.82-.82.82.82,0,0,1,.82.82v4.12h6.18v-4.12a.78.78,0,0,1,.24-.58.8.8,0,0,1,.59-.24.83.83,0,0,1,.82.82v9.88a.83.83,0,0,1-.82.82.8.8,0,0,1-.59-.24.78.78,0,0,1-.24-.58v-4.12Z"/></g></g></svg>