<svg xmlns="http://www.w3.org/2000/svg" viewBox="0 0 1964.48 594.64"><defs><style>.cls-1{fill:#ddd;}</style></defs><title>sait_logo</title><g id="Слой_2" data-name="Слой 2"><g id="Слой_1-2" data-name="Слой 1"><path class="cls-1" d="M255.54,594.64A255.55,255.55,0,0,1,238.66,84.11l1.43,22C117.8,114,22,216.41,22,339.1c0,128.77,104.77,233.54,233.54,233.54S489.08,467.88,489.08,339.1A237,237,0,0,0,487.4,311l21.84-2.62a259.21,259.21,0,0,1,1.83,30.76A255.54,255.54,0,0,1,255.54,594.64Z"/><circle class="cls-1" cx="192.46" cy="414.07" r="114.84"/><path class="cls-1" d="M599.52,228A247.36,247.36,0,0,0,355.88,22l-3.17,0-.28-22A269.36,269.36,0,0,1,621.21,224.3Z"/><path class="cls-1" d="M959.15,502.84V473.5l-11.33-9.33s-28.67,19.33-97.33,19.33-142-48.67-142-163.33,73.33-172.67,158-172.67c58,0,80.67,18,80.67,18l12-7.33v-34s-24-17.33-95.33-17.33c-68,0-198.67,42.67-198.67,216S797.82,526.17,852.48,526.17,959.15,502.84,959.15,502.84Z"/><path class="cls-1" d="M1197.82,114.84h-36.67L1013.45,507.5l3.7,11.33h38l43.33-122,158.67,1.33,46.67,120.67h34l6-10.67Zm-82,242,62-174,64.67,174Z"/><polygon class="cls-1" points="1403.82 232.84 1403.82 511.5 1411.82 518.84 1435.15 518.84 1597.15 302.84 1597.15 510.84 1605.82 518.84 1631.15 518.84 1637.82 510.84 1637.82 232.84 1629.15 224.84 1607.15 224.84 1597.82 233.5 1444.48 441.5 1444.48 232.17 1436.48 224.84 1411.82 224.84 1403.82 232.84"/><polygon class="cls-1" points="1698.48 146.17 1698.48 120.17 1705.15 114.84 1959.82 114.84 1964.48 121.5 1964.48 146.17 1957.82 154.17 1852.48 154.17 1853.15 510.17 1846.48 518.84 1815.82 518.84 1810.48 510.17 1810.48 153.5 1705.82 152.84 1698.48 146.17"/></g></g></svg>