<svg xmlns="http://www.w3.org/2000/svg" viewBox="0 0 290.41 266.8">
    <defs>
    <style>
        .cls-1{fill:#be3e28;}
        .cls-1,.cls-4{fill-rule:evenodd;}
        .cls-2{fill:#1937a8;}
        .cls-3,.cls-4{fill:#8a8f97;}
    </style>
    </defs>
    <title>logo_ufu</title><g id="Слой_2" data-name="Слой 2"><g id="Слой_1-2" data-name="Слой 1"><path class="cls-1" d="M62,175.59h0l5.26-9.15,71,22.79Zm154.17-30.15h0l-61.34,39.7,56.21-48.65Zm-9.31-16.25h0L153.5,182.77l47.05-64.62Zm18.07,31.53h0L156,187.14l63.76-35.44Zm-29.22-51h0l-43.92,70.1,36.58-82.91Zm-13.64-23.8h0L149.91,176.5,171.73,67.84Zm51.36,89.66h0l-76.23,13.64,71-22.79ZM243,192.26H149.87L237.11,182,243,192.19Zm-97.47-15.82h0L122.76,70.27l11.86-20.57Zm2.16-3.39h0L147.62,25.8l16.08,28Zm-95.3,19.21h93.16L58.34,182l-5.88,10.24Zm35.27-61.2h0l52.88,54-58.44-44.4Zm12-20.84h0l42.2,72.58-48.9-61Zm-22.78,39.5h0l62.49,37.4L71.58,159Zm37.63-65.24,29,95.36-37.32-81Z"/><path class="cls-2" d="M25.67,213.42c-.11-.34-.19-.64-.27-.91s-.15-.54-.2-.82a1.23,1.23,0,0,1,0-.6,1.09,1.09,0,0,1,.35-.46,4,4,0,0,1,.74-.48l1-.49,1.52-.72,1.92-.9,2.18-1,2-.94,1.83-.85,1.41-.65.77-.33a6.49,6.49,0,0,1,1.13-.35,1.4,1.4,0,0,1,.77,0,1.46,1.46,0,0,1,.6.5l.94,1.29a.43.43,0,0,0,.23,0,1.89,1.89,0,0,0,.34-.14,2.18,2.18,0,0,0,.31-.19.35.35,0,0,0,.15-.16l-.79-1.57q-.56-1.11-1.4-2.89c-.44-.95-.8-1.75-1.09-2.41s-.53-1.2-.7-1.61-.3-.71-.38-.89a.82.82,0,0,0-.35,0,2.38,2.38,0,0,0-.47.14.62.62,0,0,0-.29.2l.25,1c.08.33.14.62.17.85a1.09,1.09,0,0,1-.5,1.18,4.69,4.69,0,0,1-.75.41l-1.57.76-1.86.88-2,.91-.1,0h-.11a.51.51,0,0,1-.11-.15c-.05-.09-.14-.26-.26-.51l-.56-1.15-1-2.09L29,197c-.21-.45-.4-.87-.57-1.24s-.3-.67-.39-.88a.15.15,0,0,1,0-.15.32.32,0,0,1,.13-.11l2-.95,1.93-.9c.62-.28,1.17-.53,1.67-.74A2.77,2.77,0,0,1,35,191.7a1,1,0,0,1,.73.37l.45.6c.16.21.33.47.52.75a.65.65,0,0,0,.36,0,2.32,2.32,0,0,0,.44-.21.54.54,0,0,0,.24-.24c-.11-.24-.28-.58-.52-1l-.81-1.63c-.31-.62-.63-1.28-1-2q-.76-1.65-1.27-2.84c-.34-.79-.59-1.38-.77-1.77a.34.34,0,0,0-.23,0l-.36.09-.34.13a.63.63,0,0,0-.19.12l.26,1c.08.26.13.49.18.67a4.68,4.68,0,0,1,.09.53,1,1,0,0,1-.31.75,3.72,3.72,0,0,1-.93.62l-1.18.59-1.45.69-1.58.75-1.59.74-2.42,1.14-1.8.84L20,193l-1.48.63a3.77,3.77,0,0,1-.8.26,1,1,0,0,1-.56,0,1.13,1.13,0,0,1-.45-.32,3.22,3.22,0,0,1-.48-.56l-.51-.75a.65.65,0,0,0-.36,0,2.33,2.33,0,0,0-.45.2.63.63,0,0,0-.25.22c.1.22.22.45.34.7l.44.86.58,1.16c.22.45.48,1,.77,1.62s.52,1.12.72,1.58l.53,1.22c.16.36.29.7.43,1s.27.62.42.94a.51.51,0,0,0,.36,0,2.11,2.11,0,0,0,.46-.2.55.55,0,0,0,.25-.24c-.13-.39-.23-.73-.32-1a4.63,4.63,0,0,1-.16-.81.79.79,0,0,1,.09-.48,1.24,1.24,0,0,1,.31-.37,2.44,2.44,0,0,1,.39-.27c.56-.3,1.16-.61,1.81-.91l1.94-.92,1.74-.81a.22.22,0,0,1,.16,0,.54.54,0,0,1,.14.08c.11.19.29.55.54,1.1l1,2.22.93,2,.53,1.15c.12.26.2.46.25.58a2.19,2.19,0,0,1,.09.29.21.21,0,0,1,0,.14l-.1.11-1.73.82-1.73.81c-.57.26-1.1.49-1.61.71a2.9,2.9,0,0,1-1.11.34,1,1,0,0,1-.78-.36,3.24,3.24,0,0,1-.3-.34c-.11-.14-.22-.29-.33-.46s-.22-.33-.31-.49a.45.45,0,0,0-.33,0,2.46,2.46,0,0,0-.46.2.81.81,0,0,0-.28.23c.12.26.29.59.49,1s.44.88.73,1.45.62,1.26,1,2.05.71,1.56,1,2.16l.64,1.48c.16.39.3.71.41.94a.35.35,0,0,0,.22,0,2.3,2.3,0,0,0,.35-.12,1.94,1.94,0,0,0,.33-.17c.09-.06.15-.11.16-.15"/><path class="cls-2" d="M57,224.2a.34.34,0,0,0,.24-.07,1.66,1.66,0,0,0,.3-.23,1.74,1.74,0,0,0,.25-.29.36.36,0,0,0,.08-.23l-.68-.76-.88-1-.9-1-.74-.85-.6-.72-.74-.92-.77-.95-.66-.82-.42-.53a.33.33,0,0,0-.22,0,2.37,2.37,0,0,0-.34.21,1.49,1.49,0,0,0-.29.27.36.36,0,0,0-.11.24c.2.31.35.57.46.76s.2.37.28.54a1.61,1.61,0,0,1,.22.72,1,1,0,0,1-.2.6,4,4,0,0,1-.64.68l-1.1,1L48.17,222l-1.4,1.21-1.17,1a.1.1,0,0,1-.09,0l-.06,0a4.8,4.8,0,0,1-.31-.56A1.91,1.91,0,0,1,45,223a3.06,3.06,0,0,1,.07-.82,7.85,7.85,0,0,1,.35-1.17c.42-1.14.8-2.15,1.16-3s.67-1.7.92-2.43A12,12,0,0,0,48,213.5a3.63,3.63,0,0,0,0-.72,2.91,2.91,0,0,0-.17-.84,4.06,4.06,0,0,0-.51-1c-.13-.18-.31-.42-.55-.74s-.51-.65-.81-1l-.89-1.06c-.29-.35-.56-.65-.79-.9a5.71,5.71,0,0,0-.51-.51s-.12,0-.22,0a2.14,2.14,0,0,0-.35.19,2.57,2.57,0,0,0-.31.23c-.08.08-.12.13-.11.17a9.52,9.52,0,0,1,.75,1.21,3.56,3.56,0,0,1,.35,1.17,5.46,5.46,0,0,1-.07,1.46,18.34,18.34,0,0,1-.51,2.09q-.32,1-.58,1.74l-.48,1.34c-.15.42-.31.88-.47,1.38A9.21,9.21,0,0,0,41.4,220a4,4,0,0,0,.23,1.66.21.21,0,0,1-.16.13,5.4,5.4,0,0,0-1.08,0,12.2,12.2,0,0,0-1.44.18c-.57.1-1.27.24-2.12.43a11.61,11.61,0,0,1-1.6.26,1.91,1.91,0,0,1-.9-.12,1.47,1.47,0,0,1-.57-.45,3,3,0,0,1-.47-.78,4.85,4.85,0,0,1-.31-1.15l-.1-.08-.17-.08a.23.23,0,0,0-.17,0,3.24,3.24,0,0,0-.66.19c-.28.11-.57.23-.88.38s-.58.29-.84.43a3.65,3.65,0,0,0-.54.35.58.58,0,0,0-.1.13,1.11,1.11,0,0,0-.11.2.5.5,0,0,0,0,.2,2.47,2.47,0,0,0,.17.59,2.43,2.43,0,0,0,.38.64,3.64,3.64,0,0,0,1.24,1,4.11,4.11,0,0,0,1.61.37,11.24,11.24,0,0,0,2.2-.16c.85-.14,1.86-.34,3-.62.5-.13,1-.24,1.52-.34a11.66,11.66,0,0,1,1.42-.18,3.25,3.25,0,0,1,1.21.18,4.59,4.59,0,0,1,1.18.65,6.07,6.07,0,0,1,1.07,1,.27.27,0,0,1,.07.14.13.13,0,0,1,0,.1l-1.19,1-1.25,1-1.16,1-.94.76a3.1,3.1,0,0,1-1.23.7,1.19,1.19,0,0,1-1-.31l-.31-.23L37,228.9l-.41-.35a.33.33,0,0,0-.22.06,2,2,0,0,0-.56.48c-.07.09-.11.16-.1.21s.37.45.7.81l1.16,1.28c.45.49.9,1,1.39,1.59l.82,1,.9,1.12.8,1,.53.65s.1,0,.19-.05a2.6,2.6,0,0,0,.61-.47A.44.44,0,0,0,43,236l-.38-.63c-.12-.18-.23-.38-.34-.59A1.58,1.58,0,0,1,42,234a1.25,1.25,0,0,1,.21-.63,3.75,3.75,0,0,1,.52-.6c.25-.25.57-.54,1-.87l1.24-1.05,1.34-1.12,1.26-1a5.5,5.5,0,0,1,1.21,2.15,3.54,3.54,0,0,1-.12,2.15c-.14.37-.29.78-.46,1.21s-.38.94-.62,1.51-.54,1.26-.89,2.06a13.3,13.3,0,0,0-.71,1.94,3.68,3.68,0,0,0-.09,1.64,3.4,3.4,0,0,0,.8,1.54,2.58,2.58,0,0,0,.27.27,4.42,4.42,0,0,0,.35.29l.36.23a1.12,1.12,0,0,0,.36.09,1.1,1.1,0,0,0,.36,0,3.19,3.19,0,0,0,.87-.29,9.33,9.33,0,0,0,1-.52c.31-.2.58-.38.8-.56a.48.48,0,0,0,.09-.15,1,1,0,0,0,.06-.23.14.14,0,0,0-.06-.15l-.75-.45a9.17,9.17,0,0,1-.8-.56,4.85,4.85,0,0,1-.72-.68,2,2,0,0,1-.33-.52,1.46,1.46,0,0,1-.11-.65,4,4,0,0,1,.18-1q.17-.59.52-1.47c.35-.86.63-1.57.83-2.13A12.71,12.71,0,0,0,50.3,233a4.94,4.94,0,0,0,.12-1,.13.13,0,0,1,.16-.13,4.29,4.29,0,0,0,1.13.35,9.56,9.56,0,0,0,1.64.09c.67,0,1.52-.08,2.57-.18l1.94-.19,2.74-.33a5.42,5.42,0,0,1,1.34.07,4.13,4.13,0,0,1,1.26.48,8.54,8.54,0,0,1,1.42,1,.59.59,0,0,0,.29-.15,2.85,2.85,0,0,0,.35-.34,1,1,0,0,0,.19-.31l-.91-1.08c-.31-.38-.62-.74-.92-1.08s-.58-.66-.84-.93a6.64,6.64,0,0,0-.64-.61,7,7,0,0,0-1.13-.82,3.83,3.83,0,0,0-1-.39,4.47,4.47,0,0,0-1-.11c-.34,0-.71,0-1.12,0l-1.05.18-1.46.28-1.64.32-1.57.29-1.26.21a3.56,3.56,0,0,1-1.06,0,2.78,2.78,0,0,1-.81-.27,2.87,2.87,0,0,1-.61-.43l1-.84L50.75,226,52,224.94l1.1-.89a8.11,8.11,0,0,1,1.23-.85,1.35,1.35,0,0,1,.86-.19,1.85,1.85,0,0,1,.81.42,5.45,5.45,0,0,1,.45.35l.52.43"/><path class="cls-2" d="M69.95,237.41a4.6,4.6,0,0,1,1.25,1.27,4.86,4.86,0,0,1,.65,1.6,7.45,7.45,0,0,1,0,2.84,13,13,0,0,1-1.06,3.06,23.33,23.33,0,0,1-1.9,3.2,21.25,21.25,0,0,1-1.4,1.79,13.74,13.74,0,0,1-1.54,1.52,8,8,0,0,1-1.64,1.08,4.42,4.42,0,0,1-1.68.46,2.86,2.86,0,0,1-1.18-.08,3.65,3.65,0,0,1-1.13-.54,4.41,4.41,0,0,1-.86-.77,3.55,3.55,0,0,1-.55-.88,6.14,6.14,0,0,1-.34-1.07,6.56,6.56,0,0,1,0-2.12,11.16,11.16,0,0,1,.59-2.29,16.94,16.94,0,0,1,1.06-2.33,22.38,22.38,0,0,1,1.37-2.22,19.47,19.47,0,0,1,2.91-3.41,6.76,6.76,0,0,1,3-1.69,3,3,0,0,1,1.34,0,3.64,3.64,0,0,1,1.2.55m18.54,13.27a1,1,0,0,0,.29-.26,2.6,2.6,0,0,0,.3-.43.83.83,0,0,0,.13-.34l-.92-.62-1.13-.74-1.21-.79-1.17-.78c-.7-.5-1.4-1-2.08-1.52s-1.38-1-2.08-1.56a.66.66,0,0,0-.33.2,3.72,3.72,0,0,0-.34.39,1.7,1.7,0,0,0-.2.34l.76.76a6.16,6.16,0,0,1,.56.62,1.33,1.33,0,0,1,.35.71,1.26,1.26,0,0,1-.1.64,3.56,3.56,0,0,1-.3.57c-.2.32-.47.73-.79,1.2L79,250.8l-1.71,2.44-.83-.59-.94-.64-.85-.55c-.26-.16-.46-.27-.59-.34a16.78,16.78,0,0,0,1.21-2.36,11.67,11.67,0,0,0,.72-2.5,9.66,9.66,0,0,0,.07-2.67,8.33,8.33,0,0,0-1.36-3.67,12.27,12.27,0,0,0-3.29-3.28,11.59,11.59,0,0,0-2.94-1.5,9.77,9.77,0,0,0-6.56,0,9.59,9.59,0,0,0-2.08,1.06A12.34,12.34,0,0,0,58,237.8a14.62,14.62,0,0,0-1.6,1.92,12.31,12.31,0,0,0-1.55,3,10.41,10.41,0,0,0-.6,3.12,9.32,9.32,0,0,0,.42,3.1,9.44,9.44,0,0,0,1.51,2.89,11.88,11.88,0,0,0,2.67,2.54,11.57,11.57,0,0,0,4,1.83,9.05,9.05,0,0,0,4,0,8.42,8.42,0,0,0,2.49-.78,10.37,10.37,0,0,0,2.1-1.35,11.23,11.23,0,0,0,1.61-1.62l.59.39.85.59.86.62.64.49a.27.27,0,0,1,.11.22.41.41,0,0,1-.08.27l-2,2.86c-.55.76-1,1.33-1.25,1.67a4.72,4.72,0,0,1-.54.63,1.19,1.19,0,0,1-.52.31,1.3,1.3,0,0,1-.66,0,5,5,0,0,1-.72-.3l-.82-.4a.46.46,0,0,0-.2.14,1.81,1.81,0,0,0-.24.28,1.78,1.78,0,0,0-.19.31.28.28,0,0,0,0,.22l1,.69,1.5,1q.84.56,1.76,1.2c.63.44,1.18.84,1.64,1.18l1.26.94c.39.29.78.58,1.19.87a.74.74,0,0,0,.26-.22,2.29,2.29,0,0,0,.28-.4,1.09,1.09,0,0,0,.14-.36c-.28-.24-.52-.45-.72-.66s-.39-.41-.58-.63a1.07,1.07,0,0,1-.26-.78,2.06,2.06,0,0,1,.31-.88c.18-.31.39-.64.62-1s.48-.74.78-1.17l1-1.48,1.36-1.94,1.26-1.79L83,253.51,84.12,252c.32-.45.57-.8.75-1a5.24,5.24,0,0,1,.79-.86,1.13,1.13,0,0,1,.63-.28,1.42,1.42,0,0,1,.63.13l.74.34C87.92,250.38,88.2,250.52,88.49,250.68Z"/><path class="cls-2" d="M26.66,108s0,0,.06.06a.13.13,0,0,1,0,.08A4.27,4.27,0,0,1,25,109.7a6,6,0,0,1-2.65.56,12.49,12.49,0,0,1-3.63-.62,9.06,9.06,0,0,1-2.32-1,4.65,4.65,0,0,1-1.36-1.26A3.41,3.41,0,0,1,14.5,106a3.93,3.93,0,0,1,0-1.4.16.16,0,0,1,.07-.1.27.27,0,0,1,.21,0Zm-10.52-8-.09,0a.38.38,0,0,1-.11-.09.12.12,0,0,1,0-.14,4.31,4.31,0,0,1,1.84-1.64,5.61,5.61,0,0,1,2.49-.44,11.73,11.73,0,0,1,3,.54A14.47,14.47,0,0,1,26,99.31a5.35,5.35,0,0,1,1.59,1.21,3,3,0,0,1,.68,1.39,4.39,4.39,0,0,1,0,1.59.11.11,0,0,1-.12.11H28Zm16.21,2.1-.42.93a7,7,0,0,1-.34.66,1,1,0,0,1-.57.48,1.72,1.72,0,0,1-.75,0,8.47,8.47,0,0,1-.86-.2c.08-.35.16-.78.22-1.28a14.33,14.33,0,0,0,.12-1.6,11.19,11.19,0,0,0-.09-1.72,7.46,7.46,0,0,0-.41-1.66,6,6,0,0,0-1.69-2.61,8.09,8.09,0,0,0-3.14-1.68,8.5,8.5,0,0,0-2.92-.39,6,6,0,0,0-2.37.62,6.75,6.75,0,0,0-1.89,1.41,10.11,10.11,0,0,0-1.48,2,16.25,16.25,0,0,0-1.12,2.38,6.85,6.85,0,0,1-.83-.29,1.37,1.37,0,0,1-.55-.42,1.12,1.12,0,0,1-.18-.71,4.89,4.89,0,0,1,.07-.52l.12-.7a.59.59,0,0,0-.26-.19,2,2,0,0,0-.46-.16.54.54,0,0,0-.39,0l-.24.89-.3,1.12c-.11.4-.21.79-.32,1.17s-.2.72-.29,1-.21.69-.34,1.1-.26.81-.4,1.23l-.39,1.2-.33,1a.53.53,0,0,0,.27.2,1.91,1.91,0,0,0,.46.15.7.7,0,0,0,.38,0l.28-.63a4,4,0,0,1,.23-.46,1.08,1.08,0,0,1,1.18-.65,5.75,5.75,0,0,1,1,.2,16.33,16.33,0,0,0-.25,1.71,15.29,15.29,0,0,0,0,1.89,9.33,9.33,0,0,0,.25,1.81,8.15,8.15,0,0,0,.87,2.19,5.91,5.91,0,0,0,1.57,1.73,7.91,7.91,0,0,0,2.49,1.2,7.9,7.9,0,0,0,4.38.19,6.59,6.59,0,0,0,3.29-2.15,13.31,13.31,0,0,0,2.32-4.16,7.66,7.66,0,0,1,.87.3,1.34,1.34,0,0,1,.57.44,1.11,1.11,0,0,1,.14.77q0,.28-.08.63c0,.23-.08.51-.14.83a.65.65,0,0,0,.34.24,2.06,2.06,0,0,0,.48.12.59.59,0,0,0,.32,0c.07-.31.16-.67.27-1.06s.22-.81.34-1.24.24-.85.35-1.27.23-.78.33-1.12.21-.72.34-1.13.26-.84.4-1.27.26-.83.39-1.2.23-.69.33-.94a.68.68,0,0,0-.29-.25,1.82,1.82,0,0,0-.45-.18A.49.49,0,0,0,32.36,102.15Z"/><path class="cls-2" d="M0,144.05a4.26,4.26,0,0,0,.46.71,3.33,3.33,0,0,0,.6.58,1.16,1.16,0,0,0,.61.24,2.43,2.43,0,0,0,1.36-.37,3.22,3.22,0,0,0,1-1,5.15,5.15,0,0,0,.62-1.45,6.78,6.78,0,0,0,.23-1.66,6.84,6.84,0,0,0-.34-2.26,6.83,6.83,0,0,0-1-1.91,6.57,6.57,0,0,0-1.45-1.44,5.51,5.51,0,0,0-1.74-.83.32.32,0,0,0-.14.12.36.36,0,0,0-.07.18.87.87,0,0,0,.07.21l.17.36q.1.2.2.36a1,1,0,0,0,.15.21A4.53,4.53,0,0,1,2,137.28a3.6,3.6,0,0,1,.52,1.28,6.11,6.11,0,0,1,.1,1.32A4.37,4.37,0,0,1,2,142.35a3.09,3.09,0,0,1-1.88,1.2.16.16,0,0,0-.08.12.78.78,0,0,0,0,.2.45.45,0,0,0,0,.19"/><path class="cls-2" d="M25.74,152.84a.41.41,0,0,0,.23.09,1.88,1.88,0,0,0,.36,0,2.27,2.27,0,0,0,.36,0,.38.38,0,0,0,.21-.08c0-.4,0-1,0-1.86s0-1.91,0-3.21c0-.88,0-1.64.07-2.26s0-1.16.07-1.62,0-.91.05-1.33a.53.53,0,0,0-.32-.15,2.31,2.31,0,0,0-.49-.05.91.91,0,0,0-.35.05c-.08.42-.15.77-.23,1.07a5.47,5.47,0,0,1-.25.76,1.12,1.12,0,0,1-.33.53,1.11,1.11,0,0,1-.56.23,5.17,5.17,0,0,1-.89.06,1.61,1.61,0,0,1-.53-.1,1.44,1.44,0,0,1-.42-.26l-.69-.55L20.71,143,19,141.6,17.08,140l-1.82-1.5-1.5-1.23c-.42-.35-.74-.59-.95-.74a.1.1,0,0,1,0-.1s0-.07.08-.07h1.49l2.05,0,2.3,0,2.26.06,1.9.06,1.23.06a4.19,4.19,0,0,1,.87.11,1.08,1.08,0,0,1,.51.27,1,1,0,0,1,.25.46q.07.35.14.73t.14.94a.29.29,0,0,0,.2.12,1.45,1.45,0,0,0,.36,0,1.48,1.48,0,0,0,.36,0,.37.37,0,0,0,.23-.11c0-.33,0-.91,0-1.74s0-2,0-3.4c0-1,0-1.75.08-2.39s.07-1.17.1-1.59,0-.79.05-1.09a.36.36,0,0,0-.21-.13,2.07,2.07,0,0,0-.37-.09,2.21,2.21,0,0,0-.38,0,.43.43,0,0,0-.23.06c-.08.52-.15,1-.23,1.3a5.79,5.79,0,0,1-.25.87,1,1,0,0,1-.59.56,3.45,3.45,0,0,1-1.12.16H22.53l-1.87,0-2,0-1.86,0-2.14,0-1.53,0-1.17,0-1.09,0-1.25-.07a3.54,3.54,0,0,1-.82-.12.93.93,0,0,1-.46-.27,1.35,1.35,0,0,1-.27-.49,5.6,5.6,0,0,1-.17-.75c-.05-.3-.1-.61-.14-1a.41.41,0,0,0-.22-.1,1.79,1.79,0,0,0-.36,0,1.81,1.81,0,0,0-.36,0,.32.32,0,0,0-.21.07c0,.31,0,.62,0,.92s0,.64,0,1,0,.79,0,1.28,0,1.06,0,1.73c0,.92,0,1.68-.07,2.3s-.05,1.13-.07,1.55,0,.8,0,1.15c0,.07.14.12.3.15a1.74,1.74,0,0,0,.49,0,.65.65,0,0,0,.37-.12c0-.27.05-.5.09-.7a4,4,0,0,1,.11-.53,2.93,2.93,0,0,1,.17-.47,1,1,0,0,1,.48-.53,1.74,1.74,0,0,1,.76-.2h.65l.16,0,.24.08a.53.53,0,0,1,.18.1c.39.28.89.65,1.48,1.12l1.92,1.55,2.1,1.74,2,1.67L19.53,144l1,.78v.11s0,.07-.09.09l-1.33,0-2,0-2.25,0-2.25,0-1.9,0-1.26-.05a4.64,4.64,0,0,1-.85-.1,1.13,1.13,0,0,1-.53-.25,1.16,1.16,0,0,1-.3-.5,7,7,0,0,1-.15-.69c-.06-.28-.1-.56-.13-.84a.62.62,0,0,0-.32-.13,2,2,0,0,0-.49,0,.59.59,0,0,0-.35.1c0,.35,0,.92,0,1.71s0,1.87,0,3.22c0,.7,0,1.3,0,1.81s0,1-.06,1.33,0,.73-.05,1.05,0,.64,0,1a.48.48,0,0,0,.2.07l.36,0a1.83,1.83,0,0,0,.36,0,.41.41,0,0,0,.23-.08q.06-.45.1-.78c0-.22.06-.42.1-.6a5.31,5.31,0,0,1,.15-.55,1,1,0,0,1,.57-.62,3.1,3.1,0,0,1,1-.2l1.19,0h1.91l2.34,0,2.5,0,2.17,0,1.87,0,1.39,0,.76,0a6.61,6.61,0,0,1,1.13.17,1.26,1.26,0,0,1,.63.36,1.47,1.47,0,0,1,.3.7Z"/><path class="cls-2" d="M9,167.93c0-.26,0-.49,0-.69s0-.38.06-.56a5.35,5.35,0,0,1,.11-.58.92.92,0,0,1,.43-.67,2.18,2.18,0,0,1,.88-.28l1.14-.17,1.37-.16,1.77-.18,2.35-.22,1.75-.17,1.85-.17,1.75-.16,1.46-.12,1-.06a4.31,4.31,0,0,1,1.12.08,1,1,0,0,1,.57.32,1.79,1.79,0,0,1,.28.57c.07.18.13.37.19.59s.13.5.22.85a.51.51,0,0,0,.33.08,2.16,2.16,0,0,0,.47,0,.74.74,0,0,0,.35-.15c0-.32-.06-.63-.11-.94s-.08-.65-.13-1-.1-.83-.16-1.36-.13-1.16-.2-1.91-.14-1.69-.2-2.5-.11-1.65-.18-2.52a.35.35,0,0,0-.22-.11,2.1,2.1,0,0,0-.37,0,2.07,2.07,0,0,0-.36,0,.47.47,0,0,0-.22.07c0,.38-.06.74-.09,1.07a6.11,6.11,0,0,1-.11.83,1.27,1.27,0,0,1-.33.71,1.35,1.35,0,0,1-.57.33,4.19,4.19,0,0,1-.63.13c-.43.06-1,.13-1.72.21l-2.6.26-3.57.34-2.71.26-2.18.19-1.45.11a6.91,6.91,0,0,1-.83,0A1.23,1.23,0,0,1,9,160a1.15,1.15,0,0,1-.4-.48,4.93,4.93,0,0,1-.27-.72c-.08-.26-.17-.56-.26-.9a.63.63,0,0,0-.35-.08,2.31,2.31,0,0,0-.48.06.74.74,0,0,0-.32.13c0,.17,0,.38.08.62s.07.55.12.92.1.83.17,1.4.14,1.25.21,2.07.13,1.46.17,2.06.07,1.14.11,1.61.06.92.1,1.32a.69.69,0,0,0,.31,0,3.15,3.15,0,0,0,.46,0,1.37,1.37,0,0,0,.38-.09"/><path class="cls-2" d="M29.19,172.7a2.49,2.49,0,0,1,.07.59,2.93,2.93,0,0,1-.11.78,2.82,2.82,0,0,1-.38.85,1.52,1.52,0,0,1-.37.35,1.44,1.44,0,0,1-.41.2l-1.65.48-1.9.52-2,.52-1.9.48a.29.29,0,0,1-.15,0,.13.13,0,0,1-.08-.08c0-.07-.07-.16-.11-.29s-.08-.26-.12-.39-.07-.24-.09-.32a4.33,4.33,0,0,1,0-2.46,3.72,3.72,0,0,1,1.37-1.82A7.53,7.53,0,0,1,24,170.93a6.33,6.33,0,0,1,3.46-.13,2.51,2.51,0,0,1,1.7,1.9m2.56,10.06a.43.43,0,0,0,.34,0,1.9,1.9,0,0,0,.46-.12,1.27,1.27,0,0,0,.33-.17q-.17-.69-.4-1.65c-.15-.65-.31-1.33-.48-2.05s-.33-1.43-.49-2.11-.3-1.31-.43-1.86-.23-1-.31-1.27a18.24,18.24,0,0,0-.91-2.75,10.23,10.23,0,0,0-1.32-2.27,7.06,7.06,0,0,0-2-1.79,5.79,5.79,0,0,0-2.29-.75,6.68,6.68,0,0,0-2.42.18,6.07,6.07,0,0,0-2,.92,4.92,4.92,0,0,0-1.47,1.64,5.82,5.82,0,0,0-.68,2.39A9.69,9.69,0,0,0,18,174.3c.21.84.41,1.55.58,2.12s.3,1,.39,1.28a.13.13,0,0,1,0,.12.27.27,0,0,1-.11.06l-1.81.46-1.3.32-1,.23-.8.19a2.87,2.87,0,0,1-1.13,0,1.24,1.24,0,0,1-.76-.55,7.52,7.52,0,0,1-.36-.7c-.12-.26-.25-.56-.39-.9a.37.37,0,0,0-.25,0,2.55,2.55,0,0,0-.37.07,2.21,2.21,0,0,0-.35.14.41.41,0,0,0-.18.13c.17.63.37,1.35.6,2.14s.49,1.74.77,2.81.51,2,.68,2.89.34,1.57.49,2.12a.29.29,0,0,0,.2,0,2.07,2.07,0,0,0,.35,0,2,2,0,0,0,.36-.11.52.52,0,0,0,.22-.13c0-.3-.08-.61-.11-.95a6.42,6.42,0,0,1,0-.91,1.42,1.42,0,0,1,.12-.54.91.91,0,0,1,.35-.38,2.79,2.79,0,0,1,.7-.29l1.31-.39,1.41-.38,1.71-.44,2.21-.56,3.42-.87,2.62-.64c.72-.18,1.22-.29,1.52-.34a2.87,2.87,0,0,1,1.11,0,1,1,0,0,1,.62.44,5.35,5.35,0,0,1,.46.87C31.41,181.92,31.58,182.31,31.75,182.76Z"/><path class="cls-2" d="M84.14,21.75l1,.9,1.14,1,1.13,1,1,.91.68.64a.23.23,0,0,1,0,.12s0,.07,0,.08-.38.24-.73.43l-1.25.7-1,.56c-.28.16-.51.27-.68.34s-.06,0-.1,0a.36.36,0,0,1-.08-.15c-.07-.41-.15-.89-.26-1.43s-.21-1.1-.32-1.7-.22-1.18-.33-1.77-.2-1.13-.28-1.63c0,0,0,0,0,0l.07,0m-1.78,17.6a.7.7,0,0,0,.09.34,3.35,3.35,0,0,0,.24.41,1,1,0,0,0,.23.26c.52-.29,1.07-.62,1.64-1s1.13-.67,1.68-1c.86-.47,1.61-.86,2.23-1.17L90,36.45a1.05,1.05,0,0,0-.07-.33,3.62,3.62,0,0,0-.2-.46.67.67,0,0,0-.19-.27l-.83.28-.79.23a1.37,1.37,0,0,1-.67.07.82.82,0,0,1-.42-.22,1.8,1.8,0,0,1-.29-.37,2.84,2.84,0,0,1-.22-.64c-.07-.3-.15-.65-.22-1.05s-.15-.83-.23-1.28-.15-.9-.23-1.34a.64.64,0,0,1,.06-.26.39.39,0,0,1,.12-.18c.2-.13.49-.3.89-.52l1.48-.82.82-.46.81-.46.63-.33a.3.3,0,0,1,.21,0l.2.06.87.74,1,.91c.35.32.67.63,1,.92s.56.54.76.76a.51.51,0,0,1,.12.26.64.64,0,0,1-.11.47,2.51,2.51,0,0,1-.48.57c-.23.21-.48.43-.75.65a.78.78,0,0,0,.1.31,4.45,4.45,0,0,0,.24.41,1.84,1.84,0,0,0,.22.29l.83-.48.91-.54,1.17-.68,1.6-.9q1.15-.63,2-1.07l1.44-.74,1-.5a.76.76,0,0,0-.06-.34,3.75,3.75,0,0,0-.2-.46,1,1,0,0,0-.18-.28,10.94,10.94,0,0,1-1.49.45,2.39,2.39,0,0,1-1.08,0,3.5,3.5,0,0,1-1.06-.53q-.58-.41-1.44-1.13l-1.51-1.3-1.91-1.68-2.12-1.88-2.13-1.9-1.95-1.73-1.57-1.4-1.46-1.45-.64.41c-.23.15-.51.3-.81.47s-.54.29-.82.43l-.76.37a5.39,5.39,0,0,1,.22.7c.07.28.14.58.2.88s.1.58.13.83c.08.43.17,1,.27,1.69s.24,1.48.37,2.35.27,1.8.41,2.77.28,2,.42,3,.26,2,.38,2.9.21,1.81.3,2.61a8.71,8.71,0,0,1,.07,1.37,2.58,2.58,0,0,1-.24,1,2.92,2.92,0,0,1-.63.85A12.71,12.71,0,0,1,82.36,39.35Z"/><path class="cls-2" d="M73.86,36.71c.17-.08.37-.18.58-.31a7.9,7.9,0,0,0,.74-.48,8.61,8.61,0,0,0,1.64-1.56A8.33,8.33,0,0,0,78,32.41a6,6,0,0,0,.46-1.88,6.08,6.08,0,0,0-.22-2.11,6.87,6.87,0,0,0-1.09-2.21,6.77,6.77,0,0,0-1.49-1.51A5.47,5.47,0,0,0,74,23.91a5.26,5.26,0,0,0-1.6-.22,5,5,0,0,0-1.3.18,7.15,7.15,0,0,0-1.2.44,10.12,10.12,0,0,0-1,.56c-.31.19-.56.36-.77.52l-1.44,1.05-1.27.94-1.27.95-1.41,1.05c-.49.36-1,.7-1.47,1L60,31.32l-1,.71a.69.69,0,0,0,.12.29,3.31,3.31,0,0,0,.27.4,1.19,1.19,0,0,0,.27.27c.28-.16.55-.31.8-.43l.71-.33a1.43,1.43,0,0,1,.73-.13,1.22,1.22,0,0,1,.61.3,4.3,4.3,0,0,1,.64.7c.22.27.5.62.83,1.07l1.25,1.68,1.78,2.45L69,41.15l1.45,2,1,1.37a5,5,0,0,1,.42.72,1.36,1.36,0,0,1,.15.67,1.09,1.09,0,0,1-.28.64c-.19.22-.39.43-.6.64l-.68.67a.71.71,0,0,0,.13.29,3.24,3.24,0,0,0,.28.39,1.3,1.3,0,0,0,.27.26q1.07-.79,2.14-1.61t2.15-1.63c.52-.38,1.06-.75,1.61-1.13l1.58-1.09,1.33-.93a.7.7,0,0,0-.09-.37,2.26,2.26,0,0,0-.24-.41.83.83,0,0,0-.24-.23c-.4.23-.76.43-1.09.61a6.16,6.16,0,0,1-1,.41,1.19,1.19,0,0,1-.72.09,1.32,1.32,0,0,1-.59-.3,3.93,3.93,0,0,1-.52-.56c-.24-.29-.52-.65-.84-1.08l-1-1.36-1.06-1.45-1-1.36-.77-1.06-2.18-3-1.4-2c-.36-.5-.62-.89-.79-1.17a.62.62,0,0,1-.1-.3.85.85,0,0,1,0-.21,1.52,1.52,0,0,1,.2-.28l.25-.24L67,28a4,4,0,0,1,2.25-.81,4.21,4.21,0,0,1,2.27.63,7.13,7.13,0,0,1,2.05,1.92,8.12,8.12,0,0,1,.95,1.62,3.94,3.94,0,0,1,.32,1.39A3,3,0,0,1,74.59,34a2.52,2.52,0,0,1-.43.72,3.68,3.68,0,0,1-.69.63,5.9,5.9,0,0,1-.5.33,2.25,2.25,0,0,1-.31.17.45.45,0,0,0,0,.19.54.54,0,0,0,.09.2,1.31,1.31,0,0,0,.27.19,2.88,2.88,0,0,0,.41.2,1,1,0,0,0,.41.07"/><path class="cls-2" d="M43.17,48.35c.24-.21.49-.41.73-.6a5.06,5.06,0,0,1,.71-.47,1.6,1.6,0,0,1,.54-.21.94.94,0,0,1,.52.08,3.17,3.17,0,0,1,.63.42c.25.2.54.45.88.76l1.15,1,1.31,1.23L51,51.91l2.48,2.37c.72.68,1.35,1.3,1.9,1.84s1,1,1.49,1.52a3,3,0,0,1,.55.68,1.1,1.1,0,0,1,.15.59,1.36,1.36,0,0,1-.17.55c-.12.22-.29.5-.53.86L56,61.59a1.16,1.16,0,0,0,.2.25l.33.31a2.06,2.06,0,0,0,.31.23c.43-.45.88-.94,1.36-1.47l1.45-1.58c.48-.53.93-1,1.34-1.45q1.87-2,3.6-3.68t3.21-3.27a6.11,6.11,0,0,0,.69-.83,1.1,1.1,0,0,0,.2-.49.75.75,0,0,0-.07-.33,7.45,7.45,0,0,0-.38-.89c-.17-.34-.35-.7-.56-1.07s-.42-.73-.63-1.08l-.57-.93-.4-.61a1,1,0,0,0-.37.11,4.09,4.09,0,0,0-.49.25,1.14,1.14,0,0,0-.32.25,16.35,16.35,0,0,1,.67,1.81,8.63,8.63,0,0,1,.36,1.66,3.14,3.14,0,0,1,0,1,2.1,2.1,0,0,1-.35.79,7.57,7.57,0,0,1-.8.94c-.44.46-.86.89-1.26,1.28s-.75.72-1.07,1-.57.48-.75.61a.85.85,0,0,1-.64.1,1.38,1.38,0,0,1-.67-.35L56,50a.46.46,0,0,1-.08-.18.24.24,0,0,1,0-.2l.7-.73.88-.92.84-.85c.25-.25.44-.43.56-.54a1.32,1.32,0,0,1,.77-.32,1.75,1.75,0,0,1,.74.16l1.25.72a.82.82,0,0,0,.21-.15,3.14,3.14,0,0,0,.29-.29,3,3,0,0,0,.26-.32.91.91,0,0,0,.13-.23l-.83-.74-.91-.84-.8-.74c-.27-.25-.53-.53-.81-.83l-.8-.86-.67-.71a.65.65,0,0,0-.24.13c-.1.08-.21.17-.32.28a3.32,3.32,0,0,0-.28.31.71.71,0,0,0-.14.22l.38.55a5.88,5.88,0,0,1,.32.49,1.86,1.86,0,0,1,.36.93,1.16,1.16,0,0,1-.35.78c-.18.21-.41.47-.67.75l-.84.9-.83.86-.62.65a.21.21,0,0,1-.17.06.28.28,0,0,1-.19-.07l-2.44-2.3q-1.18-1.11-2.35-2.25a.66.66,0,0,1-.13-.19,1.15,1.15,0,0,1-.1-.26.32.32,0,0,1,0-.21c.07-.09.21-.25.4-.47l.7-.75.83-.87.79-.79c.24-.23.43-.41.57-.53a1.81,1.81,0,0,1,.66-.41,1.5,1.5,0,0,1,.94,0,4.72,4.72,0,0,1,1,.43c.35.2.79.48,1.31.84a.91.91,0,0,0,.29-.23,4.39,4.39,0,0,0,.34-.42,1.18,1.18,0,0,0,.19-.35L55.85,38c-.44-.48-.85-.94-1.21-1.37a12.3,12.3,0,0,1-.86-1.1.16.16,0,0,0-.1,0l-.07,0c-.24.33-.53.7-.86,1.09s-.69.79-1,1.18l-1,1.08-4.72,5c-.39.41-.81.83-1.24,1.27L43.47,46.4c-.41.41-.78.78-1.09,1.11a.63.63,0,0,0,.15.29,2.41,2.41,0,0,0,.34.37.72.72,0,0,0,.31.19"/><path class="cls-2" d="M36.36,65l1.12.25,1.86.45,2.29.58,2.41.63,2.21.58,1.7.47c.46.13.75.22.88.27a.5.5,0,0,1,.2.16c.06.08.08.14.06.19s-.27.45-.51.8l-.84,1.22-1,1.44-1,1.44L44.8,74.7c-.27.36-.49.64-.64.83a.25.25,0,0,1-.21.06.39.39,0,0,1-.26-.1c-.15-.19-.38-.48-.67-.88L42,73.2l-1.25-1.73-1.33-1.87-1.28-1.81L37,66.23l-.78-1.09s0,0,0-.09a.2.2,0,0,1,.09-.08m5.11,14.58,1,.42,1.39.62c.51.23,1,.48,1.58.75s1.07.53,1.58.81,1,.55,1.4.81a.73.73,0,0,0,.16-.19l.23-.39A4.11,4.11,0,0,0,49,82c.05-.12.07-.2.06-.24-.34-.32-.68-.66-1-1s-.72-.76-1.06-1.14-.64-.74-.91-1.09a6.16,6.16,0,0,1-.61-.92.48.48,0,0,1,0-.22,1.22,1.22,0,0,1,0-.29.55.55,0,0,1,.09-.24l7-9.84a.74.74,0,0,1,.34-.25,1.56,1.56,0,0,1,.37-.09h.17a7.65,7.65,0,0,1,1.24.42q.77.32,1.76.81c.65.33,1.33.71,2,1.13a.56.56,0,0,0,.23-.19,2.44,2.44,0,0,0,.24-.38,2.77,2.77,0,0,0,.19-.39.45.45,0,0,0,0-.26q-.65-.64-1.37-1.39c-.48-.5-1-1-1.42-1.55s-.92-1-1.32-1.55-.76-1-1.07-1.39a.33.33,0,0,0-.13,0h-.12l-.29.47-.37.57-.38.55a.45.45,0,0,1-.2.14,1,1,0,0,1-.26.07.47.47,0,0,1-.19,0l-1.48-.3-2.23-.5-2.73-.63-3-.71-3-.72-2.72-.67-2.21-.56-.78-.22-.53-.18L32.92,59c-.06.08-.13.21-.24.4a9,9,0,0,1-.49.75c-.17.24-.34.46-.5.65s-.28.33-.34.42a7.93,7.93,0,0,1,.59.67c.21.26.41.52.6.79l.55.73,1.69,2.47,1.82,2.67,1.8,2.65L40,73.61l1.29,2c.36.55.63,1,.8,1.27a3.12,3.12,0,0,1,.17.35,1.87,1.87,0,0,1,.12.43.68.68,0,0,1,0,.4c-.09.18-.17.36-.26.5l-.27.48Z"/><path class="cls-2" d="M17.7,88.53c.17-.27.35-.54.53-.78a5,5,0,0,1,.55-.66,1.6,1.6,0,0,1,.46-.35,1,1,0,0,1,.52-.07,3.14,3.14,0,0,1,.73.22c.29.12.64.28,1.06.48l1.4.67,1.61.81,1.68.86,3.05,1.56,2.35,1.22c.68.37,1.3.71,1.86,1a3,3,0,0,1,.72.49,1.1,1.1,0,0,1,.31.52,1.36,1.36,0,0,1,0,.58c0,.24-.14.57-.26,1s-.29.9-.49,1.46a1.17,1.17,0,0,0,.26.19l.4.21a2.13,2.13,0,0,0,.36.13c.28-.56.57-1.15.88-1.8l.93-1.93c.31-.64.6-1.24.87-1.78q1.24-2.41,2.4-4.56T42,84a6.12,6.12,0,0,0,.42-1,1.11,1.11,0,0,0,.05-.53.74.74,0,0,0-.16-.3,7.45,7.45,0,0,0-.62-.74c-.26-.28-.54-.57-.85-.86s-.61-.58-.91-.86l-.81-.73-.55-.47a1,1,0,0,0-.33.21,4.12,4.12,0,0,0-.4.38,1.12,1.12,0,0,0-.24.33,16.31,16.31,0,0,1,1.15,1.54,8.55,8.55,0,0,1,.82,1.49,3.12,3.12,0,0,1,.26.93,2.09,2.09,0,0,1-.11.86,7.5,7.5,0,0,1-.5,1.13c-.29.57-.57,1.1-.85,1.59s-.51.91-.74,1.27a9.49,9.49,0,0,1-.55.8.85.85,0,0,1-.59.27,1.38,1.38,0,0,1-.74-.15L30.47,86.4a.46.46,0,0,1-.13-.15.24.24,0,0,1,0-.2l.46-.9L31.35,84,31.91,83c.17-.31.3-.54.39-.67a1.32,1.32,0,0,1,.65-.52,1.76,1.76,0,0,1,.76-.06l1.4.33a.81.81,0,0,0,.16-.2,3.33,3.33,0,0,0,.19-.36,3.11,3.11,0,0,0,.16-.38.92.92,0,0,0,.06-.26l-1-.47-1.11-.54-1-.48c-.33-.17-.66-.36-1-.56l-1-.6-.84-.49a.65.65,0,0,0-.19.19c-.07.1-.15.22-.23.36a3.35,3.35,0,0,0-.19.38.71.71,0,0,0-.07.26l.52.42a5.75,5.75,0,0,1,.45.38,1.85,1.85,0,0,1,.61.78,1.16,1.16,0,0,1-.11.85c-.11.26-.26.56-.43.92l-.55,1.1L29,84.37l-.41.8a.21.21,0,0,1-.15.1.28.28,0,0,1-.2,0l-3-1.51c-1-.49-1.93-1-2.89-1.49a.68.68,0,0,1-.18-.15,1.13,1.13,0,0,1-.17-.22.32.32,0,0,1,0-.21c0-.11.13-.3.25-.57l.46-.92c.17-.35.36-.7.54-1.07l.53-1c.16-.29.3-.52.4-.67a1.81,1.81,0,0,1,.52-.58,1.5,1.5,0,0,1,.91-.26,4.73,4.73,0,0,1,1,.14c.4.09.89.23,1.49.43a.9.9,0,0,0,.21-.3,4.4,4.4,0,0,0,.2-.5,1.19,1.19,0,0,0,.08-.39l-1.68-1c-.56-.34-1.08-.66-1.55-1a12.2,12.2,0,0,1-1.14-.81.16.16,0,0,0-.1,0,.11.11,0,0,0-.06,0c-.13.38-.31.82-.51,1.29s-.43,1-.66,1.43-.45.92-.65,1.32l-3.11,6.09c-.26.5-.54,1-.83,1.57l-.86,1.59c-.28.51-.53,1-.73,1.37a.63.63,0,0,0,.22.23,2.42,2.42,0,0,0,.43.26.72.72,0,0,0,.35.09"/><path class="cls-2" d="M195.44,9.85l.6.33c.17.1.33.2.48.3a5.46,5.46,0,0,1,.47.35.92.92,0,0,1,.41.68,2.18,2.18,0,0,1-.13.91c-.1.35-.22.71-.34,1.1s-.28.82-.45,1.3-.37,1-.61,1.67L195,18.71l-.61,1.65c-.22.58-.43,1.16-.65,1.74l-.62,1.64c-.2.51-.37,1-.53,1.37s-.28.7-.38.92a4.31,4.31,0,0,1-.56,1,1,1,0,0,1-.54.37,1.79,1.79,0,0,1-.64,0l-.61-.08-.86-.17a.51.51,0,0,0-.22.26,2.24,2.24,0,0,0-.17.45.74.74,0,0,0,0,.38l.89.31,1,.33,1.3.45,1.8.65c.81.3,1.58.61,2.34.91l2.35.94a.34.34,0,0,0,.19-.15,2.65,2.65,0,0,0,.33-.65.47.47,0,0,0,0-.23l-.93-.54a6,6,0,0,1-.69-.46,1.27,1.27,0,0,1-.5-.6,1.35,1.35,0,0,1,0-.66,4.2,4.2,0,0,1,.16-.62c.13-.42.32-1,.56-1.64s.54-1.49.89-2.45.77-2.09,1.25-3.37l.95-2.55c.29-.78.55-1.46.77-2s.4-1,.53-1.35a6.89,6.89,0,0,1,.37-.75,1.22,1.22,0,0,1,.4-.45,1.15,1.15,0,0,1,.61-.15,4.82,4.82,0,0,1,.77.07l.93.16a.63.63,0,0,0,.22-.28,2.3,2.3,0,0,0,.16-.46.73.73,0,0,0,0-.35l-.59-.2-.88-.29-1.33-.46-2-.71c-.73-.27-1.37-.52-1.93-.75l-1.5-.61-1.23-.49a.68.68,0,0,0-.17.26,3.08,3.08,0,0,0-.18.43,1.36,1.36,0,0,0-.08.39"/><path class="cls-2" d="M182.1,24.6a2.46,2.46,0,0,1-.55-.23,2.9,2.9,0,0,1-.62-.47,2.82,2.82,0,0,1-.55-.75,1.54,1.54,0,0,1-.12-.49,1.48,1.48,0,0,1,0-.45c.11-.5.24-1.06.39-1.67s.31-1.24.48-1.91.35-1.32.52-2l.51-1.89a.3.3,0,0,1,.08-.13.12.12,0,0,1,.11,0l.31,0,.4.08.33.08A4.33,4.33,0,0,1,185.55,16a3.72,3.72,0,0,1,.91,2.09,7.52,7.52,0,0,1-.28,2.87,6.32,6.32,0,0,1-1.59,3.07,2.51,2.51,0,0,1-2.49.55m-10-2.71a.43.43,0,0,0-.2.28,1.89,1.89,0,0,0-.12.46,1.24,1.24,0,0,0,0,.37l1.64.46,2,.59,2.08.61,1.83.54,1.26.36a18.19,18.19,0,0,0,2.84.56,10.24,10.24,0,0,0,2.62,0,7,7,0,0,0,2.55-.87,5.78,5.78,0,0,0,1.78-1.62,6.68,6.68,0,0,0,1-2.2,6.07,6.07,0,0,0,.2-2.23,4.92,4.92,0,0,0-.7-2.09,5.82,5.82,0,0,0-1.74-1.77A9.7,9.7,0,0,0,186.23,14c-.84-.23-1.55-.4-2.13-.54l-1.31-.29a.13.13,0,0,1-.09-.07.27.27,0,0,1,0-.13l.49-1.8c.14-.5.25-.93.36-1.29s.19-.67.27-.94.16-.54.23-.78a2.88,2.88,0,0,1,.51-1,1.24,1.24,0,0,1,.85-.39,7.51,7.51,0,0,1,.79,0c.28,0,.61.05,1,.1a.37.37,0,0,0,.16-.2,2.58,2.58,0,0,0,.12-.36,2.23,2.23,0,0,0,.05-.37.41.41,0,0,0,0-.23l-2.16-.53c-.81-.19-1.75-.43-2.83-.71s-2-.55-2.85-.83-1.53-.48-2.08-.62c0,0-.08.07-.12.16a2.05,2.05,0,0,0-.13.33,2,2,0,0,0-.08.37.52.52,0,0,0,0,.25c.28.11.57.23.88.37a6.35,6.35,0,0,1,.8.44,1.43,1.43,0,0,1,.41.37.91.91,0,0,1,.16.49,2.77,2.77,0,0,1-.09.75c-.09.45-.19.89-.3,1.33l-.37,1.42-.46,1.71c-.18.63-.38,1.37-.6,2.2l-.92,3.41c-.28,1-.52,1.89-.73,2.6s-.35,1.2-.45,1.49a2.88,2.88,0,0,1-.54,1,1,1,0,0,1-.69.32,5.3,5.3,0,0,1-1,0Z"/><path class="cls-2" d="M147.23,1.15l.92.21c.27.06.54.14.82.23a1.22,1.22,0,0,1,.5.32,1.09,1.09,0,0,1,.23.54,4,4,0,0,1,.05.88c0,.26,0,.63-.06,1.1s-.07,1-.12,1.68-.1,1.35-.16,2.11l-.19,2.4-.17,2.22c-.06.72-.11,1.4-.16,2s-.09,1.14-.13,1.55-.07.69-.09.83a6.52,6.52,0,0,1-.25,1.15A1.39,1.39,0,0,1,148,19a1.45,1.45,0,0,1-.73.27l-1.58.18a.43.43,0,0,0-.09.22,1.84,1.84,0,0,0,0,.36,2.13,2.13,0,0,0,0,.36.35.35,0,0,0,.06.21l1.76.09c.83,0,1.9.1,3.2.2,1,.08,1.92.16,2.64.23l1.75.18,1,.1a.82.82,0,0,0,.15-.31,2.32,2.32,0,0,0,.11-.48.61.61,0,0,0,0-.35l-1-.28c-.33-.09-.61-.18-.83-.27a1.09,1.09,0,0,1-.79-1,4.69,4.69,0,0,1,0-.85c0-.52.07-1.1.11-1.74s.09-1.33.15-2L154,12a.3.3,0,0,1,0-.1.28.28,0,0,1,.05-.1.51.51,0,0,1,.19,0l.57,0,1.28.08,2.31.16,1.51.12,1.36.12,1,.1a.15.15,0,0,1,.12.09.32.32,0,0,1,0,.16c-.06.74-.11,1.48-.17,2.23s-.11,1.45-.17,2.13-.12,1.28-.18,1.82a2.78,2.78,0,0,1-.33,1.17,1,1,0,0,1-.68.45l-.75.1-.91.08a.65.65,0,0,0-.14.34,2.32,2.32,0,0,0,0,.49.55.55,0,0,0,.09.33l1.17.06,1.81.1c.69,0,1.42.08,2.18.14q1.82.15,3.1.29l1.92.2a.34.34,0,0,0,.12-.2,2.75,2.75,0,0,0,.1-.36c0-.13,0-.25.05-.36a.63.63,0,0,0,0-.23l-1-.24-.67-.18a4.58,4.58,0,0,1-.51-.19,1,1,0,0,1-.5-.64,3.73,3.73,0,0,1-.08-1.12c0-.38,0-.82.06-1.31s.06-1,.11-1.6.08-1.15.12-1.75l.14-1.75c.08-1,.15-1.92.2-2.67l.15-2c0-.57.1-1.11.15-1.62s.11-1,.18-1.6a3.78,3.78,0,0,1,.17-.83,1,1,0,0,1,.3-.47,1.13,1.13,0,0,1,.5-.23,3.24,3.24,0,0,1,.72-.14l.9-.07a.65.65,0,0,0,.14-.34,2.36,2.36,0,0,0,0-.49.63.63,0,0,0-.07-.33l-.78,0-1,0-1.3-.07-1.79-.12-1.72-.15-1.32-.14-1.08-.12-1-.1a.51.51,0,0,0-.16.32,2.1,2.1,0,0,0-.05.5.55.55,0,0,0,.09.34l1.05.22a4.69,4.69,0,0,1,.79.26.79.79,0,0,1,.37.31,1.23,1.23,0,0,1,.17.45,2.41,2.41,0,0,1,0,.48c0,.63,0,1.31-.1,2s-.1,1.43-.15,2.14-.11,1.33-.15,1.91a.22.22,0,0,1-.08.14.53.53,0,0,1-.14.09c-.22,0-.62,0-1.22-.07L158.73,10l-2.19-.17-1.26-.1-.63-.07-.3-.06a.21.21,0,0,1-.11-.1.78.78,0,0,1,0-.15c0-.63.09-1.26.14-1.91s.09-1.28.15-1.9.11-1.2.18-1.75a2.91,2.91,0,0,1,.25-1.13,1,1,0,0,1,.69-.5,3.25,3.25,0,0,1,.45-.09l.56-.06.58,0a.46.46,0,0,0,.14-.3,2.48,2.48,0,0,0,0-.5.8.8,0,0,0-.06-.36l-1.1-.06L154.61.64c-.64,0-1.4-.08-2.28-.15S150.63.35,150,.28l-1.6-.17-1-.11a.36.36,0,0,0-.09.2,2.32,2.32,0,0,0-.07.36,2,2,0,0,0,0,.37.34.34,0,0,0,.05.21"/><path class="cls-2" d="M136.22,20.47a2.44,2.44,0,0,1-.61,0,3.66,3.66,0,0,1-.8-.21,3.3,3.3,0,0,1-.83-.5,1.58,1.58,0,0,1-.3-.39,1.29,1.29,0,0,1-.14-.41c-.08-.51-.17-1.07-.26-1.69S133.1,16,133,15.31s-.17-1.34-.25-2l-.23-1.94a.33.33,0,0,1,0-.16c0-.05,0-.09.07-.09l.28-.07.36-.07.3,0a5.17,5.17,0,0,1,2.67.3A3.92,3.92,0,0,1,138,12.8a6.68,6.68,0,0,1,.88,2.76A5.84,5.84,0,0,1,138.5,19a2.83,2.83,0,0,1-2.28,1.46m-10.41,1.24a.43.43,0,0,0-.09.32,2.47,2.47,0,0,0,.06.5.8.8,0,0,0,.14.34l1.38-.15,1.7-.17,1.84-.18,1.77-.17,1.5-.14,1-.11a20,20,0,0,0,2-.34A15.9,15.9,0,0,0,139,21a9.94,9.94,0,0,0,1.65-.76,7.06,7.06,0,0,0,2-1.76,5.8,5.8,0,0,0,1-2.15,6.34,6.34,0,0,0,.14-2.34,5.94,5.94,0,0,0-.67-2.13,5.11,5.11,0,0,0-1.47-1.69,6.05,6.05,0,0,0-2.29-1,9.48,9.48,0,0,0-3.12-.1c-1.06.13-1.92.25-2.57.35l-1.3.22a.19.19,0,0,1-.12-.06.19.19,0,0,1,0-.09l-.22-1.85c-.06-.52-.11-1-.15-1.33s-.08-.69-.1-1-.06-.56-.08-.81a4.14,4.14,0,0,1,0-.84,1.17,1.17,0,0,1,.22-.56,1.4,1.4,0,0,1,.51-.4,4.89,4.89,0,0,1,.75-.29l.94-.25a.35.35,0,0,0,.08-.23,2.55,2.55,0,0,0,0-.39,2,2,0,0,0-.08-.38c0-.1-.08-.17-.13-.18l-2.2.31c-.82.13-1.79.26-2.89.4s-2.07.24-3,.3-1.6.13-2.16.21a.29.29,0,0,0-.06.19,2.09,2.09,0,0,0,0,.35,2,2,0,0,0,.06.37.52.52,0,0,0,.1.23c.3,0,.62,0,1,0a6.39,6.39,0,0,1,.91.1,1.44,1.44,0,0,1,.52.19.88.88,0,0,1,.33.38,2.59,2.59,0,0,1,.19.71c.08.45.15.91.22,1.36l.19,1.46.21,1.76c.07.65.16,1.41.26,2.26l.42,3.51c.12,1.06.22,2,.3,2.68s.13,1.25.14,1.55a2.88,2.88,0,0,1-.14,1.1A1,1,0,0,1,128,21a5.32,5.32,0,0,1-.92.34Z"/><path class="cls-2" d="M102.22,28.33a.61.61,0,0,0,0,.36,2.2,2.2,0,0,0,.15.45.74.74,0,0,0,.19.3c.57-.18,1.18-.37,1.81-.59s1.24-.42,1.85-.6c.94-.27,1.75-.5,2.42-.67l1.72-.46a.75.75,0,0,0,0-.37,2.44,2.44,0,0,0-.1-.48.59.59,0,0,0-.16-.29l-.84.07-.79.06a1.05,1.05,0,0,1-1.06-.33,2.49,2.49,0,0,1-.31-1.4c0-.4,0-.92,0-1.58s0-1.39.08-2.2.06-1.65.1-2.52.08-1.71.12-2.54.07-1.58.11-2.26.06-1.25.08-1.69c0,0,0,0,.05,0h.08l1.37,1.92,1.61,2.26,1.64,2.35,1.51,2.18c.46.68.86,1.27,1.19,1.77s.56.86.69,1.09a.55.55,0,0,1,.07.28.65.65,0,0,1-.18.43,2,2,0,0,1-.4.32c-.19.12-.38.23-.59.34l-.51.28a.48.48,0,0,0,0,.34,2.35,2.35,0,0,0,.16.46.86.86,0,0,0,.2.3l.9-.28,1-.33,1.29-.42,1.76-.54c.84-.25,1.56-.45,2.18-.62l1.57-.42,1-.28a.39.39,0,0,0,0-.23,2.74,2.74,0,0,0-.13-.73c0-.1-.08-.17-.12-.18a11,11,0,0,1-1.55.13,2.38,2.38,0,0,1-1-.22,3.42,3.42,0,0,1-.92-.73c-.31-.34-.7-.81-1.16-1.41L118.21,18,116.7,16,115,13.68l-1.69-2.32-1.54-2.12-1.24-1.7-1.12-1.73-.7.25c-.25.09-.54.19-.88.28s-.59.17-.88.24l-.81.19c0,.2,0,.44.05.74s0,.59,0,.9,0,.59,0,.84c0,.44,0,1-.09,1.71s-.08,1.49-.14,2.37-.12,1.82-.19,2.8-.15,2-.23,3-.17,2-.26,2.93-.18,1.83-.27,2.64a7.29,7.29,0,0,1-.24,1.3,2.52,2.52,0,0,1-.45.9,3.33,3.33,0,0,1-.8.71,12.71,12.71,0,0,1-1.31.72"/><path class="cls-2" d="M258.63,54.65c.16.32.29.61.4.86s.22.51.32.79a1.23,1.23,0,0,1,.06.59,1.1,1.1,0,0,1-.28.51,4,4,0,0,1-.66.58l-.91.63-1.4.93-1.77,1.17-2,1.33-1.86,1.23-1.69,1.11-1.3.85-.71.44a6.47,6.47,0,0,1-1.06.51,1.4,1.4,0,0,1-.77.07,1.45,1.45,0,0,1-.66-.41l-1.12-1.14a.43.43,0,0,0-.23.07,1.88,1.88,0,0,0-.31.19,2.2,2.2,0,0,0-.28.23.35.35,0,0,0-.13.18l1,1.44q.72,1,1.81,2.65c.58.87,1.05,1.61,1.44,2.22s.7,1.11.93,1.49.4.66.51.82a.82.82,0,0,0,.34-.07,2.37,2.37,0,0,0,.44-.21.62.62,0,0,0,.26-.24l-.4-1c-.13-.32-.23-.59-.3-.82a1.09,1.09,0,0,1,.32-1.24,4.72,4.72,0,0,1,.68-.52l1.44-1,1.71-1.14,1.8-1.19.1,0,.11,0a.53.53,0,0,1,.14.13c.07.08.17.23.33.47l.72,1.06,1.3,1.92.84,1.26.74,1.15c.22.34.39.62.51.82a.16.16,0,0,1,0,.15.33.33,0,0,1-.11.13l-1.86,1.24-1.78,1.18c-.57.37-1.08.7-1.55,1a2.77,2.77,0,0,1-1.13.46,1,1,0,0,1-.78-.26l-.53-.53-.62-.66a.65.65,0,0,0-.35.1,2.3,2.3,0,0,0-.41.27.55.55,0,0,0-.21.27c.14.22.37.53.67,1l1,1.49c.4.57.81,1.17,1.23,1.81q1,1.52,1.67,2.62c.45.73.79,1.27,1,1.64a.34.34,0,0,0,.23,0l.34-.14.32-.18a.63.63,0,0,0,.17-.15l-.39-.9c-.11-.24-.2-.46-.27-.64a4.44,4.44,0,0,1-.16-.52,1,1,0,0,1,.19-.79,3.75,3.75,0,0,1,.83-.75l1.08-.76,1.33-.9,1.46-1,1.47-1L264.18,76l1.66-1.1,1.37-.88,1.37-.84a3.77,3.77,0,0,1,.76-.38,1,1,0,0,1,.55,0,1.13,1.13,0,0,1,.49.25,3.23,3.23,0,0,1,.56.48l.61.66a.65.65,0,0,0,.35-.1,2.38,2.38,0,0,0,.41-.26.63.63,0,0,0,.22-.25l-.44-.64-.56-.79-.74-1.07c-.28-.41-.62-.91-1-1.49s-.68-1-.94-1.45l-.7-1.13-.57-.93c-.18-.29-.36-.58-.55-.87a.51.51,0,0,0-.35.07,2.12,2.12,0,0,0-.42.27.55.55,0,0,0-.21.28c.19.37.34.69.47,1a4.65,4.65,0,0,1,.28.78.79.79,0,0,1,0,.49,1.23,1.23,0,0,1-.25.41,2.41,2.41,0,0,1-.35.33c-.51.38-1.06.77-1.66,1.17l-1.78,1.19-1.6,1.05a.22.22,0,0,1-.16,0,.55.55,0,0,1-.15-.06c-.13-.17-.37-.51-.7-1l-1.36-2-1.21-1.83-.69-1.06c-.16-.24-.27-.42-.33-.54a2.3,2.3,0,0,1-.13-.27.21.21,0,0,1,0-.15.87.87,0,0,1,.09-.13l1.6-1.06,1.59-1.05c.52-.34,1-.65,1.49-.94a2.89,2.89,0,0,1,1-.49,1,1,0,0,1,.82.24,3.29,3.29,0,0,1,.35.3c.13.13.26.26.39.41l.38.43a.46.46,0,0,0,.32-.07,2.42,2.42,0,0,0,.42-.27.8.8,0,0,0,.24-.27c-.16-.24-.37-.54-.63-.9l-.93-1.33q-.55-.79-1.28-1.89t-1.28-2l-.85-1.37c-.22-.36-.4-.66-.54-.87a.35.35,0,0,0-.22,0,2.25,2.25,0,0,0-.33.17,1.92,1.92,0,0,0-.3.22c-.08.07-.13.13-.14.17"/><path class="cls-2" d="M234,53.26a1.23,1.23,0,0,0-.33.13c-.14.07-.29.17-.45.26a2.62,2.62,0,0,0-.36.29,5.35,5.35,0,0,0-.65.83,4.39,4.39,0,0,0-.43.91,2.64,2.64,0,0,0-.15.87,2,2,0,0,0,.31.76,3.7,3.7,0,0,0,.56.65,3.4,3.4,0,0,0,1.51.82,6.68,6.68,0,0,0,1.9.19,13.83,13.83,0,0,0,2.07-.24c.7-.14,1.39-.29,2-.47.89-.24,1.88-.55,3-.93s2.24-.81,3.44-1.28,2.42-1,3.66-1.47,2.44-1,3.62-1.52a9.86,9.86,0,0,1,1-.41,2.8,2.8,0,0,1,.94-.13,2.94,2.94,0,0,1,1,.26,7.82,7.82,0,0,1,1.31.75c.06,0,.13,0,.24,0a1.49,1.49,0,0,0,.29-.24,1.42,1.42,0,0,0,.24-.3.39.39,0,0,0,.08-.25l-1.28-1.15c-.45-.4-.93-.84-1.43-1.33l-1.06-1-.91-.92-.88-.93a.34.34,0,0,0-.24.06,1.69,1.69,0,0,0-.31.22,1.63,1.63,0,0,0-.25.28.35.35,0,0,0-.08.25c.27.34.52.65.73.95a6.07,6.07,0,0,1,.48.79.68.68,0,0,1,0,.61,1.31,1.31,0,0,1-.52.57c-.23.16-.57.36-1,.6s-.94.5-1.51.78-1.19.58-1.84.89-1.32.6-2,.88-1.33.55-2,.79a.1.1,0,0,1-.13,0,.15.15,0,0,1,0-.13c0-.17.15-.48.29-.93l.51-1.61.64-2,.69-2.06c.23-.67.44-1.29.64-1.84s.37-1,.5-1.34a.56.56,0,0,1,.21-.28.39.39,0,0,1,.36,0,2.39,2.39,0,0,1,.33.17l.44.28.48.32a.3.3,0,0,0,.21-.09,2.12,2.12,0,0,0,.51-.56.4.4,0,0,0,.08-.23l-.48-.43-.88-.81L248,42.39l-1.26-1.2q-.8-.77-1.5-1.49L244,38.48l-.75-.76a.58.58,0,0,0-.31.15,2.32,2.32,0,0,0-.35.34.68.68,0,0,0-.18.3q.52.66.83,1.13a2.44,2.44,0,0,1,.39,1,3.41,3.41,0,0,1,0,1.22,16.6,16.6,0,0,1-.49,1.91q-.3,1-.68,2.21l-.78,2.53q-.41,1.31-.81,2.57t-.75,2.35c-.24.72-.44,1.34-.61,1.84s-.3.87-.38,1.07a2,2,0,0,1-.14.24,2.21,2.21,0,0,1-.2.26.62.62,0,0,1-.19.16,2.61,2.61,0,0,1-1.54.22,2.45,2.45,0,0,1-1.21-.7,4.86,4.86,0,0,1-.61-.74c-.2-.29-.38-.58-.55-.88s-.32-.6-.44-.88a6.37,6.37,0,0,1-.26-.71"/><path class="cls-2" d="M220.88,13.36a4.28,4.28,0,0,0-.85,0,3.33,3.33,0,0,0-.8.22,1.16,1.16,0,0,0-.52.41,2.42,2.42,0,0,0-.37,1.36,3.21,3.21,0,0,0,.38,1.38,5.14,5.14,0,0,0,.93,1.27,6.75,6.75,0,0,0,1.31,1,6.85,6.85,0,0,0,4.27,1,6.56,6.56,0,0,0,2-.52,5.52,5.52,0,0,0,1.6-1.08.32.32,0,0,0,0-.19.36.36,0,0,0-.12-.15l-.21,0-.4,0h-.41a1,1,0,0,0-.25,0,4.53,4.53,0,0,1-1.66.43,3.61,3.61,0,0,1-1.37-.2,6.12,6.12,0,0,1-1.19-.58,4.37,4.37,0,0,1-1.8-1.8,3.09,3.09,0,0,1-.08-2.23.17.17,0,0,0-.06-.13.79.79,0,0,0-.16-.13.44.44,0,0,0-.18-.07"/><path class="cls-2" d="M200.24,31a.41.41,0,0,0-.19.15,1.85,1.85,0,0,0-.2.3,2.25,2.25,0,0,0-.15.33.39.39,0,0,0,0,.22l1.61.93q1.09.62,2.76,1.64c.75.46,1.39.87,1.91,1.21l1.36.89c.39.26.76.5,1.12.72a.53.53,0,0,0,.29-.2,2.35,2.35,0,0,0,.29-.39.91.91,0,0,0,.13-.32c-.32-.28-.59-.52-.8-.74a5.32,5.32,0,0,1-.53-.6,1,1,0,0,1-.2-1.15,5.18,5.18,0,0,1,.4-.8,1.62,1.62,0,0,1,.35-.4,1.42,1.42,0,0,1,.44-.23l.82-.31,1.62-.58,2.12-.76,2.32-.83,2.22-.8,1.82-.67c.52-.19.89-.34,1.12-.44a.09.09,0,0,1,.11,0s0,.06,0,.11l-.77,1.27c-.32.53-.67,1.11-1.07,1.75l-1.21,2-1.2,1.91-1,1.61-.67,1a4.16,4.16,0,0,1-.54.69,1.08,1.08,0,0,1-.49.3,1,1,0,0,1-.52,0l-.7-.25q-.37-.14-.88-.36a.29.29,0,0,0-.2.11,1.43,1.43,0,0,0-.22.29,1.47,1.47,0,0,0-.16.33.37.37,0,0,0,0,.25l1.51.87q1.08.61,2.92,1.73,1.23.75,2,1.28l1.32.89c.35.24.65.44.92.6a.36.36,0,0,0,.22-.11,2.08,2.08,0,0,0,.27-.28,2.22,2.22,0,0,0,.21-.31.44.44,0,0,0,.07-.23c-.41-.33-.75-.62-1-.86a5.82,5.82,0,0,1-.62-.65,1,1,0,0,1-.18-.79,3.46,3.46,0,0,1,.43-1c.18-.33.43-.75.72-1.25s.61-1,1-1.6l1-1.72,1-1.59,1.11-1.83L225,31l.62-1,.59-.92.69-1a3.55,3.55,0,0,1,.52-.65.93.93,0,0,1,.47-.26,1.34,1.34,0,0,1,.56,0,5.58,5.58,0,0,1,.73.24l.9.36a.4.4,0,0,0,.2-.14,1.76,1.76,0,0,0,.22-.29,1.79,1.79,0,0,0,.17-.32.32.32,0,0,0,0-.21l-.8-.47-.87-.5-1.11-.64-1.48-.89c-.78-.48-1.43-.89-1.95-1.23l-1.3-.85c-.35-.23-.67-.44-1-.62-.08,0-.17.06-.28.18a1.75,1.75,0,0,0-.27.41.66.66,0,0,0-.09.38c.22.16.41.3.56.43a3.94,3.94,0,0,1,.4.37,2.89,2.89,0,0,1,.32.39,1,1,0,0,1,.21.68,1.74,1.74,0,0,1-.22.75l-.34.55-.11.12-.19.16a.55.55,0,0,1-.18.1c-.44.2-1,.43-1.72.7l-2.31.87-2.57.93-2.45.88-2,.71-1.17.44-.11,0s-.05-.06,0-.12l.7-1.14,1-1.67,1.17-1.92,1.18-1.91,1-1.62c.3-.47.53-.83.69-1.06a4.61,4.61,0,0,1,.52-.69,1.13,1.13,0,0,1,.48-.33,1.16,1.16,0,0,1,.58,0,7,7,0,0,1,.68.22c.27.09.54.2.79.32a.63.63,0,0,0,.28-.21,2,2,0,0,0,.26-.41.59.59,0,0,0,.09-.35l-1.49-.85c-.69-.39-1.62-.94-2.77-1.64l-1.54-1-1.12-.73-.88-.58-.82-.52s-.09.06-.16.14a3.36,3.36,0,0,0-.22.29,1.89,1.89,0,0,0-.18.32.41.41,0,0,0,0,.24l.62.48.47.39a5.21,5.21,0,0,1,.4.41,1,1,0,0,1,.25.8,3.11,3.11,0,0,1-.36,1c-.12.23-.32.57-.59,1l-1,1.64-1.22,2-1.31,2.13-1.14,1.85-1,1.58-.75,1.18c-.2.32-.34.53-.42.64a6.57,6.57,0,0,1-.72.88,1.26,1.26,0,0,1-.63.36,1.47,1.47,0,0,1-.76-.1Z"/><path class="cls-2" d="M277.1,187.6s-.09.07-.14.18a2.29,2.29,0,0,0-.11.38,2.2,2.2,0,0,0,0,.41.45.45,0,0,0,.05.27c.44.13.92.29,1.43.47s1,.38,1.52.58,1,.39,1.37.58l1,.46c.17-.49.4-1.08.68-1.76s.59-1.43.9-2.23.59-1.64.85-2.5a18.38,18.38,0,0,0,.7-3.78,12.61,12.61,0,0,0-.17-3.26,9.78,9.78,0,0,0-1.41-3.64,9.65,9.65,0,0,0-2.55-2.66,10.92,10.92,0,0,0-3.36-1.61,12.13,12.13,0,0,0-6.32-.3,9,9,0,0,0-4.7,3,15.74,15.74,0,0,0-3,5.95,17.26,17.26,0,0,0-.47,2.13,13.77,13.77,0,0,0-.15,1.68c0,.49,0,.93,0,1.32a3.61,3.61,0,0,0,.58,1,12.11,12.11,0,0,0,1,1.13c.39.38.78.74,1.17,1.07a10.5,10.5,0,0,0,1,.79,1.24,1.24,0,0,0,.37-.18,2.48,2.48,0,0,0,.36-.31,1.51,1.51,0,0,0,.24-.29c-.35-.36-.69-.74-1-1.14s-.62-.79-.89-1.18a8.33,8.33,0,0,1-.65-1.11,3.79,3.79,0,0,1-.35-1.23,4.87,4.87,0,0,1,0-1.19,7.15,7.15,0,0,1,.23-1,7.26,7.26,0,0,1,1.33-2.62,6.24,6.24,0,0,1,2-1.63,7.89,7.89,0,0,1,2.48-.78,11.3,11.3,0,0,1,2.73-.07,15.2,15.2,0,0,1,2.74.52,14.32,14.32,0,0,1,4.65,2.14,6.14,6.14,0,0,1,2.24,2.86,5.36,5.36,0,0,1,0,3.32,10.16,10.16,0,0,1-.73,1.9,6.22,6.22,0,0,1-1.22,1.68,3.06,3.06,0,0,1-1.23.72,4.62,4.62,0,0,1-1.45.16c-.53,0-1.12-.07-1.78-.15"/><path class="cls-2" d="M276.61,159.64c-.05.18-.11.39-.16.64a7.84,7.84,0,0,0-.13.87,8.59,8.59,0,0,0,.07,2.26,8.34,8.34,0,0,0,.67,2.16,6,6,0,0,0,1.09,1.6,6.08,6.08,0,0,0,1.72,1.25,6.87,6.87,0,0,0,2.37.66,6.77,6.77,0,0,0,2.11-.1,5.48,5.48,0,0,0,1.66-.67,5.25,5.25,0,0,0,1.23-1,5,5,0,0,0,.74-1.09,7.18,7.18,0,0,0,.47-1.18,10.27,10.27,0,0,0,.26-1.13c.06-.35.1-.66.13-.92.07-.64.13-1.23.18-1.77l.14-1.58c0-.51.09-1,.14-1.58s.1-1.12.16-1.75.13-1.2.21-1.78.14-1.12.21-1.61.12-.91.15-1.24a.69.69,0,0,0-.3-.1,3.4,3.4,0,0,0-.47-.07,1.2,1.2,0,0,0-.38,0c-.07.32-.14.61-.22.88s-.15.52-.23.75a1.42,1.42,0,0,1-.39.63,1.23,1.23,0,0,1-.64.25,4.29,4.29,0,0,1-.95,0c-.35,0-.79,0-1.35-.09l-2.08-.19-3-.31-3.51-.37-2.48-.28-1.66-.2a5.07,5.07,0,0,1-.82-.16,1.35,1.35,0,0,1-.59-.33,1.08,1.08,0,0,1-.29-.63c0-.29-.06-.58-.08-.87s0-.61,0-1a.71.71,0,0,0-.3-.1,3.24,3.24,0,0,0-.47,0,1.29,1.29,0,0,0-.38,0c-.08.88-.16,1.77-.22,2.67s-.14,1.79-.22,2.69c-.07.64-.14,1.29-.23,2s-.16,1.3-.24,1.9-.15,1.15-.19,1.62a.69.69,0,0,0,.33.18,2.25,2.25,0,0,0,.47.09.83.83,0,0,0,.33,0c.09-.45.18-.85.27-1.21a6.13,6.13,0,0,1,.33-1,1.19,1.19,0,0,1,.41-.6,1.32,1.32,0,0,1,.62-.23,3.92,3.92,0,0,1,.77,0l1.36.09,1.7.15,1.79.18,1.67.18,1.31.13,3.68.38,2.39.27c.61.07,1.08.13,1.4.19a.62.62,0,0,1,.29.12.84.84,0,0,1,.16.13,1.54,1.54,0,0,1,.07.33q0,.18,0,.34c0,.11,0,.19,0,.26a4,4,0,0,1-.9,2.22,4.22,4.22,0,0,1-2,1.27,7.15,7.15,0,0,1-2.8.24,8.11,8.11,0,0,1-1.84-.38,3.94,3.94,0,0,1-1.25-.69,3,3,0,0,1-.77-1,2.54,2.54,0,0,1-.25-.8,3.69,3.69,0,0,1,0-.94,5.9,5.9,0,0,1,.08-.6,2.22,2.22,0,0,1,.08-.35.45.45,0,0,0-.15-.11.54.54,0,0,0-.2-.07,1.28,1.28,0,0,0-.33.08,2.8,2.8,0,0,0-.43.17,1,1,0,0,0-.32.26"/><path class="cls-2" d="M288.53,129.18c0,.32,0,.64-.08.94a5,5,0,0,1-.16.84,1.6,1.6,0,0,1-.23.53.94.94,0,0,1-.42.32,3.13,3.13,0,0,1-.74.16c-.31,0-.7.07-1.16.1l-1.55.09-1.8.08-1.89.07-3.43.12-2.65.08c-.78,0-1.48,0-2.12,0a3,3,0,0,1-.87-.08,1.1,1.1,0,0,1-.52-.3,1.36,1.36,0,0,1-.27-.51c-.08-.24-.16-.56-.25-1s-.18-.92-.29-1.52a1.18,1.18,0,0,0-.32,0l-.45,0a2.12,2.12,0,0,0-.38.06c0,.62.06,1.29.1,2s.09,1.43.13,2.14.08,1.37.1,2q.09,2.7.13,5.15c0,1.62.06,3.15.1,4.58a6.12,6.12,0,0,0,.11,1.07,1.1,1.1,0,0,0,.21.49.75.75,0,0,0,.28.18,7.43,7.43,0,0,0,.9.35c.36.12.75.23,1.16.34l1.21.31,1.06.24.72.14a1,1,0,0,0,.19-.34,4.11,4.11,0,0,0,.16-.53,1.13,1.13,0,0,0,0-.4,16.34,16.34,0,0,1-1.76-.79,8.57,8.57,0,0,1-1.44-.9,3.13,3.13,0,0,1-.68-.68,2.1,2.1,0,0,1-.33-.81,7.53,7.53,0,0,1-.11-1.23c0-.64,0-1.24,0-1.8s0-1,0-1.47.05-.74.09-1a.85.85,0,0,1,.38-.52,1.38,1.38,0,0,1,.72-.23l6-.23a.45.45,0,0,1,.18.07c.08,0,.12.1.13.15l0,1c0,.41,0,.83,0,1.27s0,.84,0,1.2,0,.61,0,.78a1.31,1.31,0,0,1-.31.77,1.75,1.75,0,0,1-.63.42l-1.38.39a.82.82,0,0,0,0,.26,3.22,3.22,0,0,0,0,.41,3,3,0,0,0,0,.41.9.9,0,0,0,.07.25l1.11-.08,1.23-.07,1.09-.05c.37,0,.75,0,1.16,0l1.17,0,1,0a.66.66,0,0,0,.08-.26c0-.12,0-.27,0-.42a3.36,3.36,0,0,0,0-.42.71.71,0,0,0-.06-.26l-.66-.11a5.67,5.67,0,0,1-.58-.11,1.86,1.86,0,0,1-.92-.39,1.16,1.16,0,0,1-.32-.79c0-.28-.05-.62-.07-1s0-.8-.06-1.22,0-.82,0-1.19,0-.67,0-.9a.21.21,0,0,1,.08-.16.28.28,0,0,1,.18-.09l3.35-.14c1.08,0,2.16-.09,3.25-.11a.67.67,0,0,1,.23,0,1.12,1.12,0,0,1,.25.12.32.32,0,0,1,.14.16c0,.11,0,.32.06.62s0,.63,0,1,0,.79,0,1.2,0,.77,0,1.11,0,.6,0,.78a1.81,1.81,0,0,1-.17.76,1.5,1.5,0,0,1-.66.67,4.74,4.74,0,0,1-1,.39c-.39.11-.89.23-1.51.35a.9.9,0,0,0,0,.37,4.22,4.22,0,0,0,.07.54,1.2,1.2,0,0,0,.12.38l1.95,0c.65,0,1.26,0,1.82.09a12.26,12.26,0,0,1,1.39.15.16.16,0,0,0,.09,0,.11.11,0,0,0,0-.06c-.07-.4-.13-.86-.18-1.37s-.08-1-.12-1.57-.06-1-.07-1.47l-.26-6.84c0-.56,0-1.16,0-1.78s0-1.23,0-1.81,0-1.11,0-1.55a.63.63,0,0,0-.31-.1,2.41,2.41,0,0,0-.5,0,.71.71,0,0,0-.35.09"/><path class="cls-2" d="M286.4,115.24a4.88,4.88,0,0,1,0,2.51,3.32,3.32,0,0,1-1.19,1.68,5.1,5.1,0,0,1-2.08.9,4.09,4.09,0,0,1-1.72,0,2.52,2.52,0,0,1-1.28-.73,1.71,1.71,0,0,1-.27-.47,6.7,6.7,0,0,1-.26-.76q-.13-.43-.24-.94c-.08-.37-.15-.68-.19-.94a5.93,5.93,0,0,1-.1-.63.19.19,0,0,1,0-.12.17.17,0,0,1,.11-.08l1.8-.38,1.89-.4,1.67-.33,1.11-.2a1.27,1.27,0,0,1,.29,0,.35.35,0,0,1,.2.11,3.72,3.72,0,0,1,.17.34,2.34,2.34,0,0,1,.12.37M269,120.68a3.06,3.06,0,0,1,0-.6,3.94,3.94,0,0,1,.09-.89,2.32,2.32,0,0,1,.36-.85,2.36,2.36,0,0,1,.42-.41,1.5,1.5,0,0,1,.55-.28c.38-.1.85-.23,1.39-.35l1.75-.4,1.92-.41,1.88-.39a.21.21,0,0,1,.16,0,.17.17,0,0,1,.07.1,4.05,4.05,0,0,1,.13.47c0,.18.08.37.12.55a6,6,0,0,1,0,2.79,3.89,3.89,0,0,1-1.24,2,5.09,5.09,0,0,1-2.33,1.09,6.62,6.62,0,0,1-2.57.1,3.46,3.46,0,0,1-1.78-.86A3.16,3.16,0,0,1,269,120.68Zm15.86-13.91a7.78,7.78,0,0,1,.08.9,4.26,4.26,0,0,1,0,.9,1.14,1.14,0,0,1-.32.75,2.09,2.09,0,0,1-.92.46c-.58.15-1.22.3-1.89.45l-2.29.51-3,.63-3.32.71-2.43.49c-.65.13-1.12.21-1.42.26a2.73,2.73,0,0,1-1.09,0,1,1,0,0,1-.58-.47,5.65,5.65,0,0,1-.43-.84c-.13-.33-.29-.72-.45-1.2a.44.44,0,0,0-.32,0,2.33,2.33,0,0,0-.48.1,1.32,1.32,0,0,0-.35.15c.08.38.17.84.28,1.37s.22,1.1.33,1.72.24,1.23.35,1.86.23,1.22.34,1.79l.29,1.52c.09.44.16.79.21,1q.21,1,.53,2a17.07,17.07,0,0,0,.74,1.91,9.27,9.27,0,0,0,.91,1.59,7.41,7.41,0,0,0,2.91,2.51,5.65,5.65,0,0,0,3.54.29,4.57,4.57,0,0,0,2.32-1.18,4.93,4.93,0,0,0,1.22-2.14,9.75,9.75,0,0,0,.33-2.85.11.11,0,0,1,.09-.07.12.12,0,0,1,.11,0,6.11,6.11,0,0,0,1.41,1.82,4.41,4.41,0,0,0,1.72.93,3.81,3.81,0,0,0,1.82.06,4.8,4.8,0,0,0,1.85-.79,3.72,3.72,0,0,0,1.1-1.29,5.14,5.14,0,0,0,.49-1.65,9.26,9.26,0,0,0,0-1.85,14.55,14.55,0,0,0-.29-1.9c-.07-.3-.17-.75-.31-1.34s-.3-1.26-.48-2-.37-1.6-.55-2.47-.32-1.57-.44-2.19l-.29-1.56c-.07-.43-.13-.77-.19-1a.4.4,0,0,0-.2,0l-.35,0-.36.09A.6.6,0,0,0,284.87,106.76Z"/><path class="cls-2" d="M257.07,86a.41.41,0,0,0-.24,0,1.89,1.89,0,0,0-.34.12,2.25,2.25,0,0,0-.32.18c-.09.06-.14.11-.16.16.16.37.4.94.74,1.71s.75,1.75,1.25,3c.33.82.6,1.52.82,2.1s.41,1.08.56,1.52.31.85.47,1.24a.53.53,0,0,0,.35,0,2.34,2.34,0,0,0,.47-.14.92.92,0,0,0,.3-.18c-.09-.42-.16-.77-.21-1.07a5.37,5.37,0,0,1-.07-.8,1.13,1.13,0,0,1,.1-.62,1.11,1.11,0,0,1,.43-.43,5.15,5.15,0,0,1,.8-.41,1.6,1.6,0,0,1,.52-.11,1.42,1.42,0,0,1,.49.07l.85.24,1.65.5,2.16.65,2.35.72,2.26.67,1.86.55c.53.15.92.25,1.16.32a.1.1,0,0,1,.08.07s0,.07,0,.1L274,96.7l-1.9.77-2.14.85-2.1.83-1.77.69-1.15.43a4.13,4.13,0,0,1-.84.23,1.08,1.08,0,0,1-.57-.05,1,1,0,0,1-.41-.33l-.42-.62q-.21-.33-.49-.81a.29.29,0,0,0-.23,0,1.68,1.68,0,0,0-.67.27.37.37,0,0,0-.17.19c.13.3.36.84.7,1.6s.78,1.8,1.32,3.13c.36.89.64,1.63.86,2.23s.39,1.1.53,1.5.26.74.38,1a.36.36,0,0,0,.24,0,2,2,0,0,0,.38-.06,2.18,2.18,0,0,0,.36-.13.44.44,0,0,0,.19-.14c-.13-.51-.23-.94-.29-1.29a5.84,5.84,0,0,1-.11-.9,1,1,0,0,1,.33-.74,3.43,3.43,0,0,1,1-.59l1.32-.58,1.73-.72,1.86-.76,1.73-.69,2-.8,1.42-.57,1.09-.43,1-.39,1.18-.43a3.56,3.56,0,0,1,.8-.21.94.94,0,0,1,.53.07,1.36,1.36,0,0,1,.44.34,5.62,5.62,0,0,1,.45.63c.16.25.33.53.5.82a.41.41,0,0,0,.25,0,1.77,1.77,0,0,0,.35-.1,1.84,1.84,0,0,0,.33-.16.32.32,0,0,0,.16-.15c-.12-.29-.24-.57-.36-.85l-.41-.92-.51-1.17c-.19-.45-.41-1-.66-1.6-.34-.85-.62-1.57-.83-2.15l-.54-1.46c-.14-.4-.27-.75-.4-1.07a.42.42,0,0,0-.33,0,1.75,1.75,0,0,0-.46.17.66.66,0,0,0-.3.25c.08.26.15.49.19.67a4.07,4.07,0,0,1,.1.53,2.9,2.9,0,0,1,0,.5,1,1,0,0,1-.24.68,1.75,1.75,0,0,1-.62.48l-.6.24L278,95l-.25,0a.53.53,0,0,1-.2,0c-.47-.1-1.07-.25-1.8-.46l-2.38-.68-2.61-.78-2.49-.76-2-.61-1.2-.34-.06-.1s0-.08,0-.12l1.24-.5,1.81-.74,2.09-.85,2.09-.83,1.77-.7,1.18-.45a4.67,4.67,0,0,1,.83-.24,1.13,1.13,0,0,1,.58,0,1.16,1.16,0,0,1,.47.34c.12.15.25.34.41.58s.31.48.45.73a.62.62,0,0,0,.35,0,2,2,0,0,0,.46-.17.59.59,0,0,0,.28-.22c-.13-.32-.36-.84-.69-1.57s-.74-1.72-1.25-3c-.26-.65-.48-1.21-.66-1.69L276,80.64c-.13-.36-.25-.69-.36-1s-.22-.6-.35-.91a.49.49,0,0,0-.22,0l-.35.1a1.87,1.87,0,0,0-.33.15.41.41,0,0,0-.18.16l.21.76c.06.22.1.41.15.59a5.28,5.28,0,0,1,.08.57,1,1,0,0,1-.28.79,3.12,3.12,0,0,1-.89.59l-1.09.48-1.76.73-2.16.88-2.32.93-2,.81-1.74.68-1.3.5-.71.26a6.6,6.6,0,0,1-1.1.28,1.26,1.26,0,0,1-.72-.08,1.48,1.48,0,0,1-.55-.53Z"/><path class="cls-2" d="M210.76,247.6l.91-.41.66-.28a3.88,3.88,0,0,1,.58-.17,1.16,1.16,0,0,1,.66,0,1.3,1.3,0,0,1,.49.34,3.34,3.34,0,0,1,.4.5c.21.3.49.74.86,1.3l1.26,2,1.52,2.4,1.63,2.6,1.59,2.55,1.42,2.27a.33.33,0,0,1,.05.17.21.21,0,0,1,0,.13l-.54.36-.83.53-.91.56c-.3.17-.55.31-.77.41a1.51,1.51,0,0,1-.81.2,1.7,1.7,0,0,1-.87-.39,10.61,10.61,0,0,1-1.06-1c-.35-.36-.73-.78-1.12-1.25a.52.52,0,0,0-.21.07,3,3,0,0,0-.34.21c-.12.09-.22.17-.32.25a.5.5,0,0,0-.16.19c.35.66.67,1.32,1,2s.59,1.29.84,1.88.46,1.13.62,1.6a.38.38,0,0,0,.14.11.21.21,0,0,0,.18,0,7.53,7.53,0,0,1,.71-.71,11.61,11.61,0,0,1,1-.78c.38-.27.83-.57,1.35-.89L230.83,258c.23-.14.5-.3.81-.46s.63-.32,1-.47a7.69,7.69,0,0,1,1.1-.35.26.26,0,0,0,.13-.16.28.28,0,0,0,0-.18c-.18-.35-.39-.75-.62-1.21s-.45-.94-.69-1.44-.45-1-.66-1.44-.36-.86-.49-1.2a.44.44,0,0,0-.28,0,2.28,2.28,0,0,0-.41.11,2.56,2.56,0,0,0-.39.16.45.45,0,0,0-.19.15c.14.58.24,1.13.33,1.66s.13,1,.17,1.45a2.54,2.54,0,0,1-.13,1.2,1.69,1.69,0,0,1-.64.73l-.62.43-.79.51-.78.47-.58.31a.18.18,0,0,1-.16,0,.47.47,0,0,1-.13-.12l-1.74-2.77-1.76-2.81-1.68-2.7c-.54-.87-1-1.69-1.49-2.45s-.86-1.44-1.2-2a5,5,0,0,1-.46-1.07,1.24,1.24,0,0,1,0-.73,1.65,1.65,0,0,1,.44-.62,4.76,4.76,0,0,1,.42-.41l.58-.5.66-.53a.55.55,0,0,0-.08-.33,2.34,2.34,0,0,0-.26-.41.65.65,0,0,0-.28-.23l-1.14.75-1.63,1.07c-.63.41-1.38.9-2.26,1.44s-1.87,1.14-2.67,1.61-1.48.87-2.06,1.23a.7.7,0,0,0,.08.34,2.44,2.44,0,0,0,.24.44.59.59,0,0,0,.24.24"/><path class="cls-2" d="M250.17,239.8c-.25.2-.5.39-.75.57a5,5,0,0,1-.73.44,1.6,1.6,0,0,1-.55.18.94.94,0,0,1-.52-.1,3.13,3.13,0,0,1-.61-.45c-.24-.21-.52-.47-.85-.8s-.7-.69-1.1-1.09l-1.26-1.29-1.31-1.36-2.38-2.47c-.69-.71-1.29-1.36-1.82-1.92s-1-1.09-1.42-1.58a3,3,0,0,1-.52-.7,1.1,1.1,0,0,1-.12-.59,1.35,1.35,0,0,1,.2-.55c.12-.21.31-.49.57-.84l.94-1.23a1.2,1.2,0,0,0-.19-.26l-.31-.33a2.1,2.1,0,0,0-.3-.25c-.45.43-.92.9-1.42,1.41l-1.51,1.52c-.5.5-1,1-1.41,1.39q-2,1.87-3.76,3.53t-3.35,3.13a6.1,6.1,0,0,0-.72.8,1.1,1.1,0,0,0-.23.49.74.74,0,0,0,.05.33,7.58,7.58,0,0,0,.34.9c.15.35.32.71.52,1.09s.38.75.58,1.11l.53,1c.16.28.28.49.37.63a1,1,0,0,0,.38-.09,4.09,4.09,0,0,0,.5-.23,1.13,1.13,0,0,0,.33-.23,16.26,16.26,0,0,1-.59-1.84,8.57,8.57,0,0,1-.29-1.67,3.13,3.13,0,0,1,.05-1,2.09,2.09,0,0,1,.38-.78,7.51,7.51,0,0,1,.84-.9c.46-.44.9-.85,1.32-1.22s.78-.69,1.11-1,.59-.45.78-.58a.85.85,0,0,1,.64-.07,1.37,1.37,0,0,1,.65.38l4.16,4.31a.45.45,0,0,1,.07.19.25.25,0,0,1,0,.2l-.73.7-.92.88-.88.81c-.27.24-.46.41-.59.51a1.32,1.32,0,0,1-.78.28,1.76,1.76,0,0,1-.73-.19l-1.21-.77a.81.81,0,0,0-.22.14,3.24,3.24,0,0,0-.3.28,3,3,0,0,0-.27.3.9.9,0,0,0-.14.22l.8.78.87.87.76.78c.26.27.51.56.77.86l.76.89.64.74a.65.65,0,0,0,.25-.12c.1-.07.22-.16.33-.26a3.34,3.34,0,0,0,.3-.3.72.72,0,0,0,.15-.22l-.35-.56a5.86,5.86,0,0,1-.3-.51,1.85,1.85,0,0,1-.32-.94,1.16,1.16,0,0,1,.38-.77c.19-.21.43-.45.7-.73l.87-.86.86-.82.65-.62a.21.21,0,0,1,.17,0,.28.28,0,0,1,.19.08l2.33,2.41c.76.78,1.51,1.56,2.25,2.35a.68.68,0,0,1,.12.2,1.16,1.16,0,0,1,.08.27.33.33,0,0,1,0,.21c-.07.09-.22.24-.42.45l-.73.72-.86.83-.82.75c-.25.22-.45.39-.59.5a1.82,1.82,0,0,1-.68.38,1.5,1.5,0,0,1-.94,0,4.72,4.72,0,0,1-.94-.47c-.35-.22-.77-.51-1.27-.89a.89.89,0,0,0-.3.22,4.34,4.34,0,0,0-.36.41,1.18,1.18,0,0,0-.2.35l1.27,1.48c.42.5.8,1,1.15,1.42a12.17,12.17,0,0,1,.81,1.13.16.16,0,0,0,.1,0h.07c.25-.32.56-.67.9-1.05s.72-.76,1.09-1.13l1-1,4.92-4.75c.4-.39.84-.79,1.3-1.21l1.33-1.22c.43-.39.82-.75,1.14-1.06a.63.63,0,0,0-.14-.3,2.41,2.41,0,0,0-.32-.38.72.72,0,0,0-.3-.2"/><path class="cls-2" d="M241.79,221.93l.7-.71c.19-.19.36-.36.51-.49a3.88,3.88,0,0,1,.48-.37,1.16,1.16,0,0,1,.63-.2,1.3,1.3,0,0,1,.58.14,3.37,3.37,0,0,1,.56.32l1.27.9,1.88,1.38,2.28,1.69,2.46,1.84,2.4,1.81,2.14,1.61a.34.34,0,0,1,.11.14.21.21,0,0,1,0,.13c-.07.12-.2.29-.37.53l-.58.8-.65.85c-.22.27-.4.49-.57.67a1.51,1.51,0,0,1-.69.48,1.7,1.7,0,0,1-1,0,10.6,10.6,0,0,1-1.33-.51c-.46-.21-1-.46-1.5-.76a.51.51,0,0,0-.17.15,3,3,0,0,0-.24.31c-.08.13-.15.24-.21.35a.5.5,0,0,0-.08.24c.56.49,1.1,1,1.64,1.49s1,1,1.46,1.45.83.89,1.15,1.27a.38.38,0,0,0,.17,0,.21.21,0,0,0,.17,0,7.61,7.61,0,0,1,.41-.92,11.62,11.62,0,0,1,.64-1.08c.26-.39.57-.83.93-1.32l7.22-9.64c.16-.22.36-.46.59-.72s.48-.53.75-.79a7.65,7.65,0,0,1,.9-.72.26.26,0,0,0,.07-.19.28.28,0,0,0,0-.18c-.3-.26-.63-.55-1-.9s-.76-.71-1.16-1.1-.77-.75-1.13-1.1-.65-.67-.89-.94a.45.45,0,0,0-.27.08,2.3,2.3,0,0,0-.34.25,2.55,2.55,0,0,0-.3.29.46.46,0,0,0-.13.21c.34.49.64,1,.9,1.43s.49.89.68,1.29a2.54,2.54,0,0,1,.31,1.16,1.69,1.69,0,0,1-.33.91c-.11.17-.25.38-.42.63l-.55.76-.56.72c-.18.22-.32.39-.43.5a.18.18,0,0,1-.16,0,.47.47,0,0,1-.16-.06l-2.62-2-2.66-2-2.54-1.92-2.28-1.75c-.71-.54-1.32-1-1.86-1.47a5.11,5.11,0,0,1-.82-.83,1.25,1.25,0,0,1-.27-.68,1.66,1.66,0,0,1,.18-.74,4.81,4.81,0,0,1,.24-.53c.11-.21.23-.43.37-.68l.43-.74a.55.55,0,0,0-.19-.29,2.36,2.36,0,0,0-.39-.29.65.65,0,0,0-.35-.12c-.22.29-.49.67-.8,1.11l-1.13,1.58c-.44.61-1,1.34-1.58,2.16s-1.33,1.74-1.91,2.46-1.07,1.35-1.48,1.89a.7.7,0,0,0,.2.28,2.43,2.43,0,0,0,.38.33.59.59,0,0,0,.31.14"/><path class="cls-2" d="M262.62,187.69a.41.41,0,0,0-.16-.18,1.86,1.86,0,0,0-.32-.18,2.24,2.24,0,0,0-.34-.13.39.39,0,0,0-.22,0c-.18.36-.46.92-.83,1.67s-.85,1.7-1.46,2.86c-.42.78-.78,1.44-1.08,2l-.8,1.41c-.23.4-.45.79-.65,1.16a.53.53,0,0,0,.22.28,2.34,2.34,0,0,0,.41.27.91.91,0,0,0,.33.11c.26-.34.48-.62.69-.85a5.45,5.45,0,0,1,.56-.57,1.13,1.13,0,0,1,.54-.32,1.11,1.11,0,0,1,.6.05,5.17,5.17,0,0,1,.82.35,1.61,1.61,0,0,1,.42.33,1.42,1.42,0,0,1,.26.42l.36.8.68,1.58.89,2.07,1,2.26c.33.76.64,1.48.94,2.16s.55,1.27.78,1.78.39.87.51,1.09a.1.1,0,0,1,0,.11s-.06,0-.1,0l-1.32-.69-1.81-1-2-1.09-2-1.08-1.67-.91-1.07-.61a4.11,4.11,0,0,1-.72-.49,1.09,1.09,0,0,1-.33-.47,1,1,0,0,1,0-.53l.21-.72q.11-.37.3-.9a.29.29,0,0,0-.13-.2,1.67,1.67,0,0,0-.64-.34.37.37,0,0,0-.25,0l-.77,1.56q-.55,1.12-1.55,3-.68,1.27-1.15,2.09l-.81,1.37c-.22.36-.4.68-.54,1a.36.36,0,0,0,.12.21,2.07,2.07,0,0,0,.29.25,2.2,2.2,0,0,0,.33.19.43.43,0,0,0,.23.05c.3-.43.57-.78.8-1.05a5.76,5.76,0,0,1,.61-.66,1,1,0,0,1,.78-.23,3.46,3.46,0,0,1,1.07.36l1.29.64,1.66.86,1.78.93,1.64.87,1.89,1,1.35.72,1,.56,1,.53,1.09.63a3.57,3.57,0,0,1,.68.48.93.93,0,0,1,.29.45,1.35,1.35,0,0,1,0,.56,5.68,5.68,0,0,1-.19.75c-.09.29-.19.59-.31.92a.4.4,0,0,0,.16.19,1.76,1.76,0,0,0,.3.2,1.81,1.81,0,0,0,.33.15.31.31,0,0,0,.22,0c.15-.28.29-.55.42-.82l.44-.9.57-1.14c.22-.44.48-.94.8-1.54.43-.81.8-1.48,1.11-2l.77-1.35c.21-.36.4-.69.56-1,0-.08-.07-.17-.2-.27a1.74,1.74,0,0,0-.42-.24.65.65,0,0,0-.38-.06c-.15.23-.28.42-.39.58a4,4,0,0,1-.34.42,3,3,0,0,1-.37.34,1,1,0,0,1-.67.25,1.74,1.74,0,0,1-.76-.17l-.57-.3-.13-.1a2.45,2.45,0,0,1-.17-.18.54.54,0,0,1-.11-.17c-.22-.43-.49-1-.81-1.67s-.65-1.43-1-2.25-.72-1.66-1.08-2.5-.71-1.64-1-2.4l-.83-1.94q-.36-.82-.51-1.14l0-.11s.05-.05.12,0l1.18.63,1.73.91,2,1.05,2,1.06,1.68.91,1.1.62a4.66,4.66,0,0,1,.72.48,1.13,1.13,0,0,1,.36.46,1.16,1.16,0,0,1,0,.58,7,7,0,0,1-.18.69c-.08.27-.17.55-.27.81a.63.63,0,0,0,.23.26,2.06,2.06,0,0,0,.43.24.6.6,0,0,0,.35.07c.16-.31.41-.82.76-1.54s.84-1.67,1.47-2.87c.33-.62.62-1.15.87-1.59l.66-1.16.53-.92q.24-.41.47-.85s-.06-.09-.15-.16l-.3-.2a1.84,1.84,0,0,0-.33-.15.41.41,0,0,0-.24,0l-.44.65-.36.49a5.14,5.14,0,0,1-.38.43,1,1,0,0,1-.79.3,3.1,3.1,0,0,1-1-.3l-1.07-.52-1.69-.87L271,195.47l-2.2-1.17-1.92-1-1.64-.89-1.22-.68-.66-.38a6.57,6.57,0,0,1-.93-.66,1.27,1.27,0,0,1-.4-.6,1.48,1.48,0,0,1,.05-.76Z"/><polygon class="cls-3" points="233.23 205.06 242.62 211.64 244.1 209.52 236.45 204.16 238.94 200.61 237.2 199.39 233.23 205.06"/><path class="cls-3" d="M230.66,211a2.31,2.31,0,0,1,1-.69,2.61,2.61,0,0,1,1.19-.1,4,4,0,0,1,1.27.4,5.94,5.94,0,0,1,1.23.83,6.17,6.17,0,0,1,1,1.16,4,4,0,0,1,.58,1.22,2.61,2.61,0,0,1,0,1.19,2.38,2.38,0,0,1-.55,1.08,2.44,2.44,0,0,1-1,.7,2.56,2.56,0,0,1-1.17.14,3.74,3.74,0,0,1-1.28-.38,6,6,0,0,1-1.3-.88,6,6,0,0,1-1-1.16,4,4,0,0,1-.58-1.22,2.56,2.56,0,0,1,0-1.2,2.42,2.42,0,0,1,.55-1.09m-1.52-1.39a5.76,5.76,0,0,0-1.16,2,5.13,5.13,0,0,0-.2,2.15,5.7,5.7,0,0,0,.7,2.1,7.11,7.11,0,0,0,1.54,1.87,7.29,7.29,0,0,0,1.56,1,5.87,5.87,0,0,0,1.67.54,5,5,0,0,0,1.68,0,4.84,4.84,0,0,0,1.6-.59,5.72,5.72,0,0,0,1.44-1.21,6.23,6.23,0,0,0,1.2-2,4.92,4.92,0,0,0,.27-2.12,5.31,5.31,0,0,0-.68-2.11,7.58,7.58,0,0,0-1.65-2,7.23,7.23,0,0,0-1.53-1,5.93,5.93,0,0,0-1.65-.54,5,5,0,0,0-1.68,0,4.86,4.86,0,0,0-1.62.6A5.94,5.94,0,0,0,229.14,209.61Z"/><path class="cls-3" d="M222.84,219.34a2.3,2.3,0,0,1,.25-.33c.12-.13.27-.29.45-.47a2.32,2.32,0,0,1,1.4-.73,1.54,1.54,0,0,1,1.24.52,1.8,1.8,0,0,1,.5.91,1.72,1.72,0,0,1-.11,1,3,3,0,0,1-.7,1l-.37.34a2.52,2.52,0,0,1-.3.22Zm4.75,8.61,1.85-1.78-2.86-3a3,3,0,0,0,.33-.24l.36-.32a7,7,0,0,0,1.31-1.68,4.24,4.24,0,0,0,.53-1.78,3,3,0,0,0-.25-1.39,4.29,4.29,0,0,0-.88-1.3,3.53,3.53,0,0,0-1.3-.87,3,3,0,0,0-1.42-.19,3.84,3.84,0,0,0-1.52.51,8.14,8.14,0,0,0-1.64,1.27q-.85.82-1.42,1.47a14.53,14.53,0,0,0-.93,1.14Z"/><polygon class="cls-3" points="210.98 226.66 218.04 235.69 220.08 234.1 217.12 230.32 220.49 227.69 223.44 231.47 225.48 229.88 218.42 220.84 216.38 222.44 219.09 225.91 215.73 228.54 213.02 225.06 210.98 226.66"/><path class="cls-3" d="M208.56,236.33l-.75-2.41c-.07-.22-.15-.45-.24-.7l-.27-.74c-.09-.25-.18-.48-.25-.7l0,0,.55.51.58.53.56.5,1.92,1.65Zm3.5,0,2.35,2,2.35-1.53-9.24-7.67L204.66,231,208,242.52l2.24-1.45-.92-2.91Z"/><polygon class="cls-3" points="196.45 235.53 201.66 245.75 203.96 244.57 199.72 236.25 203.58 234.28 202.62 232.38 196.45 235.53"/><path class="cls-3" d="M192.19,244.7l-.37-2.5c0-.23-.08-.47-.13-.73s-.1-.52-.15-.77-.1-.5-.14-.73h0l.46.59.49.62.48.58,1.64,1.93Zm3.45.59,2,2.33,2.57-1.14-7.93-9-3.11,1.38,1.48,11.9,2.44-1.09-.45-3Z"/><polygon class="cls-3" points="184.6 252.66 187.05 251.82 184.02 243.03 186.98 242.01 186.27 239.96 177.94 242.82 178.65 244.88 181.58 243.88 184.6 252.66"/><path class="cls-3" d="M162.83,246l5.18,7.16a1.06,1.06,0,0,1,.13.25.52.52,0,0,1,0,.28,1.79,1.79,0,0,1-.23.55,1.82,1.82,0,0,1-.45.48,1.63,1.63,0,0,1-.67.28l-.48.06h-.37l.18,2.08.36,0h.41l.52-.07a3.7,3.7,0,0,0,1.65-.7,4.11,4.11,0,0,0,1.09-1.32,7.64,7.64,0,0,0,.59-1.38q.26-.78.46-1.67c.14-.59.27-1.2.39-1.83l1.15-5.94-2.7.48-.52,4.23c0,.51-.09,1-.12,1.35l-.09,1h-.05c-.19-.32-.38-.64-.57-1s-.39-.68-.62-1l-2.36-3.77Z"/><polygon class="cls-3" points="152.24 246.83 153.03 258.26 155.62 258.08 155.28 253.3 159.54 253 159.88 257.79 162.46 257.61 161.66 246.17 159.08 246.35 159.38 250.74 155.12 251.04 154.82 246.65 152.24 246.83"/><path class="cls-3" d="M146.06,248.73a2.3,2.3,0,0,1,1.19.31,2.59,2.59,0,0,1,.86.83,4,4,0,0,1,.53,1.23,5.89,5.89,0,0,1,.18,1.48,6.15,6.15,0,0,1-.18,1.55,4,4,0,0,1-.54,1.24,2.61,2.61,0,0,1-.86.82,2.38,2.38,0,0,1-1.17.29,2.44,2.44,0,0,1-1.17-.28,2.57,2.57,0,0,1-.88-.79,3.74,3.74,0,0,1-.55-1.21,5.94,5.94,0,0,1-.19-1.56,6,6,0,0,1,.19-1.55,4,4,0,0,1,.54-1.24,2.55,2.55,0,0,1,.88-.82,2.42,2.42,0,0,1,1.18-.29m.05-2.06a5.76,5.76,0,0,0-2.29.45,5.13,5.13,0,0,0-1.76,1.26,5.69,5.69,0,0,0-1.13,1.91,7.1,7.1,0,0,0-.4,2.39,7.26,7.26,0,0,0,.24,1.87,5.84,5.84,0,0,0,.69,1.61,5,5,0,0,0,1.11,1.26,4.84,4.84,0,0,0,1.5.82,5.69,5.69,0,0,0,1.86.3,6.22,6.22,0,0,0,2.3-.41,4.92,4.92,0,0,0,1.78-1.19,5.32,5.32,0,0,0,1.15-1.9,7.58,7.58,0,0,0,.41-2.54,7.26,7.26,0,0,0-.23-1.83,5.92,5.92,0,0,0-.68-1.6,5,5,0,0,0-1.11-1.26A4.83,4.83,0,0,0,148,247,5.93,5.93,0,0,0,146.11,246.67Z"/><rect class="cls-3" x="126.03" y="248.56" width="1.72" height="4.46" transform="translate(-140.67 336.85) rotate(-80.99)"/><path class="cls-3" d="M118.17,249.9l1.29-2.17c.12-.2.24-.41.36-.65l.37-.69.35-.66h0c0,.24,0,.48,0,.75s0,.53,0,.79,0,.51,0,.75l.06,2.53Zm2.31,2.63.09,3.07,2.71.73-.48-12-3.29-.88-6.34,10.17,2.58.69,1.55-2.63Z"/><polygon class="cls-3" points="106.87 239.06 102.95 249.84 105.38 250.72 107.02 246.22 111.03 247.68 109.39 252.19 111.82 253.07 115.75 242.29 113.32 241.41 111.81 245.55 107.8 244.09 109.3 239.95 106.87 239.06"/><rect class="cls-3" x="100.87" y="240.44" width="1.72" height="4.46" transform="translate(-161.39 241.46) rotate(-66.99)"/><path class="cls-3" d="M95.8,235.7l.38.16.62.32a2.33,2.33,0,0,1,1,1,1.15,1.15,0,0,1-.06,1.1,1.21,1.21,0,0,1-.57.53,1.51,1.51,0,0,1-.85.09,3.37,3.37,0,0,1-1.09-.41L94.5,238Zm-2.19,4,.77.43a4.38,4.38,0,0,1,.75.52,2.48,2.48,0,0,1,.51.61,1.42,1.42,0,0,1,.2.68,1.46,1.46,0,0,1-.2.73,1.59,1.59,0,0,1-.53.59,1.44,1.44,0,0,1-.67.22,2.25,2.25,0,0,1-.76-.09,3.66,3.66,0,0,1-.78-.33l-.5-.28-.36-.24Zm-4.68,3.14c.23.18.55.4.94.66s.87.54,1.43.85a14.82,14.82,0,0,0,1.81.86,7.11,7.11,0,0,0,1.46.41,3.76,3.76,0,0,0,1.18,0,3.35,3.35,0,0,0,.87-.27,3,3,0,0,0,.76-.51A3.11,3.11,0,0,0,98,244a2.83,2.83,0,0,0,.37-1.28,2.75,2.75,0,0,0-.24-1.22,3.35,3.35,0,0,0-.76-1.05l0,0a3.46,3.46,0,0,0,1.23,0,2.47,2.47,0,0,0,1-.43,2.43,2.43,0,0,0,.65-.75,2.6,2.6,0,0,0,.31-.93,2.35,2.35,0,0,0,0-.9,2.66,2.66,0,0,0-.36-.82,4.11,4.11,0,0,0-.61-.78,6.21,6.21,0,0,0-.86-.71c-.34-.23-.74-.47-1.2-.73s-.77-.41-1.15-.6-.74-.35-1.07-.49-.6-.25-.83-.32Z"/><path class="cls-3" d="M88.25,231a2.3,2.3,0,0,1,.81.92,2.6,2.6,0,0,1,.25,1.17,4,4,0,0,1-.25,1.31,5.91,5.91,0,0,1-.68,1.33,6.17,6.17,0,0,1-1,1.18,4,4,0,0,1-1.14.73,2.62,2.62,0,0,1-1.17.19,2.38,2.38,0,0,1-1.14-.41,2.43,2.43,0,0,1-.81-.89,2.56,2.56,0,0,1-.29-1.15,3.75,3.75,0,0,1,.22-1.31,6.43,6.43,0,0,1,1.73-2.58,4,4,0,0,1,1.14-.72,2.55,2.55,0,0,1,1.18-.19,2.42,2.42,0,0,1,1.15.42m1.19-1.68a5.76,5.76,0,0,0-2.16-.91,5.13,5.13,0,0,0-2.16.06,5.69,5.69,0,0,0-2,.95,7.11,7.11,0,0,0-1.66,1.76,7.26,7.26,0,0,0-.85,1.68,5.86,5.86,0,0,0-.33,1.72,5,5,0,0,0,.22,1.66,4.83,4.83,0,0,0,.79,1.52A5.7,5.7,0,0,0,82.66,239a6.23,6.23,0,0,0,2.14.94,4.91,4.91,0,0,0,2.14,0,5.32,5.32,0,0,0,2-.93,7.58,7.58,0,0,0,1.75-1.88,7.23,7.23,0,0,0,.83-1.64,5.94,5.94,0,0,0,.33-1.7,5,5,0,0,0-.21-1.67,4.85,4.85,0,0,0-.79-1.54A5.93,5.93,0,0,0,89.45,229.28Z"/><polygon class="cls-3" points="72.81 231.89 74.79 233.55 80.77 226.44 83.16 228.45 84.56 226.78 77.81 221.12 76.41 222.78 78.78 224.77 72.81 231.89"/><path class="cls-3" d="M70.36,226.23a4.19,4.19,0,0,1-.58-.3,6.27,6.27,0,0,1-.63-.44,6.85,6.85,0,0,1-.6-.53,4,4,0,0,1-1.07-1.72,3.05,3.05,0,0,1,0-1.8,4.31,4.31,0,0,1,1.1-1.72,4.68,4.68,0,0,1,1.38-1,3.26,3.26,0,0,1,1.39-.29,3.21,3.21,0,0,1,1.32.32,4.23,4.23,0,0,1,1.17.85,5.66,5.66,0,0,1,.79,1,4.81,4.81,0,0,1,.45.87l1.83-1.06a3,3,0,0,0-.28-.63,6.79,6.79,0,0,0-.55-.81,8.94,8.94,0,0,0-.81-.92,7.54,7.54,0,0,0-1.58-1.22,6.25,6.25,0,0,0-1.75-.68,5.37,5.37,0,0,0-1.83-.08,5.51,5.51,0,0,0-1.82.57,6.94,6.94,0,0,0-1.74,1.29,6.66,6.66,0,0,0-1.34,1.88,5.09,5.09,0,0,0-.49,2.09,5.14,5.14,0,0,0,.47,2.18,7.35,7.35,0,0,0,1.54,2.16,10.19,10.19,0,0,0,1,.84,8.21,8.21,0,0,0,.84.57,3.77,3.77,0,0,0,.62.3Z"/><path class="cls-3" d="M65.66,210.77a2.3,2.3,0,0,1,.51,1.12,2.6,2.6,0,0,1-.11,1.19,4,4,0,0,1-.62,1.18,5.91,5.91,0,0,1-1,1.07,6.15,6.15,0,0,1-1.32.83,4,4,0,0,1-1.3.36,2.61,2.61,0,0,1-1.18-.16,2.38,2.38,0,0,1-1-.72,2.45,2.45,0,0,1-.52-1.09,2.57,2.57,0,0,1,.06-1.18,3.74,3.74,0,0,1,.6-1.19,5.93,5.93,0,0,1,1.09-1.13,6,6,0,0,1,1.32-.83,4,4,0,0,1,1.3-.35,2.55,2.55,0,0,1,1.19.17,2.42,2.42,0,0,1,1,.73m1.63-1.26a5.76,5.76,0,0,0-1.8-1.5,5.13,5.13,0,0,0-2.08-.57,5.7,5.7,0,0,0-2.19.32A7.12,7.12,0,0,0,59.11,209a7.25,7.25,0,0,0-1.3,1.36,5.85,5.85,0,0,0-.82,1.55,5,5,0,0,0-.28,1.65,4.84,4.84,0,0,0,.31,1.68,5.7,5.7,0,0,0,.94,1.63,6.23,6.23,0,0,0,1.77,1.53,4.92,4.92,0,0,0,2,.63,5.3,5.3,0,0,0,2.2-.3,7.58,7.58,0,0,0,2.23-1.28,7.25,7.25,0,0,0,1.28-1.33,6,6,0,0,0,.82-1.53,5,5,0,0,0,.29-1.66,4.86,4.86,0,0,0-.31-1.7A6,6,0,0,0,67.29,209.52Z"/><path class="cls-3" d="M58.51,201.65a2.29,2.29,0,0,1,.28.3c.11.14.24.31.38.53a2.31,2.31,0,0,1,.48,1.5,1.53,1.53,0,0,1-.73,1.13,1.81,1.81,0,0,1-1,.33,1.72,1.72,0,0,1-1-.28,3,3,0,0,1-.85-.86c-.11-.16-.2-.3-.27-.42a2.66,2.66,0,0,1-.16-.34Zm-9.31,3.18L50.64,207l3.41-2.3a3,3,0,0,0,.18.36l.26.41A7,7,0,0,0,55.91,207a4.24,4.24,0,0,0,1.66.83,3,3,0,0,0,1.42,0,4.28,4.28,0,0,0,1.43-.64,3.52,3.52,0,0,0,1.08-1.13,3,3,0,0,0,.43-1.37,3.84,3.84,0,0,0-.23-1.58,8.17,8.17,0,0,0-1-1.84q-.66-1-1.2-1.66a14.55,14.55,0,0,0-1-1.12Z"/><path class="cls-2" d="M164.77,204.71c.47.07.85.14,1.15.21a1.8,1.8,0,0,1,.74.36,2.28,2.28,0,0,1,.54.78,13,13,0,0,1,.56,1.5l.57,1.73.65,2,.66,2,.6,1.9c.18.59.34,1.12.47,1.58s.23.82.28,1.07a.73.73,0,0,1,0,.19,1.5,1.5,0,0,1,0,.23.36.36,0,0,1-.05.15,6.42,6.42,0,0,1-.79,1.07,2.15,2.15,0,0,1-.75.53,2.2,2.2,0,0,1-.83.14,3.92,3.92,0,0,1-.9-.13,7.85,7.85,0,0,1-1.06-.34,6.47,6.47,0,0,1-1-.48l-.12.21c0,.09-.09.2-.13.31a1.34,1.34,0,0,0-.08.29,5.28,5.28,0,0,0,0,1,4,4,0,0,0,.19.9,1.5,1.5,0,0,0,.36.61,2,2,0,0,0,.57.31,2,2,0,0,0,.68.11,3.32,3.32,0,0,0,1.49-.37,6.13,6.13,0,0,0,1.38-1,12.18,12.18,0,0,0,1.25-1.31c.4-.48.77-1,1.12-1.45q.88-1.19,1.78-2.6c.59-.94,1.19-1.93,1.78-3s1.17-2.08,1.74-3.14,1.11-2.11,1.64-3.13a7.75,7.75,0,0,1,.5-.87,2.69,2.69,0,0,1,.6-.65,3.16,3.16,0,0,1,.89-.47,8.1,8.1,0,0,1,1.38-.32.34.34,0,0,0,.1-.18,1.88,1.88,0,0,0,.06-.32,1.82,1.82,0,0,0,0-.32.27.27,0,0,0-.05-.18l-1.3,0-1.81,0h-1.33l-1.09,0-1.05,0a.31.31,0,0,0-.11.19,1.56,1.56,0,0,0-.07.33,2,2,0,0,0,0,.33c0,.1,0,.16,0,.19.34,0,.64.09.9.15a4.69,4.69,0,0,1,.64.17.61.61,0,0,1,.4.37,1.06,1.06,0,0,1-.07.73c-.09.24-.23.57-.41,1s-.4.89-.65,1.42-.52,1.09-.81,1.67-.59,1.16-.9,1.73-.62,1.1-.92,1.6c0,.07-.09.1-.12.09a.12.12,0,0,1-.08-.09c0-.13-.14-.38-.26-.73s-.27-.79-.44-1.29l-.53-1.62c-.18-.57-.37-1.14-.54-1.69s-.33-1.07-.47-1.54-.24-.84-.31-1.14a.46.46,0,0,1,.07-.28.62.62,0,0,1,.25-.23l.35-.1.48-.12.5-.1a.3.3,0,0,0,.09-.18,1.83,1.83,0,0,0,.05-.32,2.41,2.41,0,0,0,0-.32.4.4,0,0,0,0-.19h-.51l-.95,0-1.25,0h-2.73l-1.24,0-1,0h-.65a1,1,0,0,0-.09.29,3.15,3.15,0,0,0-.06.43.54.54,0,0,0,0,.29m-14.44,13.58a.21.21,0,0,1,0,.08s0,.06-.05.06a3.23,3.23,0,0,1-1.19-.82,4,4,0,0,1-.84-1.49,7.67,7.67,0,0,1-.32-2.34,12,12,0,0,1,.3-2.71,8.08,8.08,0,0,1,.85-2.2,5.12,5.12,0,0,1,1.32-1.56,3.77,3.77,0,0,1,1.71-.76.12.12,0,0,1,.12.12Zm5.75-11.53a.16.16,0,0,1,.05-.08.13.13,0,0,1,.12,0,3.1,3.1,0,0,1,1.31,1,4.23,4.23,0,0,1,.72,1.58,8.38,8.38,0,0,1,.22,2.07,12.31,12.31,0,0,1-.31,2.82,8.61,8.61,0,0,1-.85,2.26,5.12,5.12,0,0,1-1.31,1.55,3.34,3.34,0,0,1-1.68.69.13.13,0,0,1-.12-.08.36.36,0,0,1,0-.13Zm-.15,15-.79-.14a4.1,4.1,0,0,1-.61-.16,1,1,0,0,1-.49-.21.66.66,0,0,1-.16-.47,6.84,6.84,0,0,1,.08-1c.35,0,.74-.08,1.18-.15s.91-.16,1.4-.28a10.76,10.76,0,0,0,1.5-.48,8.5,8.5,0,0,0,1.46-.77,7,7,0,0,0,1.7-1.6,7.09,7.09,0,0,0,1.1-2.15,8.7,8.7,0,0,0,.38-2.68,6.1,6.1,0,0,0-.51-2.55,5.17,5.17,0,0,0-1.38-1.83,6.91,6.91,0,0,0-2-1.19,10.44,10.44,0,0,0-2.43-.6,4.56,4.56,0,0,1,.19-.82,1,1,0,0,1,.33-.47,1.51,1.51,0,0,1,.61-.25l1.07-.18a.62.62,0,0,0,.11-.27,3.2,3.2,0,0,0,.06-.43.65.65,0,0,0,0-.31l-1.09,0-1.4,0h-1.45c-.78,0-1.5,0-2.17,0l-1.8-.05a.38.38,0,0,0-.08.18,2.47,2.47,0,0,0-.06.32,2.36,2.36,0,0,0,0,.32.43.43,0,0,0,0,.2l.53.07.39.07a1.69,1.69,0,0,1,.57.21.57.57,0,0,1,.25.42,2.8,2.8,0,0,1,0,.82,14.31,14.31,0,0,0-1.45.22,13,13,0,0,0-1.68.44,9.22,9.22,0,0,0-1.64.73,7.59,7.59,0,0,0-2,1.58,6.94,6.94,0,0,0-1.37,2.23,8,8,0,0,0-.5,2.86,6.4,6.4,0,0,0,.77,3.24,5.34,5.34,0,0,0,2.2,2.07,10,10,0,0,0,3.46,1,6.24,6.24,0,0,1-.26,1,1,1,0,0,1-.35.5,1.67,1.67,0,0,1-.61.21l-1.27.21a.84.84,0,0,0-.1.29,2.49,2.49,0,0,0,0,.42.85.85,0,0,0,0,.33l.94,0,1.1,0,1.12,0h2l1.12,0,1.06,0,.84,0a.81.81,0,0,0,.13-.29,2.82,2.82,0,0,0,.11-.42C156,221.86,156,221.77,155.93,221.73Zm-24.84-.83a2.66,2.66,0,0,1-1.66-.54,3.54,3.54,0,0,1-1.13-1.67,8.61,8.61,0,0,1-.42-2.86,20.55,20.55,0,0,1,.18-2.54,21.67,21.67,0,0,1,.49-2.58,16.49,16.49,0,0,1,.79-2.4,10.43,10.43,0,0,1,1.07-2,5.07,5.07,0,0,1,1.33-1.36,2.82,2.82,0,0,1,1.59-.5,2.4,2.4,0,0,1,1.7.62,3.62,3.62,0,0,1,1,1.78,10.81,10.81,0,0,1,.32,2.85c0,.7,0,1.45-.12,2.26a25,25,0,0,1-.36,2.48,18.5,18.5,0,0,1-.65,2.41,9.85,9.85,0,0,1-1,2.07,4.85,4.85,0,0,1-1.36,1.45A3.18,3.18,0,0,1,131.09,220.9Zm-15.71-16.21.61.1.46.1.47.12a.77.77,0,0,1,.49.42,1.58,1.58,0,0,1,.07.76c0,.32,0,.65-.09,1s-.09.77-.15,1.22-.14,1-.23,1.57-.2,1.28-.33,2.07c-.08.48-.16,1-.25,1.53l-.27,1.59c-.09.52-.18,1-.26,1.5s-.16.89-.23,1.26-.13.65-.18.85a3.76,3.76,0,0,1-.3,1,1.19,1.19,0,0,1-.42.49,1.45,1.45,0,0,1-.55.2l-.65.14c-.25,0-.53.09-.83.12a1,1,0,0,0-.07.29,3.89,3.89,0,0,0,0,.42,1.2,1.2,0,0,0,0,.31H114l1.63,0,1.66,0c.75,0,1.48,0,2.18,0l2.2.05a.52.52,0,0,0,.12-.27,2.82,2.82,0,0,0,.06-.42,1.78,1.78,0,0,0,0-.33l-.88-.15a3.49,3.49,0,0,1-.63-.15.86.86,0,0,1-.54-.35,1,1,0,0,1-.15-.53,4.25,4.25,0,0,1,0-.57q.06-.5.18-1.27c.08-.51.18-1.14.3-1.88l.41-2.6h1.7l.85,0,.56,0c0,.24-.06.51-.08.83s0,.67-.06,1.07a8.93,8.93,0,0,0,.79,3.77,5.5,5.5,0,0,0,2.29,2.46,7.78,7.78,0,0,0,3.85.88,11.26,11.26,0,0,0,2.79-.33,8.5,8.5,0,0,0,2.53-1.11,9.44,9.44,0,0,0,2.23-2.07,9.75,9.75,0,0,0,1.5-2.31,12.21,12.21,0,0,0,.87-2.64,15.86,15.86,0,0,0,.33-2.85,9.32,9.32,0,0,0-.37-3,6.68,6.68,0,0,0-1.28-2.42,5.93,5.93,0,0,0-2.17-1.6,7.46,7.46,0,0,0-3-.58,9.39,9.39,0,0,0-3.55.66A9,9,0,0,0,127.3,206a10.34,10.34,0,0,0-2.05,2.51,12.11,12.11,0,0,0-1.3,3.22,2.5,2.5,0,0,1-.42,0h-1.41l-.66,0-.41,0a.22.22,0,0,1-.2-.1.31.31,0,0,1,0-.23c.12-.8.23-1.52.34-2.17s.21-1.21.3-1.68.16-.84.22-1.1a3.49,3.49,0,0,1,.18-.69,1.06,1.06,0,0,1,.3-.44,1.45,1.45,0,0,1,.53-.29,4.49,4.49,0,0,1,.7-.17l.79-.12a.5.5,0,0,0,.08-.2c0-.09,0-.2.05-.32a1.81,1.81,0,0,0,0-.32.28.28,0,0,0,0-.18l-1.12,0-1.42,0-2,0h-1.47l-1.09,0-.86,0h-.79a.61.61,0,0,0-.12.27,2.36,2.36,0,0,0,0,.39A1.26,1.26,0,0,0,115.38,204.68Z"/><path class="cls-4" d="M177.45,247.47a2,2,0,1,0,2,2,2,2,0,0,0-2-2"/><path class="cls-4" d="M133,255.44l3.64.33-.82-5.15c0-.23-.09-.48-.14-.74s-.09-.52-.13-.78-.08-.5-.12-.74h0c-.08.22-.16.46-.24.71l-.24.75c-.08.25-.16.48-.25.7Zm-3.92-.36,1.3.12,3.62-8.92,3.39.31,2,9.43,1.32.12-.2,2.25-11.66-1.06Z"/></g></g></svg>