<?xml version="1.0" encoding="utf-8"?>
<!-- Generator: Adobe Illustrator 21.1.0, SVG Export Plug-In . SVG Version: 6.00 Build 0)  -->
<svg version="1.1" id="Слой_1" xmlns="http://www.w3.org/2000/svg" xmlns:xlink="http://www.w3.org/1999/xlink" x="0px" y="0px"
	 viewBox="0 0 290.4 266.8" style="enable-background:new 0 0 290.4 266.8;" xml:space="preserve">
<style type="text/css">
	.st0{fill:#353535;}
</style>
<title>logo_ufu</title>
<g id="Слой_2">
	<g id="Слой_1-2">
		<path class="st0" d="M62,175.6L62,175.6l5.3-9.1l71,22.8L62,175.6z M216.2,145.4L216.2,145.4l-61.3,39.7l56.2-48.7L216.2,145.4z
			 M206.9,129.2L206.9,129.2l-53.4,53.6l47.1-64.6L206.9,129.2z M224.9,160.7L224.9,160.7L156,187.1l63.8-35.4L224.9,160.7z
			 M195.7,109.7L195.7,109.7l-43.9,70.1l36.6-82.9L195.7,109.7z M182.1,85.9L182.1,85.9l-32.2,90.6l21.8-108.7L182.1,85.9z
			 M233.4,175.6L233.4,175.6l-76.2,13.6l71-22.8L233.4,175.6z M243,192.3h-93.1l87.2-10.3L243,192.3L243,192.3z M145.5,176.4
			L145.5,176.4L122.8,70.3l11.9-20.6L145.5,176.4z M147.7,173L147.7,173l-0.1-147.3l16.1,28L147.7,173z M52.4,192.3h93.2L58.3,182
			L52.4,192.3L52.4,192.3z M87.7,131.1L87.7,131.1l52.9,54l-58.4-44.4L87.7,131.1z M99.7,110.2L99.7,110.2l42.2,72.6l-48.9-61
			L99.7,110.2z M76.9,149.7L76.9,149.7l62.5,37.4L71.6,159L76.9,149.7z M114.5,84.5l29,95.4l-37.3-81L114.5,84.5z"/>
		<path class="st0" d="M25.7,213.4c-0.1-0.3-0.2-0.6-0.3-0.9s-0.1-0.5-0.2-0.8c0-0.2,0-0.4,0-0.6c0.1-0.2,0.2-0.3,0.4-0.5
			c0.2-0.2,0.5-0.3,0.7-0.5l1-0.5l1.5-0.7l1.9-0.9l2.2-1l2-0.9l1.8-0.9l1.4-0.6l0.8-0.3c0.4-0.2,0.7-0.3,1.1-0.4
			c0.3-0.1,0.5-0.1,0.8,0c0.2,0.1,0.4,0.3,0.6,0.5l0.9,1.3c0.1,0,0.2,0,0.2,0c0.1,0,0.2-0.1,0.3-0.1c0.1-0.1,0.2-0.1,0.3-0.2
			c0.1,0,0.1-0.1,0.2-0.2l-0.8-1.6c-0.4-0.7-0.8-1.7-1.4-2.9c-0.4-0.9-0.8-1.8-1.1-2.4s-0.5-1.2-0.7-1.6s-0.3-0.7-0.4-0.9
			c-0.1,0-0.2,0-0.3,0c-0.2,0-0.3,0.1-0.5,0.1c-0.1,0-0.2,0.1-0.3,0.2l0.3,1c0.1,0.3,0.1,0.6,0.2,0.9c0.1,0.5-0.1,0.9-0.5,1.2
			c-0.2,0.2-0.5,0.3-0.8,0.4l-1.6,0.8l-1.9,0.9l-2,0.9h-0.1h-0.1c0,0-0.1-0.1-0.1-0.1c0-0.1-0.1-0.3-0.3-0.5l-0.6-1.1l-1-2.1L29,197
			c-0.2-0.4-0.4-0.9-0.6-1.2s-0.3-0.7-0.4-0.9c0,0,0-0.1,0-0.1c0,0,0.1-0.1,0.1-0.1l2-0.9l1.9-0.9c0.6-0.3,1.2-0.5,1.7-0.7
			c0.4-0.2,0.8-0.3,1.2-0.3c0.3,0,0.6,0.1,0.7,0.4l0.5,0.6c0.2,0.2,0.3,0.5,0.5,0.8c0.1,0,0.2,0,0.4,0c0.2-0.1,0.3-0.1,0.4-0.2
			c0.1-0.1,0.2-0.1,0.2-0.2c-0.1-0.2-0.3-0.6-0.5-1l-0.8-1.6c-0.3-0.6-0.6-1.3-1-2c-0.5-1.1-0.9-2-1.3-2.8c-0.3-0.8-0.6-1.4-0.8-1.8
			c-0.1,0-0.2,0-0.2,0l-0.4,0.1l-0.3,0.1c-0.1,0-0.1,0.1-0.2,0.1l0.3,1c0.1,0.3,0.1,0.5,0.2,0.7c0,0.2,0.1,0.4,0.1,0.5
			c0,0.3-0.1,0.6-0.3,0.8c-0.3,0.3-0.6,0.5-0.9,0.6l-1.2,0.6l-1.5,0.7l-1.6,0.8l-1.6,0.7l-2.4,1.1l-1.8,0.8L20,193l-1.5,0.6
			c-0.3,0.1-0.5,0.2-0.8,0.3c-0.2,0.1-0.4,0.1-0.6,0c-0.2-0.1-0.3-0.2-0.5-0.3c-0.2-0.2-0.3-0.4-0.5-0.6l-0.5-0.8
			c-0.1,0-0.2,0-0.4,0c-0.2,0.1-0.3,0.1-0.4,0.2c-0.1,0-0.2,0.1-0.3,0.2c0.1,0.2,0.2,0.4,0.3,0.7l0.4,0.9l0.6,1.2
			c0.2,0.4,0.5,1,0.8,1.6s0.5,1.1,0.7,1.6l0.5,1.2c0.2,0.4,0.3,0.7,0.4,1s0.3,0.6,0.4,0.9c0.1,0,0.2,0,0.4,0c0.2,0,0.3-0.1,0.5-0.2
			c0.1-0.1,0.2-0.1,0.3-0.2c-0.1-0.4-0.2-0.7-0.3-1c-0.1-0.3-0.1-0.5-0.2-0.8c0-0.2,0-0.3,0.1-0.5c0.1-0.1,0.2-0.3,0.3-0.4
			c0.1-0.1,0.3-0.2,0.4-0.3c0.6-0.3,1.2-0.6,1.8-0.9l1.9-0.9l1.7-0.8c0.1,0,0.1,0,0.2,0c0.1,0,0.1,0,0.1,0.1
			c0.1,0.2,0.3,0.6,0.5,1.1l1,2.2l0.9,2l0.5,1.1c0.1,0.3,0.2,0.5,0.3,0.6c0,0.1,0.1,0.2,0.1,0.3c0,0,0,0.1,0,0.1l-0.1,0.1l-1.7,0.8
			l-1.7,0.8c-0.6,0.3-1.1,0.5-1.6,0.7c-0.3,0.2-0.7,0.3-1.1,0.3c-0.3,0-0.6-0.1-0.8-0.4c-0.1-0.1-0.2-0.2-0.3-0.3
			c-0.1-0.1-0.2-0.3-0.3-0.5s-0.2-0.3-0.3-0.5c-0.1,0-0.2,0-0.3,0c-0.2,0.1-0.3,0.1-0.5,0.2c-0.1,0.1-0.2,0.1-0.3,0.2
			c0.1,0.3,0.3,0.6,0.5,1s0.4,0.9,0.7,1.4s0.6,1.3,1,2.1s0.7,1.6,1,2.2l0.6,1.5c0.2,0.4,0.3,0.7,0.4,0.9c0.1,0,0.1,0,0.2,0
			c0.1,0,0.2-0.1,0.4-0.1c0.1,0,0.2-0.1,0.3-0.2c0.1-0.1,0.1-0.1,0.2-0.1"/>
		<path class="st0" d="M57,224.2c0.1,0,0.2,0,0.2-0.1c0.1-0.1,0.2-0.1,0.3-0.2c0.1-0.1,0.2-0.2,0.3-0.3c0.1-0.1,0.1-0.1,0.1-0.2
			l-0.7-0.8l-0.9-1l-0.9-1l-0.7-0.9l-0.6-0.7l-0.7-0.9l-0.8-0.9l-0.7-0.8l-0.4-0.5c-0.1,0-0.1,0-0.2,0c-0.1,0.1-0.2,0.1-0.3,0.2
			c-0.1,0.1-0.2,0.2-0.3,0.3c-0.1,0.1-0.1,0.1-0.1,0.2c0.2,0.3,0.3,0.6,0.5,0.8s0.2,0.4,0.3,0.5c0.1,0.2,0.2,0.5,0.2,0.7
			c0,0.2-0.1,0.4-0.2,0.6c-0.2,0.3-0.4,0.5-0.6,0.7l-1.1,1l-1.4,1.1l-1.4,1.2l-1.2,1c0,0-0.1,0-0.1,0h-0.1c-0.1-0.2-0.2-0.4-0.3-0.6
			c-0.1-0.2-0.1-0.4-0.1-0.7c0-0.3,0-0.6,0.1-0.8c0.1-0.4,0.2-0.8,0.3-1.2c0.4-1.1,0.8-2.1,1.2-3s0.7-1.7,0.9-2.4
			c0.2-0.7,0.4-1.4,0.5-2.1c0-0.2,0-0.5,0-0.7c0-0.3-0.1-0.6-0.2-0.8c-0.1-0.4-0.3-0.7-0.5-1c-0.1-0.2-0.3-0.4-0.5-0.7
			s-0.5-0.6-0.8-1l-0.9-1.1c-0.3-0.4-0.6-0.6-0.8-0.9c-0.2-0.2-0.3-0.4-0.5-0.5c0,0-0.1,0-0.2,0c-0.1,0.1-0.2,0.1-0.3,0.2
			c-0.1,0.1-0.2,0.1-0.3,0.2c-0.1,0.1-0.1,0.1-0.1,0.2c0.3,0.4,0.5,0.8,0.8,1.2c0.2,0.4,0.3,0.8,0.3,1.2c0,0.5,0,1-0.1,1.5
			c-0.1,0.7-0.3,1.4-0.5,2.1c-0.2,0.7-0.4,1.2-0.6,1.7l-0.5,1.3c-0.2,0.4-0.3,0.9-0.5,1.4c-0.2,0.7-0.3,1.5-0.4,2.3
			c0,0.6,0,1.1,0.2,1.7c0,0.1-0.1,0.1-0.2,0.1c-0.4,0-0.7,0-1.1,0c-0.5,0-1,0.1-1.4,0.2c-0.6,0.1-1.3,0.2-2.1,0.4
			c-0.5,0.1-1.1,0.2-1.6,0.3c-0.3,0-0.6,0-0.9-0.1c-0.2-0.1-0.4-0.3-0.6-0.4c-0.2-0.2-0.4-0.5-0.5-0.8c-0.2-0.4-0.3-0.8-0.3-1.1
			l-0.1-0.1l-0.2-0.1c-0.1,0-0.1,0-0.2,0c-0.2,0-0.4,0.1-0.7,0.2c-0.3,0.1-0.6,0.2-0.9,0.4s-0.6,0.3-0.8,0.4
			c-0.2,0.1-0.4,0.2-0.5,0.4c0,0-0.1,0.1-0.1,0.1c0,0.1-0.1,0.1-0.1,0.2c0,0.1,0,0.1,0,0.2c0,0.2,0.1,0.4,0.2,0.6
			c0.1,0.2,0.2,0.4,0.4,0.6c0.3,0.4,0.8,0.8,1.2,1c0.5,0.2,1.1,0.4,1.6,0.4c0.7,0,1.5,0,2.2-0.2c0.8-0.1,1.9-0.3,3-0.6
			c0.5-0.1,1-0.2,1.5-0.3c0.5-0.1,0.9-0.1,1.4-0.2c0.4,0,0.8,0,1.2,0.2c0.4,0.2,0.8,0.4,1.2,0.6c0.4,0.3,0.8,0.6,1.1,1
			c0,0,0.1,0.1,0.1,0.1c0,0,0,0.1,0,0.1l-1.2,1l-1.3,1l-1.2,1l-0.9,0.8c-0.4,0.3-0.8,0.6-1.2,0.7c-0.4,0.1-0.7-0.1-1-0.3l-0.3-0.2
			l-0.4-0.3l-0.4-0.4c-0.1,0-0.2,0-0.2,0.1c-0.2,0.1-0.4,0.3-0.6,0.5c-0.1,0.1-0.1,0.2-0.1,0.2s0.4,0.4,0.7,0.8l1.2,1.3
			c0.5,0.5,0.9,1,1.4,1.6l0.8,1l0.9,1.1l0.8,1l0.5,0.6c0,0,0.1,0,0.2-0.1c0.2-0.1,0.4-0.3,0.6-0.5c0.1-0.1,0.2-0.1,0.2-0.2l-0.4-0.6
			c-0.1-0.2-0.2-0.4-0.3-0.6c-0.2-0.2-0.3-0.5-0.3-0.8c0-0.2,0.1-0.4,0.2-0.6c0.2-0.2,0.3-0.4,0.5-0.6c0.3-0.3,0.6-0.5,1-0.9
			l1.2-1.1l1.3-1.1l1.3-1c0.6,0.6,1,1.4,1.2,2.1c0.2,0.7,0.1,1.5-0.1,2.1c-0.1,0.4-0.3,0.8-0.5,1.2s-0.4,0.9-0.6,1.5
			s-0.5,1.3-0.9,2.1c-0.3,0.6-0.5,1.3-0.7,1.9c-0.2,0.5-0.2,1.1-0.1,1.6c0.1,0.6,0.4,1.1,0.8,1.5c0.1,0.1,0.2,0.2,0.3,0.3
			c0.1,0.1,0.2,0.2,0.3,0.3l0.4,0.2c0.1,0,0.2,0.1,0.4,0.1c0.1,0,0.2,0,0.4,0c0.3-0.1,0.6-0.2,0.9-0.3c0.3-0.2,0.7-0.3,1-0.5
			c0.3-0.2,0.6-0.4,0.8-0.6c0,0,0.1-0.1,0.1-0.1c0-0.1,0-0.2,0.1-0.2c0-0.1,0-0.1-0.1-0.1l-0.8-0.4c-0.3-0.2-0.5-0.4-0.8-0.6
			c-0.3-0.2-0.5-0.4-0.7-0.7c-0.1-0.2-0.2-0.3-0.3-0.5c-0.1-0.2-0.1-0.4-0.1-0.6c0-0.3,0.1-0.7,0.2-1c0.1-0.4,0.3-0.9,0.5-1.5
			c0.3-0.9,0.6-1.6,0.8-2.1c0.1-0.5,0.2-1,0.3-1.4c0.1-0.3,0.1-0.7,0.1-1c0-0.1,0.1-0.1,0.1-0.1c0,0,0,0,0,0
			c0.4,0.2,0.7,0.3,1.1,0.4c0.5,0.1,1.1,0.1,1.6,0.1c0.7,0,1.5-0.1,2.6-0.2l1.9-0.2l2.7-0.3c0.4,0,0.9,0,1.3,0.1
			c0.4,0.1,0.9,0.3,1.3,0.5c0.5,0.3,1,0.6,1.4,1c0.1,0,0.2-0.1,0.3-0.1c0.1-0.1,0.2-0.2,0.3-0.3c0.1-0.1,0.1-0.2,0.2-0.3l-0.9-1.1
			c-0.3-0.4-0.6-0.7-0.9-1.1s-0.6-0.7-0.8-0.9c-0.2-0.2-0.4-0.4-0.6-0.6c-0.3-0.3-0.7-0.6-1.1-0.8c-0.3-0.2-0.7-0.3-1-0.4
			c-0.3-0.1-0.7-0.1-1-0.1c-0.3,0-0.7,0-1.1,0l-1,0.2l-1.5,0.3l-1.6,0.3l-1.6,0.3l-1.3,0.2c-0.4,0.1-0.7,0.1-1.1,0
			c-0.3,0-0.6-0.1-0.8-0.3c-0.2-0.1-0.4-0.3-0.6-0.4l1-0.8l1.3-1.1l1.3-1.1l1.1-0.9c0.4-0.3,0.8-0.6,1.2-0.9
			c0.3-0.2,0.6-0.2,0.9-0.2c0.3,0.1,0.6,0.2,0.8,0.4c0.2,0.1,0.3,0.2,0.5,0.4L57,224.2"/>
		<path class="st0" d="M69.9,237.4c0.5,0.3,0.9,0.8,1.3,1.3c0.3,0.5,0.5,1,0.7,1.6c0.2,0.9,0.2,1.9,0,2.8c-0.2,1.1-0.6,2.1-1.1,3.1
			c-0.5,1.1-1.2,2.2-1.9,3.2c-0.4,0.6-0.9,1.2-1.4,1.8c-0.5,0.5-1,1.1-1.5,1.5c-0.5,0.4-1.1,0.8-1.6,1.1c-0.5,0.3-1.1,0.4-1.7,0.5
			c-0.4,0.1-0.8,0-1.2-0.1c-0.4-0.1-0.8-0.3-1.1-0.5c-0.3-0.2-0.6-0.5-0.9-0.8c-0.2-0.3-0.4-0.6-0.5-0.9c-0.1-0.3-0.3-0.7-0.3-1.1
			c-0.1-0.7-0.1-1.4,0-2.1c0.1-0.8,0.3-1.5,0.6-2.3c0.3-0.8,0.6-1.6,1.1-2.3c0.4-0.8,0.9-1.5,1.4-2.2c0.8-1.2,1.8-2.4,2.9-3.4
			c0.8-0.8,1.9-1.4,3-1.7c0.4-0.1,0.9-0.1,1.3,0C69.3,236.9,69.7,237.1,69.9,237.4 M88.6,250.6c0.1-0.1,0.2-0.2,0.3-0.3
			c0.1-0.1,0.2-0.3,0.3-0.4c0.1-0.1,0.1-0.2,0.1-0.3l-0.9-0.6l-1.1-0.7l-1.2-0.8l-1.2-0.8c-0.7-0.5-1.4-1-2.1-1.5s-1.4-1-2.1-1.6
			c-0.1,0-0.2,0.1-0.3,0.2c-0.1,0.1-0.2,0.3-0.3,0.4c-0.1,0.1-0.1,0.2-0.2,0.3l0.8,0.8c0.2,0.2,0.4,0.4,0.6,0.6
			c0.2,0.2,0.3,0.4,0.3,0.7c0,0.2,0,0.4-0.1,0.6c-0.1,0.2-0.2,0.4-0.3,0.6c-0.2,0.3-0.5,0.7-0.8,1.2l-1.3,1.8l-1.7,2.4l-0.8-0.6
			l-0.9-0.6l-0.8-0.6c-0.3-0.2-0.5-0.3-0.6-0.3c0.5-0.8,0.9-1.5,1.2-2.4c0.3-0.8,0.6-1.6,0.7-2.5c0.1-0.9,0.2-1.8,0.1-2.7
			c-0.2-1.3-0.6-2.6-1.4-3.7c-0.9-1.3-2-2.4-3.3-3.3c-0.9-0.6-1.9-1.1-2.9-1.5c-2.1-0.8-4.4-0.8-6.6,0c-0.7,0.3-1.4,0.6-2.1,1.1
			c-0.7,0.5-1.3,1-1.8,1.6c-0.6,0.6-1.1,1.2-1.6,1.9c-0.7,0.9-1.2,1.9-1.5,3c-0.4,1-0.6,2.1-0.6,3.1c0,1,0.1,2.1,0.4,3.1
			c0.3,1,0.8,2,1.5,2.9c0.8,1,1.7,1.8,2.7,2.5c1.2,0.9,2.6,1.5,4,1.8c1.3,0.3,2.7,0.3,4,0c0.9-0.1,1.7-0.4,2.5-0.8
			c0.8-0.4,1.5-0.8,2.1-1.4c0.6-0.5,1.1-1,1.6-1.6l0.6,0.4l0.8,0.6l0.9,0.6l0.6,0.5c0.1,0.1,0.1,0.1,0.1,0.2c0,0.1,0,0.2-0.1,0.3
			l-2,2.9c-0.6,0.8-1,1.3-1.3,1.7c-0.2,0.2-0.3,0.4-0.5,0.6c-0.1,0.1-0.3,0.3-0.5,0.3c-0.2,0.1-0.4,0.1-0.7,0
			c-0.2-0.1-0.5-0.2-0.7-0.3l-0.8-0.4c-0.1,0-0.1,0.1-0.2,0.1c-0.1,0.1-0.2,0.2-0.2,0.3c-0.1,0.1-0.1,0.2-0.2,0.3c0,0.1,0,0.1,0,0.2
			l1,0.7l1.5,1c0.6,0.4,1.1,0.8,1.8,1.2c0.6,0.4,1.2,0.8,1.6,1.2l1.3,0.9c0.4,0.3,0.8,0.6,1.2,0.9c0.1-0.1,0.2-0.1,0.3-0.2
			c0.1-0.1,0.2-0.3,0.3-0.4c0.1-0.1,0.1-0.2,0.1-0.4c-0.3-0.2-0.5-0.5-0.7-0.7s-0.4-0.4-0.6-0.6c-0.2-0.2-0.3-0.5-0.3-0.8
			c0-0.3,0.1-0.6,0.3-0.9c0.2-0.3,0.4-0.6,0.6-1s0.5-0.7,0.8-1.2l1-1.5l1.4-1.9l1.3-1.8l1.3-1.8l1.1-1.5c0.3-0.4,0.6-0.8,0.8-1
			c0.2-0.3,0.5-0.6,0.8-0.9c0.2-0.2,0.4-0.3,0.6-0.3c0.2,0,0.4,0,0.6,0.1l0.7,0.3C87.9,250.4,88.2,250.5,88.6,250.6L88.6,250.6z"/>
		<path class="st0" d="M26.7,108C26.7,108,26.7,108,26.7,108c0.1,0.1,0.1,0.1,0.1,0.1c-0.4,0.7-1,1.2-1.7,1.6
			c-0.8,0.4-1.7,0.6-2.6,0.6c-1.2,0-2.5-0.2-3.6-0.6c-0.8-0.2-1.6-0.6-2.3-1c-0.5-0.3-1-0.8-1.4-1.3c-0.3-0.4-0.5-0.9-0.5-1.4
			c-0.1-0.5-0.1-0.9,0-1.4c0,0,0-0.1,0.1-0.1c0.1,0,0.1,0,0.2,0L26.7,108z M16.1,100L16.1,100c-0.1,0-0.2-0.1-0.2-0.1
			c0,0,0-0.1,0-0.1c0.4-0.7,1.1-1.3,1.8-1.6c0.8-0.3,1.6-0.5,2.5-0.4c1,0,2,0.2,3,0.5c0.9,0.3,1.9,0.6,2.7,1.1
			c0.6,0.3,1.1,0.7,1.6,1.2c0.3,0.4,0.6,0.9,0.7,1.4c0.1,0.5,0.1,1.1,0,1.6c0,0.1,0,0.1-0.1,0.1c0,0,0,0,0,0H28L16.1,100z
			 M32.3,102.1l-0.4,0.9c-0.1,0.2-0.2,0.4-0.3,0.7c-0.1,0.2-0.3,0.4-0.6,0.5c-0.2,0.1-0.5,0.1-0.8,0c-0.3-0.1-0.6-0.1-0.9-0.2
			c0.1-0.3,0.2-0.8,0.2-1.3c0.1-0.5,0.1-1.1,0.1-1.6c0-0.6,0-1.1-0.1-1.7c-0.1-0.6-0.2-1.1-0.4-1.7c-0.3-1-0.9-1.9-1.7-2.6
			c-0.9-0.8-2-1.4-3.1-1.7c-0.9-0.3-1.9-0.4-2.9-0.4c-0.8,0-1.6,0.3-2.4,0.6c-0.7,0.4-1.3,0.8-1.9,1.4c-0.6,0.6-1.1,1.3-1.5,2
			c-0.4,0.8-0.8,1.6-1.1,2.4c-0.3-0.1-0.6-0.2-0.8-0.3c-0.2-0.1-0.4-0.2-0.6-0.4c-0.1-0.2-0.2-0.5-0.2-0.7c0-0.2,0-0.3,0.1-0.5
			l0.1-0.7c-0.1-0.1-0.2-0.2-0.3-0.2c-0.1-0.1-0.3-0.1-0.5-0.2c-0.1,0-0.3,0-0.4,0l-0.2,0.9l-0.3,1.1c-0.1,0.4-0.2,0.8-0.3,1.2
			s-0.2,0.7-0.3,1s-0.2,0.7-0.3,1.1s-0.3,0.8-0.4,1.2l-0.4,1.2l-0.3,1c0.1,0.1,0.2,0.2,0.3,0.2c0.1,0.1,0.3,0.1,0.5,0.2
			c0.1,0,0.3,0,0.4,0l0.3-0.6c0.1-0.2,0.1-0.3,0.2-0.5c0.2-0.5,0.7-0.7,1.2-0.7c0.3,0,0.7,0.1,1,0.2c-0.1,0.6-0.2,1.1-0.3,1.7
			c0,0.6,0,1.3,0,1.9c0,0.6,0.1,1.2,0.3,1.8c0.2,0.8,0.5,1.5,0.9,2.2c0.4,0.7,0.9,1.3,1.6,1.7c0.8,0.5,1.6,0.9,2.5,1.2
			c1.4,0.5,2.9,0.5,4.4,0.2c1.3-0.4,2.4-1.1,3.3-2.2c1-1.2,1.8-2.6,2.3-4.2c0.3,0.1,0.6,0.2,0.9,0.3c0.2,0.1,0.4,0.2,0.6,0.4
			c0.1,0.2,0.2,0.5,0.1,0.8c0,0.2,0,0.4-0.1,0.6c0,0.2-0.1,0.5-0.1,0.8c0.1,0.1,0.2,0.2,0.3,0.2c0.2,0.1,0.3,0.1,0.5,0.1
			c0.1,0,0.2,0,0.3,0c0.1-0.3,0.2-0.7,0.3-1.1s0.2-0.8,0.3-1.2s0.2-0.8,0.4-1.3s0.2-0.8,0.3-1.1c0.1-0.3,0.2-0.7,0.3-1.1
			s0.3-0.8,0.4-1.3s0.3-0.8,0.4-1.2s0.2-0.7,0.3-0.9c-0.1-0.1-0.2-0.2-0.3-0.3c-0.1-0.1-0.3-0.1-0.5-0.2
			C32.6,102,32.5,102.1,32.3,102.1L32.3,102.1z"/>
		<path class="st0" d="M0,144c0.1,0.3,0.3,0.5,0.5,0.7c0.2,0.2,0.4,0.4,0.6,0.6c0.2,0.1,0.4,0.2,0.6,0.2c0.5,0,1-0.1,1.4-0.4
			c0.4-0.3,0.7-0.6,1-1c0.3-0.4,0.5-0.9,0.6-1.4c0.1-0.5,0.2-1.1,0.2-1.7c0-0.8-0.1-1.5-0.3-2.3c-0.2-0.7-0.6-1.3-1-1.9
			c-0.4-0.6-0.9-1-1.5-1.4c-0.5-0.4-1.1-0.7-1.7-0.8c-0.1,0-0.1,0.1-0.1,0.1c0,0.1-0.1,0.1-0.1,0.2c0,0.1,0,0.1,0.1,0.2l0.2,0.4
			c0.1,0.1,0.1,0.3,0.2,0.4c0,0.1,0.1,0.1,0.2,0.2c0.5,0.3,0.9,0.7,1.3,1.2c0.3,0.4,0.4,0.8,0.5,1.3c0.1,0.4,0.1,0.9,0.1,1.3
			c0,0.9-0.2,1.7-0.6,2.5c-0.5,0.6-1.1,1-1.9,1.2c0,0-0.1,0.1-0.1,0.1c0,0.1,0,0.1,0,0.2C0,143.9,0,144,0,144"/>
		<path class="st0" d="M25.7,152.8c0.1,0.1,0.1,0.1,0.2,0.1c0.1,0,0.2,0,0.4,0c0.1,0,0.2,0,0.4,0c0.1,0,0.1,0,0.2-0.1
			c0-0.4,0-1,0-1.9s0-1.9,0-3.2c0-0.9,0-1.6,0.1-2.3s0-1.2,0.1-1.6s0-0.9,0-1.3c-0.1-0.1-0.2-0.1-0.3-0.1c-0.2,0-0.3-0.1-0.5-0.1
			c-0.1,0-0.2,0-0.4,0.1c-0.1,0.4-0.1,0.8-0.2,1.1c-0.1,0.3-0.1,0.5-0.3,0.8c-0.1,0.2-0.2,0.4-0.3,0.5c-0.2,0.1-0.4,0.2-0.6,0.2
			c-0.3,0-0.6,0.1-0.9,0.1c-0.2,0-0.4,0-0.5-0.1c-0.2-0.1-0.3-0.1-0.4-0.3l-0.7-0.6l-1.3-1.2l-1.7-1.4l-1.9-1.6l-1.8-1.5l-1.5-1.2
			c-0.4-0.4-0.7-0.6-0.9-0.7c0,0,0-0.1,0-0.1c0,0,0-0.1,0.1-0.1h1.5h2.1h2.3l2.3,0.1l1.9,0.1l1.2,0.1c0.3,0,0.6,0,0.9,0.1
			c0.2,0,0.4,0.1,0.5,0.3c0.1,0.1,0.2,0.3,0.3,0.5c0,0.2,0.1,0.5,0.1,0.7s0.1,0.6,0.1,0.9c0,0.1,0.1,0.1,0.2,0.1c0.1,0,0.2,0,0.4,0
			c0.1,0,0.2,0,0.4,0c0.1,0,0.2,0,0.2-0.1c0-0.3,0-0.9,0-1.7s0-2,0-3.4c0-1,0-1.8,0.1-2.4s0.1-1.2,0.1-1.6s0-0.8,0-1.1
			c-0.1-0.1-0.1-0.1-0.2-0.1c-0.1,0-0.2-0.1-0.4-0.1c-0.1,0-0.3,0-0.4,0c-0.1,0-0.2,0-0.2,0.1c-0.1,0.5-0.1,1-0.2,1.3
			c-0.1,0.3-0.1,0.6-0.3,0.9c-0.1,0.3-0.3,0.5-0.6,0.6c-0.4,0.1-0.7,0.2-1.1,0.2h-1.5h-1.9h-2h-1.9h-2.1h-1.5H12h-1.1l-1.3-0.1
			c-0.3,0-0.6,0-0.8-0.1c-0.2,0-0.3-0.1-0.5-0.3c-0.1-0.1-0.2-0.3-0.3-0.5c-0.1-0.2-0.1-0.5-0.2-0.8c-0.1-0.3-0.1-0.6-0.1-1
			c-0.1-0.1-0.1-0.1-0.2-0.1c-0.1,0-0.2,0-0.4,0c-0.1,0-0.2,0-0.4,0c-0.1,0-0.2,0-0.2,0.1c0,0.3,0,0.6,0,0.9s0,0.6,0,1s0,0.8,0,1.3
			s0,1.1,0,1.7c0,0.9,0,1.7-0.1,2.3s-0.1,1.1-0.1,1.6s0,0.8,0,1.1c0,0.1,0.1,0.1,0.3,0.1c0.2,0,0.3,0,0.5,0c0.1,0,0.3,0,0.4-0.1
			c0-0.3,0.1-0.5,0.1-0.7c0-0.2,0.1-0.4,0.1-0.5c0-0.2,0.1-0.3,0.2-0.5c0.1-0.2,0.3-0.4,0.5-0.5c0.2-0.1,0.5-0.2,0.8-0.2h0.6H10
			l0.2,0.1c0.1,0,0.1,0.1,0.2,0.1c0.4,0.3,0.9,0.6,1.5,1.1l1.9,1.6L16,141l2,1.7l1.6,1.4l1,0.8v0.1c0,0,0,0.1-0.1,0.1h-1.3h-2h-2.3
			h-2.3h-1.9l-1.3-0.1c-0.3,0-0.6,0-0.9-0.1c-0.2,0-0.4-0.1-0.5-0.3c-0.1-0.1-0.2-0.3-0.3-0.5c-0.1-0.2-0.1-0.5-0.2-0.7
			c-0.1-0.3-0.1-0.6-0.1-0.8c-0.1-0.1-0.2-0.1-0.3-0.1c-0.2,0-0.3,0-0.5,0c-0.1,0-0.2,0-0.3,0.1c0,0.4,0,0.9,0,1.7s0,1.9,0,3.2
			c0,0.7,0,1.3,0,1.8s0,1-0.1,1.3s0,0.7-0.1,1.1s0,0.6,0,1c0.1,0,0.1,0.1,0.2,0.1h0.4c0.1,0,0.2,0,0.4,0c0.1,0,0.2,0,0.2-0.1
			c0-0.3,0.1-0.6,0.1-0.8c0-0.2,0.1-0.4,0.1-0.6c0-0.2,0.1-0.4,0.2-0.6c0.1-0.3,0.3-0.5,0.6-0.6c0.3-0.1,0.7-0.2,1-0.2h1.2h1.9h2.3
			h2.5h2.2h1.9h1.4h0.8c0.4,0,0.8,0.1,1.1,0.2c0.2,0.1,0.5,0.2,0.6,0.4c0.2,0.2,0.3,0.4,0.3,0.7L25.7,152.8z"/>
		<path class="st0" d="M9,167.9c0-0.3,0-0.5,0-0.7s0-0.4,0.1-0.6c0-0.2,0.1-0.4,0.1-0.6c0-0.3,0.2-0.5,0.4-0.7
			c0.3-0.2,0.6-0.3,0.9-0.3l1.1-0.2l1.4-0.2l1.8-0.2l2.4-0.2l1.8-0.2l1.9-0.2l1.8-0.2l1.5-0.1l1-0.1c0.4,0,0.8,0,1.1,0.1
			c0.2,0,0.4,0.2,0.6,0.3c0.1,0.2,0.2,0.4,0.3,0.6c0.1,0.2,0.1,0.4,0.2,0.6s0.1,0.5,0.2,0.9c0.1,0.1,0.2,0.1,0.3,0.1
			c0.2,0,0.3,0,0.5,0c0.1,0,0.2-0.1,0.4-0.1c0-0.3-0.1-0.6-0.1-0.9s-0.1-0.6-0.1-1s-0.1-0.8-0.2-1.4s-0.1-1.2-0.2-1.9
			s-0.1-1.7-0.2-2.5s-0.1-1.6-0.2-2.5c-0.1-0.1-0.1-0.1-0.2-0.1c-0.1,0-0.2,0-0.4,0c-0.1,0-0.2,0-0.4,0c-0.1,0-0.2,0-0.2,0.1
			c0,0.4-0.1,0.7-0.1,1.1c0,0.3-0.1,0.6-0.1,0.8c0,0.3-0.1,0.5-0.3,0.7c-0.2,0.2-0.4,0.3-0.6,0.3c-0.2,0.1-0.4,0.1-0.6,0.1
			c-0.4,0.1-1,0.1-1.7,0.2l-2.6,0.3l-3.6,0.3L14,160l-2.2,0.2l-1.4,0.1c-0.3,0-0.6,0-0.8,0c-0.2,0-0.4-0.1-0.5-0.3
			c-0.2-0.1-0.3-0.3-0.4-0.5c-0.1-0.2-0.2-0.5-0.3-0.7c-0.1-0.3-0.2-0.6-0.3-0.9c-0.1-0.1-0.2-0.1-0.3-0.1c-0.2,0-0.3,0-0.5,0.1
			c-0.1,0-0.2,0.1-0.3,0.1c0,0.2,0,0.4,0.1,0.6s0.1,0.6,0.1,0.9s0.1,0.8,0.2,1.4s0.1,1.3,0.2,2.1s0.1,1.5,0.2,2.1s0.1,1.1,0.1,1.6
			s0.1,0.9,0.1,1.3c0.1,0,0.2,0,0.3,0c0.2,0,0.3,0,0.5,0C8.8,168,8.9,168,9,167.9"/>
		<path class="st0" d="M29.2,172.7c0,0.2,0.1,0.4,0.1,0.6c0,0.3,0,0.5-0.1,0.8c-0.1,0.3-0.2,0.6-0.4,0.9c-0.1,0.1-0.2,0.3-0.4,0.4
			c-0.1,0.1-0.3,0.2-0.4,0.2l-1.6,0.5l-1.9,0.5l-2,0.5l-1.9,0.5c0,0-0.1,0-0.1,0c0,0-0.1,0-0.1-0.1c0-0.1-0.1-0.2-0.1-0.3
			s-0.1-0.3-0.1-0.4s-0.1-0.2-0.1-0.3c-0.2-0.8-0.2-1.7,0-2.5c0.3-0.7,0.7-1.4,1.4-1.8c0.8-0.6,1.7-1,2.6-1.2
			c1.1-0.4,2.3-0.4,3.5-0.1C28.3,171.1,29,171.8,29.2,172.7 M31.7,182.8c0.1,0,0.2,0,0.3,0c0.2,0,0.3-0.1,0.5-0.1
			c0.1,0,0.2-0.1,0.3-0.2c-0.1-0.5-0.2-1-0.4-1.6c-0.2-0.6-0.3-1.3-0.5-2.1s-0.3-1.4-0.5-2.1s-0.3-1.3-0.4-1.9s-0.2-1-0.3-1.3
			c-0.2-0.9-0.5-1.9-0.9-2.8c-0.3-0.8-0.8-1.6-1.3-2.3c-0.5-0.7-1.2-1.3-2-1.8c-0.7-0.4-1.5-0.7-2.3-0.8c-0.8-0.1-1.6,0-2.4,0.2
			c-0.7,0.2-1.4,0.5-2,0.9c-0.6,0.4-1.1,1-1.5,1.6c-0.4,0.7-0.6,1.6-0.7,2.4c-0.1,1.1,0.1,2.2,0.4,3.2c0.2,0.8,0.4,1.6,0.6,2.1
			s0.3,1,0.4,1.3c0,0,0,0.1,0,0.1c0,0-0.1,0-0.1,0.1l-1.8,0.5l-1.3,0.3l-1,0.2l-0.8,0.2c-0.4,0.1-0.8,0.1-1.1,0
			c-0.3-0.1-0.6-0.3-0.8-0.6c-0.1-0.2-0.3-0.5-0.4-0.7c-0.1-0.3-0.3-0.6-0.4-0.9c-0.1,0-0.2,0-0.3,0c-0.1,0-0.2,0-0.4,0.1
			c-0.1,0-0.2,0.1-0.4,0.1c-0.1,0-0.1,0.1-0.2,0.1c0.2,0.6,0.4,1.4,0.6,2.1s0.5,1.7,0.8,2.8s0.5,2,0.7,2.9s0.3,1.6,0.5,2.1
			c0.1,0,0.1,0,0.2,0c0.1,0,0.2,0,0.4,0c0.1,0,0.2-0.1,0.4-0.1c0.1,0,0.2-0.1,0.2-0.1c0-0.3-0.1-0.6-0.1-0.9c0-0.3,0-0.6,0-0.9
			c0-0.2,0-0.4,0.1-0.5c0.1-0.2,0.2-0.3,0.4-0.4c0.2-0.1,0.5-0.2,0.7-0.3l1.3-0.4l1.4-0.4l1.7-0.4l2.2-0.6l3.4-0.9l2.6-0.6
			c0.7-0.2,1.2-0.3,1.5-0.3c0.4-0.1,0.7-0.1,1.1,0c0.3,0.1,0.5,0.2,0.6,0.4c0.2,0.3,0.3,0.6,0.5,0.9
			C31.4,181.9,31.6,182.3,31.7,182.8L31.7,182.8z"/>
		<path class="st0" d="M84.1,21.7l1,0.9l1.1,1l1.1,1l1,0.9l0.7,0.6c0,0,0,0.1,0,0.1c0,0,0,0.1,0,0.1s-0.4,0.2-0.7,0.4l-1.3,0.7
			l-1,0.6c-0.3,0.2-0.5,0.3-0.7,0.3s-0.1,0-0.1,0c0,0-0.1-0.1-0.1-0.1c-0.1-0.4-0.2-0.9-0.3-1.4s-0.2-1.1-0.3-1.7s-0.2-1.2-0.3-1.8
			S84.1,22.2,84.1,21.7L84.1,21.7L84.1,21.7 M82.3,39.3c0,0.1,0,0.2,0.1,0.3c0.1,0.1,0.2,0.3,0.2,0.4c0.1,0.1,0.1,0.2,0.2,0.3
			c0.5-0.3,1.1-0.6,1.6-1s1.1-0.7,1.7-1c0.9-0.5,1.6-0.9,2.2-1.2l1.5-0.7c0-0.1,0-0.2-0.1-0.3c-0.1-0.2-0.1-0.3-0.2-0.5
			c0-0.1-0.1-0.2-0.2-0.3l-0.8,0.3l-0.8,0.2C87.7,36,87.5,36,87.3,36c-0.2,0-0.3-0.1-0.4-0.2c-0.1-0.1-0.2-0.2-0.3-0.4
			c-0.1-0.2-0.2-0.4-0.2-0.6c-0.1-0.3-0.2-0.7-0.2-1s-0.2-0.8-0.2-1.3c-0.1-0.4-0.2-0.9-0.2-1.3c0-0.1,0-0.2,0.1-0.3
			c0-0.1,0.1-0.1,0.1-0.2c0.2-0.1,0.5-0.3,0.9-0.5l1.5-0.8l0.8-0.5l0.8-0.5l0.6-0.3c0.1,0,0.1,0,0.2,0l0.2,0.1l0.9,0.7l1,0.9
			c0.3,0.3,0.7,0.6,1,0.9s0.6,0.5,0.8,0.8c0.1,0.1,0.1,0.2,0.1,0.3c0,0.2,0,0.3-0.1,0.5c-0.1,0.2-0.3,0.4-0.5,0.6
			c-0.2,0.2-0.5,0.4-0.8,0.7c0,0.1,0,0.2,0.1,0.3c0.1,0.1,0.2,0.3,0.2,0.4c0.1,0.1,0.1,0.2,0.2,0.3l0.8-0.5l0.9-0.5l1.2-0.7l1.6-0.9
			c0.8-0.4,1.4-0.8,2-1.1l1.4-0.7l1-0.5c0-0.1,0-0.2-0.1-0.3c-0.1-0.2-0.1-0.3-0.2-0.5c0-0.1-0.1-0.2-0.2-0.3
			c-0.5,0.2-1,0.3-1.5,0.5c-0.4,0.1-0.7,0.1-1.1,0c-0.4-0.1-0.7-0.3-1.1-0.5c-0.4-0.3-0.9-0.6-1.4-1.1l-1.5-1.3l-1.9-1.7l-2.1-1.9
			l-2.1-1.9l-1.9-1.7l-1.6-1.4l-1.5-1.5L84,16.3c-0.2,0.1-0.5,0.3-0.8,0.5s-0.5,0.3-0.8,0.4l-0.8,0.4c0.1,0.2,0.2,0.5,0.2,0.7
			c0.1,0.3,0.1,0.6,0.2,0.9s0.1,0.6,0.1,0.8c0.1,0.4,0.2,1,0.3,1.7s0.2,1.5,0.4,2.4s0.3,1.8,0.4,2.8s0.3,2,0.4,3s0.3,2,0.4,2.9
			c0.1,0.9,0.2,1.8,0.3,2.6c0.1,0.5,0.1,0.9,0.1,1.4c0,0.3-0.1,0.7-0.2,1c-0.2,0.3-0.4,0.6-0.6,0.8C83.1,38.8,82.8,39.1,82.3,39.3
			L82.3,39.3z"/>
		<path class="st0" d="M73.9,36.7c0.2-0.1,0.4-0.2,0.6-0.3c0.3-0.1,0.5-0.3,0.7-0.5c0.6-0.4,1.2-1,1.6-1.6c0.5-0.6,0.9-1.2,1.2-1.9
			c0.3-0.6,0.4-1.2,0.5-1.9c0.1-0.7,0-1.4-0.2-2.1c-0.2-0.8-0.6-1.5-1.1-2.2c-0.4-0.6-0.9-1.1-1.5-1.5c-0.5-0.4-1.1-0.6-1.7-0.8
			c-0.5-0.2-1.1-0.2-1.6-0.2c-0.4,0-0.9,0.1-1.3,0.2c-0.4,0.1-0.8,0.3-1.2,0.4c-0.3,0.2-0.7,0.4-1,0.6c-0.3,0.2-0.6,0.4-0.8,0.5
			l-1.4,1l-1.3,0.9l-1.3,1l-1.4,1c-0.5,0.4-1,0.7-1.5,1L60,31.3L59,32c0,0.1,0.1,0.2,0.1,0.3c0.1,0.1,0.2,0.3,0.3,0.4
			c0.1,0.1,0.2,0.2,0.3,0.3c0.3-0.2,0.5-0.3,0.8-0.4l0.7-0.3c0.2-0.1,0.5-0.2,0.7-0.1c0.2,0,0.4,0.1,0.6,0.3
			c0.2,0.2,0.5,0.4,0.6,0.7c0.2,0.3,0.5,0.6,0.8,1.1l1.2,1.7l1.8,2.5l2,2.9l1.4,2l1,1.4c0.2,0.2,0.3,0.5,0.4,0.7
			c0.1,0.2,0.2,0.4,0.2,0.7c0,0.2-0.1,0.5-0.3,0.6c-0.2,0.2-0.4,0.4-0.6,0.6l-0.7,0.7c0,0.1,0.1,0.2,0.1,0.3
			c0.1,0.1,0.2,0.3,0.3,0.4c0.1,0.1,0.2,0.2,0.3,0.3c0.7-0.5,1.4-1.1,2.1-1.6c0.7-0.5,1.4-1.1,2.2-1.6c0.5-0.4,1.1-0.8,1.6-1.1
			l1.6-1.1l1.3-0.9c0-0.1,0-0.3-0.1-0.4c-0.1-0.1-0.1-0.3-0.2-0.4c-0.1-0.1-0.1-0.2-0.2-0.2c-0.4,0.2-0.8,0.4-1.1,0.6
			c-0.3,0.2-0.7,0.3-1,0.4c-0.2,0.1-0.5,0.1-0.7,0.1c-0.2,0-0.4-0.2-0.6-0.3c-0.2-0.2-0.4-0.4-0.5-0.6c-0.2-0.3-0.5-0.7-0.8-1.1
			l-1-1.4l-1.1-1.5l-1-1.4l-0.8-1.1l-2.2-3l-1.4-2c-0.4-0.5-0.6-0.9-0.8-1.2c-0.1-0.1-0.1-0.2-0.1-0.3c0-0.1,0-0.1,0-0.2
			c0.1-0.1,0.1-0.2,0.2-0.3l0.3-0.2L67,28c0.6-0.5,1.4-0.8,2.3-0.8c0.8,0,1.6,0.2,2.3,0.6c0.8,0.5,1.5,1.2,2.1,1.9
			c0.4,0.5,0.7,1,0.9,1.6c0.2,0.4,0.3,0.9,0.3,1.4c0,0.4-0.1,0.9-0.3,1.3c-0.1,0.3-0.2,0.5-0.4,0.7c-0.2,0.2-0.4,0.5-0.7,0.6
			c-0.2,0.1-0.3,0.2-0.5,0.3c-0.1,0.1-0.2,0.1-0.3,0.2c0,0.1,0,0.1,0,0.2c0,0.1,0,0.1,0.1,0.2c0.1,0.1,0.2,0.1,0.3,0.2
			c0.1,0.1,0.3,0.1,0.4,0.2C73.6,36.7,73.7,36.7,73.9,36.7"/>
		<path class="st0" d="M43.2,48.3c0.2-0.2,0.5-0.4,0.7-0.6c0.2-0.2,0.5-0.3,0.7-0.5c0.2-0.1,0.3-0.2,0.5-0.2c0.2,0,0.4,0,0.5,0.1
			c0.2,0.1,0.4,0.3,0.6,0.4c0.3,0.2,0.5,0.5,0.9,0.8l1.2,1l1.3,1.2l1.4,1.4l2.5,2.4c0.7,0.7,1.3,1.3,1.9,1.8s1,1,1.5,1.5
			c0.2,0.2,0.4,0.4,0.5,0.7c0.1,0.2,0.2,0.4,0.2,0.6c0,0.2-0.1,0.4-0.2,0.5c-0.1,0.2-0.3,0.5-0.5,0.9L56,61.6
			c0.1,0.1,0.1,0.2,0.2,0.3l0.3,0.3c0.1,0.1,0.2,0.2,0.3,0.2c0.4-0.5,0.9-0.9,1.4-1.5l1.5-1.6c0.5-0.5,0.9-1,1.3-1.5
			c1.2-1.3,2.4-2.6,3.6-3.7c1.2-1.1,2.2-2.2,3.2-3.3c0.3-0.3,0.5-0.5,0.7-0.8c0.1-0.1,0.2-0.3,0.2-0.5c0-0.1,0-0.2-0.1-0.3
			c-0.1-0.3-0.2-0.6-0.4-0.9c-0.2-0.3-0.3-0.7-0.6-1.1s-0.4-0.7-0.6-1.1l-0.6-0.9l-0.4-0.6c-0.1,0-0.3,0-0.4,0.1
			c-0.2,0.1-0.3,0.2-0.5,0.3c-0.1,0.1-0.2,0.1-0.3,0.3c0.3,0.6,0.5,1.2,0.7,1.8c0.2,0.5,0.3,1.1,0.4,1.7c0.1,0.3,0.1,0.7,0,1
			c-0.1,0.3-0.2,0.6-0.3,0.8c-0.2,0.3-0.5,0.6-0.8,0.9c-0.4,0.5-0.9,0.9-1.3,1.3s-0.8,0.7-1.1,1s-0.6,0.5-0.8,0.6
			c-0.2,0.1-0.4,0.2-0.6,0.1c-0.3-0.1-0.5-0.2-0.7-0.3L56,50c0-0.1-0.1-0.1-0.1-0.2c0-0.1,0-0.1,0-0.2l0.7-0.7l0.9-0.9l0.8-0.8
			c0.3-0.3,0.4-0.4,0.6-0.5c0.2-0.2,0.5-0.3,0.8-0.3c0.3,0,0.5,0.1,0.7,0.2l1.3,0.7c0.1,0,0.1-0.1,0.2-0.2c0.1-0.1,0.2-0.2,0.3-0.3
			c0.1-0.1,0.2-0.2,0.3-0.3c0.1-0.1,0.1-0.1,0.1-0.2l-0.8-0.7l-0.9-0.8L60,43.8c-0.3-0.3-0.5-0.5-0.8-0.8l-0.8-0.9l-0.7-0.7
			c-0.1,0-0.2,0.1-0.2,0.1c-0.1,0.1-0.2,0.2-0.3,0.3c-0.1,0.1-0.2,0.2-0.3,0.3c-0.1,0.1-0.1,0.1-0.1,0.2l0.4,0.5
			c0.1,0.2,0.2,0.3,0.3,0.5c0.2,0.3,0.3,0.6,0.4,0.9c0,0.3-0.1,0.6-0.3,0.8c-0.2,0.2-0.4,0.5-0.7,0.8L56,46.8l-0.8,0.9l-0.6,0.7
			c0,0-0.1,0.1-0.2,0.1c-0.1,0-0.1,0-0.2-0.1L51.7,46c-0.8-0.7-1.6-1.5-2.3-2.3c-0.1-0.1-0.1-0.1-0.1-0.2c0-0.1-0.1-0.2-0.1-0.3
			c0-0.1,0-0.1,0-0.2c0.1-0.1,0.2-0.3,0.4-0.5l0.7-0.8l0.8-0.9l0.8-0.8c0.2-0.2,0.4-0.4,0.6-0.5c0.2-0.2,0.4-0.3,0.7-0.4
			c0.3-0.1,0.6-0.1,0.9,0c0.3,0.1,0.7,0.2,1,0.4c0.3,0.2,0.8,0.5,1.3,0.8c0.1-0.1,0.2-0.1,0.3-0.2c0.1-0.1,0.2-0.3,0.3-0.4
			c0.1-0.1,0.1-0.2,0.2-0.3L55.8,38c-0.4-0.5-0.8-0.9-1.2-1.4c-0.3-0.4-0.6-0.7-0.9-1.1c0,0-0.1,0-0.1,0h-0.1
			c-0.2,0.3-0.5,0.7-0.9,1.1s-0.7,0.8-1,1.2l-1,1.1l-4.7,5c-0.4,0.4-0.8,0.8-1.2,1.3l-1.3,1.2c-0.4,0.4-0.8,0.8-1.1,1.1
			c0,0.1,0.1,0.2,0.2,0.3c0.1,0.1,0.2,0.3,0.3,0.4C43,48.3,43.1,48.3,43.2,48.3"/>
		<path class="st0" d="M36.4,65l1.1,0.3l1.9,0.4l2.3,0.6l2.4,0.6l2.2,0.6L48,68c0.5,0.1,0.8,0.2,0.9,0.3c0.1,0,0.1,0.1,0.2,0.2
			c0.1,0.1,0.1,0.1,0.1,0.2s-0.3,0.4-0.5,0.8l-0.8,1.2l-1,1.4l-1,1.4l-0.9,1.2c-0.3,0.4-0.5,0.6-0.6,0.8c-0.1,0.1-0.1,0.1-0.2,0.1
			c-0.1,0-0.2,0-0.3-0.1c-0.2-0.2-0.4-0.5-0.7-0.9l-1-1.4l-1.3-1.7l-1.3-1.9l-1.3-1.8L37,66.2l-0.8-1.1c0,0,0,0,0-0.1
			C36.2,65,36.3,65,36.4,65 M41.4,79.5l1,0.4l1.4,0.6c0.5,0.2,1,0.5,1.6,0.8s1.1,0.5,1.6,0.8s1,0.6,1.4,0.8c0.1-0.1,0.1-0.1,0.2-0.2
			l0.2-0.4c0.1-0.1,0.2-0.2,0.2-0.4c0-0.1,0.1-0.2,0.1-0.2c-0.3-0.3-0.7-0.7-1-1S47.3,80,47,79.6s-0.6-0.7-0.9-1.1
			c-0.2-0.3-0.4-0.6-0.6-0.9c0-0.1,0-0.1,0-0.2c0-0.1,0-0.2,0-0.3c0-0.1,0-0.2,0.1-0.2l7-9.8c0.1-0.1,0.2-0.2,0.3-0.3
			c0.1,0,0.2-0.1,0.4-0.1h0.2c0.4,0.1,0.8,0.2,1.2,0.4c0.5,0.2,1.1,0.5,1.8,0.8c0.7,0.3,1.3,0.7,2,1.1c0.1,0,0.2-0.1,0.2-0.2
			c0.1-0.1,0.2-0.2,0.2-0.4c0.1-0.1,0.1-0.3,0.2-0.4c0-0.1,0-0.2,0-0.3c-0.4-0.4-0.9-0.9-1.4-1.4s-1-1-1.4-1.6s-0.9-1-1.3-1.5
			s-0.8-1-1.1-1.4c0,0-0.1,0-0.1,0h-0.1l-0.3,0.5L53,63l-0.4,0.5c-0.1,0.1-0.1,0.1-0.2,0.1c-0.1,0-0.2,0.1-0.3,0.1
			c-0.1,0-0.1,0-0.2,0l-1.5-0.3l-2.2-0.5l-2.7-0.6l-3-0.7l-3-0.7l-2.7-0.7l-2.2-0.6l-0.8-0.2l-0.5-0.2L32.9,59
			c-0.1,0.1-0.1,0.2-0.2,0.4c-0.2,0.3-0.3,0.5-0.5,0.8c-0.2,0.2-0.3,0.5-0.5,0.7s-0.3,0.3-0.3,0.4c0.2,0.2,0.4,0.4,0.6,0.7
			c0.2,0.3,0.4,0.5,0.6,0.8l0.5,0.7l1.7,2.5l1.8,2.7l1.8,2.7l1.6,2.4l1.3,2c0.4,0.6,0.6,1,0.8,1.3c0.1,0.1,0.1,0.2,0.2,0.3
			c0.1,0.1,0.1,0.3,0.1,0.4c0,0.1,0,0.3,0,0.4c-0.1,0.2-0.2,0.4-0.3,0.5L41.8,79L41.4,79.5z"/>
		<path class="st0" d="M17.7,88.5c0.2-0.3,0.4-0.5,0.5-0.8c0.2-0.2,0.3-0.5,0.5-0.7c0.1-0.1,0.3-0.3,0.5-0.3
			c0.2-0.1,0.3-0.1,0.5-0.1c0.3,0,0.5,0.1,0.7,0.2c0.3,0.1,0.6,0.3,1.1,0.5l1.4,0.7l1.6,0.8l1.7,0.9l3,1.6l2.4,1.2
			c0.7,0.4,1.3,0.7,1.9,1c0.3,0.1,0.5,0.3,0.7,0.5c0.1,0.1,0.3,0.3,0.3,0.5c0,0.2,0,0.4,0,0.6c0,0.2-0.1,0.6-0.3,1S34,97,33.8,97.5
			c0.1,0.1,0.2,0.1,0.3,0.2l0.4,0.2c0.1,0.1,0.2,0.1,0.4,0.1c0.3-0.6,0.6-1.2,0.9-1.8l0.9-1.9c0.3-0.6,0.6-1.2,0.9-1.8
			c0.8-1.6,1.6-3.1,2.4-4.6c0.8-1.4,1.5-2.8,2.1-4c0.2-0.3,0.3-0.7,0.4-1c0.1-0.2,0.1-0.4,0-0.5c0-0.1-0.1-0.2-0.2-0.3
			c-0.2-0.3-0.4-0.5-0.6-0.7c-0.3-0.3-0.5-0.6-0.8-0.9s-0.6-0.6-0.9-0.9L39.1,79l-0.5-0.5c-0.1,0-0.2,0.1-0.3,0.2
			c-0.1,0.1-0.3,0.2-0.4,0.4c-0.1,0.1-0.2,0.2-0.2,0.3c0.4,0.5,0.8,1,1.2,1.5c0.3,0.5,0.6,1,0.8,1.5c0.1,0.3,0.2,0.6,0.3,0.9
			c0,0.3,0,0.6-0.1,0.9c-0.1,0.4-0.3,0.8-0.5,1.1c-0.3,0.6-0.6,1.1-0.8,1.6s-0.5,0.9-0.7,1.3c-0.2,0.3-0.4,0.5-0.5,0.8
			c-0.2,0.2-0.4,0.3-0.6,0.3c-0.3,0-0.5,0-0.7-0.2l-5.3-2.8c-0.1,0-0.1-0.1-0.1-0.2c0-0.1,0-0.1,0-0.2l0.5-0.9l0.6-1.2l0.6-1
			c0.2-0.3,0.3-0.5,0.4-0.7c0.2-0.2,0.4-0.4,0.7-0.5c0.2-0.1,0.5-0.1,0.8-0.1l1.4,0.3c0.1-0.1,0.1-0.1,0.2-0.2
			c0.1-0.1,0.1-0.2,0.2-0.4c0.1-0.1,0.1-0.2,0.2-0.4c0-0.1,0.1-0.2,0.1-0.3l-1-0.5l-1.1-0.5l-1-0.5c-0.3-0.2-0.7-0.4-1-0.6l-1-0.6
			l-0.8-0.5c-0.1,0-0.1,0.1-0.2,0.2c-0.1,0.1-0.1,0.2-0.2,0.4c-0.1,0.1-0.1,0.2-0.2,0.4c0,0.1-0.1,0.2-0.1,0.3l0.5,0.4
			c0.2,0.1,0.3,0.2,0.5,0.4c0.3,0.2,0.5,0.5,0.6,0.8c0.1,0.3,0,0.6-0.1,0.8c-0.1,0.3-0.3,0.6-0.4,0.9l-0.5,1.1l-0.5,1l-0.4,0.8
			c0,0.1-0.1,0.1-0.1,0.1c-0.1,0-0.1,0-0.2,0l-3-1.5c-1-0.5-1.9-1-2.9-1.5c-0.1,0-0.1-0.1-0.2-0.2C22.1,82.1,22,82,22,81.9
			c0-0.1,0-0.1,0-0.2c0-0.1,0.1-0.3,0.3-0.6l0.5-0.9c0.2-0.3,0.4-0.7,0.5-1.1l0.5-1c0.2-0.3,0.3-0.5,0.4-0.7
			c0.1-0.2,0.3-0.4,0.5-0.6c0.3-0.2,0.6-0.3,0.9-0.3c0.3,0,0.7,0.1,1,0.1c0.4,0.1,0.9,0.2,1.5,0.4c0.1-0.1,0.2-0.2,0.2-0.3
			c0.1-0.2,0.1-0.3,0.2-0.5c0-0.1,0.1-0.3,0.1-0.4l-1.7-1c-0.6-0.3-1.1-0.7-1.5-1c-0.4-0.2-0.8-0.5-1.1-0.8c0,0-0.1,0-0.1,0
			c0,0,0,0-0.1,0c-0.1,0.4-0.3,0.8-0.5,1.3s-0.4,1-0.7,1.4s-0.5,0.9-0.6,1.3l-3.1,6.1c-0.3,0.5-0.5,1-0.8,1.6l-0.9,1.6
			c-0.3,0.5-0.5,1-0.7,1.4c0.1,0.1,0.1,0.2,0.2,0.2c0.1,0.1,0.3,0.2,0.4,0.3C17.5,88.4,17.6,88.4,17.7,88.5"/>
		<path class="st0" d="M195.4,9.8l0.6,0.3c0.2,0.1,0.3,0.2,0.5,0.3c0.2,0.1,0.3,0.2,0.5,0.4c0.2,0.2,0.4,0.4,0.4,0.7
			c0,0.3,0,0.6-0.1,0.9c-0.1,0.4-0.2,0.7-0.3,1.1s-0.3,0.8-0.4,1.3s-0.4,1-0.6,1.7l-0.9,2.2l-0.6,1.6c-0.2,0.6-0.4,1.2-0.6,1.7
			l-0.6,1.6c-0.2,0.5-0.4,1-0.5,1.4s-0.3,0.7-0.4,0.9c-0.1,0.4-0.3,0.7-0.6,1c-0.1,0.2-0.3,0.3-0.5,0.4c-0.2,0-0.4,0-0.6,0l-0.6-0.1
			l-0.9-0.2c-0.1,0.1-0.2,0.2-0.2,0.3c-0.1,0.1-0.1,0.3-0.2,0.5c0,0.1,0,0.3,0,0.4l0.9,0.3l1,0.3l1.3,0.5l1.8,0.6
			c0.8,0.3,1.6,0.6,2.3,0.9l2.4,0.9c0.1,0,0.1-0.1,0.2-0.1c0.1-0.2,0.3-0.4,0.3-0.6c0-0.1,0-0.2,0-0.2l-0.9-0.5
			c-0.2-0.1-0.5-0.3-0.7-0.5c-0.2-0.1-0.4-0.4-0.5-0.6c-0.1-0.2-0.1-0.4,0-0.7c0-0.2,0.1-0.4,0.2-0.6c0.1-0.4,0.3-1,0.6-1.6
			s0.5-1.5,0.9-2.5s0.8-2.1,1.3-3.4l0.9-2.5c0.3-0.8,0.6-1.5,0.8-2c0.2-0.5,0.4-1,0.5-1.4c0.1-0.3,0.2-0.5,0.4-0.8
			c0.1-0.2,0.2-0.3,0.4-0.4c0.2-0.1,0.4-0.2,0.6-0.1c0.3,0,0.5,0,0.8,0.1l0.9,0.2c0.1-0.1,0.2-0.2,0.2-0.3c0.1-0.1,0.1-0.3,0.2-0.5
			c0-0.1,0-0.2,0-0.4l-0.6-0.2l-0.9-0.3l-1.3-0.5l-2-0.7c-0.7-0.3-1.4-0.5-1.9-0.8L197,9.3l-1.2-0.5c-0.1,0.1-0.1,0.2-0.2,0.3
			c-0.1,0.1-0.1,0.3-0.2,0.4C195.4,9.7,195.4,9.8,195.4,9.8"/>
		<path class="st0" d="M182.1,24.6c-0.2-0.1-0.4-0.1-0.6-0.2c-0.2-0.1-0.4-0.3-0.6-0.5c-0.2-0.2-0.4-0.5-0.6-0.8
			c-0.1-0.2-0.1-0.3-0.1-0.5c0-0.1,0-0.3,0-0.5c0.1-0.5,0.2-1.1,0.4-1.7s0.3-1.2,0.5-1.9s0.4-1.3,0.5-2l0.5-1.9c0,0,0-0.1,0.1-0.1
			c0,0,0.1,0,0.1,0h0.3l0.4,0.1l0.3,0.1c0.8,0.2,1.6,0.6,2.2,1.2c0.5,0.6,0.8,1.3,0.9,2.1c0.1,1,0,1.9-0.3,2.9
			c-0.2,1.2-0.8,2.2-1.6,3.1C183.9,24.7,183,24.9,182.1,24.6 M172.1,21.9c-0.1,0.1-0.2,0.2-0.2,0.3c-0.1,0.1-0.1,0.3-0.1,0.5
			c0,0.1,0,0.2,0,0.4l1.6,0.5l2,0.6l2.1,0.6l1.8,0.5l1.3,0.4c0.9,0.3,1.9,0.4,2.8,0.6c0.9,0.1,1.8,0.1,2.6,0
			c0.9-0.1,1.8-0.4,2.6-0.9c0.7-0.4,1.3-1,1.8-1.6c0.5-0.7,0.8-1.4,1-2.2c0.2-0.7,0.3-1.5,0.2-2.2c-0.1-0.7-0.3-1.5-0.7-2.1
			c-0.4-0.7-1-1.3-1.7-1.8c-0.9-0.6-1.9-1-2.9-1.3c-0.8-0.2-1.6-0.4-2.1-0.5l-1.3-0.3c0,0-0.1,0-0.1-0.1c0,0,0-0.1,0-0.1l0.5-1.8
			c0.1-0.5,0.3-0.9,0.4-1.3s0.2-0.7,0.3-0.9s0.2-0.5,0.2-0.8c0.1-0.4,0.3-0.7,0.5-1c0.2-0.2,0.5-0.4,0.9-0.4c0.3,0,0.5,0,0.8,0
			c0.3,0,0.6,0.1,1,0.1c0.1,0,0.1-0.1,0.2-0.2c0-0.1,0.1-0.2,0.1-0.4c0-0.1,0-0.2,0.1-0.4c0-0.1,0-0.2,0-0.2l-2.2-0.5
			c-0.8-0.2-1.8-0.4-2.8-0.7s-2-0.6-2.9-0.8s-1.5-0.5-2.1-0.6c0,0-0.1,0.1-0.1,0.2c-0.1,0.1-0.1,0.2-0.1,0.3c0,0.1-0.1,0.2-0.1,0.4
			c0,0.1,0,0.2,0,0.3c0.3,0.1,0.6,0.2,0.9,0.4c0.3,0.1,0.5,0.3,0.8,0.4c0.2,0.1,0.3,0.2,0.4,0.4c0.1,0.1,0.2,0.3,0.2,0.5
			c0,0.3,0,0.5-0.1,0.8c-0.1,0.4-0.2,0.9-0.3,1.3l-0.4,1.4l-0.5,1.7c-0.2,0.6-0.4,1.4-0.6,2.2l-0.9,3.4c-0.3,1-0.5,1.9-0.7,2.6
			s-0.4,1.2-0.4,1.5c-0.1,0.4-0.3,0.7-0.5,1c-0.2,0.2-0.4,0.3-0.7,0.3c-0.3,0-0.7,0-1,0L172.1,21.9z"/>
		<path class="st0" d="M147.2,1.1l0.9,0.2c0.3,0.1,0.5,0.1,0.8,0.2c0.2,0.1,0.4,0.2,0.5,0.3c0.1,0.2,0.2,0.3,0.2,0.5
			c0,0.3,0.1,0.6,0.1,0.9c0,0.3,0,0.6-0.1,1.1s-0.1,1-0.1,1.7s-0.1,1.3-0.2,2.1l-0.2,2.4l-0.2,2.2c-0.1,0.7-0.1,1.4-0.2,2
			s-0.1,1.1-0.1,1.6c0,0.4-0.1,0.7-0.1,0.8c0,0.4-0.1,0.8-0.3,1.1c-0.1,0.2-0.2,0.5-0.4,0.6c-0.2,0.2-0.5,0.2-0.7,0.3l-1.6,0.2
			c-0.1,0.1-0.1,0.1-0.1,0.2c0,0.1,0,0.2,0,0.4c0,0.1,0,0.2,0,0.4c0,0.1,0,0.1,0.1,0.2l1.8,0.1c0.8,0,1.9,0.1,3.2,0.2
			c1,0.1,1.9,0.2,2.6,0.2l1.8,0.2l1,0.1c0.1-0.1,0.1-0.2,0.1-0.3c0.1-0.2,0.1-0.3,0.1-0.5c0-0.1,0-0.2,0-0.4l-1-0.3
			c-0.3-0.1-0.6-0.2-0.8-0.3c-0.5-0.1-0.8-0.5-0.8-1c0-0.3,0-0.6,0-0.9c0-0.5,0.1-1.1,0.1-1.7c0-0.6,0.1-1.3,0.1-2L154,12
			c0,0,0-0.1,0-0.1c0,0,0-0.1,0.1-0.1c0.1,0,0.1,0,0.2,0h0.6l1.3,0.1l2.3,0.2l1.5,0.1l1.4,0.1l1,0.1c0.1,0,0.1,0,0.1,0.1
			c0,0.1,0,0.1,0,0.2c-0.1,0.7-0.1,1.5-0.2,2.2s-0.1,1.5-0.2,2.1s-0.1,1.3-0.2,1.8c0,0.4-0.1,0.8-0.3,1.2c-0.2,0.2-0.4,0.4-0.7,0.5
			l-0.8,0.1l-0.9,0.1c-0.1,0.1-0.1,0.2-0.1,0.3c0,0.2,0,0.3,0,0.5c0,0.1,0,0.2,0.1,0.3l1.2,0.1l1.8,0.1c0.7,0,1.4,0.1,2.2,0.1
			c1.2,0.1,2.2,0.2,3.1,0.3l1.9,0.2c0.1-0.1,0.1-0.1,0.1-0.2c0-0.1,0.1-0.2,0.1-0.4c0-0.1,0-0.3,0.1-0.4c0-0.1,0-0.2,0-0.2l-1-0.2
			l-0.7-0.2c-0.2-0.1-0.3-0.1-0.5-0.2c-0.2-0.1-0.4-0.4-0.5-0.6c-0.1-0.4-0.1-0.7-0.1-1.1c0-0.4,0-0.8,0.1-1.3s0.1-1,0.1-1.6
			c0.1-0.6,0.1-1.2,0.1-1.8l0.1-1.8c0.1-1,0.1-1.9,0.2-2.7l0.1-2c0-0.6,0.1-1.1,0.1-1.6s0.1-1,0.2-1.6c0-0.3,0.1-0.6,0.2-0.8
			c0.1-0.2,0.2-0.3,0.3-0.5c0.1-0.1,0.3-0.2,0.5-0.2c0.2-0.1,0.5-0.1,0.7-0.1l0.9-0.1c0.1-0.1,0.1-0.2,0.1-0.3c0-0.2,0-0.3,0-0.5
			c0-0.1,0-0.2-0.1-0.3h-0.8h-1l-1.3-0.1l-1.8-0.1L164,1.5l-1.3-0.1l-1.1-0.1l-1-0.1c-0.1,0.1-0.1,0.2-0.2,0.3
			c0,0.2-0.1,0.3-0.1,0.5c0,0.1,0,0.2,0.1,0.3l1.1,0.2c0.3,0.1,0.5,0.2,0.8,0.3c0.2,0.1,0.3,0.2,0.4,0.3c0.1,0.1,0.1,0.3,0.2,0.5
			c0,0.2,0,0.3,0,0.5c0,0.6,0,1.3-0.1,2s-0.1,1.4-0.1,2.1s-0.1,1.3-0.1,1.9c0,0.1,0,0.1-0.1,0.1c0,0-0.1,0.1-0.1,0.1
			c-0.2,0-0.6,0-1.2-0.1l-2.3-0.2l-2.2-0.2l-1.3-0.1l-0.6-0.1l-0.3-0.1c0,0-0.1-0.1-0.1-0.1c0,0,0-0.1,0-0.1c0-0.6,0.1-1.3,0.1-1.9
			s0.1-1.3,0.1-1.9s0.1-1.2,0.2-1.8c0-0.4,0.1-0.8,0.3-1.1c0.1-0.3,0.4-0.4,0.7-0.5c0.1,0,0.3-0.1,0.4-0.1l0.6-0.1h0.6
			c0.1-0.1,0.1-0.2,0.1-0.3c0-0.2,0-0.3,0-0.5c0-0.1,0-0.2-0.1-0.4l-1.1-0.1l-1.6-0.1c-0.6,0-1.4-0.1-2.3-0.1s-1.7-0.1-2.3-0.2
			l-1.6-0.2l-1-0.1c-0.1,0.1-0.1,0.1-0.1,0.2c0,0.1-0.1,0.2-0.1,0.4c0,0.1,0,0.2,0,0.4C147.2,1,147.3,1.1,147.2,1.1"/>
		<path class="st0" d="M136.2,20.5c-0.2,0-0.4,0-0.6,0c-0.3,0-0.5-0.1-0.8-0.2c-0.3-0.1-0.6-0.3-0.8-0.5c-0.1-0.1-0.2-0.2-0.3-0.4
			c-0.1-0.1-0.1-0.3-0.1-0.4c-0.1-0.5-0.2-1.1-0.3-1.7s-0.2-1.3-0.3-2s-0.2-1.3-0.3-2l-0.2-1.9c0-0.1,0-0.1,0-0.2
			c0-0.1,0-0.1,0.1-0.1l0.3-0.1l0.4-0.1h0.3c0.9-0.1,1.8,0,2.7,0.3c0.7,0.3,1.4,0.8,1.8,1.5c0.5,0.8,0.8,1.8,0.9,2.8
			c0.2,1.2,0.1,2.4-0.4,3.4C138,19.8,137.2,20.4,136.2,20.5 M125.8,21.7c-0.1,0.1-0.1,0.2-0.1,0.3c0,0.2,0,0.3,0.1,0.5
			c0,0.1,0.1,0.2,0.1,0.3l1.4-0.1l1.7-0.2l1.8-0.2l1.8-0.2l1.5-0.1l1-0.1c0.7-0.1,1.3-0.2,2-0.3c0.6-0.2,1.3-0.4,1.9-0.6
			c0.6-0.2,1.1-0.5,1.6-0.8c0.8-0.5,1.5-1.1,2-1.8c0.5-0.6,0.8-1.4,1-2.1c0.2-0.8,0.2-1.6,0.1-2.3c-0.1-0.7-0.3-1.5-0.7-2.1
			c-0.4-0.7-0.9-1.2-1.5-1.7c-0.7-0.5-1.5-0.8-2.3-1c-1-0.2-2.1-0.2-3.1-0.1c-1.1,0.1-1.9,0.3-2.6,0.4l-1.3,0.2c0,0-0.1,0-0.1-0.1
			c0,0,0-0.1,0-0.1L132,7.6c-0.1-0.5-0.1-1-0.1-1.3s-0.1-0.7-0.1-1s-0.1-0.6-0.1-0.8c0-0.3,0-0.6,0-0.8c0-0.2,0.1-0.4,0.2-0.6
			c0.1-0.2,0.3-0.3,0.5-0.4c0.2-0.1,0.5-0.2,0.8-0.3l0.9-0.3c0.1-0.1,0.1-0.1,0.1-0.2c0-0.1,0-0.3,0-0.4c0-0.1,0-0.3-0.1-0.4
			c0-0.1-0.1-0.2-0.1-0.2l-2.2,0.3c-0.8,0.1-1.8,0.3-2.9,0.4s-2.1,0.2-3,0.3s-1.6,0.1-2.2,0.2c0,0.1-0.1,0.1-0.1,0.2
			c0,0.1,0,0.2,0,0.3c0,0.1,0,0.2,0.1,0.4c0,0.1,0,0.2,0.1,0.2c0.3,0,0.6,0,1,0c0.3,0,0.6,0,0.9,0.1c0.2,0,0.4,0.1,0.5,0.2
			c0.1,0.1,0.3,0.2,0.3,0.4c0.1,0.2,0.2,0.5,0.2,0.7c0.1,0.4,0.2,0.9,0.2,1.4l0.2,1.5l0.2,1.8c0.1,0.6,0.2,1.4,0.3,2.3l0.4,3.5
			c0.1,1.1,0.2,2,0.3,2.7s0.1,1.3,0.1,1.5c0,0.4,0,0.7-0.1,1.1c-0.1,0.2-0.2,0.5-0.4,0.6c-0.3,0.1-0.6,0.3-0.9,0.3L125.8,21.7z"/>
		<path class="st0" d="M102.2,28.3c0,0.1,0,0.2,0,0.4c0,0.2,0.1,0.3,0.2,0.5c0,0.1,0.1,0.2,0.2,0.3c0.6-0.2,1.2-0.4,1.8-0.6
			s1.2-0.4,1.8-0.6c0.9-0.3,1.8-0.5,2.4-0.7l1.7-0.5c0-0.1,0-0.2,0-0.4c0-0.2-0.1-0.3-0.1-0.5c0-0.1-0.1-0.2-0.2-0.3l-0.8,0.1
			l-0.8,0.1c-0.4,0.1-0.8,0-1.1-0.3c-0.2-0.4-0.3-0.9-0.3-1.4c0-0.4,0-0.9,0-1.6s0-1.4,0.1-2.2s0.1-1.6,0.1-2.5s0.1-1.7,0.1-2.5
			c0-0.8,0.1-1.6,0.1-2.3s0.1-1.3,0.1-1.7c0,0,0,0,0.1,0h0.1l1.4,1.9l1.6,2.3l1.6,2.4l1.5,2.2c0.5,0.7,0.9,1.3,1.2,1.8
			s0.6,0.9,0.7,1.1c0,0.1,0.1,0.2,0.1,0.3c0,0.2-0.1,0.3-0.2,0.4c-0.1,0.1-0.3,0.2-0.4,0.3c-0.2,0.1-0.4,0.2-0.6,0.3l-0.5,0.3
			c0,0.1,0,0.2,0,0.3c0,0.2,0.1,0.3,0.2,0.5c0,0.1,0.1,0.2,0.2,0.3l0.9-0.3l1-0.3l1.3-0.4l1.8-0.5c0.8-0.3,1.6-0.5,2.2-0.6l1.6-0.4
			l1-0.3c0-0.1,0-0.2,0-0.2c0-0.2-0.1-0.5-0.1-0.7c0-0.1-0.1-0.2-0.1-0.2c-0.5,0.1-1,0.1-1.6,0.1c-0.3,0-0.7-0.1-1-0.2
			c-0.3-0.2-0.7-0.4-0.9-0.7c-0.3-0.3-0.7-0.8-1.2-1.4l-1.1-1.6l-1.5-2l-1.7-2.3l-1.7-2.3l-1.5-2.1l-1.2-1.7l-1.1-1.7l-0.7,0.3
			c-0.3,0.1-0.5,0.2-0.9,0.3s-0.6,0.2-0.9,0.2l-0.8,0.2c0,0.2,0,0.4,0.1,0.7s0,0.6,0,0.9s0,0.6,0,0.8c0,0.4,0,1-0.1,1.7
			s-0.1,1.5-0.1,2.4s-0.1,1.8-0.2,2.8c-0.1,1-0.2,2-0.2,3s-0.2,2-0.3,2.9s-0.2,1.8-0.3,2.6c0,0.4-0.1,0.9-0.2,1.3
			c-0.1,0.3-0.2,0.6-0.4,0.9c-0.2,0.3-0.5,0.5-0.8,0.7C103.1,27.9,102.7,28.1,102.2,28.3"/>
		<path class="st0" d="M258.6,54.6c0.2,0.3,0.3,0.6,0.4,0.9s0.2,0.5,0.3,0.8c0.1,0.2,0.1,0.4,0.1,0.6c0,0.2-0.1,0.4-0.3,0.5
			c-0.2,0.2-0.4,0.4-0.7,0.6l-0.9,0.6l-1.4,0.9l-1.8,1.2l-2,1.3l-1.9,1.2l-1.7,1.1l-1.3,0.8l-0.7,0.4c-0.3,0.2-0.7,0.4-1.1,0.5
			c-0.2,0.1-0.5,0.1-0.8,0.1c-0.3-0.1-0.5-0.2-0.7-0.4l-1.1-1.1c-0.1,0-0.2,0-0.2,0.1c-0.1,0.1-0.2,0.1-0.3,0.2
			c-0.1,0.1-0.2,0.1-0.3,0.2c-0.1,0-0.1,0.1-0.1,0.2l1,1.4c0.5,0.7,1.1,1.6,1.8,2.7c0.6,0.9,1.1,1.6,1.4,2.2s0.7,1.1,0.9,1.5
			s0.4,0.7,0.5,0.8c0.1,0,0.2,0,0.3-0.1c0.2-0.1,0.3-0.1,0.4-0.2c0.1-0.1,0.2-0.1,0.3-0.2l-0.4-1c-0.1-0.3-0.2-0.6-0.3-0.8
			c-0.2-0.4,0-0.9,0.3-1.2c0.2-0.2,0.4-0.4,0.7-0.5l1.4-1l1.7-1.1l1.8-1.2h0.1h0.1c0.1,0,0.1,0.1,0.1,0.1c0.1,0.1,0.2,0.2,0.3,0.5
			l0.7,1.1l1.3,1.9l0.8,1.3l0.7,1.2c0.2,0.3,0.4,0.6,0.5,0.8c0,0,0,0.1,0,0.2c0,0.1-0.1,0.1-0.1,0.1l-1.9,1.2l-1.8,1.2
			c-0.6,0.4-1.1,0.7-1.6,1c-0.3,0.2-0.7,0.4-1.1,0.5c-0.3,0-0.6-0.1-0.8-0.3l-0.5-0.5l-0.6-0.7c-0.1,0-0.2,0-0.4,0.1
			c-0.1,0.1-0.3,0.2-0.4,0.3c-0.1,0.1-0.2,0.2-0.2,0.3c0.1,0.2,0.4,0.5,0.7,1l1,1.5c0.4,0.6,0.8,1.2,1.2,1.8c0.7,1,1.2,1.9,1.7,2.6
			c0.4,0.7,0.8,1.3,1,1.6c0.1,0,0.2,0,0.2,0l0.3-0.1l0.3-0.2c0.1,0,0.1-0.1,0.2-0.2l-0.4-0.9c-0.1-0.2-0.2-0.5-0.3-0.6
			c-0.1-0.2-0.1-0.3-0.2-0.5c-0.1-0.3,0-0.6,0.2-0.8c0.2-0.3,0.5-0.5,0.8-0.8l1.1-0.8l1.3-0.9l1.5-1l1.5-1l2.3-1.5l1.7-1.1l1.4-0.9
			l1.4-0.8c0.2-0.2,0.5-0.3,0.8-0.4c0.2-0.1,0.4-0.1,0.5,0c0.2,0,0.3,0.1,0.5,0.3c0.2,0.1,0.4,0.3,0.6,0.5l0.6,0.7
			c0.1,0,0.2,0,0.4-0.1c0.1-0.1,0.3-0.2,0.4-0.3c0.1-0.1,0.2-0.1,0.2-0.3l-0.4-0.6l-0.6-0.8l-0.7-1.1c-0.3-0.4-0.6-0.9-1-1.5
			s-0.7-1-0.9-1.4l-0.7-1.1l-0.6-0.9c-0.2-0.3-0.4-0.6-0.5-0.9c-0.1,0-0.2,0-0.4,0.1c-0.2,0.1-0.3,0.2-0.4,0.3
			c-0.1,0.1-0.2,0.2-0.2,0.3c0.2,0.4,0.3,0.7,0.5,1c0.1,0.3,0.2,0.5,0.3,0.8c0.1,0.2,0.1,0.3,0,0.5c-0.1,0.2-0.1,0.3-0.3,0.4
			c-0.1,0.1-0.2,0.2-0.4,0.3c-0.5,0.4-1.1,0.8-1.7,1.2l-1.8,1.2l-1.6,1.1c-0.1,0-0.1,0-0.2,0c-0.1,0-0.1,0-0.1-0.1
			c-0.1-0.2-0.4-0.5-0.7-1l-1.4-2l-1.2-1.8l-0.7-1.1c-0.2-0.2-0.3-0.4-0.3-0.5c0-0.1-0.1-0.2-0.1-0.3c0,0,0-0.1,0-0.2
			c0,0,0.1-0.1,0.1-0.1l1.6-1.1l1.6-1c0.5-0.3,1-0.7,1.5-0.9c0.3-0.2,0.6-0.4,1-0.5c0.3,0,0.6,0,0.8,0.2c0.1,0.1,0.2,0.2,0.4,0.3
			c0.1,0.1,0.3,0.3,0.4,0.4l0.4,0.4c0.1,0,0.2,0,0.3-0.1c0.1-0.1,0.3-0.2,0.4-0.3c0.1-0.1,0.2-0.2,0.2-0.3c-0.2-0.2-0.4-0.5-0.6-0.9
			l-0.9-1.3c-0.4-0.5-0.8-1.2-1.3-1.9c-0.5-0.7-0.9-1.4-1.3-2l-0.9-1.4c-0.2-0.4-0.4-0.7-0.5-0.9c-0.1,0-0.1,0-0.2,0
			c-0.1,0-0.2,0.1-0.3,0.2c-0.1,0.1-0.2,0.1-0.3,0.2C258.7,54.5,258.6,54.6,258.6,54.6"/>
		<path class="st0" d="M234,53.3c-0.1,0-0.2,0.1-0.3,0.1c-0.1,0.1-0.3,0.2-0.4,0.3c-0.1,0.1-0.2,0.2-0.4,0.3
			c-0.2,0.3-0.5,0.5-0.6,0.8c-0.2,0.3-0.3,0.6-0.4,0.9c-0.1,0.3-0.1,0.6-0.1,0.9c0,0.3,0.2,0.5,0.3,0.8c0.2,0.2,0.3,0.5,0.6,0.7
			c0.4,0.4,0.9,0.7,1.5,0.8c0.6,0.2,1.3,0.2,1.9,0.2c0.7,0,1.4-0.1,2.1-0.2c0.7-0.1,1.4-0.3,2-0.5c0.9-0.2,1.9-0.5,3-0.9
			s2.2-0.8,3.4-1.3s2.4-1,3.7-1.5s2.4-1,3.6-1.5c0.3-0.2,0.7-0.3,1-0.4c0.3-0.1,0.6-0.1,0.9-0.1c0.3,0,0.7,0.1,1,0.3
			c0.5,0.2,0.9,0.5,1.3,0.8c0.1,0,0.1,0,0.2,0c0.1-0.1,0.2-0.1,0.3-0.2c0.1-0.1,0.2-0.2,0.2-0.3c0.1-0.1,0.1-0.2,0.1-0.3l-1.3-1.2
			c-0.5-0.4-0.9-0.8-1.4-1.3l-1.1-1l-0.9-0.9l-0.9-0.9c-0.1,0-0.2,0-0.2,0.1c-0.1,0.1-0.2,0.1-0.3,0.2c-0.1,0.1-0.2,0.2-0.3,0.3
			c-0.1,0.1-0.1,0.2-0.1,0.3c0.3,0.3,0.5,0.7,0.7,1c0.2,0.3,0.3,0.5,0.5,0.8c0.1,0.2,0.1,0.4,0,0.6c-0.1,0.2-0.3,0.4-0.5,0.6
			c-0.2,0.2-0.6,0.4-1,0.6s-0.9,0.5-1.5,0.8s-1.2,0.6-1.8,0.9s-1.3,0.6-2,0.9s-1.3,0.5-2,0.8c0,0-0.1,0-0.1,0c0,0,0-0.1,0-0.1
			c0-0.2,0.1-0.5,0.3-0.9l0.5-1.6l0.6-2l0.7-2.1c0.2-0.7,0.4-1.3,0.6-1.8s0.4-1,0.5-1.3c0-0.1,0.1-0.2,0.2-0.3
			c0.1-0.1,0.2-0.1,0.4,0c0.1,0,0.2,0.1,0.3,0.2l0.4,0.3l0.5,0.3c0.1,0,0.2,0,0.2-0.1c0.2-0.2,0.4-0.3,0.5-0.6
			c0-0.1,0.1-0.1,0.1-0.2l-0.5-0.4l-0.9-0.8l-1.1-1.1l-1.3-1.2c-0.5-0.5-1-1-1.5-1.5l-1.2-1.2l-0.8-0.8c-0.1,0-0.2,0.1-0.3,0.2
			c-0.1,0.1-0.2,0.2-0.4,0.3c-0.1,0.1-0.1,0.2-0.2,0.3c0.3,0.4,0.6,0.8,0.8,1.1c0.2,0.3,0.3,0.6,0.4,1c0.1,0.4,0.1,0.8,0,1.2
			c-0.1,0.6-0.3,1.3-0.5,1.9c-0.2,0.7-0.4,1.4-0.7,2.2l-0.8,2.5c-0.3,0.9-0.5,1.7-0.8,2.6s-0.5,1.6-0.8,2.3
			c-0.2,0.7-0.4,1.3-0.6,1.8s-0.3,0.9-0.4,1.1c0,0.1-0.1,0.2-0.1,0.2c-0.1,0.1-0.1,0.2-0.2,0.3c-0.1,0.1-0.1,0.1-0.2,0.2
			c-0.5,0.2-1,0.3-1.5,0.2c-0.5-0.1-0.9-0.4-1.2-0.7c-0.2-0.2-0.4-0.5-0.6-0.7c-0.2-0.3-0.4-0.6-0.6-0.9s-0.3-0.6-0.4-0.9
			C234.1,53.8,234.1,53.6,234,53.3"/>
		<path class="st0" d="M220.9,13.4c-0.3,0-0.6,0-0.9,0c-0.3,0-0.5,0.1-0.8,0.2c-0.2,0.1-0.4,0.2-0.5,0.4c-0.3,0.4-0.4,0.9-0.4,1.4
			c0,0.5,0.2,1,0.4,1.4c0.2,0.5,0.6,0.9,0.9,1.3c0.4,0.4,0.8,0.7,1.3,1c1.3,0.8,2.8,1.1,4.3,1c0.7-0.1,1.4-0.2,2-0.5
			c0.6-0.3,1.1-0.6,1.6-1.1c0-0.1,0-0.1,0-0.2c0-0.1-0.1-0.1-0.1-0.1h-0.2h-0.4h-0.4c-0.1,0-0.2,0-0.3,0c-0.5,0.2-1.1,0.4-1.7,0.4
			c-0.5,0-0.9,0-1.4-0.2c-0.4-0.1-0.8-0.3-1.2-0.6c-0.8-0.4-1.4-1-1.8-1.8c-0.3-0.7-0.3-1.5-0.1-2.2c0-0.1,0-0.1-0.1-0.1
			c0-0.1-0.1-0.1-0.2-0.1C221.1,13.4,221,13.4,220.9,13.4"/>
		<path class="st0" d="M200.2,31c-0.1,0-0.1,0.1-0.2,0.1c-0.1,0.1-0.1,0.2-0.2,0.3c-0.1,0.1-0.1,0.2-0.1,0.3c0,0.1,0,0.1,0,0.2
			l1.6,0.9c0.7,0.4,1.6,1,2.8,1.6c0.8,0.5,1.4,0.9,1.9,1.2l1.4,0.9c0.4,0.3,0.8,0.5,1.1,0.7c0.1,0,0.2-0.1,0.3-0.2
			c0.1-0.1,0.2-0.3,0.3-0.4c0.1-0.1,0.1-0.2,0.1-0.3c-0.3-0.3-0.6-0.5-0.8-0.7c-0.2-0.2-0.4-0.4-0.5-0.6c-0.3-0.3-0.4-0.8-0.2-1.2
			c0.1-0.3,0.2-0.5,0.4-0.8c0.1-0.2,0.2-0.3,0.4-0.4c0.1-0.1,0.3-0.2,0.4-0.2l0.8-0.3l1.6-0.6l2.1-0.8l2.3-0.8l2.2-0.8l1.8-0.7
			c0.5-0.2,0.9-0.3,1.1-0.4c0,0,0.1,0,0.1,0c0,0,0,0.1,0,0.1l-0.8,1.3c-0.3,0.5-0.7,1.1-1.1,1.8l-1.2,2l-1.2,1.9l-1,1.6l-0.7,1
			c-0.2,0.2-0.3,0.5-0.5,0.7c-0.1,0.1-0.3,0.2-0.5,0.3c-0.2,0-0.3,0-0.5,0l-0.7-0.3c-0.2-0.1-0.5-0.2-0.9-0.4c-0.1,0-0.2,0-0.2,0.1
			c-0.1,0.1-0.2,0.2-0.2,0.3c-0.1,0.1-0.1,0.2-0.2,0.3c0,0.1,0,0.2,0,0.3l1.5,0.9c0.7,0.4,1.7,1,2.9,1.7c0.8,0.5,1.5,0.9,2,1.3
			l1.3,0.9c0.4,0.2,0.6,0.4,0.9,0.6c0.1,0,0.2,0,0.2-0.1c0.1-0.1,0.2-0.2,0.3-0.3c0.1-0.1,0.1-0.2,0.2-0.3c0-0.1,0.1-0.1,0.1-0.2
			c-0.4-0.3-0.8-0.6-1-0.9c-0.2-0.2-0.4-0.4-0.6-0.7c-0.2-0.2-0.2-0.5-0.2-0.8c0.1-0.4,0.2-0.7,0.4-1c0.2-0.3,0.4-0.8,0.7-1.3
			s0.6-1,1-1.6l1-1.7l1-1.6l1.1-1.8L225,31l0.6-1l0.6-0.9l0.7-1c0.1-0.2,0.3-0.5,0.5-0.6c0.1-0.1,0.3-0.2,0.5-0.3c0.2,0,0.4,0,0.6,0
			c0.2,0.1,0.5,0.1,0.7,0.2l0.9,0.4c0.1,0,0.1-0.1,0.2-0.1c0.1-0.1,0.2-0.2,0.2-0.3c0.1-0.1,0.1-0.2,0.2-0.3c0-0.1,0-0.1,0-0.2
			l-0.8-0.5l-0.9-0.5l-1.1-0.6l-1.5-0.9c-0.8-0.5-1.4-0.9-1.9-1.2l-1.3-0.9c-0.4-0.2-0.7-0.4-1-0.6c-0.1,0-0.2,0.1-0.3,0.2
			c-0.1,0.1-0.2,0.3-0.3,0.4c-0.1,0.1-0.1,0.2-0.1,0.4c0.2,0.2,0.4,0.3,0.6,0.4c0.1,0.1,0.3,0.2,0.4,0.4c0.1,0.1,0.2,0.3,0.3,0.4
			c0.2,0.2,0.2,0.4,0.2,0.7c0,0.3-0.1,0.5-0.2,0.8l-0.3,0.5l-0.1,0.1l-0.2,0.2c-0.1,0-0.1,0.1-0.2,0.1c-0.4,0.2-1,0.4-1.7,0.7
			l-2.3,0.9l-2.6,0.9l-2.4,0.9l-2,0.7l-1.2,0.4h-0.1c0,0-0.1-0.1,0-0.1l0.7-1.1l1-1.7l1.2-1.9l1.2-1.9l1-1.6
			c0.3-0.5,0.5-0.8,0.7-1.1c0.2-0.2,0.3-0.5,0.5-0.7c0.1-0.2,0.3-0.3,0.5-0.3c0.2,0,0.4,0,0.6,0c0.2,0.1,0.5,0.1,0.7,0.2
			c0.3,0.1,0.5,0.2,0.8,0.3c0.1,0,0.2-0.1,0.3-0.2c0.1-0.1,0.2-0.3,0.3-0.4c0.1-0.1,0.1-0.2,0.1-0.4l-1.5-0.9
			c-0.7-0.4-1.6-0.9-2.8-1.6l-1.5-1l-1.1-0.7l-0.9-0.6l-0.8-0.5c0,0-0.1,0.1-0.2,0.1c-0.1,0.1-0.2,0.2-0.2,0.3
			c-0.1,0.1-0.1,0.2-0.2,0.3c0,0.1,0,0.2,0,0.2l0.6,0.5l0.5,0.4c0.1,0.1,0.3,0.3,0.4,0.4c0.2,0.2,0.3,0.5,0.3,0.8
			c-0.1,0.4-0.2,0.7-0.4,1c-0.1,0.2-0.3,0.6-0.6,1l-1,1.6l-1.2,2l-1.3,2.1l-1.1,1.9l-1,1.6l-0.8,1.2c-0.2,0.3-0.3,0.5-0.4,0.6
			c-0.2,0.3-0.5,0.6-0.7,0.9c-0.2,0.2-0.4,0.3-0.6,0.4c-0.3,0-0.5,0-0.8-0.1L200.2,31z"/>
		<path class="st0" d="M277.1,187.6c0,0-0.1,0.1-0.1,0.2c0,0.1-0.1,0.3-0.1,0.4c0,0.1,0,0.3,0,0.4c0,0.1,0,0.2,0,0.3
			c0.4,0.1,0.9,0.3,1.4,0.5s1,0.4,1.5,0.6s1,0.4,1.4,0.6l1,0.5c0.2-0.5,0.4-1.1,0.7-1.8s0.6-1.4,0.9-2.2s0.6-1.6,0.9-2.5
			c0.4-1.2,0.6-2.5,0.7-3.8c0.1-1.1,0-2.2-0.2-3.3c-0.2-1.3-0.7-2.5-1.4-3.6c-0.7-1-1.5-1.9-2.5-2.7c-1-0.7-2.2-1.3-3.4-1.6
			c-2-0.7-4.2-0.8-6.3-0.3c-1.8,0.5-3.5,1.5-4.7,3c-1.4,1.7-2.4,3.8-3,5.9c-0.2,0.7-0.4,1.4-0.5,2.1c-0.1,0.6-0.1,1.1-0.1,1.7
			c0,0.5,0,0.9,0,1.3c0.1,0.4,0.3,0.7,0.6,1c0.3,0.4,0.6,0.8,1,1.1c0.4,0.4,0.8,0.7,1.2,1.1c0.3,0.3,0.7,0.5,1,0.8
			c0.1,0,0.3-0.1,0.4-0.2c0.1-0.1,0.3-0.2,0.4-0.3c0.1-0.1,0.2-0.2,0.2-0.3c-0.4-0.4-0.7-0.7-1-1.1s-0.6-0.8-0.9-1.2
			c-0.2-0.4-0.5-0.7-0.6-1.1c-0.2-0.4-0.3-0.8-0.4-1.2c0-0.4,0-0.8,0-1.2c0.1-0.3,0.1-0.7,0.2-1c0.3-1,0.7-1.8,1.3-2.6
			c0.5-0.7,1.2-1.2,2-1.6c0.8-0.4,1.6-0.7,2.5-0.8c0.9-0.1,1.8-0.2,2.7-0.1c0.9,0.1,1.8,0.3,2.7,0.5c1.7,0.4,3.2,1.2,4.6,2.1
			c1,0.7,1.8,1.7,2.2,2.9c0.4,1.1,0.4,2.2,0,3.3c-0.2,0.7-0.4,1.3-0.7,1.9c-0.3,0.6-0.7,1.2-1.2,1.7c-0.3,0.3-0.8,0.6-1.2,0.7
			c-0.5,0.1-1,0.2-1.5,0.2C278.3,187.8,277.7,187.8,277.1,187.6"/>
		<path class="st0" d="M276.6,159.6c0,0.2-0.1,0.4-0.2,0.6c-0.1,0.3-0.1,0.6-0.1,0.9c-0.1,0.8-0.1,1.5,0.1,2.3
			c0.1,0.7,0.3,1.5,0.7,2.2c0.3,0.6,0.6,1.1,1.1,1.6c0.5,0.5,1.1,0.9,1.7,1.3c0.7,0.4,1.5,0.6,2.4,0.7c0.7,0.1,1.4,0,2.1-0.1
			c0.6-0.1,1.1-0.4,1.7-0.7c0.5-0.3,0.9-0.6,1.2-1c0.3-0.3,0.5-0.7,0.7-1.1c0.2-0.4,0.3-0.8,0.5-1.2c0.1-0.4,0.2-0.7,0.3-1.1
			c0.1-0.4,0.1-0.7,0.1-0.9c0.1-0.6,0.1-1.2,0.2-1.8l0.1-1.6c0-0.5,0.1-1,0.1-1.6s0.1-1.1,0.2-1.8s0.1-1.2,0.2-1.8s0.1-1.1,0.2-1.6
			s0.1-0.9,0.1-1.2c-0.1-0.1-0.2-0.1-0.3-0.1c-0.2,0-0.3-0.1-0.5-0.1c-0.1,0-0.3,0-0.4,0c-0.1,0.3-0.1,0.6-0.2,0.9s-0.1,0.5-0.2,0.8
			c-0.1,0.2-0.2,0.5-0.4,0.6c-0.2,0.1-0.4,0.2-0.6,0.3c-0.3,0-0.6,0-1,0c-0.4,0-0.8,0-1.4-0.1l-2.1-0.2l-3-0.3l-3.5-0.4l-2.5-0.3
			l-1.7-0.2c-0.3,0-0.6-0.1-0.8-0.2c-0.2-0.1-0.4-0.2-0.6-0.3c-0.2-0.2-0.3-0.4-0.3-0.6c0-0.3-0.1-0.6-0.1-0.9s0-0.6,0-1
			c-0.1-0.1-0.2-0.1-0.3-0.1c-0.2,0-0.3,0-0.5,0c-0.1,0-0.3,0-0.4,0c-0.1,0.9-0.2,1.8-0.2,2.7s-0.1,1.8-0.2,2.7
			c-0.1,0.6-0.1,1.3-0.2,2s-0.2,1.3-0.2,1.9s-0.1,1.1-0.2,1.6c0.1,0.1,0.2,0.2,0.3,0.2c0.2,0,0.3,0.1,0.5,0.1c0.1,0,0.2,0,0.3,0
			c0.1-0.4,0.2-0.9,0.3-1.2c0.1-0.3,0.2-0.7,0.3-1c0.1-0.2,0.2-0.4,0.4-0.6c0.2-0.1,0.4-0.2,0.6-0.2c0.3,0,0.5,0,0.8,0l1.4,0.1
			l1.7,0.1l1.8,0.2l1.7,0.2l1.3,0.1l3.7,0.4l2.4,0.3c0.6,0.1,1.1,0.1,1.4,0.2c0.1,0,0.2,0.1,0.3,0.1c0.1,0,0.1,0.1,0.2,0.1
			c0,0.1,0.1,0.2,0.1,0.3c0,0.1,0,0.2,0,0.3c0,0.1,0,0.2,0,0.3c-0.1,0.8-0.4,1.6-0.9,2.2c-0.5,0.6-1.2,1-2,1.3
			c-0.9,0.3-1.9,0.3-2.8,0.2c-0.6-0.1-1.2-0.2-1.8-0.4c-0.5-0.2-0.9-0.4-1.3-0.7c-0.3-0.3-0.6-0.6-0.8-1c-0.1-0.3-0.2-0.5-0.3-0.8
			c0-0.3,0-0.6,0-0.9c0-0.2,0-0.4,0.1-0.6c0-0.1,0-0.2,0.1-0.4c0,0-0.1-0.1-0.1-0.1c-0.1,0-0.1-0.1-0.2-0.1c-0.1,0-0.2,0-0.3,0.1
			c-0.1,0-0.3,0.1-0.4,0.2C276.8,159.5,276.7,159.5,276.6,159.6"/>
		<path class="st0" d="M288.5,129.2c0,0.3,0,0.6-0.1,0.9c0,0.3-0.1,0.6-0.2,0.8c0,0.2-0.1,0.4-0.2,0.5c-0.1,0.1-0.3,0.3-0.4,0.3
			c-0.2,0.1-0.5,0.1-0.7,0.2c-0.3,0-0.7,0.1-1.2,0.1l-1.5,0.1l-1.8,0.1l-1.9,0.1l-3.4,0.1l-2.6,0.1c-0.8,0-1.5,0-2.1,0
			c-0.3,0-0.6,0-0.9-0.1c-0.2,0-0.4-0.2-0.5-0.3c-0.1-0.1-0.2-0.3-0.3-0.5c-0.1-0.2-0.2-0.6-0.3-1s-0.2-0.9-0.3-1.5
			c-0.1,0-0.2,0-0.3,0h-0.5c-0.1,0-0.3,0-0.4,0.1c0,0.6,0.1,1.3,0.1,2s0.1,1.4,0.1,2.1s0.1,1.4,0.1,2c0.1,1.8,0.1,3.5,0.1,5.1
			c0,1.6,0.1,3.1,0.1,4.6c0,0.4,0,0.7,0.1,1.1c0,0.2,0.1,0.3,0.2,0.5c0.1,0.1,0.2,0.1,0.3,0.2c0.3,0.1,0.6,0.3,0.9,0.4
			c0.4,0.1,0.8,0.2,1.2,0.3l1.2,0.3l1.1,0.2l0.7,0.1c0.1-0.1,0.1-0.2,0.2-0.3c0.1-0.2,0.1-0.3,0.2-0.5c0-0.1,0-0.3,0-0.4
			c-0.6-0.2-1.2-0.5-1.8-0.8c-0.5-0.3-1-0.6-1.4-0.9c-0.3-0.2-0.5-0.4-0.7-0.7c-0.2-0.2-0.3-0.5-0.3-0.8c-0.1-0.4-0.1-0.8-0.1-1.2
			c0-0.6,0-1.2,0-1.8s0-1,0-1.5s0-0.7,0.1-1c0.1-0.2,0.2-0.4,0.4-0.5c0.2-0.1,0.5-0.2,0.7-0.2l6-0.2c0.1,0,0.1,0,0.2,0.1
			c0.1,0,0.1,0.1,0.1,0.1v1c0,0.4,0,0.8,0,1.3s0,0.8,0,1.2s0,0.6,0,0.8c0,0.3-0.1,0.6-0.3,0.8c-0.2,0.2-0.4,0.3-0.6,0.4l-1.4,0.4
			c0,0.1,0,0.2,0,0.3c0,0.1,0,0.3,0,0.4c0,0.1,0,0.3,0,0.4c0,0.1,0,0.2,0.1,0.3l1.1-0.1l1.2-0.1l1.1-0.1c0.4,0,0.8,0,1.2,0h1.2h1
			c0-0.1,0.1-0.2,0.1-0.3c0-0.1,0-0.3,0-0.4c0-0.1,0-0.3,0-0.4c0-0.1,0-0.2-0.1-0.3l-0.7-0.1c-0.2,0-0.4-0.1-0.6-0.1
			c-0.3,0-0.7-0.2-0.9-0.4c-0.2-0.2-0.3-0.5-0.3-0.8c0-0.3,0-0.6-0.1-1s0-0.8-0.1-1.2s0-0.8,0-1.2s0-0.7,0-0.9c0-0.1,0-0.1,0.1-0.2
			c0-0.1,0.1-0.1,0.2-0.1l3.4-0.1c1.1,0,2.2-0.1,3.3-0.1c0.1,0,0.2,0,0.2,0c0.1,0,0.2,0.1,0.3,0.1c0.1,0,0.1,0.1,0.1,0.2
			c0,0.1,0,0.3,0.1,0.6s0,0.6,0,1s0,0.8,0,1.2s0,0.8,0,1.1s0,0.6,0,0.8c0,0.3-0.1,0.5-0.2,0.8c-0.1,0.3-0.4,0.5-0.7,0.7
			c-0.3,0.2-0.7,0.3-1,0.4c-0.4,0.1-0.9,0.2-1.5,0.4c0,0.1,0,0.2,0,0.4c0,0.2,0,0.4,0.1,0.5c0,0.1,0.1,0.3,0.1,0.4h2
			c0.6,0,1.3,0,1.8,0.1c0.5,0,0.9,0.1,1.4,0.1c0,0,0.1,0,0.1,0c0,0,0,0,0-0.1c-0.1-0.4-0.1-0.9-0.2-1.4s-0.1-1-0.1-1.6
			s-0.1-1-0.1-1.5l-0.3-6.8c0-0.6,0-1.2,0-1.8s0-1.2,0-1.8s0-1.1,0-1.6c-0.1-0.1-0.2-0.1-0.3-0.1c-0.2,0-0.3,0-0.5,0
			c-0.1,0-0.2,0-0.4,0.1"/>
		<path class="st0" d="M286.4,115.2c0.2,0.8,0.2,1.7,0,2.5c-0.2,0.7-0.6,1.3-1.2,1.7c-0.6,0.5-1.3,0.8-2.1,0.9
			c-0.6,0.1-1.2,0.1-1.7,0c-0.5-0.1-0.9-0.4-1.3-0.7c-0.1-0.1-0.2-0.3-0.3-0.5c-0.1-0.2-0.2-0.5-0.3-0.8c-0.1-0.3-0.2-0.6-0.2-0.9
			c-0.1-0.4-0.1-0.7-0.2-0.9c0-0.2-0.1-0.4-0.1-0.6c0,0,0-0.1,0-0.1c0,0,0.1-0.1,0.1-0.1l1.8-0.4l1.9-0.4l1.7-0.3l1.1-0.2
			c0.1,0,0.2,0,0.3,0c0.1,0,0.1,0.1,0.2,0.1c0.1,0.1,0.1,0.2,0.2,0.3C286.4,114.9,286.4,115,286.4,115.2 M269,120.7
			c0-0.2,0-0.4,0-0.6c0-0.3,0-0.6,0.1-0.9c0.1-0.3,0.2-0.6,0.4-0.8c0.1-0.2,0.3-0.3,0.4-0.4c0.2-0.1,0.3-0.2,0.5-0.3
			c0.4-0.1,0.9-0.2,1.4-0.3l1.8-0.4l1.9-0.4l1.9-0.4c0.1,0,0.1,0,0.2,0c0,0,0.1,0.1,0.1,0.1c0.1,0.2,0.1,0.3,0.1,0.5
			c0,0.2,0.1,0.4,0.1,0.6c0.2,0.9,0.2,1.9,0,2.8c-0.2,0.8-0.6,1.5-1.2,2c-0.7,0.6-1.5,0.9-2.3,1.1c-0.8,0.2-1.7,0.2-2.6,0.1
			c-0.7-0.1-1.3-0.4-1.8-0.9C269.5,121.9,269.1,121.3,269,120.7z M284.9,106.8c0,0.3,0.1,0.6,0.1,0.9c0,0.3,0,0.6,0,0.9
			c0,0.3-0.1,0.5-0.3,0.8c-0.3,0.2-0.6,0.4-0.9,0.5c-0.6,0.2-1.2,0.3-1.9,0.4l-2.3,0.5l-3,0.6l-3.3,0.7l-2.4,0.5
			c-0.6,0.1-1.1,0.2-1.4,0.3c-0.4,0.1-0.7,0.1-1.1,0c-0.2-0.1-0.5-0.2-0.6-0.5c-0.2-0.3-0.3-0.5-0.4-0.8c-0.1-0.3-0.3-0.7-0.5-1.2
			c-0.1,0-0.2,0-0.3,0c-0.2,0-0.3,0-0.5,0.1c-0.1,0-0.2,0.1-0.4,0.2c0.1,0.4,0.2,0.8,0.3,1.4s0.2,1.1,0.3,1.7s0.2,1.2,0.4,1.9
			s0.2,1.2,0.3,1.8l0.3,1.5c0.1,0.4,0.2,0.8,0.2,1c0.1,0.7,0.3,1.3,0.5,2c0.2,0.7,0.5,1.3,0.7,1.9c0.3,0.6,0.6,1.1,0.9,1.6
			c0.7,1.1,1.7,1.9,2.9,2.5c1.1,0.5,2.4,0.6,3.5,0.3c0.9-0.2,1.7-0.6,2.3-1.2c0.6-0.6,1-1.3,1.2-2.1c0.2-0.9,0.4-1.9,0.3-2.8
			c0,0,0-0.1,0.1-0.1c0,0,0.1,0,0.1,0c0.4,0.7,0.8,1.3,1.4,1.8c0.5,0.4,1.1,0.8,1.7,0.9c0.6,0.2,1.2,0.2,1.8,0.1
			c0.7-0.1,1.3-0.4,1.9-0.8c0.5-0.3,0.8-0.8,1.1-1.3c0.3-0.5,0.4-1.1,0.5-1.7c0.1-0.6,0.1-1.2,0-1.8c-0.1-0.6-0.2-1.3-0.3-1.9
			c-0.1-0.3-0.2-0.8-0.3-1.3s-0.3-1.3-0.5-2s-0.4-1.6-0.5-2.5s-0.3-1.6-0.4-2.2l-0.3-1.6c-0.1-0.4-0.1-0.8-0.2-1c-0.1,0-0.1,0-0.2,0
			h-0.4l-0.4,0.1C285,106.7,284.9,106.7,284.9,106.8L284.9,106.8z"/>
		<path class="st0" d="M257.1,86c-0.1,0-0.2,0-0.2,0c-0.1,0-0.2,0.1-0.3,0.1c-0.1,0.1-0.2,0.1-0.3,0.2c-0.1,0.1-0.1,0.1-0.2,0.2
			c0.2,0.4,0.4,0.9,0.7,1.7s0.8,1.8,1.3,3c0.3,0.8,0.6,1.5,0.8,2.1s0.4,1.1,0.6,1.5s0.3,0.8,0.5,1.2c0.1,0,0.2,0,0.4,0
			c0.2,0,0.3-0.1,0.5-0.1c0.1,0,0.2-0.1,0.3-0.2c-0.1-0.4-0.2-0.8-0.2-1.1c0-0.3-0.1-0.5-0.1-0.8c0-0.2,0-0.4,0.1-0.6
			c0.1-0.2,0.2-0.3,0.4-0.4c0.3-0.2,0.5-0.3,0.8-0.4c0.2-0.1,0.3-0.1,0.5-0.1c0.2,0,0.3,0,0.5,0.1l0.9,0.2l1.6,0.5l2.2,0.7l2.4,0.7
			l2.3,0.7l1.9,0.6c0.5,0.2,0.9,0.3,1.2,0.3c0,0,0.1,0,0.1,0.1c0,0,0,0.1,0,0.1l-1.4,0.5l-1.9,0.8l-2.1,0.8l-2.1,0.8l-1.8,0.7
			l-1.1,0.4c-0.3,0.1-0.6,0.2-0.8,0.2c-0.2,0-0.4,0-0.6-0.1c-0.2-0.1-0.3-0.2-0.4-0.3l-0.4-0.6c-0.1-0.2-0.3-0.5-0.5-0.8
			c-0.1,0-0.2,0-0.2,0c-0.2,0-0.5,0.1-0.7,0.3c-0.1,0-0.1,0.1-0.2,0.2c0.1,0.3,0.4,0.8,0.7,1.6s0.8,1.8,1.3,3.1
			c0.4,0.9,0.6,1.6,0.9,2.2s0.4,1.1,0.5,1.5s0.3,0.7,0.4,1c0.1,0,0.2,0,0.2,0c0.1,0,0.3,0,0.4-0.1c0.1,0,0.2-0.1,0.4-0.1
			c0.1,0,0.1-0.1,0.2-0.1c-0.1-0.5-0.2-0.9-0.3-1.3c-0.1-0.3-0.1-0.6-0.1-0.9c0-0.3,0.1-0.6,0.3-0.7c0.3-0.3,0.6-0.5,1-0.6l1.3-0.6
			l1.7-0.7l1.9-0.8l1.7-0.7l2-0.8l1.4-0.6l1.1-0.4l1-0.4l1.2-0.4c0.3-0.1,0.5-0.2,0.8-0.2c0.2,0,0.4,0,0.5,0.1
			c0.2,0.1,0.3,0.2,0.4,0.3c0.2,0.2,0.3,0.4,0.5,0.6c0.2,0.3,0.3,0.5,0.5,0.8c0.1,0,0.2,0,0.3,0c0.1,0,0.2-0.1,0.4-0.1
			c0.1,0,0.2-0.1,0.3-0.2c0.1,0,0.1-0.1,0.2-0.2c-0.1-0.3-0.2-0.6-0.4-0.8l-0.4-0.9l-0.5-1.2c-0.2-0.4-0.4-1-0.7-1.6
			c-0.3-0.8-0.6-1.6-0.8-2.2l-0.5-1.5c-0.1-0.4-0.3-0.8-0.4-1.1c-0.1,0-0.2,0-0.3,0c-0.2,0-0.3,0.1-0.5,0.2
			c-0.1,0.1-0.2,0.1-0.3,0.3c0.1,0.3,0.1,0.5,0.2,0.7c0,0.2,0.1,0.4,0.1,0.5c0,0.2,0,0.3,0,0.5c0,0.2-0.1,0.5-0.2,0.7
			c-0.2,0.2-0.4,0.4-0.6,0.5l-0.6,0.2L278,95h-0.3c-0.1,0-0.1,0-0.2,0c-0.5-0.1-1.1-0.3-1.8-0.5l-2.4-0.7l-2.6-0.8l-2.5-0.8l-2-0.6
			l-1.2-0.3l-0.1-0.1c0,0,0-0.1,0-0.1l1.2-0.5l1.8-0.7l2.1-0.8l2.1-0.8l1.8-0.7l1.2-0.4c0.3-0.1,0.5-0.2,0.8-0.2
			c0.2-0.1,0.4-0.1,0.6,0c0.2,0.1,0.3,0.2,0.5,0.3c0.1,0.2,0.3,0.3,0.4,0.6s0.3,0.5,0.5,0.7c0.1,0,0.2,0,0.4,0
			c0.2,0,0.3-0.1,0.5-0.2c0.1,0,0.2-0.1,0.3-0.2c-0.1-0.3-0.4-0.8-0.7-1.6s-0.7-1.7-1.3-3c-0.3-0.7-0.5-1.2-0.7-1.7l-0.4-1.2
			c-0.1-0.4-0.3-0.7-0.4-1s-0.2-0.6-0.4-0.9c-0.1,0-0.1,0-0.2,0l-0.4,0.1c-0.1,0-0.2,0.1-0.3,0.2c-0.1,0-0.1,0.1-0.2,0.2l0.2,0.8
			c0.1,0.2,0.1,0.4,0.1,0.6c0,0.2,0.1,0.4,0.1,0.6c0,0.3-0.1,0.6-0.3,0.8c-0.3,0.2-0.6,0.4-0.9,0.6l-1.1,0.5l-1.8,0.7l-2.2,0.9
			l-2.3,0.9l-2,0.8l-1.7,0.7l-1.3,0.5l-0.7,0.3c-0.4,0.1-0.7,0.2-1.1,0.3c-0.2,0-0.5,0-0.7-0.1c-0.2-0.1-0.4-0.3-0.5-0.5L257.1,86z"
			/>
		<path class="st0" d="M210.8,247.6l0.9-0.4l0.7-0.3c0.2-0.1,0.4-0.1,0.6-0.2c0.2-0.1,0.4-0.1,0.7,0c0.2,0.1,0.4,0.2,0.5,0.3
			c0.1,0.2,0.3,0.3,0.4,0.5c0.2,0.3,0.5,0.7,0.9,1.3l1.3,2l1.5,2.4l1.6,2.6l1.6,2.5l1.4,2.3c0,0.1,0,0.1,0.1,0.2c0,0,0,0.1,0,0.1
			l-0.5,0.4l-0.8,0.5l-0.9,0.6c-0.3,0.2-0.6,0.3-0.8,0.4c-0.2,0.1-0.5,0.2-0.8,0.2c-0.3,0-0.6-0.2-0.9-0.4c-0.4-0.3-0.7-0.6-1.1-1
			c-0.4-0.4-0.7-0.8-1.1-1.3c-0.1,0-0.1,0-0.2,0.1c-0.1,0.1-0.2,0.1-0.3,0.2c-0.1,0.1-0.2,0.2-0.3,0.3c-0.1,0-0.1,0.1-0.2,0.2
			c0.4,0.7,0.7,1.3,1,2s0.6,1.3,0.8,1.9s0.5,1.1,0.6,1.6c0,0,0.1,0.1,0.1,0.1c0.1,0,0.1,0,0.2,0c0.2-0.3,0.5-0.5,0.7-0.7
			c0.3-0.3,0.7-0.5,1-0.8c0.4-0.3,0.8-0.6,1.4-0.9l10.1-6.3c0.2-0.1,0.5-0.3,0.8-0.5s0.6-0.3,1-0.5c0.4-0.1,0.7-0.3,1.1-0.4
			c0.1,0,0.1-0.1,0.1-0.2c0-0.1,0-0.1,0-0.2c-0.2-0.4-0.4-0.8-0.6-1.2s-0.4-0.9-0.7-1.4s-0.4-1-0.7-1.4s-0.4-0.9-0.5-1.2
			c-0.1,0-0.2,0-0.3,0c-0.1,0-0.3,0.1-0.4,0.1c-0.1,0-0.3,0.1-0.4,0.2c-0.1,0-0.1,0.1-0.2,0.1c0.1,0.6,0.2,1.1,0.3,1.7
			s0.1,1,0.2,1.4c0.1,0.4,0,0.8-0.1,1.2c-0.1,0.3-0.4,0.6-0.6,0.7l-0.6,0.4l-0.8,0.5l-0.8,0.5l-0.6,0.3c-0.1,0-0.1,0-0.2,0
			c-0.1,0-0.1-0.1-0.1-0.1l-1.7-2.8l-1.8-2.8l-1.7-2.7c-0.5-0.9-1-1.7-1.5-2.4s-0.9-1.4-1.2-2c-0.2-0.3-0.3-0.7-0.5-1.1
			c-0.1-0.2-0.1-0.5,0-0.7c0.1-0.2,0.2-0.5,0.4-0.6c0.1-0.1,0.3-0.3,0.4-0.4l0.6-0.5l0.7-0.5c0-0.1,0-0.2-0.1-0.3
			c-0.1-0.1-0.2-0.3-0.3-0.4c-0.1-0.1-0.2-0.2-0.3-0.2l-1.1,0.8l-1.6,1.1c-0.6,0.4-1.4,0.9-2.3,1.4s-1.9,1.1-2.7,1.6
			s-1.5,0.9-2.1,1.2c0,0.1,0,0.2,0.1,0.3c0.1,0.2,0.1,0.3,0.2,0.4c0.1,0.1,0.1,0.2,0.2,0.2"/>
		<path class="st0" d="M250.2,239.8c-0.3,0.2-0.5,0.4-0.8,0.6c-0.2,0.2-0.5,0.3-0.7,0.4c-0.2,0.1-0.4,0.2-0.6,0.2
			c-0.2,0-0.4,0-0.5-0.1c-0.2-0.1-0.4-0.3-0.6-0.4c-0.2-0.2-0.5-0.5-0.9-0.8s-0.7-0.7-1.1-1.1l-1.3-1.3l-1.3-1.4l-2.4-2.5
			c-0.7-0.7-1.3-1.4-1.8-1.9s-1-1.1-1.4-1.6c-0.2-0.2-0.4-0.4-0.5-0.7c-0.1-0.2-0.1-0.4-0.1-0.6c0-0.2,0.1-0.4,0.2-0.6
			c0.1-0.2,0.3-0.5,0.6-0.8l0.9-1.2c-0.1-0.1-0.1-0.2-0.2-0.3l-0.3-0.3c-0.1-0.1-0.2-0.2-0.3-0.3c-0.4,0.4-0.9,0.9-1.4,1.4l-1.5,1.5
			c-0.5,0.5-1,1-1.4,1.4c-1.3,1.2-2.6,2.4-3.8,3.5c-1.2,1.1-2.3,2.2-3.4,3.1c-0.3,0.2-0.5,0.5-0.7,0.8c-0.1,0.1-0.2,0.3-0.2,0.5
			c0,0.1,0,0.2,0.1,0.3c0.1,0.3,0.2,0.6,0.3,0.9c0.1,0.4,0.3,0.7,0.5,1.1s0.4,0.8,0.6,1.1l0.5,1c0.2,0.3,0.3,0.5,0.4,0.6
			c0.1,0,0.3,0,0.4-0.1c0.2-0.1,0.3-0.1,0.5-0.2c0.1-0.1,0.2-0.1,0.3-0.2c-0.2-0.6-0.4-1.2-0.6-1.8c-0.2-0.5-0.2-1.1-0.3-1.7
			c0-0.3,0-0.7,0.1-1c0.1-0.3,0.2-0.5,0.4-0.8c0.3-0.3,0.5-0.6,0.8-0.9c0.5-0.4,0.9-0.9,1.3-1.2s0.8-0.7,1.1-1s0.6-0.4,0.8-0.6
			c0.2-0.1,0.4-0.1,0.6-0.1c0.2,0.1,0.5,0.2,0.6,0.4l4.2,4.3c0,0.1,0.1,0.1,0.1,0.2c0,0.1,0,0.1,0,0.2l-0.7,0.7l-0.9,0.9l-0.9,0.8
			c-0.3,0.2-0.5,0.4-0.6,0.5c-0.2,0.2-0.5,0.3-0.8,0.3c-0.3,0-0.5-0.1-0.7-0.2l-1.2-0.8c-0.1,0-0.2,0.1-0.2,0.1
			c-0.1,0.1-0.2,0.2-0.3,0.3c-0.1,0.1-0.2,0.2-0.3,0.3c-0.1,0.1-0.1,0.1-0.1,0.2l0.8,0.8l0.9,0.9l0.8,0.8c0.3,0.3,0.5,0.6,0.8,0.9
			l0.8,0.9l0.6,0.7c0.1,0,0.2-0.1,0.3-0.1c0.1-0.1,0.2-0.2,0.3-0.3c0.1-0.1,0.2-0.2,0.3-0.3c0.1-0.1,0.1-0.1,0.1-0.2l-0.4-0.6
			c-0.1-0.2-0.2-0.3-0.3-0.5c-0.2-0.3-0.3-0.6-0.3-0.9c0-0.3,0.2-0.6,0.4-0.8c0.2-0.2,0.4-0.4,0.7-0.7l0.9-0.9l0.9-0.8l0.6-0.6
			c0.1,0,0.1,0,0.2,0c0.1,0,0.1,0,0.2,0.1l2.3,2.4c0.8,0.8,1.5,1.6,2.3,2.4c0.1,0.1,0.1,0.1,0.1,0.2c0,0.1,0.1,0.2,0.1,0.3
			c0,0.1,0,0.1,0,0.2c-0.1,0.1-0.2,0.2-0.4,0.4l-0.7,0.7l-0.9,0.8l-0.8,0.8c-0.3,0.2-0.4,0.4-0.6,0.5c-0.2,0.2-0.4,0.3-0.7,0.4
			c-0.3,0.1-0.6,0.1-0.9,0c-0.3-0.1-0.6-0.3-0.9-0.5c-0.4-0.2-0.8-0.5-1.3-0.9c-0.1,0.1-0.2,0.1-0.3,0.2c-0.1,0.1-0.2,0.3-0.4,0.4
			c-0.1,0.1-0.2,0.2-0.2,0.4l1.3,1.5c0.4,0.5,0.8,1,1.1,1.4c0.3,0.4,0.6,0.7,0.8,1.1c0,0,0.1,0,0.1,0h0.1c0.3-0.3,0.6-0.7,0.9-1.1
			s0.7-0.8,1.1-1.1l1-1l4.9-4.8c0.4-0.4,0.8-0.8,1.3-1.2l1.3-1.2c0.4-0.4,0.8-0.8,1.1-1.1c0-0.1-0.1-0.2-0.1-0.3
			c-0.1-0.1-0.2-0.3-0.3-0.4C250.4,240,250.3,239.9,250.2,239.8"/>
		<path class="st0" d="M241.8,221.9l0.7-0.7c0.2-0.2,0.4-0.4,0.5-0.5c0.2-0.1,0.3-0.3,0.5-0.4c0.2-0.1,0.4-0.2,0.6-0.2
			c0.2,0,0.4,0,0.6,0.1c0.2,0.1,0.4,0.2,0.6,0.3l1.3,0.9l1.9,1.4l2.3,1.7l2.5,1.8l2.4,1.8l2.1,1.6c0,0,0.1,0.1,0.1,0.1
			c0,0,0,0.1,0,0.1c-0.1,0.1-0.2,0.3-0.4,0.5l-0.6,0.8l-0.6,0.9c-0.2,0.3-0.4,0.5-0.6,0.7c-0.2,0.2-0.4,0.4-0.7,0.5
			c-0.3,0.1-0.7,0.1-1,0c-0.5-0.1-0.9-0.3-1.3-0.5c-0.5-0.2-1-0.5-1.5-0.8c-0.1,0-0.1,0.1-0.2,0.1c-0.1,0.1-0.2,0.2-0.2,0.3
			c-0.1,0.1-0.1,0.2-0.2,0.4c0,0.1-0.1,0.2-0.1,0.2c0.6,0.5,1.1,1,1.6,1.5s1,1,1.5,1.4s0.8,0.9,1.1,1.3c0.1,0,0.1,0,0.2,0
			c0.1,0,0.1,0,0.2,0c0.1-0.3,0.3-0.6,0.4-0.9c0.2-0.4,0.4-0.7,0.6-1.1c0.3-0.4,0.6-0.8,0.9-1.3l7.2-9.6c0.2-0.2,0.4-0.5,0.6-0.7
			s0.5-0.5,0.8-0.8c0.3-0.3,0.6-0.5,0.9-0.7c0-0.1,0.1-0.1,0.1-0.2c0-0.1,0-0.1,0-0.2c-0.3-0.3-0.6-0.6-1-0.9s-0.8-0.7-1.2-1.1
			s-0.8-0.8-1.1-1.1s-0.6-0.7-0.9-0.9c-0.1,0-0.2,0-0.3,0.1c-0.1,0.1-0.2,0.2-0.3,0.3c-0.1,0.1-0.2,0.2-0.3,0.3
			c-0.1,0.1-0.1,0.1-0.1,0.2c0.3,0.5,0.6,1,0.9,1.4s0.5,0.9,0.7,1.3c0.2,0.4,0.3,0.8,0.3,1.2c0,0.3-0.1,0.6-0.3,0.9
			c-0.1,0.2-0.3,0.4-0.4,0.6l-0.5,0.8l-0.6,0.7c-0.2,0.2-0.3,0.4-0.4,0.5c-0.1,0-0.1,0-0.2,0c-0.1,0-0.1,0-0.2-0.1l-2.6-2l-2.7-2
			l-2.5-1.9l-2.3-1.8c-0.7-0.5-1.3-1-1.9-1.5c-0.3-0.2-0.6-0.5-0.8-0.8c-0.2-0.2-0.2-0.4-0.3-0.7c0-0.3,0.1-0.5,0.2-0.7
			c0.1-0.2,0.1-0.4,0.2-0.5c0.1-0.2,0.2-0.4,0.4-0.7l0.4-0.7c0-0.1-0.1-0.2-0.2-0.3c-0.1-0.1-0.3-0.2-0.4-0.3
			c-0.1-0.1-0.2-0.1-0.4-0.1c-0.2,0.3-0.5,0.7-0.8,1.1l-1.1,1.6c-0.4,0.6-1,1.3-1.6,2.2s-1.3,1.7-1.9,2.5s-1.1,1.4-1.5,1.9
			c0,0.1,0.1,0.2,0.2,0.3c0.1,0.1,0.2,0.2,0.4,0.3C241.6,221.9,241.7,221.9,241.8,221.9"/>
		<path class="st0" d="M262.6,187.7c0-0.1-0.1-0.1-0.2-0.2c-0.1-0.1-0.2-0.1-0.3-0.2c-0.1-0.1-0.2-0.1-0.3-0.1c-0.1,0-0.1,0-0.2,0
			c-0.2,0.4-0.5,0.9-0.8,1.7s-0.9,1.7-1.5,2.9c-0.4,0.8-0.8,1.4-1.1,2l-0.8,1.4c-0.2,0.4-0.5,0.8-0.6,1.2c0,0.1,0.1,0.2,0.2,0.3
			c0.1,0.1,0.3,0.2,0.4,0.3c0.1,0.1,0.2,0.1,0.3,0.1c0.3-0.3,0.5-0.6,0.7-0.9c0.2-0.2,0.4-0.4,0.6-0.6c0.1-0.2,0.3-0.3,0.5-0.3
			c0.2,0,0.4,0,0.6,0.1c0.3,0.1,0.6,0.2,0.8,0.4c0.2,0.1,0.3,0.2,0.4,0.3c0.1,0.1,0.2,0.3,0.3,0.4l0.4,0.8l0.7,1.6l0.9,2.1l1,2.3
			c0.3,0.8,0.6,1.5,0.9,2.2s0.5,1.3,0.8,1.8s0.4,0.9,0.5,1.1c0,0,0,0.1,0,0.1c0,0-0.1,0-0.1,0l-1.3-0.7l-1.8-1l-2-1.1l-2-1.1
			l-1.7-0.9l-1.1-0.6c-0.3-0.1-0.5-0.3-0.7-0.5c-0.2-0.1-0.3-0.3-0.3-0.5c0-0.2,0-0.4,0-0.5l0.2-0.7c0.1-0.2,0.2-0.5,0.3-0.9
			c0-0.1-0.1-0.2-0.1-0.2c-0.2-0.2-0.4-0.3-0.6-0.3c-0.1,0-0.2,0-0.3,0l-0.8,1.6c-0.4,0.7-0.9,1.7-1.6,3c-0.5,0.8-0.8,1.5-1.1,2.1
			l-0.8,1.4c-0.2,0.4-0.4,0.7-0.5,1c0,0.1,0.1,0.2,0.1,0.2c0.1,0.1,0.2,0.2,0.3,0.3c0.1,0.1,0.2,0.1,0.3,0.2c0.1,0,0.2,0.1,0.2,0.1
			c0.3-0.4,0.6-0.8,0.8-1.1c0.2-0.2,0.4-0.5,0.6-0.7c0.2-0.2,0.5-0.3,0.8-0.2c0.4,0.1,0.7,0.2,1.1,0.4l1.3,0.6l1.7,0.9l1.8,0.9
			l1.6,0.9l1.9,1l1.4,0.7l1,0.6l1,0.5l1.1,0.6c0.2,0.1,0.5,0.3,0.7,0.5c0.1,0.1,0.2,0.3,0.3,0.4c0,0.2,0,0.4,0,0.6
			c0,0.3-0.1,0.5-0.2,0.8c-0.1,0.3-0.2,0.6-0.3,0.9c0,0.1,0.1,0.1,0.2,0.2c0.1,0.1,0.2,0.1,0.3,0.2c0.1,0.1,0.2,0.1,0.3,0.1
			c0.1,0,0.1,0,0.2,0c0.1-0.3,0.3-0.6,0.4-0.8l0.4-0.9l0.6-1.1c0.2-0.4,0.5-0.9,0.8-1.5c0.4-0.8,0.8-1.5,1.1-2l0.8-1.4
			c0.2-0.4,0.4-0.7,0.6-1c0-0.1-0.1-0.2-0.2-0.3c-0.1-0.1-0.3-0.2-0.4-0.2c-0.1-0.1-0.3-0.1-0.4-0.1c-0.1,0.2-0.3,0.4-0.4,0.6
			c-0.1,0.1-0.2,0.3-0.3,0.4c-0.1,0.1-0.2,0.2-0.4,0.3c-0.2,0.2-0.4,0.3-0.7,0.3c-0.3,0-0.5-0.1-0.8-0.2l-0.6-0.3l-0.1-0.1
			c-0.1-0.1-0.1-0.1-0.2-0.2c0,0-0.1-0.1-0.1-0.2c-0.2-0.4-0.5-1-0.8-1.7s-0.6-1.4-1-2.3s-0.7-1.7-1.1-2.5s-0.7-1.6-1-2.4l-0.8-1.9
			c-0.2-0.5-0.4-0.9-0.5-1.1v-0.1c0,0,0-0.1,0.1,0l1.2,0.6l1.7,0.9l2,1.1l2,1.1l1.7,0.9l1.1,0.6c0.3,0.1,0.5,0.3,0.7,0.5
			c0.2,0.1,0.3,0.3,0.4,0.5c0,0.2,0,0.4,0,0.6c0,0.2-0.1,0.5-0.2,0.7c-0.1,0.3-0.2,0.6-0.3,0.8c0.1,0.1,0.1,0.2,0.2,0.3
			c0.1,0.1,0.3,0.2,0.4,0.2c0.1,0.1,0.2,0.1,0.4,0.1c0.2-0.3,0.4-0.8,0.8-1.5s0.8-1.7,1.5-2.9c0.3-0.6,0.6-1.1,0.9-1.6l0.7-1.2
			l0.5-0.9c0.2-0.3,0.3-0.6,0.5-0.9c0.2-0.4-0.1-0.1-0.1-0.2l-0.3-0.2c-0.1-0.1-0.2-0.1-0.3-0.1c-0.1,0-0.2,0-0.2,0l-0.4,0.6
			l-0.4,0.5c-0.1,0.2-0.2,0.3-0.4,0.4c-0.2,0.2-0.5,0.3-0.8,0.3c-0.3,0-0.7-0.1-1-0.3l-1.1-0.5l-1.7-0.9l-2.2-1.2l-2.2-1.2l-1.9-1
			l-1.6-0.9l-1.2-0.7l-0.7-0.4c-0.3-0.2-0.6-0.4-0.9-0.7c-0.2-0.2-0.3-0.4-0.4-0.6c0-0.3,0-0.5,0-0.8L262.6,187.7z"/>
		<polygon class="st0" points="233.2,205.1 242.6,211.6 244.1,209.5 236.4,204.2 238.9,200.6 237.2,199.4 		"/>
		<path class="st0" d="M230.7,211c0.3-0.3,0.6-0.6,1-0.7c0.4-0.1,0.8-0.2,1.2-0.1c0.4,0.1,0.9,0.2,1.3,0.4c0.4,0.2,0.9,0.5,1.2,0.8
			c0.4,0.3,0.7,0.7,1,1.2c0.3,0.4,0.5,0.8,0.6,1.2c0.1,0.4,0.1,0.8,0,1.2c-0.1,0.4-0.3,0.8-0.6,1.1c-0.3,0.3-0.6,0.6-1,0.7
			c-0.4,0.1-0.8,0.2-1.2,0.1c-0.4,0-0.9-0.2-1.3-0.4c-0.5-0.2-0.9-0.5-1.3-0.9c-0.4-0.3-0.7-0.7-1-1.2c-0.3-0.4-0.5-0.8-0.6-1.2
			c-0.1-0.4-0.1-0.8,0-1.2C230.1,211.7,230.3,211.3,230.7,211 M229.1,209.6c-0.5,0.6-0.9,1.3-1.2,2c-0.2,0.7-0.3,1.4-0.2,2.1
			c0.1,0.7,0.3,1.5,0.7,2.1c0.4,0.7,0.9,1.3,1.5,1.9c0.5,0.4,1,0.7,1.6,1c0.5,0.3,1.1,0.4,1.7,0.5c0.6,0.1,1.1,0.1,1.7,0
			c0.6-0.1,1.1-0.3,1.6-0.6c0.5-0.3,1-0.7,1.4-1.2c0.5-0.6,0.9-1.3,1.2-2c0.2-0.7,0.3-1.4,0.3-2.1c-0.1-0.7-0.3-1.5-0.7-2.1
			c-0.4-0.8-1-1.4-1.6-2c-0.5-0.4-1-0.7-1.5-1c-0.5-0.3-1.1-0.4-1.6-0.5c-0.6-0.1-1.1-0.1-1.7,0c-0.6,0.1-1.1,0.3-1.6,0.6
			C230,208.7,229.5,209.1,229.1,209.6L229.1,209.6z"/>
		<path class="st0" d="M222.8,219.3c0.1-0.1,0.2-0.2,0.3-0.3c0.1-0.1,0.3-0.3,0.4-0.5c0.4-0.4,0.9-0.7,1.4-0.7
			c0.5,0,0.9,0.2,1.2,0.5c0.3,0.2,0.4,0.6,0.5,0.9c0.1,0.3,0,0.7-0.1,1c-0.2,0.4-0.4,0.7-0.7,1l-0.4,0.3c-0.1,0.1-0.2,0.2-0.3,0.2
			L222.8,219.3z M227.6,227.9l1.9-1.8l-2.9-3c0.1-0.1,0.2-0.2,0.3-0.2l0.4-0.3c0.5-0.5,1-1.1,1.3-1.7c0.3-0.5,0.5-1.2,0.5-1.8
			c0-0.5-0.1-1-0.3-1.4c-0.2-0.5-0.5-0.9-0.9-1.3c-0.4-0.4-0.8-0.7-1.3-0.9c-0.5-0.2-0.9-0.2-1.4-0.2c-0.5,0.1-1.1,0.2-1.5,0.5
			c-0.6,0.4-1.1,0.8-1.6,1.3c-0.6,0.5-1,1-1.4,1.5c-0.3,0.4-0.6,0.7-0.9,1.1L227.6,227.9z"/>
		<polygon class="st0" points="211,226.7 218,235.7 220.1,234.1 217.1,230.3 220.5,227.7 223.4,231.5 225.5,229.9 218.4,220.8 
			216.4,222.4 219.1,225.9 215.7,228.5 213,225.1 		"/>
		<path class="st0" d="M208.6,236.3l-0.8-2.4c-0.1-0.2-0.1-0.4-0.2-0.7l-0.3-0.7c-0.1-0.3-0.2-0.5-0.3-0.7l0,0l0.6,0.5l0.6,0.5
			l0.6,0.5l1.9,1.6L208.6,236.3z M212.1,236.3l2.4,2l2.4-1.5l-9.2-7.7l-2.9,1.9l3.3,11.5l2.2-1.4l-0.9-2.9L212.1,236.3z"/>
		<polygon class="st0" points="196.4,235.5 201.7,245.7 204,244.6 199.7,236.2 203.6,234.3 202.6,232.4 		"/>
		<path class="st0" d="M192.2,244.7l-0.4-2.5c0-0.2-0.1-0.5-0.1-0.7s-0.1-0.5-0.1-0.8s-0.1-0.5-0.1-0.7l0,0l0.5,0.6l0.5,0.6l0.5,0.6
			l1.6,1.9L192.2,244.7z M195.6,245.3l2,2.3l2.6-1.1l-7.9-9l-3.1,1.4l1.5,11.9l2.4-1.1l-0.4-3L195.6,245.3z"/>
		<polygon class="st0" points="184.6,252.7 187.1,251.8 184,243 187,242 186.3,240 177.9,242.8 178.6,244.9 181.6,243.9 		"/>
		<path class="st0" d="M162.8,246l5.2,7.2c0.1,0.1,0.1,0.2,0.1,0.3c0,0.1,0,0.2,0,0.3c0,0.2-0.1,0.4-0.2,0.6
			c-0.1,0.2-0.3,0.3-0.4,0.5c-0.2,0.1-0.4,0.2-0.7,0.3l-0.5,0.1h-0.4l0.2,2.1h0.4h0.4l0.5-0.1c0.6-0.1,1.2-0.3,1.6-0.7
			c0.5-0.4,0.8-0.8,1.1-1.3c0.2-0.4,0.4-0.9,0.6-1.4c0.2-0.5,0.3-1.1,0.5-1.7c0.1-0.6,0.3-1.2,0.4-1.8l1.1-5.9l-2.7,0.5l-0.5,4.2
			c0,0.5-0.1,1-0.1,1.4l-0.1,1h-0.1c-0.2-0.3-0.4-0.6-0.6-1s-0.4-0.7-0.6-1l-2.4-3.8L162.8,246z"/>
		<polygon class="st0" points="152.2,246.8 153,258.3 155.6,258.1 155.3,253.3 159.5,253 159.9,257.8 162.5,257.6 161.7,246.2 
			159.1,246.3 159.4,250.7 155.1,251 154.8,246.6 		"/>
		<path class="st0" d="M146.1,248.7c0.4,0,0.8,0.1,1.2,0.3c0.3,0.2,0.6,0.5,0.9,0.8c0.2,0.4,0.4,0.8,0.5,1.2c0.1,0.5,0.2,1,0.2,1.5
			c0,0.5-0.1,1-0.2,1.6c-0.1,0.4-0.3,0.9-0.5,1.2c-0.2,0.3-0.5,0.6-0.9,0.8c-0.4,0.2-0.8,0.3-1.2,0.3c-0.4,0-0.8-0.1-1.2-0.3
			c-0.4-0.2-0.7-0.5-0.9-0.8c-0.3-0.4-0.4-0.8-0.6-1.2c-0.1-0.5-0.2-1-0.2-1.6c0-0.5,0.1-1,0.2-1.6c0.1-0.4,0.3-0.9,0.5-1.2
			c0.2-0.3,0.5-0.6,0.9-0.8C145.3,248.8,145.7,248.7,146.1,248.7 M146.1,246.7c-0.8,0-1.6,0.1-2.3,0.4c-0.7,0.3-1.3,0.7-1.8,1.3
			c-0.5,0.6-0.9,1.2-1.1,1.9c-0.3,0.8-0.4,1.6-0.4,2.4c0,0.6,0.1,1.3,0.2,1.9c0.1,0.6,0.4,1.1,0.7,1.6c0.3,0.5,0.7,0.9,1.1,1.3
			c0.4,0.4,1,0.6,1.5,0.8c0.6,0.2,1.2,0.3,1.9,0.3c0.8,0,1.6-0.1,2.3-0.4c0.7-0.3,1.3-0.7,1.8-1.2c0.5-0.5,0.9-1.2,1.1-1.9
			c0.3-0.8,0.4-1.7,0.4-2.5c0-0.6-0.1-1.2-0.2-1.8c-0.1-0.6-0.4-1.1-0.7-1.6c-0.3-0.5-0.7-0.9-1.1-1.3c-0.5-0.4-1-0.6-1.6-0.8
			C147.4,246.8,146.8,246.7,146.1,246.7L146.1,246.7z"/>
		
			<rect x="126" y="248.6" transform="matrix(0.1566 -0.9877 0.9877 0.1566 -140.6821 336.8555)" class="st0" width="1.7" height="4.5"/>
		<path class="st0" d="M118.2,249.9l1.3-2.2c0.1-0.2,0.2-0.4,0.4-0.6l0.4-0.7l0.3-0.7l0,0c0,0.2,0,0.5,0,0.8s0,0.5,0,0.8
			s0,0.5,0,0.8l0.1,2.5L118.2,249.9z M120.5,252.5l0.1,3.1l2.7,0.7l-0.5-12l-3.3-0.9l-6.3,10.2l2.6,0.7l1.6-2.6L120.5,252.5z"/>
		<polygon class="st0" points="106.9,239.1 102.9,249.8 105.4,250.7 107,246.2 111,247.7 109.4,252.2 111.8,253.1 115.8,242.3 
			113.3,241.4 111.8,245.5 107.8,244.1 109.3,239.9 		"/>
		
			<rect x="100.9" y="240.5" transform="matrix(0.3909 -0.9204 0.9204 0.3909 -161.4038 241.4626)" class="st0" width="1.7" height="4.5"/>
		<path class="st0" d="M95.8,235.7l0.4,0.2l0.6,0.3c0.4,0.2,0.8,0.6,1,1c0.2,0.4,0.1,0.8-0.1,1.1c-0.1,0.2-0.3,0.4-0.6,0.5
			c-0.3,0.1-0.6,0.1-0.8,0.1c-0.4-0.1-0.8-0.2-1.1-0.4l-0.7-0.5L95.8,235.7z M93.6,239.7l0.8,0.4c0.3,0.1,0.5,0.3,0.8,0.5
			c0.2,0.2,0.4,0.4,0.5,0.6c0.1,0.2,0.2,0.4,0.2,0.7c0,0.3-0.1,0.5-0.2,0.7c-0.1,0.2-0.3,0.4-0.5,0.6c-0.2,0.1-0.4,0.2-0.7,0.2
			c-0.3,0-0.5,0-0.8-0.1c-0.3-0.1-0.5-0.2-0.8-0.3l-0.5-0.3l-0.4-0.2L93.6,239.7z M88.9,242.8c0.2,0.2,0.6,0.4,0.9,0.7
			s0.9,0.5,1.4,0.9c0.6,0.3,1.2,0.6,1.8,0.9c0.5,0.2,1,0.3,1.5,0.4c0.4,0.1,0.8,0.1,1.2,0c0.3,0,0.6-0.1,0.9-0.3
			c0.3-0.1,0.5-0.3,0.8-0.5c0.3-0.2,0.5-0.5,0.6-0.8c0.2-0.4,0.4-0.8,0.4-1.3c0-0.4-0.1-0.8-0.2-1.2c-0.2-0.4-0.4-0.8-0.8-1.1l0,0
			c0.4,0.1,0.8,0.1,1.2,0c0.4-0.1,0.7-0.2,1-0.4c0.3-0.2,0.5-0.5,0.7-0.8c0.2-0.3,0.3-0.6,0.3-0.9c0.1-0.3,0.1-0.6,0-0.9
			c-0.1-0.3-0.2-0.6-0.4-0.8c-0.2-0.3-0.4-0.5-0.6-0.8c-0.3-0.3-0.6-0.5-0.9-0.7c-0.3-0.2-0.7-0.5-1.2-0.7s-0.8-0.4-1.2-0.6
			s-0.7-0.4-1.1-0.5s-0.6-0.3-0.8-0.3L88.9,242.8z"/>
		<path class="st0" d="M88.3,231c0.3,0.2,0.6,0.5,0.8,0.9c0.2,0.4,0.3,0.8,0.3,1.2c0,0.4-0.1,0.9-0.3,1.3c-0.2,0.5-0.4,0.9-0.7,1.3
			c-0.3,0.4-0.6,0.8-1,1.2c-0.3,0.3-0.7,0.6-1.1,0.7c-0.4,0.2-0.8,0.2-1.2,0.2c-0.4,0-0.8-0.2-1.1-0.4c-0.3-0.2-0.6-0.5-0.8-0.9
			c-0.2-0.4-0.3-0.7-0.3-1.1c0-0.4,0.1-0.9,0.2-1.3c0.4-1,1-1.9,1.7-2.6c0.3-0.3,0.7-0.5,1.1-0.7c0.4-0.2,0.8-0.2,1.2-0.2
			C87.5,230.6,87.9,230.8,88.3,231 M89.4,229.3c-0.7-0.4-1.4-0.8-2.2-0.9c-0.7-0.1-1.5-0.1-2.2,0.1c-0.7,0.2-1.4,0.5-2,0.9
			c-0.6,0.5-1.2,1.1-1.7,1.8c-0.4,0.5-0.6,1.1-0.8,1.7c-0.2,0.6-0.3,1.1-0.3,1.7c0,0.6,0.1,1.1,0.2,1.7c0.2,0.5,0.4,1.1,0.8,1.5
			c0.4,0.5,0.8,0.9,1.4,1.2c0.6,0.4,1.4,0.8,2.1,0.9c0.7,0.2,1.4,0.2,2.1,0c0.7-0.2,1.4-0.5,2-0.9c0.7-0.5,1.3-1.2,1.8-1.9
			c0.3-0.5,0.6-1.1,0.8-1.6c0.2-0.5,0.3-1.1,0.3-1.7c0-0.6,0-1.1-0.2-1.7c-0.2-0.6-0.4-1.1-0.8-1.5C90.5,230.1,90,229.6,89.4,229.3
			L89.4,229.3z"/>
		<polygon class="st0" points="72.8,231.9 74.8,233.5 80.8,226.4 83.2,228.4 84.6,226.8 77.8,221.1 76.4,222.8 78.8,224.8 		"/>
		<path class="st0" d="M70.4,226.2c-0.2-0.1-0.4-0.2-0.6-0.3c-0.2-0.1-0.4-0.3-0.6-0.4c-0.2-0.2-0.4-0.3-0.6-0.5
			c-0.5-0.5-0.9-1.1-1.1-1.7c-0.2-0.6-0.2-1.2,0-1.8c0.2-0.7,0.6-1.2,1.1-1.7c0.4-0.4,0.9-0.8,1.4-1c0.4-0.2,0.9-0.3,1.4-0.3
			c0.5,0,0.9,0.1,1.3,0.3c0.4,0.2,0.8,0.5,1.2,0.9c0.3,0.3,0.6,0.6,0.8,1c0.2,0.3,0.3,0.6,0.4,0.9l1.8-1.1c-0.1-0.2-0.2-0.4-0.3-0.6
			c-0.2-0.3-0.3-0.6-0.6-0.8c-0.2-0.3-0.5-0.6-0.8-0.9c-0.5-0.5-1-0.9-1.6-1.2c-0.5-0.3-1.1-0.5-1.8-0.7c-0.6-0.1-1.2-0.2-1.8-0.1
			c-0.6,0.1-1.3,0.3-1.8,0.6c-0.6,0.3-1.2,0.8-1.7,1.3c-0.6,0.5-1,1.2-1.3,1.9c-0.3,0.7-0.5,1.4-0.5,2.1c0,0.8,0.2,1.5,0.5,2.2
			c0.4,0.8,0.9,1.5,1.5,2.2c0.3,0.3,0.6,0.6,1,0.8c0.3,0.2,0.5,0.4,0.8,0.6c0.2,0.1,0.4,0.2,0.6,0.3L70.4,226.2z"/>
		<path class="st0" d="M65.7,210.8c0.3,0.3,0.4,0.7,0.5,1.1c0.1,0.4,0,0.8-0.1,1.2c-0.1,0.4-0.3,0.8-0.6,1.2c-0.3,0.4-0.6,0.8-1,1.1
			c-0.4,0.3-0.8,0.6-1.3,0.8c-0.4,0.2-0.8,0.3-1.3,0.4c-0.4,0-0.8,0-1.2-0.2c-0.4-0.1-0.7-0.4-1-0.7c-0.3-0.3-0.4-0.7-0.5-1.1
			c-0.1-0.4-0.1-0.8,0.1-1.2c0.1-0.4,0.3-0.8,0.6-1.2c0.3-0.4,0.7-0.8,1.1-1.1c0.4-0.3,0.8-0.6,1.3-0.8c0.4-0.2,0.9-0.3,1.3-0.4
			c0.4,0,0.8,0,1.2,0.2C65.1,210.2,65.4,210.4,65.7,210.8 M67.3,209.5c-0.5-0.6-1.1-1.1-1.8-1.5c-0.6-0.3-1.4-0.5-2.1-0.6
			c-0.7,0-1.5,0.1-2.2,0.3c-0.8,0.3-1.5,0.7-2.1,1.2c-0.5,0.4-0.9,0.9-1.3,1.4c-0.3,0.5-0.6,1-0.8,1.6c-0.2,0.5-0.3,1.1-0.3,1.6
			c0,0.6,0.1,1.1,0.3,1.7c0.2,0.6,0.5,1.1,0.9,1.6c0.5,0.6,1.1,1.1,1.8,1.5c0.6,0.4,1.3,0.6,2,0.6c0.7,0.1,1.5,0,2.2-0.3
			c0.8-0.3,1.6-0.7,2.2-1.3c0.5-0.4,0.9-0.8,1.3-1.3c0.3-0.5,0.6-1,0.8-1.5c0.2-0.5,0.3-1.1,0.3-1.7c0-0.6-0.1-1.2-0.3-1.7
			C68,210.6,67.7,210,67.3,209.5L67.3,209.5z"/>
		<path class="st0" d="M58.5,201.6c0.1,0.1,0.2,0.2,0.3,0.3c0.1,0.1,0.2,0.3,0.4,0.5c0.3,0.4,0.5,1,0.5,1.5
			c-0.1,0.5-0.3,0.9-0.7,1.1c-0.3,0.2-0.6,0.3-1,0.3c-0.4,0-0.7-0.1-1-0.3c-0.3-0.2-0.6-0.5-0.8-0.9c-0.1-0.2-0.2-0.3-0.3-0.4
			c-0.1-0.1-0.1-0.2-0.2-0.3L58.5,201.6z M49.2,204.8l1.4,2.2l3.4-2.3c0.1,0.1,0.1,0.2,0.2,0.4l0.3,0.4c0.4,0.6,0.9,1.1,1.4,1.5
			c0.5,0.4,1.1,0.7,1.7,0.8c0.5,0.1,1,0.1,1.4,0c0.5-0.1,1-0.3,1.4-0.6c0.4-0.3,0.8-0.7,1.1-1.1c0.3-0.4,0.4-0.9,0.4-1.4
			c0-0.5,0-1.1-0.2-1.6c-0.3-0.7-0.6-1.3-1-1.8c-0.4-0.7-0.8-1.2-1.2-1.7c-0.3-0.4-0.6-0.8-1-1.1L49.2,204.8z"/>
		<path class="st0" d="M164.8,204.7c0.5,0.1,0.9,0.1,1.1,0.2c0.3,0.1,0.5,0.2,0.7,0.4c0.2,0.2,0.4,0.5,0.5,0.8
			c0.2,0.5,0.4,1,0.6,1.5l0.6,1.7l0.6,2l0.7,2l0.6,1.9c0.2,0.6,0.3,1.1,0.5,1.6s0.2,0.8,0.3,1.1c0,0.1,0,0.1,0,0.2
			c0,0.1,0,0.2,0,0.2c0,0.1,0,0.1-0.1,0.1c-0.2,0.4-0.5,0.7-0.8,1.1c-0.2,0.2-0.5,0.4-0.8,0.5c-0.3,0.1-0.5,0.1-0.8,0.1
			c-0.3,0-0.6-0.1-0.9-0.1c-0.4-0.1-0.7-0.2-1.1-0.3c-0.3-0.1-0.7-0.3-1-0.5l-0.1,0.2c0,0.1-0.1,0.2-0.1,0.3c0,0.1-0.1,0.2-0.1,0.3
			c0,0.3,0,0.7,0,1c0,0.3,0.1,0.6,0.2,0.9c0.1,0.2,0.2,0.4,0.4,0.6c0.2,0.1,0.4,0.2,0.6,0.3c0.2,0.1,0.4,0.1,0.7,0.1
			c0.5,0,1-0.1,1.5-0.4c0.5-0.3,1-0.6,1.4-1c0.4-0.4,0.9-0.8,1.3-1.3c0.4-0.5,0.8-1,1.1-1.4c0.6-0.8,1.2-1.7,1.8-2.6
			c0.6-0.9,1.2-1.9,1.8-3s1.2-2.1,1.7-3.1s1.1-2.1,1.6-3.1c0.1-0.3,0.3-0.6,0.5-0.9c0.2-0.2,0.4-0.5,0.6-0.6
			c0.3-0.2,0.6-0.4,0.9-0.5c0.4-0.1,0.9-0.3,1.4-0.3c0.1,0,0.1-0.1,0.1-0.2c0-0.1,0-0.2,0.1-0.3c0-0.1,0-0.2,0-0.3
			c0-0.1,0-0.1-0.1-0.2h-1.3h-1.8h-1.3h-1.1h-1.1c-0.1,0-0.1,0.1-0.1,0.2c0,0.1-0.1,0.2-0.1,0.3c0,0.1,0,0.2,0,0.3
			c0,0.1,0,0.2,0,0.2c0.3,0,0.6,0.1,0.9,0.1c0.2,0,0.4,0.1,0.6,0.2c0.2,0.1,0.3,0.2,0.4,0.4c0.1,0.2,0,0.5-0.1,0.7
			c-0.1,0.2-0.2,0.6-0.4,1s-0.4,0.9-0.6,1.4s-0.5,1.1-0.8,1.7s-0.6,1.2-0.9,1.7s-0.6,1.1-0.9,1.6c0,0.1-0.1,0.1-0.1,0.1
			c0,0-0.1,0-0.1-0.1c0-0.1-0.1-0.4-0.3-0.7s-0.3-0.8-0.4-1.3l-0.5-1.6c-0.2-0.6-0.4-1.1-0.5-1.7s-0.3-1.1-0.5-1.5s-0.2-0.8-0.3-1.1
			c0-0.1,0-0.2,0.1-0.3c0.1-0.1,0.1-0.2,0.3-0.2l0.4-0.1l0.5-0.1l0.5-0.1c0,0,0.1-0.1,0.1-0.2c0-0.1,0-0.2,0.1-0.3
			c0-0.1,0-0.2,0-0.3c0-0.1,0-0.1,0-0.2h-0.5h-0.9h-1.3h-2.7h-1.2h-1h-0.6c0,0.1-0.1,0.2-0.1,0.3c0,0.1,0,0.3-0.1,0.4
			C164.7,204.5,164.7,204.6,164.8,204.7 M150.3,218.2C150.3,218.3,150.3,218.3,150.3,218.2c0,0.1,0,0.1-0.1,0.1
			c-0.5-0.2-0.9-0.5-1.2-0.8c-0.4-0.4-0.7-0.9-0.8-1.5c-0.2-0.8-0.3-1.5-0.3-2.3c0-0.9,0.1-1.8,0.3-2.7c0.2-0.8,0.5-1.5,0.9-2.2
			c0.3-0.6,0.8-1.1,1.3-1.6c0.5-0.4,1.1-0.7,1.7-0.8c0.1,0,0.1,0.1,0.1,0.1L150.3,218.2z M156,206.7
			C156,206.7,156.1,206.7,156,206.7c0.1-0.1,0.1-0.1,0.2-0.1c0.5,0.2,1,0.6,1.3,1c0.3,0.5,0.6,1,0.7,1.6c0.2,0.7,0.2,1.4,0.2,2.1
			c0,0.9-0.1,1.9-0.3,2.8c-0.2,0.8-0.5,1.6-0.9,2.3c-0.3,0.6-0.8,1.1-1.3,1.6c-0.5,0.4-1.1,0.6-1.7,0.7c-0.1,0-0.1,0-0.1-0.1
			c0,0,0-0.1,0-0.1L156,206.7z M155.9,221.7l-0.8-0.1c-0.2,0-0.4-0.1-0.6-0.2c-0.2,0-0.3-0.1-0.5-0.2c-0.1-0.1-0.2-0.3-0.2-0.5
			c0-0.3,0-0.7,0.1-1c0.4,0,0.7-0.1,1.2-0.1s0.9-0.2,1.4-0.3c0.5-0.1,1-0.3,1.5-0.5c0.5-0.2,1-0.5,1.5-0.8c0.7-0.4,1.2-1,1.7-1.6
			c0.5-0.6,0.9-1.4,1.1-2.1c0.3-0.9,0.4-1.8,0.4-2.7c0-0.9-0.2-1.7-0.5-2.6c-0.3-0.7-0.8-1.3-1.4-1.8c-0.6-0.5-1.3-0.9-2-1.2
			c-0.8-0.3-1.6-0.5-2.4-0.6c0-0.3,0.1-0.6,0.2-0.8c0.1-0.2,0.2-0.3,0.3-0.5c0.2-0.1,0.4-0.2,0.6-0.3l1.1-0.2
			c0.1-0.1,0.1-0.2,0.1-0.3c0-0.1,0-0.3,0.1-0.4c0-0.1,0-0.2,0-0.3h-1.1h-1.4h-1.4c-0.8,0-1.5,0-2.2,0l-1.8-0.1
			c0,0.1-0.1,0.1-0.1,0.2c0,0.1,0,0.2-0.1,0.3c0,0.1,0,0.2,0,0.3c0,0.1,0,0.1,0,0.2l0.5,0.1l0.4,0.1c0.2,0,0.4,0.1,0.6,0.2
			c0.1,0.1,0.2,0.2,0.3,0.4c0,0.3,0,0.5,0,0.8c-0.5,0-1,0.1-1.4,0.2c-0.6,0.1-1.1,0.3-1.7,0.4c-0.6,0.2-1.1,0.4-1.6,0.7
			c-0.8,0.4-1.4,0.9-2,1.6c-0.6,0.6-1.1,1.4-1.4,2.2c-0.3,0.9-0.5,1.9-0.5,2.9c0,1.1,0.2,2.2,0.8,3.2c0.5,0.9,1.3,1.6,2.2,2.1
			c1.1,0.5,2.3,0.9,3.5,1c-0.1,0.3-0.1,0.7-0.3,1c-0.1,0.2-0.2,0.4-0.4,0.5c-0.2,0.1-0.4,0.2-0.6,0.2l-1.3,0.2
			c-0.1,0.1-0.1,0.2-0.1,0.3c0,0.1,0,0.3,0,0.4c0,0.1,0,0.2,0,0.3h0.9h1.1h1.1h2h1.1h1.1h0.8c0.1-0.1,0.1-0.2,0.1-0.3
			c0-0.1,0.1-0.3,0.1-0.4C156,221.9,156,221.8,155.9,221.7L155.9,221.7z M131,220.9c-0.6,0-1.2-0.2-1.7-0.5c-0.5-0.4-0.9-1-1.1-1.7
			c-0.3-0.9-0.4-1.9-0.4-2.9c0-0.8,0.1-1.7,0.2-2.5c0.1-0.9,0.3-1.7,0.5-2.6c0.2-0.8,0.5-1.6,0.8-2.4c0.3-0.7,0.6-1.4,1.1-2
			c0.4-0.5,0.8-1,1.3-1.4c0.5-0.3,1-0.5,1.6-0.5c0.6,0,1.2,0.2,1.7,0.6c0.5,0.5,0.8,1.1,1,1.8c0.2,0.9,0.3,1.9,0.3,2.9
			c0,0.7,0,1.4-0.1,2.3c-0.1,0.8-0.2,1.7-0.4,2.5c-0.2,0.8-0.4,1.6-0.6,2.4c-0.3,0.7-0.6,1.4-1,2.1c-0.3,0.6-0.8,1.1-1.4,1.4
			C132.3,220.7,131.7,220.9,131,220.9L131,220.9z M115.3,204.7l0.6,0.1l0.5,0.1l0.5,0.1c0.2,0.1,0.4,0.2,0.5,0.4
			c0.1,0.2,0.1,0.5,0.1,0.8c0,0.3,0,0.6-0.1,1s-0.1,0.8-0.2,1.2s-0.1,1-0.2,1.6s-0.2,1.3-0.3,2.1c-0.1,0.5-0.2,1-0.3,1.5l-0.3,1.6
			c-0.1,0.5-0.2,1-0.3,1.5s-0.2,0.9-0.2,1.3s-0.1,0.6-0.2,0.9c-0.1,0.3-0.2,0.7-0.3,1c-0.1,0.2-0.2,0.4-0.4,0.5
			c-0.2,0.1-0.4,0.2-0.6,0.2l-0.7,0.1c-0.3,0-0.5,0.1-0.8,0.1c0,0.1-0.1,0.2-0.1,0.3c0,0.1,0,0.3,0,0.4c0,0.1,0,0.2,0,0.3h1.4h1.6
			h1.7c0.8,0,1.5,0,2.2,0l2.2,0.1c0.1-0.1,0.1-0.2,0.1-0.3c0-0.1,0.1-0.3,0.1-0.4c0-0.1,0-0.2,0-0.3l-0.9-0.1
			c-0.2,0-0.4-0.1-0.6-0.1c-0.2,0-0.4-0.2-0.5-0.4c-0.1-0.2-0.2-0.3-0.2-0.5c0-0.2,0-0.4,0-0.6c0-0.3,0.1-0.8,0.2-1.3
			c0.1-0.5,0.2-1.1,0.3-1.9l0.4-2.6h1.7h0.8h0.6c0,0.2-0.1,0.5-0.1,0.8s0,0.7-0.1,1.1c0,1.3,0.3,2.6,0.8,3.8c0.5,1,1.3,1.9,2.3,2.5
			c1.2,0.6,2.5,0.9,3.8,0.9c0.9,0,1.9-0.1,2.8-0.3c0.9-0.2,1.8-0.6,2.5-1.1c0.9-0.6,1.6-1.3,2.2-2.1c0.6-0.7,1.1-1.5,1.5-2.3
			c0.4-0.8,0.7-1.7,0.9-2.6c0.2-0.9,0.3-1.9,0.3-2.9c0-1-0.1-2-0.4-3c-0.3-0.9-0.7-1.7-1.3-2.4c-0.6-0.7-1.3-1.2-2.2-1.6
			c-0.9-0.4-2-0.6-3-0.6c-1.2,0-2.4,0.2-3.6,0.7c-1.1,0.4-2.2,1.1-3,2c-0.8,0.7-1.5,1.6-2.1,2.5c-0.6,1-1,2.1-1.3,3.2
			c-0.1,0-0.3,0-0.4,0h-1.4h-0.7H121c-0.1,0-0.2,0-0.2-0.1c0-0.1,0-0.2,0-0.2c0.1-0.8,0.2-1.5,0.3-2.2s0.2-1.2,0.3-1.7
			s0.2-0.8,0.2-1.1c0-0.2,0.1-0.5,0.2-0.7c0.1-0.2,0.2-0.3,0.3-0.4c0.2-0.1,0.3-0.2,0.5-0.3c0.2-0.1,0.5-0.1,0.7-0.2l0.8-0.1
			c0-0.1,0.1-0.1,0.1-0.2c0-0.1,0-0.2,0.1-0.3c0-0.1,0-0.2,0-0.3c0-0.1,0-0.1,0-0.2h-1.1h-1.4h-2h-1.5h-1.1h-0.9h-0.8
			c-0.1,0.1-0.1,0.2-0.1,0.3c0,0.1,0,0.3,0,0.4C115.4,204.5,115.4,204.6,115.3,204.7L115.3,204.7z"/>
		<path class="st0" d="M177.4,247.5c-1.1,0-2,0.9-2,2s0.9,2,2,2s2-0.9,2-2S178.6,247.5,177.4,247.5"/>
		<path class="st0" d="M133,255.4l3.6,0.3l-0.8-5.1c0-0.2-0.1-0.5-0.1-0.7s-0.1-0.5-0.1-0.8s-0.1-0.5-0.1-0.7l0,0
			c-0.1,0.2-0.2,0.5-0.2,0.7l-0.2,0.8c-0.1,0.3-0.2,0.5-0.3,0.7L133,255.4z M129.1,255.1l1.3,0.1l3.6-8.9l3.4,0.3l2,9.4l1.3,0.1
			l-0.2,2.3l-11.7-1.1L129.1,255.1z"/>
	</g>
</g>
</svg>
