<svg width="59" height="145" viewBox="0 0 59 145" fill="none" xmlns="http://www.w3.org/2000/svg">
<path fill-rule="evenodd" clip-rule="evenodd" d="M8.42166 144.689H0L4.10164 97.7429L4.05096 97.7714L6.68461 65.2289L0.618582 55.5117L5.5548 53.744L5.46115 44.0558L2.84955 41.8592C4.38286 39.58 7.66084 37.611 10.8451 35.6983C13.2789 34.2364 15.6579 32.8074 17.1613 31.2979C17.4234 31.0352 17.8688 30.61 18.3888 30.1137C19.7959 28.7706 21.7489 26.9065 22.0904 26.3322C22.8477 25.0513 23.0659 24.2267 23.2374 23.5785C23.5336 22.4594 23.6907 21.8658 26.2422 20.3569L29.083 0.114488L29.6961 0L30.3075 0.114488L33.1494 20.3509C35.6929 21.8622 35.8514 22.4579 36.1479 23.5727C36.3204 24.2209 36.5395 25.0445 37.3012 26.3256C37.6363 26.8903 39.5312 28.6997 40.9314 30.0367C41.483 30.5634 41.9578 31.0167 42.2302 31.2918C43.7331 32.8018 46.1129 34.2312 48.5476 35.6935C51.7314 37.6058 55.009 39.5744 56.542 41.8532L53.9304 44.0498L53.8368 53.738L58.7741 55.5046L52.6998 65.2289L59 144.689H20.3697L20.3563 65.5647L13.952 66.1448L8.42166 144.689ZM49.0713 52.6709L49.079 41.7875C46.3534 40.8288 43.2091 40.0701 39.7822 39.5695L39.8687 51.6263C43.1496 51.8624 46.2168 52.213 48.971 52.6567L49.0713 52.6709ZM40.7622 78.9028C40.7622 77.0924 39.417 75.3608 37.7617 75.053C36.1069 74.7528 34.7568 75.9831 34.754 77.7859V87.1257C36.8627 87.2626 38.8772 87.4762 40.7622 87.7556V78.9028ZM29.8619 38.854C27.5045 38.8525 25.1486 38.9695 22.8032 39.2046V51.4187C25.0193 51.3091 27.3219 51.2543 29.6746 51.2543C31.8191 51.2543 33.9129 51.3042 35.9422 51.3902V39.1115C33.9779 38.9466 31.9485 38.854 29.8619 38.854ZM18.8089 39.7409C15.6861 40.2635 12.8222 41.0003 10.3186 41.9019L10.3037 52.6638C12.9104 52.2486 15.7869 51.9051 18.8596 51.669L18.8089 39.7409Z" fill="#6C6E84"/>
</svg>
