<?xml version="1.0" encoding="utf-8"?>
<!-- Generator: Adobe Illustrator 21.1.0, SVG Export Plug-In . SVG Version: 6.00 Build 0)  -->
<svg version="1.1" id="Слой_1" xmlns="http://www.w3.org/2000/svg" xmlns:xlink="http://www.w3.org/1999/xlink" x="0px" y="0px"
	 viewBox="0 0 4125.1 1052" style="enable-background:new 0 0 4125.1 1052;" xml:space="preserve">
<defs>
  <style type="text/css">
   <![CDATA[
    * {fill:#ddd}
   ]]>
  </style>
 </defs>
<polygon class="fil0" points="1779.7,348.6 1779.7,547.9 1902.9,547.9 1864.7,504.9 1864.7,305.6 1741.6,305.6 "/>
<path class="fil0" d="M2085.1,547.9l-29.8-43V451h50.4c4.3,0,8.1,1,12,3c3.7,1.9,7.1,4.8,9.9,8.3c2.8,3.6,5.2,7.7,6.7,12.6
	c1.7,4.9,2.5,10.3,2.5,16.1v20.8l-25,36h161.8l-46.2-39.6v-9.8c0-8.8-1.3-16.8-3.9-24.4c-2.6-7.6-6.1-14.2-10.6-20
	c-4.5-5.8-9.8-10.4-15.9-14.3c-6.1-3.7-12.5-6.2-19.5-7.1c8.9-2.7,16.9-5.9,24.1-9.7c7.2-3.7,13.4-8.1,18.6-13s9-10.6,11.7-16.9
	c2.7-6.3,4.1-13.4,4.1-21.3c0-10.3-2.2-19.2-6.7-26.6c-4.4-7.4-10.4-13.7-17.9-18.6c-7.5-4.9-16.3-9-26.2-12
	c-9.9-3-20.4-5.2-31.5-6.7c-11-1.5-22.2-2.5-33.7-3c-11.4-0.5-22.3-0.6-32.8-0.6c-4.9,0-11.1,0-18.6,0c-7.5,0-15.7,0-24.9,0.1
	c-9.2,0-19,0.1-29.3,0.3c-10.3,0.1-21.2,0.3-32,0.3c-11,0-21.9,0.1-33,0.3c-11.1,0.1-21.8,0.3-32,0.4l51,43v156.5l0,0l-51.1,43
	L2085.1,547.9L2085.1,547.9z M2055.3,341h24c4.9,0,9.9,0.1,15.2,0.4c5.3,0.3,10.4,0.9,15.5,1.7c5,0.8,9.8,2.2,14.3,3.9
	c4.5,1.7,8.5,4,11.9,7c3.5,2.8,6.1,6.4,8.1,10.7c1.9,4.3,3,9.4,3,15.4c0,7.7-1.4,14.2-4.1,19.1s-6.8,8.8-12.5,11.6
	c-5.5,2.8-12.8,4.8-21.3,5.8s-18.6,1.5-30.1,1.5l0,0h-24L2055.3,341L2055.3,341z"/>
<polygon class="fil0" points="1462.5,504.9 1462.5,504.9 1416.3,547.9 1616.6,547.9 1549,504.9 1549,454.2 1654.6,454.2 1654.6,417.1 1549,417.1 
	1549,344.3 1652.6,344.3 1718.3,389.4 1721.5,305.6 1416.3,305.6 1462.5,348.6 "/>
<path class="fil0" d="M413.9,353.5l-14.2,176.4l0,0l0.3-0.2l-27.4,337.7c0,1.8,0.3,3.5,1,5.2c4.3,10.8,22.6,17.9,39.7,22.4L453,358.5l34.5-3.1
	v550.5c6.2,0.5,12.3,0.9,18.4,1.3c25,1.6,50,2.5,75,3.4c25.2,0.9,50.5,1.7,75.7,3.1c16.9,0.9,33.8,2.1,50.7,3.9l-45.4-564l32.7-52.7
	l-26.6-9.6l0.5-52.5l14.1-11.9c-14.6-21.8-58.4-38.4-77.1-57.2c-5.2-5.3-24-22.7-26.6-26.9c-11.2-18.9-0.7-19.4-22.4-32.4L541.3,0.6
	L537.9,0l-3.3,0.6l-15.3,109.7c-21.7,12.9-11.2,13.5-22.4,32.4c-2.5,4.3-21.3,21.7-26.6,26.9c-18.7,18.9-62.6,35.5-77.1,57.2
	l14.1,11.9l0.5,52.5l-26.6,9.6L413.9,353.5z M592.3,214.4c18.5,2.7,35.4,6.8,50.1,12v59l-0.5-0.1c-14.9-2.4-31.4-4.3-49.1-5.6
	L592.3,214.4L592.3,214.4z M581.4,406.8c8.9,1.7,16.2,11.1,16.2,20.9v48c-10.2-1.5-21-2.7-32.4-3.4l0,0v-50.6
	C565.2,411.8,572.5,405.1,581.4,406.8z M500.8,212.5L500.8,212.5c12.2-1.2,24.9-1.9,38-1.9c11.2,0,22.2,0.5,32.8,1.4v66.5
	c-10.9-0.5-22.2-0.7-33.8-0.7c-12.7,0-25.1,0.3-37,0.9V212.5z M433.5,227.1L433.5,227.1c13.5-4.9,28.9-8.9,45.8-11.7l0.3,64.7
	c-16.6,1.3-32.1,3.1-46.1,5.4L433.5,227.1z"/>
<path class="fil0" d="M3572.3,547.9l-29.8-43V451h50.4c4.3,0,8.1,1,12,3c3.7,1.9,7.1,4.8,9.9,8.3c2.8,3.6,5.2,7.7,6.7,12.6
	c1.7,4.9,2.5,10.3,2.5,16.1v20.8l-25,36h161.8l-46.2-39.6v-9.8c0-8.8-1.3-16.8-3.9-24.4c-2.6-7.6-6.1-14.2-10.6-20
	c-4.5-5.8-9.8-10.4-15.9-14.3c-6.1-3.7-12.5-6.2-19.5-7.1c8.9-2.7,16.9-5.9,24.1-9.7c7.2-3.7,13.4-8.1,18.6-13s9-10.6,11.7-16.9
	c2.7-6.3,4.1-13.4,4.1-21.3c0-10.3-2.2-19.2-6.7-26.6c-4.4-7.4-10.4-13.7-17.9-18.6c-7.5-4.9-16.3-9-26.2-12s-20.4-5.2-31.5-6.7
	c-11-1.5-22.2-2.5-33.7-3c-11.4-0.5-22.3-0.6-32.8-0.6c-4.9,0-11.1,0-18.6,0c-7.5,0-15.7,0-24.9,0.1c-9.2,0-19,0.1-29.3,0.3
	c-10.3,0.1-21.2,0.3-32,0.3c-11,0-21.9,0.1-33,0.3c-11.1,0.1-21.8,0.3-32,0.4l51,43v156.5l0,0l-51.1,43L3572.3,547.9L3572.3,547.9z
	 M3542.5,341h24c4.9,0,9.9,0.1,15.2,0.4c5.3,0.3,10.4,0.9,15.5,1.7c5,0.8,9.8,2.2,14.3,3.9c4.5,1.7,8.5,4,11.9,7
	c3.5,2.8,6.1,6.4,8.1,10.7c1.9,4.3,3,9.4,3,15.4c0,7.7-1.4,14.2-4.1,19.1c-2.7,4.9-6.8,8.8-12.5,11.6c-5.5,2.8-12.8,4.8-21.3,5.8
	s-18.6,1.5-30.1,1.5l0,0h-24L3542.5,341L3542.5,341z"/>
<polygon class="fil0" points="2277,547.9 2573.9,547.9 2573.9,467.9 2506.7,509.2 2409.7,509.2 2409.7,437.3 2508.6,437.3 2508.6,400.2 
	2409.7,400.2 2409.7,344.3 2506.7,344.3 2572.4,389.5 2575.6,305.6 2277,305.6 2323.1,348.6 2323.1,504.9 "/>
<polygon class="fil0" points="2702.6,547.9 2833.8,547.9 2833.8,433.6 2924.3,433.6 2924.3,547.9 3055.3,547.9 3009.3,504.9 3009.3,348.6 
	3052.2,305.6 2924.3,305.6 2924.3,398.1 2833.8,398.1 2833.8,305.6 2702.6,305.6 2748.8,348.3 2748.8,504.9 "/>
<path class="fil0" d="M2582.8,709.1l40.1-57.9H2363l47.6,55.9L2306.2,921l0,0l-65.3,57.1h206.5l-63.7-57.1l10.4-24h146.3l9.5,24l-48.2,57.1h232.8
	l-58.3-57.7L2582.8,709.1z M2415.1,849.4l56.1-128.6l50.8,128.6H2415.1z"/>
<polygon class="fil0" points="2133.8,703.5 2222.3,764.4 2226.7,651.2 1823.7,651.2 1886,709.1 1886,920.2 1823.7,978.1 2224.5,978.1 
	2224.5,870.3 2133.8,925.9 2002.8,925.9 2002.8,829 2136.5,829 2136.5,778.8 2002.8,778.8 2002.8,703.5 "/>
<path class="fil0" d="M3536,709.1v103.2c0,16.4-0.8,30.8-2.5,43.1c-1.5,12.3-4,22.8-7,31.7c-3,8.8-6.7,16.1-11.1,21.9
	c-4.4,5.8-9.4,10.3-15.1,13.7c-5.7,3.4-11.9,5.7-18.7,7c-6.8,1.3-14.2,1.9-21.9,1.9c-12.9,0-24.1-2.1-33.7-6.2
	c-9.7-4.3-17.7-11.1-24-20.5c-6.3-9.5-11.1-21.8-14.3-37c-3.2-15.1-4.8-33.7-4.8-55.5V709l56.4-57.7H3206l62.4,57.7l0,0v117.1
	c0,26.8,3,50.2,9.2,70.3s16.1,36.9,29.9,50.3s31.9,23.5,54.2,30.2c22.3,6.7,49.5,10.1,81.8,10.1c15.4,0,29.9-0.9,43.5-3
	c13.7-1.9,26.2-5.4,37.7-10.1c11.6-4.8,21.9-11.1,31.1-19.1c9.3-7.9,16.9-17.8,23.3-29.7c6.3-11.9,11.2-26.1,14.6-42.4
	c3.4-16.4,5.2-35.2,5.2-56.6v-117l56.8-57.9h-168L3536,709.1z"/>
<path class="fil0" d="M3047.5,867.8v57c-7.7,4.9-16.3,8.3-25.8,10.2c-9.4,1.8-20.6,2.8-33.7,2.8c-14.7,0-28.9-2.7-42.2-8
	c-13.4-5.3-25.2-13.3-35.2-23.6c-9.9-10.4-18.1-23.3-24-38.7c-6.1-15.5-9-33.3-9-53.4c0-21.2,2.7-39.5,8.1-54.8
	c5.5-15.4,12.9-28.1,22.2-38.2s20.3-17.4,32.6-22.3c12.4-4.8,25.5-7.4,39.3-7.4c12.5,0,24.8,1.5,36.6,4.8c12,3.1,23.2,7.7,33.8,13.8
	c10.6,6.1,20.3,13.5,29,22.3c8.9,8.8,16.4,19,22.6,30.3h56.4V651.4h-49.7l-17,22.2c-8.4-4.6-17.7-8.8-27.6-12.5
	c-9.9-3.9-20.4-7.1-31.3-9.8c-11-2.7-22.3-4.9-33.8-6.3c-11.6-1.5-23.2-2.3-34.7-2.3c-19.1,0-37.8,1.7-56.1,4.9
	c-18.2,3.2-35.3,8.3-51.6,15c-16.3,6.7-31.1,15-44.6,24.9c-13.4,9.9-25.2,21.4-35,34.6c-9.8,13.3-17.4,28.1-22.8,44.6
	s-8.1,34.8-8.1,54.4l0,0c0,20.9,2.7,39.3,8.1,55.6s13.2,30.4,23.1,42.8c9.9,12.3,21.7,22.7,35.5,31.2c13.7,8.5,28.9,15.6,45.4,21
	c16.6,5.4,34.3,9.3,53.1,11.6c18.8,2.5,38.2,3.6,58.2,3.6c11.6,0,23.2-0.5,34.6-1.7c11.4-1,22.4-3,33.3-5.4
	c10.8-2.5,21.2-5.8,31.1-9.8c9.9-4,19.2-8.9,28-14.7l12.1,22.8h52.5V804h-178L3047.5,867.8z"/>
<path class="fil0" d="M3266.9,551.5c12.5-2.1,24.4-5.3,35.9-9.7c11.5-4.4,22.2-9.9,32.2-16.8c10.1-6.7,18.8-14.8,26.2-24.3
	c7.5-9.4,13.4-20.4,17.7-32.6c4.3-12.3,6.4-26.1,6.4-41.4c0-15.5-2.1-29.4-6.2-41.9c-4.1-12.4-9.8-23.3-17-32.8
	c-7.4-9.4-15.9-17.5-25.8-24.3s-20.5-12.1-32-16.4c-11.5-4.3-23.5-7.4-36.1-9.3s-25.4-3-38.1-3c-11.6,0-23.5,1-35.6,3
	c-12.1,1.9-24,5-35.5,9.3c-11.5,4.3-22.3,9.7-32.4,16.4c-10.2,6.7-19.1,14.7-26.7,24.3c-7.6,9.5-13.5,20.4-18.1,32.8
	c-4.4,12.4-6.6,26.3-6.6,41.9l0,0c0,15.9,2.2,30.1,6.4,42.4c4.3,12.5,10.1,23.5,17.5,32.9c7.4,9.4,16.1,17.5,26.2,24.1
	c9.9,6.6,20.8,12,32.2,16.3s23.3,7.2,35.7,9.2c12.4,1.9,24.6,2.8,36.8,2.8C3242.1,554.5,3254.4,553.4,3266.9,551.5z M3206.4,512.8
	c-7.1-4.8-13.3-11.4-18.4-19.6c-5.2-8.4-9.2-18.2-12-29.4c-2.8-11.4-4.3-23.6-4.3-37l0,0c0-13.2,1.4-25.5,4.3-37s6.8-21.5,12-30.1
	c5.2-8.5,11.4-15.2,18.4-20.1s15-7.4,23.5-7.4c8.9,0,16.9,2.5,24.1,7.4c7.2,4.9,13.4,11.6,18.6,20.1c5.2,8.5,9,18.6,11.7,30.1
	c2.7,11.6,4.1,24,4.1,37c0,13-1.4,25.3-4.3,36.6c-3,11.4-7,21.2-12.1,29.4c-5.2,8.3-11.4,15-18.6,19.7c-7.1,4.9-15,7.2-23.5,7.2
	C3221.3,519.9,3213.6,517.5,3206.4,512.8z"/>
<polygon class="fil0" points="3969.9,703.5 4058.4,764.4 4062.8,651.2 3659.8,651.2 3722.1,709.1 3722.1,920.2 3659.8,978.1 4060.6,978.1 
	4060.6,870.3 3969.9,925.9 3839,925.9 3839,829 3972.6,829 3972.6,778.8 3839,778.8 3839,703.5 "/>
<polygon class="fil0" points="3972.1,305.6 4018.1,348.6 4018.1,427.3 3885.7,305.6 3760,305.6 3810.7,353.2 3810.7,504.9 3810.7,504.9 
	3766.1,547.9 3904.9,547.9 3855.4,504.9 3855.4,395.2 4018.1,547.9 4062.8,547.9 4062.8,348.6 4104.1,305.6 "/>
<path class="fil0" d="M909.6,982.7c-49.8-20.8-112-37-186.5-48.7c-128.1-18-365.5,4.8-364.9-67.1l25.2-310.4c-60.1,36.1-99.3,66.4-164.6,32.7
	c-8.6,28.8,6.8,48.9,25.5,67.8c-47.7,4.2-97.4-8.8-149-34.9c3.4,14.2-2.7,51.8,13.7,90c16,37.5-76.8,7.5-94-3.4
	c3.9,29.7,7,62.2,49.2,75.5c-6.7,25.4-37.9,29.9-64.1,21.9c15.6,48.8,42.8,40.8,81.9,76.5c-12.2,22.8-45.9,26.5-67.3,18.6
	c23.1,53.3,38.2,110.1,92,143.9h206.9h10.9h4.4h6.5h8.5h388.3c97.1,0,209,0,277.4,0C983.6,1018.1,950.1,998.5,909.6,982.7
	L909.6,982.7z"/>
<polygon class="fil0" points="1595.5,925.9 1595.5,709.1 1680,651.2 1416.3,651.2 1478.6,709.1 1478.6,920.2 1478.6,920.2 1416.3,978.1 
	1803.7,978.1 1803.7,845.2 1713,925.9 "/>
<path class="fil0" d="M1268.6,705.1c-54.4-42.2-62.5-94.1-81.3-120.3c-64.4-7.6-84.2-84-102.5-162.6c-11.9,19.7-18.1,45-19.5,74.8
	C962.1,333.6,875.1,267.4,803.5,293.6c73.9,30.3,108.3,80.3,110.6,146.4c-59.2-43.6-123.4-76.8-208.2-66.7
	c39.5,13.6,68.6,32,55.3,69.9c-26.2,3.3-51.8,7.1-76.6,11.4l0,0l20.7,257.6c4-0.8,8.2-1.5,12.4-2.3c1.1,34-2,32.6,10.8,52.4
	c32.4,49.9,152.8,57.9,216.1,131.3C964.8,810.2,754.4,791,835,693.9c24.9,3.9,59.2-7.9,77.4,4.5c-11.6,20.9-31.4,27.7-59.4,20.3
	c-0.1,38.9,46.1,48.8,90.3,93.7c32.7,33.2,20.9,74.9,38.1,96.4c15.5,19.4,76.6,15.6,137.7,29.7c65.1,15,130.6,46.9,153.5,36.5
	c-6.2-37,53.6-70.1,40.8-96.1c-17.3,14-134.8-5.5-153.8-10.3c-19.6-6.2-25.8-32.2-56.9-49.8c17.1,0.8,66.1,25.4,88,38.7
	c-18.4-99.7-179.2-60.3-156.2-164.2c68.1,12.1,117.3,98.5,179.5,99.9c-0.8,9.1-8.1,17.3-18.1,25.2c28.3,7.6,49.5-5.4,70.2-20.3
	c-1.1,9.8-11.9,17.9-23,25.9c25.6,2.9,44.2-6.5,60.3-20.5c0.8,7.8-0.2,16.4-1.8,25.3c32.9-11,43.6-32.2,53.7-53.7
	c0.8-17.3,1.1-23.7,1.9-41.1c-6.9-2.5-13.8-5.1-20.7-7.6C1307.5,725.4,1283.7,719.4,1268.6,705.1z M1165.7,685.8L1165.7,685.8
	c-15.1,4.8-23.4,7.8-39.4,7.9c-25,0.2-40-34-44.8-54.3c-1.2-5.2-2.1-10.4-2.6-15.7l-2.2-24.7l21.8,11.8c4.3,2.3,8.6,4.4,13,6.6
	c23.3,11.9,40.8,27.9,59.5,46.1l15.9,15.6L1165.7,685.8z"/>
</svg>
